/* XPM */
static char *result[] = {
/* columns rows colors chars-per-pixel */
"32 32 242 2 ",
"   c #C0D470",
".  c #BFD470",
"X  c #B9CF6E",
"o  c #B8CE6D",
"O  c #AEC769",
"+  c #ABC568",
"@  c #AFC76A",
"#  c #B2CA6B",
"$  c #B4CC6C",
"%  c #B6CD6D",
"&  c #B7CE6D",
"*  c #BACF6E",
"=  c #B7CD6D",
"-  c #B5CC6C",
";  c #B3CB6B",
":  c #B0C96B",
">  c #AAC567",
",  c #A4C166",
"<  c #AAC469",
"1  c #B6CD6C",
"2  c #B4CB6C",
"3  c #A5C167",
"4  c #ACC669",
"5  c #AEC869",
"6  c #B0C969",
"7  c #B4CB6B",
"8  c #B8CE6C",
"9  c #B8CF6C",
"0  c #B9D06D",
"q  c #BAD06D",
"w  c #BBD06D",
"e  c #B9CF6D",
"r  c #B8CF6D",
"t  c #BAD06E",
"y  c #BCD16E",
"u  c #BBD16D",
"i  c #B7CE6C",
"p  c #B6CD6B",
"a  c #B1CA6A",
"s  c #ACC668",
"d  c #AAC568",
"f  c #A2BF66",
"g  c #A0BD65",
"h  c #B3CB6C",
"j  c #A3BF66",
"k  c #B3CC6B",
"l  c #B4CD6A",
"z  c #B6CD6A",
"x  c #B7CD6B",
"c  c #BCD26E",
"v  c #BBD06E",
"b  c #BBD16E",
"n  c #BDD26F",
"m  c #BAD16D",
"M  c #BED36F",
"N  c #BED26F",
"B  c #B5CC6A",
"V  c #B3CC69",
"C  c #B2CC6A",
"Z  c #A8C367",
"A  c #9FBC65",
"S  c #A3C066",
"D  c #B3CB6A",
"F  c #BDD26E",
"G  c #BFD36F",
"H  c #B5CD6B",
"J  c #B1CA69",
"K  c #ABC667",
"L  c #9BBA64",
"P  c #A4C167",
"I  c #9DBB64",
"U  c #ADC768",
"Y  c #B2CB69",
"T  c #BFD370",
"R  c #B5CD6A",
"E  c #AFC968",
"W  c #A3C065",
"Q  c #9DBB65",
"!  c #A6C267",
"~  c #9FBD65",
"^  c #A1BE66",
"/  c #B4CC6A",
"(  c #B2CB6A",
")  c #A5C166",
"_  c #B3CC6A",
"`  c #A8C468",
"'  c #B7CF6C",
"]  c #ADC769",
"[  c #B5CC6B",
"{  c #ADC669",
"}  c #B9CF6C",
"|  c #C0CE6C",
" . c #BFCC6B",
".. c #BECC6B",
"X. c #BFD06D",
"o. c #ABC668",
"O. c #AEC86A",
"+. c #B6CE6B",
"@. c #C0D16E",
"#. c #C3AF58",
"$. c #C77734",
"%. c #C76120",
"&. c #B3591C",
"*. c #B27B35",
"=. c #B9B75E",
"-. c #C0D36F",
";. c #AEC76A",
":. c #C7A25B",
">. c #E6AA72",
",. c #EDCDB1",
"<. c #F2B585",
"1. c #EC680D",
"2. c #D14C04",
"3. c #B54A13",
"4. c #B8B15A",
"5. c #B0C96A",
"6. c #AAC569",
"7. c #B2CA6A",
"8. c #C3B45B",
"9. c #E7842E",
"0. c #F5CEA6",
"q. c #F2C094",
"w. c #F7A560",
"e. c #F16A0A",
"r. c #E75C05",
"t. c #CD4601",
"y. c #B85018",
"u. c #BFCB6B",
"i. c #A9C468",
"p. c #B1C96B",
"a. c #CC7F33",
"s. c #F58229",
"d. c #F6AF71",
"f. c #F89D52",
"g. c #F3CEB2",
"h. c #EE6A16",
"j. c #E35905",
"k. c #CB4100",
"l. c #BE3603",
"z. c #B2A250",
"x. c #C26B2B",
"c. c #F07317",
"v. c #D0A882",
"b. c #9FA19F",
"n. c #AA8D77",
"m. c #EF6B0D",
"M. c #E55B05",
"N. c #D54D02",
"B. c #852F02",
"V. c #89924E",
"C. c #585430",
"Z. c #582A08",
"A. c #9A948A",
"S. c #BCC5CA",
"D. c #787574",
"F. c #592903",
"G. c #612C05",
"H. c #5B3219",
"J. c #464B4F",
"K. c #8CA264",
"L. c #C0D471",
"P. c #7D926B",
"I. c #758085",
"U. c #7D8C95",
"Y. c #B4BEC6",
"T. c #666E73",
"R. c #6A6A6A",
"E. c #9EA2A5",
"W. c #97AAB8",
"Q. c #6C8899",
"!. c #98AF6A",
"~. c #B1CA6B",
"^. c #B4CC6B",
"/. c #ACC273",
"(. c #A2B3B1",
"). c #97A8B2",
"_. c #667A85",
"`. c #696F74",
"'. c #DAE2E7",
"]. c #B1C1CD",
"[. c #7894A7",
"{. c #5E7B70",
"}. c #B9CE6E",
"|. c #ABC569",
" X c #9AB06F",
".X c #93A7A6",
"XX c #C5D6E0",
"oX c #CDDDE8",
"OX c #B9C9D4",
"+X c #8097A6",
"@X c #607D76",
"#X c #AABF6A",
"$X c #A8BD6C",
"%X c #879C76",
"&X c #7B927A",
"*X c #6A8269",
"=X c #809967",
"-X c #AEC36B",
";X c #BDD170",
":X c #BCD070",
">X c #BBCF6F",
",X c #AFC86A",
"<X c #B6CE6C",
"1X c #9EBB64",
"2X c #B4CD6B",
"3X c #B0C968",
"4X c #A1BD65",
"5X c #A8C267",
"6X c #AFC869",
"7X c #B1C968",
"8X c #A1BE64",
"9X c #AAC468",
"0X c #B4CB6A",
"qX c #A9C466",
"wX c #9ABA62",
"eX c #A4C065",
"rX c #B1CB68",
"tX c #95B562",
"yX c #A7C367",
"uX c #A9C467",
"iX c #BDD16E",
"pX c #ABC768",
"aX c #9DBC64",
"sX c #B5CD6C",
"dX c #A1BE65",
"fX c #ADC869",
"gX c #B1C969",
"hX c #A7C366",
"jX c #93B461",
"kX c #9EBD65",
"lX c #B0CA69",
"zX c #BDD36F",
"xX c #B1CB69",
"cX c #A4C165",
"vX c #98B862",
"bX c #A6C266",
"nX c #A9C567",
"mX c #9CBB64",
"MX c #A6C268",
"NX c #A8C368",
"BX c #AFC96A",
"VX c #A7C368",
/* pixels */
"  . X o O + @ # $ % & o o o X * X X = % % - ; : @ > , < 1 o .   ",
". 2 3 4 5 6 7 8 9 0 q w e r t y y u r r q e 9 i p a s d f g h . ",
"& j s k l z x i 9 0 c q v q b v n q m q c M N 9 p B V C 5 Z A & ",
"- S 6 D k 0 y n F     M M F . n . n G M M     b c i l H J K L $ ",
"P I U Y 9 T     n     G G       M n   G G           F N R E W 3 ",
"Q ! J H N                       . T           n         N D > ~ ",
"^ U D 8 n                                     w .   G b . / ( ) ",
"! _ l G       G q                                   T n   e U j ",
"` / i y F       G                                         ' ] 3 ",
"d [ n                                                     n R d ",
"{ H } G T                   |  ...X.                      n [ o.",
"O.+.n F F               @.#.$.%.&.*.=.-.          c M     q H 4 ",
";.D e .     b y       @.:.>.,.<.1.2.3.4.          c M   q / 5.6.",
";.7.+.b     G T       8.9.0.q.w.e.r.t.y.u.              y l O i.",
"p.[ 8 T y T           a.s.d.f.g.h.j.k.l.z.              i _ a 4 ",
"; 9 y   n .           x.c.v.b.n.m.M.N.B.V.            . F H H ] ",
"$ } c                 C.Z.A.S.D.F.G.H.J.K.L.        M q . H H ] ",
"; 1 9 .               P.I.U.Y.T.R.E.W.Q.!.              G H H { ",
"~.^.9 M   M           /.(.)._.`.'.].[.{.}.      y q     q _ D |.",
"; 8 i b   w           T  X.XXXoXOX+X@X#X            G y T i s 3 ",
"# 9 b                   T $X%X&X*X=X-X              G y   n 6 ! ",
"~.i q                       ;X:X>XN                       q 6 P ",
",X<Xq                                                   T D Z 1X",
"d 5.2Xq     .                                     0 F   9 3XU 4X",
"5X6X/ y   n q                                     T .   w 7XE 8X",
"9XD 0Xb       T q                     .                 q 7XqXwX",
"eXU / F G       n     y y           M q         N   M   F rXW tX",
"yXuXY / iX  n M             N M               G 0 . q T H pXaXA ",
"sXdXfXD y n 9 N         w M N M   y N c c           . b gXhXjX# ",
"& kXZ lX_ D D H q q n u H i q zXy <Xi <Xp y n 9 y 8 _ xXE cXvX- ",
". # g bXhXZ fX] 6XH p ^.5.; i 9 9 ^.a ; <X<XH 6X5 Y nXbXcXmX: T ",
"  . & $ MXg ) ! NX;.,XBX;.: ; 7 7 # 5.: # 5.,X9XVX` f MX2 % T   "
};
