/* XPM */
static char *result[] = {
/* columns rows colors chars-per-pixel */
"32 32 194 2 ",
"   c #020203",
".  c #010609",
"X  c #00080F",
"o  c #0D0C0C",
"O  c #0B0A07",
"+  c #000C15",
"@  c #171819",
"#  c #140706",
"$  c #261815",
"%  c #242112",
"&  c #061927",
"*  c #032037",
"=  c #353825",
"-  c #2E2E31",
";  c #323232",
":  c #36373D",
">  c #252525",
",  c #4D1717",
"<  c #781D1B",
"1  c #4D2E1C",
"2  c #753522",
"3  c #6D2325",
"4  c #3C4738",
"5  c #544B2A",
"6  c #534C30",
"7  c #555936",
"8  c #4B4E30",
"9  c #79402C",
"0  c #714E32",
"q  c #615E33",
"w  c #6C5036",
"e  c #5A673A",
"r  c #63713C",
"t  c #062C48",
"y  c #022E51",
"u  c #043255",
"i  c #08304B",
"p  c #3A3A41",
"a  c #033D6B",
"s  c #023965",
"d  c #1B405D",
"f  c #31434F",
"g  c #2A454A",
"h  c #02457B",
"j  c #074470",
"k  c #0E4766",
"l  c #2D626D",
"z  c #28607F",
"x  c #405D4E",
"c  c #504E4D",
"v  c #755851",
"b  c #58674C",
"n  c #636C45",
"m  c #76685E",
"M  c #70794A",
"N  c #6B6A74",
"B  c #7D7B75",
"V  c #6F6C65",
"C  c #811F1D",
"Z  c #8C2928",
"A  c #982829",
"S  c #97393B",
"D  c #8D3639",
"F  c #A52D2C",
"G  c #B22F2E",
"H  c #AD3631",
"J  c #915036",
"K  c #804A36",
"L  c #AA4936",
"P  c #973E41",
"I  c #95555B",
"U  c #924947",
"Y  c #A04D50",
"T  c #A6595E",
"R  c #91634F",
"E  c #817F45",
"W  c #876B58",
"Q  c #9B6D5F",
"!  c #B46A4A",
"~  c #A85C62",
"^  c #8F6F70",
"/  c #AD6970",
"(  c #B36D74",
")  c #B0777E",
"_  c #AD737A",
"`  c #C06849",
"'  c #7B8647",
"]  c #7A8649",
"[  c #778D53",
"{  c #75916E",
"}  c #7EA47C",
"|  c #978548",
" . c #818D50",
".. c #8C9A57",
"X. c #909E54",
"o. c #838849",
"O. c #A38E4E",
"+. c #A48556",
"@. c #98A85B",
"#. c #B2A15C",
"$. c #A1B25E",
"%. c #949863",
"&. c #83817E",
"*. c #909A6C",
"=. c #9DBB64",
"-. c #94B562",
";. c #9CA872",
":. c #99B874",
">. c #A1AF68",
",. c #A2BD65",
"<. c #ACBB63",
"1. c #A3B369",
"2. c #A9B664",
"3. c #B7BD65",
"4. c #D38A68",
"5. c #A5C166",
"6. c #AAC367",
"7. c #A6C268",
"8. c #ACC669",
"9. c #AFC869",
"0. c #B3C267",
"q. c #B3C56B",
"w. c #B4CC6B",
"e. c #B9CE6D",
"r. c #BCD16E",
"t. c #AEC772",
"y. c #B1C973",
"u. c #B1C370",
"i. c #BFD470",
"p. c #C0D470",
"a. c #C3D57A",
"s. c #034B85",
"d. c #02518F",
"f. c #0C5284",
"g. c #055798",
"h. c #1C5A8D",
"j. c #1C608B",
"k. c #16609B",
"l. c #286C8C",
"z. c #316E83",
"x. c #347287",
"c. c #377489",
"v. c #2A7D90",
"b. c #3F719A",
"n. c #296390",
"m. c #025DA5",
"M. c #0B66A6",
"N. c #0167B8",
"B. c #167FAC",
"V. c #327CB6",
"C. c #557C97",
"Z. c #777B81",
"A. c #016DC3",
"S. c #006FC8",
"D. c #0170C9",
"F. c #0078D8",
"G. c #0377D3",
"H. c #1978C4",
"J. c #217EC8",
"K. c #A47C85",
"L. c #438088",
"P. c #6D928E",
"I. c #7C9696",
"U. c #7991A5",
"Y. c #5FA1AC",
"T. c #1584CE",
"R. c #3C87C1",
"E. c #3CBAD7",
"W. c #4F9AD6",
"Q. c #60AFED",
"!. c #B98E97",
"~. c #AD909B",
"^. c #B08B8D",
"/. c #9BB883",
"(. c #9998A4",
"). c #AF9EAA",
"_. c #B79BA7",
"`. c #98A3AE",
"'. c #BBA2AE",
"]. c #C0ACB9",
"[. c #BFD1A6",
"{. c #C2CBA4",
"}. c #ACA8C3",
"|. c #B7B6C7",
" X c #C5BFCE",
".X c #D0B4C0",
"XX c #C0C0CF",
"oX c #CCCBDB",
"OX c #C9C5D5",
"+X c #D4CAD9",
"@X c #D2D2E2",
"#X c #DDDDED",
"$X c #E5E5F5",
"%X c #E8E8F8",
/* pixels */
"p.i.e.e.9.8.9.w.w.e.e.e.e.e.e.e.e.y.e.e.e.e.q.q.9.6.5.6.w.e.i.i.",
"i.w.5.8.9.9.w.e.e.e.e.e.e.e.e.r.i.e.e.e.e.e.e.e.e.w.8.6.5.=.w.i.",
"e.,.8.w.w.w.e.w.e.e.e.e.1.1.1.1.1.:.1.1.q.p.p.e.w.9.9.w.9.6.=.e.",
"e.,.9.w.w.e.r.i.p.p.p.>.W B &.m v ^ &.m X.0.p.e.r.e.e.e.9.8.=.w.",
"5.=.8.w.e.i.i.i.e.p.#.R S ( !.U Z _ !.Y U +.3.e.i.i.i.i.w.9.5.5.",
"=.6.9.w.r.i.p.p.p.O.L G A T ( D < ~ ( S A H ! <.i.i.i.i.i.w.6.=.",
",.8.w.e.i.p.p.p.3.9 F F I ].+X!./ .X+XK.S G Z | i.i.i.e.i.w.w.5.",
"5.w.e.r.p.p.p.r.3.2 A A _.#X$XoXOX#X$XOXI F C | p.i.i.i.i.e.8.5.",
"6.w.e.r.r.p.p.p.3.2 Z Q  X$X$X@XoX#X%X@X~.S < | p.p.p.p.p.e.9.5.",
"6.w.r.i.p.p.p.p.0.2 A '.#X%X$X@XoX#X%X%XoXT < | p.p.p.p.p.r.e.8.",
"9.w.e.i.p.p.r.r.2.1 3 '.#X%X%X@XoX#X%X$XoXI , E i.p.p.p.i.r.9.9.",
"9.e.r.r.r.p.e.%.V $ , ).@X$X%X@XoX#X$X#X Xc # 8 ,.r.r.p.i.e.e.8.",
"9.w.e.i.i.i.0.X.= o $ (.XXoX@XoXOX@X@X|.N % . @ n <.r.p.r.w.9.8.",
"9.9.e.r.p.$.r = O . o ; c (.|.}.}.|.|.N @   . O n $.e.r.r.w.9.6.",
"9.w.e.i.i.9.' % o ; : o . - p : : p : @   > : c 8 8 X.e.e.w.9.8.",
"w.e.r.i.i.$.e J 9 ; d & .               . @ b >.@.X.5.r.r.e.w.9.",
"w.e.r.p.p.@.5 K ^.`.n.h a & X X X X X y a s g [ r.p.r.r.i.e.w.8.",
"q.e.e.p.p.e.X.7 Z.b.k.N.A.d.h h h h h m.g.h.U.m ' $.0.r.r.e.e.8.",
"w.w.e.r.p.p.e.@.b j.N.A.S.S.S.S.S.S.A.m.j.C.(.Q 0 5 ' 6.e.w.w.6.",
"w.e.e.p.p.e.i.a.{./.L.l.g.A.F.F.F.F.G.M.P.P.N ! 4.4.w ' q.e.8.5.",
"q.e.r.i.p.p.p.p.a.i.t.:.l.N.F.F.F.F.G.M.*.[.I.W ` ! 0 ' e.r.9.6.",
"9.e.r.i.p.p.p.p.p.p.p.t.z.N.A.A.A.A.N.f.[ [.w.' 5 5 o.q.r.e.9.5.",
"9.e.e.i.p.p.p.p.p.p.p.y.x.m.m.m.d.d.s.t [ p.p.w.<.0.e.r.r.w.6.=.",
"8.9.w.r.p.p.i.p.p.p.p.y.c.H.T.H.g.s.a & ' p.p.p.r.r.r.r.r.9.9.=.",
"6.9.w.r.i.i.e.i.r.p.p.y.c.W.Q.T.g.u u u b $.i.p.p.p.r.p.r.9.9.,.",
"8.9.w.e.i.i.i.i.r.p.p.9.c.V.R.k.h * y j x $.i.p.p.p.p.p.r.9.6.=.",
"5.9.w.r.i.i.i.p.r.p.e.[ v.B.M.s i 4 7 e @.e.p.p.r.p.r.p.r.9.5.-.",
"5.6.w.w.r.i.i.i.p.p.6.4 Y.E.T.t ; { ;.8.i.i.i.r.r.r.r.p.w.9.=.=.",
"w.,.9.w.r.i.e.r.i.i.e.] V l j f V { *.3.r.i.i.i.i.i.i.r.9.6.-.9.",
"e.=.6.9.w.w.w.w.r.e.r.9.] r n ..;.;.3.y.w.i.i.e.r.e.w.9.9.6.=.w.",
"i.w.,.5.5.5.8.9.9.w.w.w.w.w.e.e.e.e.y.y.e.w.w.9.9.w.8.5.6.=.9.r.",
"i.i.e.w.6.,.5.5.7.9.w.9.9.9.w.w.w.y.9.9.w.9.9.6.6.5.5.5.9.e.r.p."
};
