/* XPM */
static char *result[] = {
/* columns rows colors chars-per-pixel */
"32 32 194 2 ",
"   c #010102",
".  c #090B0B",
"X  c #171A19",
"o  c #170808",
"O  c #2A0F0C",
"+  c #1F271B",
"@  c #20211E",
"#  c #001F38",
"$  c #03233C",
"%  c #0E2C3C",
"&  c #222122",
"*  c #2E3121",
"=  c #333627",
"-  c #353438",
";  c #5E1E17",
":  c #7A1D1B",
">  c #641816",
",  c #79241D",
"<  c #573639",
"1  c #6E393D",
"2  c #3F4527",
"3  c #474A28",
"4  c #5D4D2F",
"5  c #4B532C",
"6  c #575C34",
"7  c #494D3B",
"8  c #61432D",
"9  c #605531",
"0  c #745734",
"q  c #604A37",
"w  c #5E6637",
"e  c #65733D",
"r  c #6D6638",
"t  c #012440",
"y  c #062C46",
"u  c #01345B",
"i  c #113C55",
"p  c #073C65",
"a  c #013F70",
"s  c #174E5A",
"d  c #3B5C54",
"f  c #375C79",
"g  c #475C45",
"h  c #755A58",
"j  c #5B6648",
"k  c #5A6052",
"l  c #6E6A40",
"z  c #697843",
"x  c #727D43",
"c  c #707849",
"v  c #626455",
"b  c #77675B",
"n  c #767757",
"m  c #706E4C",
"M  c #4E636D",
"N  c #797F60",
"B  c #7E7D73",
"V  c #74747D",
"C  c #862525",
"Z  c #972C2D",
"A  c #962E30",
"S  c #8B3031",
"D  c #943335",
"F  c #8E3529",
"G  c #A52B2B",
"H  c #B22F2E",
"J  c #B0302F",
"K  c #AA3933",
"L  c #884B32",
"P  c #8E543B",
"I  c #AB523C",
"U  c #806E3C",
"Y  c #8E703E",
"T  c #9B3F42",
"R  c #934345",
"E  c #9D4448",
"W  c #855A48",
"Q  c #9C4F52",
"!  c #985157",
"~  c #A6565B",
"^  c #927C44",
"/  c #AE6F5C",
"(  c #AA6B4A",
")  c #945E64",
"_  c #A75D63",
"`  c #806E6B",
"'  c #9C6269",
"]  c #857D75",
"[  c #967475",
"{  c #AD6267",
"}  c #C06546",
"|  c #7A8647",
" . c #528475",
".. c #789F77",
"X. c #748D6A",
"o. c #7CA378",
"O. c #85924F",
"+. c #99934F",
"@. c #8B9951",
"#. c #9F9550",
"$. c #848F4C",
"%. c #A59958",
"&. c #AA894E",
"*. c #93A256",
"=. c #96A659",
"-. c #9BAD5B",
";. c #A2B35F",
":. c #999C63",
">. c #9DAA68",
",. c #9DBB64",
"<. c #94B562",
"1. c #95B575",
"2. c #9AB875",
"3. c #8AA76C",
"4. c #A2BD65",
"5. c #A9BB63",
"6. c #A5B669",
"7. c #A7B86A",
"8. c #AABB6B",
"9. c #A4B560",
"0. c #A7B669",
"q. c #EA8862",
"w. c #EB9772",
"e. c #A5C166",
"r. c #A9C467",
"t. c #A6C268",
"y. c #ACC669",
"u. c #AFC869",
"i. c #B3C66A",
"p. c #B4CC6B",
"a. c #B9CE6D",
"s. c #B7C368",
"d. c #BCD16E",
"f. c #AAC473",
"g. c #BFD370",
"h. c #C0D470",
"j. c #0B5286",
"k. c #03508E",
"l. c #185B86",
"z. c #045392",
"x. c #095997",
"c. c #034D88",
"v. c #17658F",
"b. c #246A97",
"n. c #2E708C",
"m. c #025BA3",
"M. c #025FA9",
"N. c #0362AD",
"B. c #1768A5",
"V. c #0264B2",
"C. c #036BBC",
"Z. c #0968B5",
"A. c #117EB1",
"S. c #2A72A9",
"D. c #297BBD",
"F. c #476C8C",
"G. c #76728A",
"H. c #006CC3",
"J. c #0673CB",
"K. c #0076D4",
"L. c #0F81B9",
"P. c #1880D3",
"I. c #2F84C8",
"U. c #2487D6",
"Y. c #3590D9",
"T. c #479ADC",
"R. c #51A0DF",
"E. c #449EE4",
"W. c #54A7E8",
"Q. c #80808A",
"!. c #878794",
"~. c #B38991",
"^. c #B9959F",
"/. c #9898A4",
"(. c #8D9FB1",
"). c #B697A0",
"_. c #9DA6B1",
"`. c #BDA8B5",
"'. c #C7A9B5",
"]. c #C2B0BD",
"[. c #BBB8C7",
"{. c #BFBCD4",
"}. c #C7BBCA",
"|. c #C6B8C6",
" X c #D1B7C4",
".X c #CBC0CF",
"XX c #CDCDDD",
"oX c #C8C5D5",
"OX c #D1CFDF",
"+X c #DCDBEB",
"@X c #D6D4E3",
"#X c #E0DFEF",
"$X c #E3E3F3",
"%X c #E8E8F8",
/* pixels */
"h.g.g.a.r.r.u.p.a.a.p.a.a.a.a.a.a.a.a.p.p.p.p.u.u.r.e.r.p.a.g.g.",
"g.p.t.r.u.u.p.a.a.a.a.d.a.p.a.g.d.a.a.a.d.a.a.a.p.p.u.r.e.,.p.g.",
"a.e.r.p.p.a.a.a.a.a.d.p.7.6.0.6.0.>.2.0.a.g.h.s.a.p.p.p.y.t.,.a.",
"a.4.u.p.p.a.a.g.g.h.d.6.n B ] b h V 3.b #.p.h.h.g.p.p.p.u.u.,.p.",
"e.,.y.p.a.g.g.g.d.a.%.W R ~.).R D ~.^.Q W %.h.h.h.h.d.d.a.u.e.e.",
",.r.u.p.d.g.h.g.s.&.I J A ~ { C : ~ { D G K ( 5.g.h.g.g.g.u.r.4.",
"4.y.p.a.d.h.h.h.%.F J G ! `. X{ ~ '. X' A H Z ^ d.h.g.d.g.p.u.e.",
"e.p.a.d.h.h.h.g.#., G R `.#X$X.X|.#X$X}.~ G C W d.h.g.d.g.a.u.e.",
"r.p.a.d.g.g.h.h.#., C ) oX$X$XXXXX#X%X@X[ A C Y d.h.h.h.h.a.y.e.",
"r.p.d.g.g.g.h.h.%., E ].#X%X$XXXXX#X%X$XoX~ : ^ h.h.h.h.h.d.a.r.",
"u.p.a.g.g.g.g.g.+.; R }.$X%X$XOXXX#X%X%XOX_ > r d.h.h.h.g.d.a.r.",
"u.a.d.g.g.g.i.>.c O 1 |.#X%X$XXXXX#X%X$XXXh O 6 >.i.d.h.g.a.a.r.",
"u.u.a.g.g.g.4.n = o < [.XX@X+XXXoX@X+XXX/.- . @ v >.d.d.d.p.u.y.",
"u.p.a.d.g.;.| w .   & V !.}.oX{.{.oXoX/.- .     2 | =.a.d.p.u.r.",
"u.p.a.d.d.@.5 5 = @ X . & G.!.G.G.!.G.-   o @ * 3 3 | y.a.p.u.u.",
"p.a.d.g.d.g.h.h.8.X.j o                   7 X.>.d.d.g.d.d.p.p.u.",
"p.a.d.g.h.h.h.h.a.5.z y t .           # t g :.h.h.h.h.a.h.p.a.y.",
"p.p.d.g.h.h.h.d.5.j i m.V.p $ $ # $ u M.N.p g =.h.h.h.h.h.a.a.y.",
"u.a.a.d.h.h.d.;.n M j.N.C.H.N.m.m.M.H.H.N.z.f v #.a.h.h.d.u.u.y.",
"p.a.a.d.d.d.;.r h _.F.p z.J.K.K.K.K.K.x.p n.(.:.6 *.a.a.h.a.y.e.",
"u.a.d.g.h.-.r L ( [ v g j.N.Z.K.K.H.N.z.d k ` / I 0 @.a.h.d.u.r.",
"u.a.d.g.h.x 1 q.} 8 x 3.l.j.N.J.K.V.z.j...O.4 Q q.L 6 ;.h.a.u.e.",
"u.p.d.g.a.x q w.I 3 5.2.v.N.V.Z.V.V.M.x.3.i.w W w.L 6 ;.h.p.r.,.",
"r.p.p.a.h.=.l W 0 | a.2.b.I.I.Z.N.D.Y.B.o.d.@.l 0 0 $.i.a.u.y.4.",
"r.u.p.d.g.d.-.x O.a.g.1.S.R.Y.Z.N.Y.W.S.o.g.d.=.e *.a.h.d.u.u.;.",
"r.p.p.d.g.g.g.d.a.g.r. .b.T.P.z.c.J.E.A.f 1.g.d.h.h.h.h.a.u.y.,.",
"e.u.p.d.g.h.g.h.g.g.1.v.x.U.J.z.c.C.U.B.v...g.g.h.h.h.h.d.p.e.<.",
"r.r.u.p.d.h.d.g.g.g.1.v.L.Z.a % % u V.L.v...g.d.a.h.a.h.p.u.,.,.",
"p.e.u.p.d.d.a.g.g.g.f.X.s y X w z + $ s  .e.d.g.g.g.g.d.u.r.<.p.",
"p.,.r.u.p.p.p.p.d.a.g.r.| e | 5.p.| e e -.d.d.a.d.a.p.u.u.e.<.p.",
"g.p.e.e.r.r.u.u.u.p.p.p.r.u.a.a.a.p.u.p.p.a.a.u.u.p.e.r.e.,.p.d.",
"g.g.p.p.e.,.e.e.f.u.u.u.u.u.p.p.p.p.u.u.p.u.u.e.r.r.e.e.p.a.d.h."
};
