/* XPM */
static char *result[] = {
/* columns rows colors chars-per-pixel */
"32 32 200 2 ",
"   c #020203",
".  c #00060A",
"X  c #090B0C",
"o  c #0A0604",
"O  c #161718",
"+  c #140606",
"@  c #2C0F0F",
"#  c #262819",
"$  c #001F36",
"%  c #01182B",
"&  c #201F22",
"*  c #212224",
"=  c #2E2E32",
"-  c #373836",
";  c #791A19",
":  c #593923",
">  c #4A3129",
",  c #672021",
"<  c #541413",
"1  c #3E4637",
"2  c #3B4529",
"3  c #4A4F2B",
"4  c #4B4628",
"5  c #50502C",
"6  c #454736",
"7  c #495431",
"8  c #5A5633",
"9  c #7B4329",
"0  c #704D2F",
"q  c #7B4B36",
"w  c #5F6C3A",
"e  c #646839",
"r  c #70703D",
"t  c #022846",
"y  c #002B4D",
"u  c #112F47",
"i  c #023157",
"p  c #153E5A",
"a  c #1C3C44",
"s  c #3C3B44",
"d  c #22394C",
"f  c #023D6B",
"g  c #023B67",
"h  c #403F48",
"j  c #284849",
"k  c #024276",
"l  c #05477C",
"z  c #105771",
"x  c #194C64",
"c  c #375863",
"v  c #3D6D6F",
"b  c #434349",
"n  c #4D4F50",
"m  c #595E4B",
"M  c #645958",
"N  c #735951",
"B  c #556240",
"V  c #6C7B46",
"C  c #717E43",
"Z  c #707B51",
"A  c #676E4F",
"S  c #547579",
"D  c #796A62",
"F  c #7C746E",
"G  c #6D7173",
"H  c #777877",
"J  c #87201E",
"K  c #882425",
"L  c #9F2929",
"P  c #952827",
"I  c #953A3B",
"U  c #8F383B",
"Y  c #A72D2C",
"T  c #B22F2F",
"R  c #AE3532",
"E  c #844E2F",
"W  c #8D4933",
"Q  c #A95239",
"!  c #954549",
"~  c #9B565A",
"^  c #8B4741",
"/  c #A25F41",
"(  c #A25256",
")  c #8F7440",
"_  c #907741",
"`  c #956956",
"'  c #84785A",
"]  c #BF6A4D",
"[  c #A56F4D",
"{  c #9E5E65",
"}  c #875C63",
"|  c #A85E64",
" . c #9A6269",
".. c #A76B67",
"X. c #B36B72",
"o. c #AD737A",
"O. c #CA704F",
"+. c #DA7B59",
"@. c #76824A",
"#. c #4E806D",
"$. c #739C79",
"%. c #63927B",
"&. c #808D4A",
"*. c #8A9857",
"=. c #909C5F",
"-. c #A48F56",
";. c #96A558",
":. c #94A557",
">. c #9FB15E",
",. c #A2B25E",
"<. c #AEB15E",
"1. c #899362",
"2. c #929160",
"3. c #83857B",
"4. c #97A565",
"5. c #9DBB64",
"6. c #94B562",
"7. c #9BA773",
"8. c #A2BD65",
"9. c #ABBD64",
"0. c #A6B86A",
"q. c #ABBB6A",
"w. c #A5B568",
"e. c #A6B472",
"r. c #B8B463",
"t. c #D1906E",
"y. c #A5C166",
"u. c #A9C467",
"i. c #A6C268",
"p. c #ACC669",
"a. c #AFC869",
"s. c #B4C66A",
"d. c #B9C669",
"f. c #B4CC6B",
"g. c #B9CF6D",
"h. c #B2C165",
"j. c #BCD16E",
"k. c #B6CC74",
"l. c #BFD370",
"z. c #BDD17C",
"x. c #A6C173",
"c. c #C0D470",
"v. c #C3D679",
"b. c #034E8A",
"n. c #05518B",
"m. c #045391",
"M. c #065A9B",
"N. c #126298",
"B. c #226A8F",
"V. c #397685",
"C. c #2A6794",
"Z. c #025DA5",
"A. c #035FA8",
"S. c #0462AB",
"D. c #0169BC",
"F. c #0167B7",
"G. c #1171A7",
"H. c #3079B2",
"J. c #2871AA",
"K. c #537490",
"L. c #777781",
"P. c #016EC5",
"I. c #0072CB",
"U. c #0077D6",
"Y. c #0078D8",
"T. c #137FD6",
"R. c #A47F88",
"E. c #658C8F",
"W. c #7BA182",
"Q. c #5F83A1",
"!. c #7F91A4",
"~. c #1C84D7",
"^. c #1AA2D7",
"/. c #4494D4",
"(. c #67B3F0",
"). c #5AC8DA",
"_. c #908D92",
"`. c #B78C96",
"'. c #AD939E",
"]. c #A48D8B",
"[. c #9999A5",
"{. c #B996A1",
"}. c #9FB6AD",
"|. c #A5A2AA",
" X c #B9A1AD",
".X c #CDACB7",
"XX c #B6C893",
"oX c #C2CF90",
"OX c #BDBCCD",
"+X c #B4B1CA",
"@X c #ADA9C6",
"#X c #C2B4C2",
"$X c #CBCBDB",
"%X c #C6C3D3",
"&X c #D2CEDD",
"*X c #D9CDDB",
"=X c #D3D3E3",
"-X c #DDDCEC",
";X c #E6E6F6",
":X c #E8E8F8",
/* pixels */
"c.l.g.g.a.p.a.f.f.g.f.g.g.g.g.g.g.g.d.k.g.f.f.a.a.p.y.p.f.g.l.l.",
"l.f.y.p.p.a.f.g.g.g.j.g.g.g.d.c.c.g.g.g.g.g.g.g.g.a.p.u.y.5.f.l.",
"g.8.p.f.f.f.g.g.j.g.j.f.i.0.0.e.0.0.0.0.s.c.c.g.f.f.f.f.a.i.5.g.",
"g.8.a.f.f.g.g.l.j.l.j.9.' F $.D N F 3.D 2.s.c.c.j.g.f.f.a.p.5.f.",
"y.5.p.f.g.l.l.l.j.c.r.` U X.{.( K o.{.( ^ -.r.v.c.c.j.j.f.a.y.y.",
"5.u.a.f.j.l.c.l.c.-.Q T P ( X.U ; ( X.I L R / <.c.c.c.c.j.f.p.5.",
"8.p.f.g.l.c.c.c.d.E Y Y !  X*X`.| .X&XR.U T K _ j.c.c.j.j.f.f.y.",
"y.f.g.j.c.c.c.j.h.9 P P '.-X;X=X#X;X:X&X{ Y J ) c.c.j.j.c.g.p.y.",
"u.f.g.j.j.c.c.c.d.9 K ~ #X;X;X=X$X-X:X-X'.I J ) c.c.c.c.c.g.p.y.",
"u.f.j.l.c.c.c.c.d.9 K {.-X:X;X=X$X-X:X:X&X..; ) j.c.c.c.c.j.f.p.",
"a.f.g.l.c.c.c.c.s.: , {.-X:X:X=X$X-X:X:X=X{ < r g.c.c.c.c.j.f.p.",
"a.g.j.j.j.c.c.g.1.# @ _.&X;X:X=X$X-X:X-X$X} @ 6 1.w.j.c.c.j.f.p.",
"p.f.g.l.l.l.g.1.- X   s |.=X=X$X%X=X=X$X%XM + O A w.g.c.j.f.f.u.",
"p.f.g.j.l.l.g.;.#       - [.OX+X@X+X#XL.b * o   # 3 &.j.j.f.p.y.",
"a.f.g.l.j.f.w 3 6 1 - O . = b s s s b &   * - O o 4 ;.j.j.f.f.p.",
"f.g.j.l.j.j.;.*.4.=.1 X               .   u d > E 0 @.g.j.f.f.p.",
"f.j.j.c.c.c.c.c.5.w p k g % . . . . . t k l Q.|.[ : e a.c.f.f.a.",
"f.f.g.c.c.c.p.4.8 _.K.n.S.n.k k k k k Z.P.S.C.Q.M r 9.j.c.f.f.a.",
"a.g.g.j.j.,.w 4 q ]._.C.M.F.P.P.P.P.P.I.P.D.Z.c Z w.c.c.j.f.f.a.",
"f.g.g.j.d.3 [ t.+.` K.W.V.F.Y.Y.Y.Y.Y.S.N.B.E.XXoXl.j.j.j.f.a.8.",
"a.g.j.l.f.5 / O.] G }.XXV.D.U.U.Y.Y.I.A.%.q.k.v.c.c.c.j.c.j.a.y.",
"a.g.j.l.c.,.e : 5 4.z.k.v S.P.P.P.P.P.Z.$.v.c.c.c.c.c.c.c.j.a.y.",
"p.g.g.l.c.j.h.,.9.g.c.f.1 g n.m.Z.Z.Z.m.$.j.c.c.c.c.c.c.j.f.u.5.",
"p.a.f.j.c.c.c.c.c.c.c.s.2 t l b.F.T.~.G.$.l.c.c.c.j.j.j.j.a.a.8.",
"y.a.f.j.j.j.j.j.l.c.j.*.j y i k F./.(.H.$.l.l.l.c.j.c.c.j.a.a.y.",
"p.f.f.j.c.c.c.c.j.c.f.V x k $ i n.H./.B.$.l.l.l.c.c.c.c.j.a.u.>.",
"y.u.f.j.c.c.c.c.j.c.j.s.V 7 7 a i n.G.G.#.>.l.l.c.c.j.c.j.a.y.>.",
"y.u.f.f.j.c.j.j.c.c.l.l.j.e.7.m O n.^.).c @.l.l.j.j.j.j.f.u.5.5.",
"f.8.p.f.j.j.g.j.j.c.c.l.k.e.$.H n p z S A :.l.l.l.l.l.j.f.y.6.f.",
"g.5.u.a.g.f.f.f.j.j.j.j.g.f.e.7.7.@.w w 6.j.j.f.j.g.f.a.a.y.6.f.",
"l.f.5.u.y.u.a.p.a.f.f.f.s.f.g.g.g.f.f.f.g.f.f.a.a.a.u.y.y.5.f.l.",
"l.l.g.f.u.5.y.u.i.s.p.f.p.a.f.f.f.f.a.a.f.a.a.u.u.u.y.u.f.f.l.l."
};
