/* XPM */
static char *result[] = {
/* columns rows colors chars-per-pixel */
"32 32 202 2 ",
"   c #0A0908",
".  c #120B0B",
"X  c #110E10",
"o  c #171513",
"O  c #380A0A",
"+  c #321B18",
"@  c #26281D",
"#  c #3E201A",
"$  c #1F2F36",
"%  c #0F2433",
"&  c #3B362F",
"*  c #430C0B",
"=  c #691514",
"-  c #791919",
";  c #75201B",
":  c #4A392C",
">  c #743F2C",
",  c #3B4B28",
"<  c #444728",
"1  c #544B2E",
"2  c #52522C",
"3  c #575634",
"4  c #794429",
"5  c #6E4E30",
"6  c #78483A",
"7  c #66583A",
"8  c #765833",
"9  c #676A3A",
"0  c #6A753E",
"q  c #313C65",
"w  c #1A505E",
"e  c #21504F",
"r  c #334758",
"t  c #3E5A5B",
"y  c #146F59",
"u  c #115D79",
"i  c #1C4C6E",
"p  c #204E76",
"a  c #2C4F70",
"s  c #157667",
"d  c #136A6B",
"f  c #45565B",
"g  c #585254",
"h  c #4F5A49",
"j  c #576657",
"k  c #776644",
"l  c #6F7A40",
"z  c #727C42",
"x  c #666B52",
"c  c #767E57",
"v  c #6C7453",
"b  c #525160",
"n  c #4D5264",
"m  c #52757B",
"M  c #7A7473",
"N  c #63737D",
"B  c #6E5150",
"V  c #831D1E",
"C  c #811F20",
"Z  c #992625",
"A  c #9A3A34",
"S  c #8B2D29",
"D  c #B32F2F",
"F  c #A9393A",
"G  c #B93131",
"H  c #B43831",
"J  c #A3292A",
"K  c #864B36",
"L  c #944F38",
"P  c #855935",
"I  c #945138",
"U  c #A84939",
"Y  c #B8503F",
"T  c #A1573D",
"R  c #A8643F",
"E  c #A53D43",
"W  c #8E5A42",
"Q  c #AA494F",
"!  c #A84245",
"~  c #AD4D51",
"^  c #AF5544",
"/  c #927140",
"(  c #846657",
")  c #966B55",
"_  c #AB6A45",
"`  c #B46F51",
"'  c #B0754E",
"]  c #AB5E64",
"[  c #8D6B63",
"{  c #B46369",
"}  c #AC7667",
"|  c #A3796E",
" . c #BD7B66",
".. c #B36D75",
"X. c #AF6D79",
"o. c #D77554",
"O. c #E77D5A",
"+. c #1F8737",
"@. c #269B46",
"#. c #7A8949",
"$. c #79864A",
"%. c #5D8D7D",
"&. c #768068",
"*. c #828D56",
"=. c #8B9750",
"-. c #8B9B55",
";. c #869451",
":. c #8B8F4D",
">. c #B0884F",
",. c #AF8F51",
"<. c #B19C57",
"1. c #99A95A",
"2. c #8EA15C",
"3. c #A2B35F",
"4. c #8A9563",
"5. c #B78365",
"6. c #9AAA63",
"7. c #9DBB64",
"8. c #94B562",
"9. c #A3BC64",
"0. c #A8B864",
"q. c #C19659",
"w. c #C08A55",
"e. c #E2825D",
"r. c #C1A05D",
"t. c #D7926F",
"y. c #D38B6C",
"u. c #ED8762",
"i. c #EC9B75",
"p. c #E29370",
"a. c #E5906B",
"s. c #F1A37C",
"d. c #A5C166",
"f. c #AAC367",
"g. c #A6C268",
"h. c #ACC669",
"j. c #AFC869",
"k. c #B2C66A",
"l. c #B9C569",
"z. c #B4CC6B",
"x. c #B9CE6D",
"c. c #B2C367",
"v. c #BCD16E",
"b. c #B5CC71",
"n. c #BFD370",
"m. c #C0CB6D",
"M. c #C0D06F",
"N. c #C0D470",
"B. c #034C85",
"V. c #195285",
"C. c #05599A",
"Z. c #1E4B83",
"A. c #215C8C",
"S. c #285982",
"D. c #2C678B",
"F. c #035EA5",
"G. c #0361AC",
"H. c #0763A9",
"J. c #1B69A8",
"K. c #0567B4",
"L. c #1C71B4",
"P. c #2377BA",
"I. c #216CA6",
"U. c #457C82",
"Y. c #53778D",
"T. c #737F8D",
"R. c #6B7F94",
"E. c #0D78CE",
"W. c #AC7688",
"Q. c #3B83BB",
"!. c #498084",
"~. c #7B8B98",
"^. c #4287BF",
"/. c #7190AC",
"(. c #1782D7",
"). c #2B8FE0",
"_. c #3394E2",
"`. c #408DC8",
"'. c #71A5CF",
"]. c #9D9798",
"[. c #848280",
"{. c #B98E98",
"}. c #B98D97",
"|. c #AD9193",
" X c #BAA6BA",
".X c #AE98B4",
"XX c #D79C8B",
"oX c #D1A094",
"OX c #DEB19C",
"+X c #F5B68E",
"@X c #EEB192",
"#X c #C1ACB9",
"$X c #E9C9B8",
"%X c #BCB2C9",
"&X c #C6B4C2",
"*X c #D0C0CE",
"=X c #CACADB",
"-X c #C7C6D7",
";X c #D4D4E4",
":X c #DBDAEA",
">X c #D8D7E7",
",X c #E4E4F4",
/* pixels */
"N.n.x.x.h.h.j.z.z.z.z.v.z.v.x.v.v.x.z.z.x.z.z.j.j.h.d.d.z.z.n.n.",
"n.z.g.h.j.j.z.x.x.x.v.v.v.z.x.x.l.x.v.v.v.x.x.z.x.j.j.j.d.d.z.n.",
"x.d.h.j.z.z.x.z.x.v.v.v.v.m.l.,.R <.l.x.n.n.N.b.z.z.j.z.h.g.7.x.",
"x.9.j.z.j.x.n.n.v.N.N.m.,.` R U J U _ _ q.M.N.v.n.x.z.z.j.h.7.z.",
"d.7.j.z.x.n.n.n.M.N.m.w.Y ..}.}.{.{.{.{ Y q.m.N.N.N.v.v.z.j.d.d.",
"7.d.j.z.n.n.N.n.m.m.' U X.*X:X;X;X:X,X#X{ U >.l.N.N.N.n.n.z.d.d.",
"d.j.z.v.v.N.N.N.m./ L X.&X:X,X,X:X,X,X>X#X{ A :.v.N.n.v.n.z.j.d.",
"d.j.z.n.N.N.N.n.0.> S {.=X:X,X:X>X,X,X>X-X5.; P v.N.n.n.N.z.j.d.",
"f.z.x.v.v.N.N.N.l.4 S W.%X;X:X;X=X>X:X=X%XX.; P v.N.N.N.N.v.h.d.",
"f.z.v.n.N.N.N.N.l.4 V E W. X&X X.X X&X XW.F C P v.N.N.N.N.n.z.h.",
"j.z.x.n.N.N.N.N.c.4 - J ! Q Q Q E Q ~ Q J Z - 8 v.N.N.N.v.v.z.h.",
"j.x.v.v.v.N.N.k.0.: * = Z D G D G G G D C = O 1 0.l.v.N.N.v.z.h.",
"j.z.v.v.n.n.z.4.h o . O ; A E F G F ! A = O   @ x 6.v.N.v.z.j.h.",
"j.z.z.v.n.v.1.;.@   o * _ oX|. .O.X.|.XXL +     , :.3.v.v.z.j.h.",
"j.z.x.n.v.j.9 < @ o o L i.$XM ) +X( [.$Xa.> X o @ < 0 j.z.z.j.h.",
"z.z.v.n.v.v.f.9.c x & K p.OX( } +X( | @Xa.6 & x *.0.j.v.n.z.z.h.",
"z.x.v.N.N.N.N.N.N.0.x : L o.u.s.+Xi.u.o.6 h v b.n.N.n.x.n.z.x.j.",
"z.z.x.N.N.N.N.N.n.*.f r g [ 5.t.t.y.5.( g r f 6.N.N.N.N.n.z.z.h.",
"z.z.x.v.N.v.M.x.2.x A.A.[.Y.g B B B n R.~.V.D.M 6.x.N.N.x.z.z.h.",
"z.x.z.v.N.v.x.=.1 ].R.i a S.u u d u S.a p A./.].7 1.x.n.v.x.h.d.",
"j.x.x.n.N.x.:.5 Q | M h i G.H.s @.d G.G.D.m [ | I 8 =.c.n.v.j.d.",
"z.x.v.n.N.0.< ` e.6 3 2.m K.H.y +.d F.G.%.;.3 I u.I 2 0.n.v.j.d.",
"j.x.v.n.N.0.< 5.e.: :.k.U.F.C.e , w F.C.%.x.z 7 i.I 2 3.v.z.h.7.",
"h.j.z.x.v.f.$.W P 8 8.x.U.I.L.V.a V.J.J.%.b.1.k P 8 #.j.v.j.h.9.",
"d.j.z.v.n.n.z.#.0 9.N.z.U.`.).K.G.E._.Q.%.v.N.8.l =.x.N.x.k.j.d.",
"h.z.z.v.n.n.n.v.v.N.N.k.!.P.E.G.B.K.(.P.%.x.N.n.v.v.N.N.v.k.d.7.",
"d.j.z.v.n.n.n.n.v.N.z.$.Y.L.G.C.u C.H.P.m ;.v.n.v.N.n.N.v.j.d.8.",
"d.f.j.z.v.n.n.n.N.N.k.3 /.'.Q.i % Z.`.'.N 9 x.n.x.N.x.n.z.j.7.7.",
"j.d.j.z.v.v.x.v.v.N.v.2.x t r $   $ r t v 1.v.v.n.n.n.v.j.f.8.j.",
"x.7.f.j.z.z.z.z.v.v.v.z.-.#.#.#.$.$.$.$.1.v.v.x.v.x.z.j.j.d.7.z.",
"N.j.7.f.d.f.j.j.j.z.z.z.j.j.z.z.x.j.h.j.z.z.z.j.j.z.f.d.d.d.j.v.",
"N.N.x.z.d.9.d.d.d.j.k.j.j.k.j.z.z.b.j.j.z.j.z.f.d.f.d.d.j.z.n.N."
};
