/* XPM */
static char *result[] = {
/* columns rows colors chars-per-pixel */
"32 32 198 2 ",
"   c #0E0C0B",
".  c #080709",
"X  c #111111",
"o  c #1A1B17",
"O  c #0D1315",
"+  c #240B0C",
"@  c #231A1D",
"#  c #341C14",
"$  c #32150E",
"%  c #08263C",
"&  c #162D37",
"*  c #383930",
"=  c #651818",
"-  c #40241B",
";  c #6A221A",
":  c #76251C",
">  c #48322C",
",  c #5C312D",
"<  c #543B39",
"1  c #402C26",
"2  c #7B3625",
"3  c #354736",
"4  c #344C2E",
"5  c #51512C",
"6  c #454836",
"7  c #4F4C30",
"8  c #704931",
"9  c #73673D",
"0  c #022D4E",
"q  c #143646",
"w  c #383A44",
"e  c #273C54",
"r  c #263F4A",
"t  c #1F4C4E",
"y  c #3C5141",
"u  c #27475D",
"i  c #30474F",
"p  c #1B7F41",
"a  c #05477A",
"s  c #084873",
"d  c #2E4B71",
"f  c #186172",
"g  c #396E7C",
"h  c #4F5450",
"j  c #5C5859",
"k  c #595348",
"l  c #6F4F41",
"z  c #765344",
"x  c #57684F",
"c  c #626949",
"v  c #6A7443",
"b  c #596160",
"n  c #5B6471",
"m  c #676263",
"M  c #8B2D1E",
"N  c #902B2B",
"B  c #8E3A26",
"V  c #973D26",
"C  c #8E3D37",
"Z  c #922E32",
"A  c #A52C2D",
"S  c #AD3834",
"D  c #B93131",
"F  c #864A35",
"G  c #9A453A",
"H  c #8C5732",
"J  c #90542F",
"K  c #AE4437",
"L  c #A75435",
"P  c #95723D",
"I  c #983E46",
"U  c #A63C42",
"Y  c #A83C41",
"T  c #9C444B",
"R  c #8C4F48",
"E  c #A84446",
"W  c #B24B4A",
"Q  c #AB5D41",
"!  c #B25F46",
"~  c #A34D55",
"^  c #B05050",
"/  c #A5525F",
"(  c #9F7843",
")  c #937445",
"_  c #AC6744",
"`  c #BC694A",
"'  c #B16146",
"]  c #BE7D4F",
"[  c #A86252",
"{  c #9B6C64",
"}  c #C36041",
"|  c #CA7253",
" . c #C17753",
".. c #CB704E",
"X. c #1C813F",
"o. c #1E8243",
"O. c #259148",
"+. c #7C8856",
"@. c #76854E",
"#. c #4F827D",
"$. c #818F4B",
"%. c #9D8446",
"&. c #81914D",
"*. c #858E50",
"=. c #8A9555",
"-. c #9D9751",
";. c #9C944F",
":. c #A09751",
">. c #A49E55",
",. c #A89F54",
"<. c #97A659",
"1. c #ABAB5B",
"2. c #B3AB5D",
"3. c #A9B55F",
"4. c #86986D",
"5. c #96A763",
"6. c #9DBB64",
"7. c #94B562",
"8. c #92B376",
"9. c #9DBB74",
"0. c #89A66B",
"q. c #A2BE65",
"w. c #A8B96B",
"e. c #BABB65",
"r. c #A5BA70",
"t. c #EA815C",
"y. c #CD8B6D",
"u. c #D6926F",
"i. c #D09072",
"p. c #EE916B",
"a. c #C0B966",
"s. c #DAA07C",
"d. c #EDA37E",
"f. c #A5C166",
"g. c #AAC467",
"h. c #A6C268",
"j. c #ACC669",
"k. c #AFC869",
"l. c #B1C46A",
"z. c #B4CC6B",
"x. c #B9CE6D",
"c. c #B8C468",
"v. c #BCD16E",
"b. c #BFD370",
"n. c #C0D26F",
"m. c #C0D470",
"M. c #044C86",
"N. c #095A84",
"B. c #155988",
"V. c #075796",
"C. c #1B5C95",
"Z. c #21578A",
"A. c #17608D",
"S. c #12648D",
"D. c #2A6C94",
"F. c #21648D",
"G. c #025EA7",
"H. c #0361AD",
"J. c #0D65AB",
"K. c #0169BC",
"L. c #0265B4",
"P. c #1266AC",
"I. c #2673B0",
"U. c #497BA1",
"Y. c #137ED3",
"T. c #0971C4",
"R. c #A87990",
"E. c #7C8E96",
"W. c #4489BF",
"Q. c #4C9DDE",
"!. c #5DA4DD",
"~. c #7FABCE",
"^. c #4E9FE1",
"/. c #B8838C",
"(. c #BB929D",
"). c #B49F9A",
"_. c #B99094",
"`. c #AB8DA9",
"'. c #B191A9",
"]. c #B19AB4",
"[. c #A49FA6",
"{. c #B3A2BE",
"}. c #938D94",
"|. c #DFA480",
" X c #C7A598",
".X c #E9A88A",
"XX c #F6B28A",
"oX c #C199A4",
"OX c #C1ADBD",
"+X c #C1ABA7",
"@X c #C2B5C5",
"#X c #C2BFD4",
"$X c #CDCBDC",
"%X c #C8C6D9",
"&X c #CFCFE0",
"*X c #D2D2E2",
"=X c #DAD8E9",
"-X c #E4E4F4",
/* pixels */
"m.b.x.x.k.j.k.z.z.x.z.x.z.x.x.x.x.x.x.x.x.z.z.k.j.j.q.h.x.x.b.b.",
"b.z.f.j.k.k.z.x.x.x.b.x.x.x.c.e.e.v.x.x.x.x.x.x.x.k.k.k.q.q.z.b.",
"x.q.j.z.z.z.z.x.x.x.b.b.x.b.e.]  .e.x.x.b.b.b.v.z.z.k.k.k.h.6.x.",
"x.q.k.z.z.z.b.b.b.b.b.a.] _ _ S S ' [ ] a.m.m.x.b.x.z.x.k.j.6.z.",
"f.6.j.z.x.b.b.b.x.n.a.} W /._.R.R._./.K ..e.m.m.b.b.b.b.x.k.f.f.",
"6.f.k.z.b.b.b.b.n.2.L ^ oX*X=X#X%X=X=X'.E ' 2.x.b.b.b.b.v.z.h.6.",
"f.j.z.x.b.m.b.m.1.F E (.$X-X-X*X=X-X-X$X(.G J 1.b.b.b.x.b.z.z.f.",
"f.z.x.v.m.m.m.v.;.: ~ @X*X-X-X=X=X-X-X&X@XT : >.b.b.b.v.b.v.j.f.",
"f.z.x.v.v.m.m.m.:.: T {.$X-X-X&X&X-X-X#X{.I : >.b.b.m.m.m.x.k.f.",
"j.x.v.v.m.m.m.m.:.: I `.#X*X=X%X%X=X*X#X`.I : >.m.m.m.m.m.b.z.h.",
"k.z.x.b.m.m.m.m.-.= N / '.OXOX].].@X@X`.~ N ; >.m.b.b.b.b.v.x.k.",
"k.x.v.v.x.m.m.x.*.$ = A Y E E E Y Y Y Y N = $ *.l.x.b.b.b.x.z.j.",
"k.k.v.b.b.b.l.<.6 . + = A D D D D D D A = +   6 +.w.v.m.v.z.k.k.",
"k.z.z.v.b.b.q.x   . @ , C E N S S Z E C , @ . X v <.k.m.v.z.k.g.",
"k.z.x.b.v.g.<.v o X - | .X).< y.i.< +X.X| # X @ * 5 <.m.x.z.k.k.",
"z.x.v.b.b.+.5 5 j * >  ..X Xz .X|.8  X.X` 1 * 7 $.-.k.b.v.z.k.k.",
"z.x.v.b.n.v.c.c.=.r w < _ t.p.XXXXp.| ` > m < = M V P 3.m.z.z.k.",
"z.x.x.b.m.m.m.e.4.U.u e * { i.u.u.y.{ e d [.R F } ..V %.n.z.z.k.",
"z.z.x.v.m.v.e.( [ }.g a M.Z.j 9 9 j C.G.B.n 8 M M L L ,.c.z.z.g.",
"z.z.v.v.m.1.( ! | z m D.V.K.S.O.p N.T.V.a y 5 8 J J ,.x.m.x.g.g.",
"z.x.v.b.m.P J d.| 2 =.8.C.K.N.o.p N.K.V.#.r.v.x.v.v.v.v.m.v.z.f.",
"k.v.v.b.m.,.P ! K %.e.8.A.G.a 4 3 M.G.C.9.n.m.m.n.m.m.m.m.x.z.f.",
"k.z.x.b.m.v.3.P ;.z.b.}.B.G.V.d d P.I.F.9.m.m.m.n.n.m.m.v.z.f.6.",
"j.k.z.v.m.n.n.v.v.b.b.9.C.G.H.G.H.Y.^.D.9.n.m.m.m.x.v.m.x.k.k.q.",
"h.k.z.v.b.b.x.b.v.n.m.8.B.a M.M.V.Y.Q.D.f.m.m.m.m.m.v.m.v.k.k.q.",
"h.z.z.v.b.b.b.b.v.n.v.<.q 0 a a N.T.I.u 7.v.m.m.m.m.m.m.x.z.g.6.",
"f.k.z.b.v.b.m.m.v.n.6.x f s 0 s M.J.W.E.c 3.b.b.v.m.v.m.v.z.f.7.",
"h.h.k.z.v.b.b.b.n.v.g.@.t 0 O % M.P.!.~.3 <.b.b.x.m.v.m.z.g.6.6.",
"z.f.k.k.v.v.x.v.v.v.n.k.+.j j h & q t i @.z.m.b.m.v.v.v.z.g.7.k.",
"z.q.g.k.z.z.z.z.v.v.v.v.k.r.w.w.=.+.$.=.g.v.b.x.v.x.z.z.k.f.6.z.",
"b.z.q.f.f.g.k.k.k.z.z.z.z.z.x.x.x.k.z.z.z.x.z.k.k.z.g.f.f.6.k.v.",
"b.b.x.z.f.q.f.g.g.k.k.k.k.k.k.z.z.z.k.k.z.k.k.g.g.g.f.f.z.z.m.v."
};
