/* XPM */
static char *result[] = {
/* columns rows colors chars-per-pixel */
"32 32 206 2 ",
"   c #0B0A0A",
".  c #040404",
"X  c #171515",
"o  c #251517",
"O  c #2A120F",
"+  c #31361E",
"@  c #0A1C29",
"#  c #112C39",
"$  c #282927",
"%  c #37392B",
"&  c #393533",
"*  c #273638",
"=  c #4E1213",
"-  c #621A19",
";  c #7C1B1B",
":  c #562117",
">  c #75271C",
",  c #63291A",
"<  c #46373A",
"1  c #503F38",
"2  c #4A312B",
"3  c #7D3624",
"4  c #72382F",
"5  c #30423E",
"6  c #474B31",
"7  c #5F493D",
"8  c #774735",
"9  c #5C6538",
"0  c #58703A",
"q  c #6B6D3B",
"w  c #022947",
"e  c #183857",
"r  c #293A44",
"t  c #033C69",
"y  c #294345",
"u  c #2D5045",
"i  c #197549",
"p  c #19476A",
"a  c #04497A",
"s  c #1A4A73",
"d  c #24516C",
"f  c #2A4F73",
"g  c #305872",
"h  c #0C6174",
"j  c #1E6873",
"k  c #4F5251",
"l  c #775D5E",
"z  c #5A6848",
"x  c #536955",
"c  c #6C7845",
"v  c #65665A",
"b  c #747C54",
"n  c #6D725B",
"m  c #425C6C",
"M  c #645B68",
"N  c #497F7E",
"B  c #767375",
"V  c #81251F",
"C  c #8D2324",
"Z  c #9F2929",
"A  c #922526",
"S  c #843A2A",
"D  c #953825",
"F  c #983A3E",
"G  c #8A3231",
"H  c #B32E2E",
"J  c #AA2F31",
"K  c #AF3233",
"L  c #A5383D",
"P  c #AD2D2D",
"I  c #984A31",
"U  c #9F5432",
"Y  c #8B582F",
"T  c #A4453C",
"R  c #B84B36",
"E  c #A45338",
"W  c #8A6A3A",
"Q  c #99693C",
"!  c #A23F46",
"~  c #915544",
"^  c #9E5055",
"/  c #A74B4A",
"(  c #B64842",
")  c #B95843",
"_  c #AC5353",
"`  c #817940",
"'  c #9C7C44",
"]  c #937740",
"[  c #917C5D",
"{  c #A86845",
"}  c #A46451",
"|  c #A66B52",
" . c #BC7C5C",
".. c #BA7D4E",
"X. c #A75B65",
"o. c #92706E",
"O. c #AB636B",
"+. c #AF6F6B",
"@. c #C67254",
"#. c #D87958",
"$. c #CA674D",
"%. c #1F853B",
"&. c #1D8451",
"*. c #778555",
"=. c #778347",
"-. c #5B8477",
";. c #759E79",
":. c #769D75",
">. c #8A9B52",
",. c #879753",
"<. c #8F8F53",
"1. c #A38B4B",
"2. c #A3944E",
"3. c #B29755",
"4. c #94A45B",
"5. c #AAAA5B",
"6. c #A2A85A",
"7. c #B5AA5E",
"8. c #A6B25E",
"9. c #B0B05D",
"0. c #A0807B",
"q. c #B68468",
"w. c #98A865",
"e. c #9DBB64",
"r. c #94B562",
"t. c #9BB772",
"y. c #A1BE65",
"u. c #AABB69",
"i. c #BCB463",
"p. c #B5BA62",
"a. c #B7B964",
"s. c #A4BF72",
"d. c #C08653",
"f. c #C0A75F",
"g. c #C08570",
"h. c #D69775",
"j. c #ED8B66",
"k. c #E59875",
"l. c #F69971",
"z. c #F6A37B",
"x. c #A5C166",
"c. c #A9C467",
"v. c #A6C268",
"b. c #ACC669",
"n. c #AFC869",
"m. c #B4CC6B",
"M. c #B9CE6D",
"N. c #B7C469",
"B. c #BDD16E",
"V. c #A4C073",
"C. c #BFD370",
"Z. c #C0CA6C",
"A. c #C0D36F",
"S. c #C0D470",
"D. c #034F8C",
"F. c #034B84",
"G. c #0B5085",
"H. c #035A9E",
"J. c #085B95",
"K. c #1C5690",
"L. c #234982",
"P. c #16608F",
"I. c #256889",
"U. c #236A9E",
"Y. c #035DA4",
"T. c #065FA6",
"R. c #0461AD",
"E. c #0267B8",
"W. c #1869AF",
"Q. c #3276AA",
"!. c #287CBF",
"~. c #0972C6",
"^. c #AA778B",
"/. c #B77B82",
"(. c #A66E83",
"). c #7E8E9F",
"_. c #7699B4",
"`. c #3A8DD0",
"'. c #4491CF",
"]. c #77ADD8",
"[. c #419BE4",
"{. c #B78893",
"}. c #B48491",
"|. c #AD8EAA",
" X c #BDA5B4",
".X c #978F8D",
"XX c #DB9B84",
"oX c #ED9F80",
"OX c #E9AB86",
"+X c #F0AF8D",
"@X c #F8B48C",
"#X c #C5ADBA",
"$X c #CBBAB2",
"%X c #ECC0A8",
"&X c #B6AAC5",
"*X c #BEB9D1",
"=X c #C6BBCB",
"-X c #C1BCD1",
";X c #CDCCDD",
":X c #C7C3D6",
">X c #D0C6D5",
",X c #CFCEE0",
"<X c #D0CDE0",
"1X c #D3D2E2",
"2X c #DDDCEC",
"3X c #E4E4F4",
/* pixels */
"S.C.B.M.b.b.b.m.m.m.M.M.M.M.B.B.M.M.M.m.M.m.m.n.n.b.x.c.m.M.C.C.",
"C.m.x.b.n.n.m.M.M.M.M.B.M.m.Z.f.i.B.M.M.B.B.M.m.M.n.n.c.x.e.m.C.",
"M.y.b.m.m.m.M.M.B.M.B.N.a.9.3.R ) 7.7.i.M.S.B.M.M.m.m.m.n.c.e.M.",
"M.y.n.m.m.M.M.C.B.S.Z.@.( / / ! / / _ ) f.Z.S.B.B.m.m.m.n.n.e.m.",
"x.e.b.m.M.C.C.C.B.a...( /.=X-X&X&X=X#XX.( f.Z.A.S.S.B.C.m.n.x.x.",
"e.c.n.m.B.C.S.S.9.{ / /.>X2X2X<X<X3X2X#X_ T 1.N.S.S.C.C.C.n.n.e.",
"y.b.m.M.C.S.S.B.] V O.=X1X3X3X2X2X3X3X:X#XF 3 5.C.S.B.B.B.m.n.c.",
"c.m.m.S.S.S.S.B.W V O.-X1X3X2X<X2X3X3X;X XF > 5.S.S.C.B.C.M.b.x.",
"c.m.M.B.B.S.S.B.W ; X.&X<X3X2X;X,X3X2X,X|.F > 5.S.S.S.S.S.M.n.x.",
"c.m.B.B.S.S.S.A.] ; ^ ^.-X<X<X-X-X1X:X&X(.A > 5.S.S.S.S.S.B.m.b.",
"n.m.B.B.S.S.A.M.l = C ^ ^.{.^.^.^.{.}.O.! ; : 4.S.C.C.S.C.B.m.n.",
"n.M.B.B.S.Z.u.w.6 O - Z K K K H K L K Z C = O *.M.B.C.S.C.M.m.b.",
"n.m.M.C.C.C.r.z o . O - Z P H H H H J C : X   & ,.N.B.S.B.m.n.n.",
"n.n.m.B.B.>.q + .   2 ~ | X.4 $._ S +.} 8 o .   b N.S.S.B.m.n.c.",
"n.M.M.C.m.,.9 6 $ o 4 j.%X.Xk OX .k $X+X@.O $ $ 9 c e.B.M.n.n.n.",
"m.M.B.B.M.2.W 8 < & 2 { oXg.{ @Xh.} XXk.~ & & b c z 8.B.B.m.m.n.",
"m.M.B.N.1.U R I , l B 2 U j.z.@X@Xl.#.8 < r d t.M.B.B.B.C.m.m.n.",
"m.m.M.9.Y R $.U D o.).s d o.q.q.@.+.M e p f _.[ a.C.S.S.C.M.m.n.",
"m.m.M.p.2.U D > , 6 g D.Y.K.k 0 z g J.D.G.m 0.) Q 9.C.B.B.m.m.n.",
"m.M.M.A.A.2.' ] W c m G.Y.E.h %.&.J.E.P.-.v 4 #.@.~ 9.B.B.m.c.x.",
"m.m.B.A.S.S.B.C.C.C.V.-.T.E.h %.i J.E.I.t.4.S #.k.I 2.B.C.B.n.c.",
"m.m.B.A.S.S.S.S.C.C.m.;.J.H.p 2 5 J.Y.j s.N.1.E U 1.9.C.C.B.n.x.",
"n.m.B.A.S.S.S.S.C.C.B.).U.!.W.L.K.R.R.I.s.S.N.2.1.p.B.S.B.m.c.e.",
"n.n.m.B.S.S.C.C.C.B.B.:.Q.[.~.T.H.Y.H.I.s.S.S.S.C.M.B.C.M.n.n.y.",
"c.n.m.B.A.B.B.A.A.A.B.:.Q.`.E.J.F.F.a j v.S.S.S.C.C.C.S.C.n.n.x.",
"n.n.m.B.A.A.A.B.B.A.m.*.d !.E.D.F.t w y r.B.S.S.C.C.C.C.B.n.x.e.",
"x.n.m.B.A.S.A.A.B.B.,.n _.`.J.F.t w a j z u.C.C.C.C.C.C.B.n.x.r.",
"x.c.n.m.B.S.B.B.B.B.=.m ].'.T.t @ @ # u ,.m.C.C.M.C.M.C.m.n.e.e.",
"m.x.n.m.B.B.M.B.B.S.u.c r r # * k v n 4.m.C.C.C.C.C.C.B.n.c.r.n.",
"m.e.c.n.m.m.m.m.B.B.B.u.>.>.>.w.u.u.s.N.M.B.C.M.B.M.m.n.n.x.e.m.",
"B.m.x.x.c.c.n.n.b.m.m.m.n.m.m.M.m.m.N.m.M.m.m.n.n.m.c.x.x.e.n.B.",
"S.S.m.m.x.e.c.c.b.b.b.m.b.n.m.m.m.m.n.m.m.n.n.c.x.c.y.c.m.M.S.S."
};
