/* XPM */
static char *result[] = {
/* columns rows colors chars-per-pixel */
"32 32 207 2 ",
"   c #020101",
".  c #0C0C0D",
"X  c #1C0303",
"o  c #16161A",
"O  c #0F1118",
"+  c #2B0707",
"@  c #210202",
"#  c #340A0A",
"$  c #20120F",
"%  c #251C19",
"&  c #1E2315",
"*  c #39231A",
"=  c #071A28",
"-  c #021D31",
";  c #142733",
":  c #323826",
">  c #2F2C2C",
",  c #4C1C18",
"<  c #4C1414",
"1  c #591513",
"2  c #4E0C0D",
"3  c #671618",
"4  c #7C1B1A",
"5  c #761A17",
"6  c #572D1E",
"7  c #66291C",
"8  c #7E2E1E",
"9  c #5A2725",
"0  c #5E362C",
"q  c #513B2D",
"w  c #782624",
"e  c #693923",
"r  c #6A2E36",
"t  c #653F30",
"y  c #763B32",
"u  c #35502F",
"i  c #3A4433",
"p  c #354F2D",
"a  c #5D403E",
"s  c #555B31",
"d  c #585E32",
"f  c #4F5034",
"g  c #7B402A",
"h  c #6C4B38",
"j  c #725B31",
"k  c #5C663A",
"l  c #636A39",
"z  c #072C4A",
"x  c #012D51",
"c  c #03355D",
"v  c #143550",
"b  c #0A3C67",
"n  c #233C6A",
"m  c #373053",
"M  c #593F48",
"N  c #124259",
"B  c #2B494C",
"V  c #3A514E",
"C  c #14705E",
"Z  c #154E6D",
"A  c #03457A",
"S  c #124F73",
"D  c #224170",
"F  c #355A63",
"G  c #0C6175",
"H  c #39687C",
"J  c #256A79",
"K  c #4F4E4B",
"L  c #6A4C5C",
"P  c #5C6248",
"I  c #627344",
"U  c #6C7941",
"Y  c #666C4D",
"T  c #585168",
"R  c #506C6F",
"E  c #51796D",
"W  c #7B7B77",
"Q  c #646663",
"!  c #881D1D",
"~  c #821F21",
"^  c #8C2625",
"/  c #9C2424",
"(  c #932626",
")  c #8E3221",
"_  c #903D2C",
"`  c #A32727",
"'  c #AA2B2B",
"]  c #B42F2F",
"[  c #B73030",
"{  c #BC3232",
"}  c #C53737",
"|  c #C83838",
" . c #C63838",
".. c #80422E",
"X. c #8A5731",
"o. c #8F4D30",
"O. c #AF4A33",
"+. c #8A6238",
"@. c #8B3D46",
"#. c #9B4D55",
"$. c #8D4D4D",
"%. c #A45846",
"&. c #B25842",
"*. c #8A7446",
"=. c #927943",
"-. c #867559",
";. c #916B58",
":. c #A66743",
">. c #BD7256",
",. c #B06A4F",
"<. c #84596A",
"1. c #925A65",
"2. c #8A6977",
"3. c #9E6E7F",
"4. c #807570",
"5. c #957566",
"6. c #C2785B",
"7. c #CA674B",
"8. c #E87955",
"9. c #C3767C",
"0. c #1C8452",
"q. c #208A4F",
"w. c #778446",
"e. c #7E9051",
"r. c #768150",
"t. c #5F8366",
"y. c #798665",
"u. c #799F74",
"i. c #9C874A",
"p. c #8F9F54",
"a. c #848F53",
"s. c #A49C53",
"d. c #A28E4C",
"f. c #95A659",
"g. c #828A65",
"h. c #858E69",
"j. c #899269",
"k. c #8D9574",
"l. c #99A56A",
"z. c #9EAB6D",
"x. c #95A365",
"c. c #9DBB64",
"v. c #94B562",
"b. c #99B671",
"n. c #A9AE67",
"m. c #A2BE65",
"M. c #A4B36D",
"N. c #A6BA64",
"B. c #B2B863",
"V. c #A1BB73",
"C. c #EF966F",
"Z. c #F89C74",
"A. c #EB9D78",
"S. c #A5C166",
"D. c #AAC367",
"F. c #A6C268",
"G. c #ACC669",
"H. c #AFC869",
"J. c #B2C76C",
"K. c #B4CB6B",
"L. c #BACE6D",
"P. c #B6C367",
"I. c #BCD16E",
"U. c #BFD470",
"Y. c #AECB7A",
"T. c #C0D470",
"R. c #024B84",
"E. c #034E8A",
"W. c #185C96",
"Q. c #0E548F",
"!. c #0F649E",
"~. c #2F7581",
"^. c #025CA4",
"/. c #035FA9",
"(. c #0360AC",
"). c #0164B3",
"_. c #257BAE",
"`. c #1A77C2",
"'. c #897685",
"]. c #A37A8C",
"[. c #75B09D",
"{. c #3692D0",
"}. c #4599D8",
"|. c #54A2D2",
" X c #70BED6",
".X c #449BE1",
"XX c #5CAAE9",
"oX c #64B1EE",
"OX c #9A9E89",
"+X c #899A9B",
"@X c #95929B",
"#X c #8D8898",
"$X c #A38C9C",
"%X c #B6919C",
"&X c #9DA193",
"*X c #91BD89",
"=X c #9B9AA2",
"-X c #B69DA6",
";X c #A791A7",
":X c #A6A3AB",
">X c #A9A9B3",
",X c #D9A280",
"<X c #F6BC98",
"1X c #ECAE8F",
"2X c #BDBCC7",
"3X c #C2BDD2",
"4X c #DCCCC1",
/* pixels */
"T.U.I.L.G.G.H.K.K.L.L.L.L.L.P.L.L.L.L.K.Y.L.K.H.H.G.S.F.L.L.U.U.",
"U.K.S.G.G.H.K.L.K.I.L.L.K.n.:.:.B.L.J.J.L.L.L.K.K.K.G.G.m.m.K.U.",
"L.c.G.K.K.K.L.K.L.L.L.M.j.-.) w -.h.h.h.M.L.U.L.K.K.K.H.H.F.c.K.",
"L.S.H.K.K.L.I.U.T.I.M.OX:X3.w 9 '.=X=X>XOXz.I.I.I.L.K.L.H.H.c.K.",
"S.c.H.K.L.U.U.U.L.z.&X-X9.#.3 ~ #.<.;X3X3XOXM.I.T.U.I.U.K.H.S.S.",
"c.S.H.K.I.U.U.I.z.OX2X%X( / ( ' ` ~ #.1.-X3X@Xl.I.U.U.U.U.K.G.c.",
"m.H.K.L.I.T.T.I.h.=X2X].~ / ` } [ ` / ~ 3.3X;Xh.I.U.U.I.U.K.H.S.",
"S.K.L.I.T.T.T.U.h.@X;X@./ ' ] } | [ ` / _ $X=Xy.I.U.U.U.T.K.H.S.",
"F.K.K.U.I.I.I.L.*.2.2.5 / [ } | | } [ ` ! 2.#Xg.I.I.T.T.T.K.H.S.",
"G.K.U.U.I.P.i.+.e r r 5 / ' } } | } ] / 5 L '.g.I.T.T.T.T.I.K.D.",
"H.K.K.U.B.i.o.^ 1 2 2 3 4 / ' ' ' ' / ! 3 r M P K.I.T.T.T.I.K.H.",
"H.K.U.U.s.8 4 ^ 1 + + + # < 9 9 < < < # + @ X : g.x.L.T.T.I.K.G.",
"H.K.K.U.P.d.+.i.*.6 * 6 > 4.5.-.% L X.*       . f x.K.I.I.K.H.D.",
"H.K.K.I.I.I.I.I.L.l t X.K 4X<XA.q >.7., . O .   & d l N.I.K.H.D.",
"H.K.L.U.I.U.U.T.I.l h >.,.1X<X1X%.O.5 X o o & > i l w.N.K.H.K.G.",
"K.L.I.U.I.U.T.I.s.e 6 ,.C.Z.Z.Z.8.5 X   = z V g.l.I.U.U.U.L.K.G.",
"K.L.I.T.T.T.T.p.X.) 7 h ;.6.7.&...$ o = b n L i.L.U.I.I.T.K.L.H.",
"K.K.L.T.T.T.P.d e O.o.g e e f K z c b Q.Q.L %.%.d.L.T.T.I.K.K.G.",
"K.K.L.I.T.T.L.w.a 6 7 ) 7 o ; A G (././.m %.Z.6.X.P.T.T.I.K.K.G.",
"K.K.L.L.T.L.T.L.w.s j X.j s K S q.G /.(.n y &.,.=.L.I.I.I.L.G.S.",
"K.K.I.T.T.T.T.T.T.L.T.L.L.L.b.J q.C S /./.D K =.L.T.I.I.I.I.H.S.",
"K.K.I.T.T.T.T.T.T.T.T.T.U.U.V.F p p Z E.^.^.E K.T.T.T.T.T.I.K.S.",
"H.L.I.T.T.T.T.T.T.T.T.T.U.U.V.R T L W.^.^.A E K.T.T.T.T.I.K.S.c.",
"D.K.L.K.T.T.T.T.T.T.T.T.U.Y.[.{.XX}.`.).(.c : w.p.K.I.I.I.H.G.S.",
"D.H.K.I.U.I.I.U.T.T.T.T.I.*X{.oXXX{.Q.S b c = = B e.P.T.I.H.H.m.",
"D.H.K.I.U.U.U.U.I.T.T.T.N.t._.XX.X!.J ; - x x A E.i N.T.I.H.D.c.",
"S.H.K.I.U.U.U.U.I.T.T.c.r.R _.{.W.Q.u.l & - R.).Z I D.T.I.H.m.v.",
"D.D.H.K.U.U.U.U.T.T.I.f.Y +X X|.Z N y.M.P b R.Z I G.L.T.K.H.c.m.",
"K.m.H.K.I.I.K.U.U.U.U.I.f.Y +X+XJ B R 4.W K i I K.U.U.I.H.D.v.H.",
"K.c.D.H.K.K.K.K.L.I.U.I.L.f.k f k y.k.k.k.k.l.F.I.K.K.H.H.D.c.K.",
"T.K.S.S.S.D.H.H.G.L.K.L.H.H.D.N.N.D.P.G.H.K.K.H.H.K.D.S.S.c.H.I.",
"T.T.K.K.S.m.S.S.G.G.G.G.G.K.K.K.L.K.K.K.K.H.H.D.S.D.S.S.K.L.I.T."
};
