/* XPM */
static char *result[] = {
/* columns rows colors chars-per-pixel */
"32 32 194 2 ",
"   c #030101",
".  c #090709",
"X  c #0B0A0C",
"o  c #0E0E12",
"O  c #100E10",
"+  c #19191D",
"@  c #151714",
"#  c #360808",
"$  c #3A0606",
"%  c #32110D",
"&  c #2E2D1B",
"*  c #041927",
"=  c #0D2032",
"-  c #242A27",
";  c #353926",
":  c #3B2E28",
">  c #4C0F0F",
",  c #5E0F0F",
"<  c #581314",
"1  c #57150E",
"2  c #731616",
"3  c #621B1C",
"4  c #742D1F",
"5  c #661F21",
"6  c #562F23",
"7  c #443825",
"8  c #4F312A",
"9  c #6B2327",
"0  c #74302F",
"q  c #4A532E",
"w  c #44473A",
"e  c #4D503F",
"r  c #56562F",
"t  c #5C6536",
"y  c #69763F",
"u  c #68753E",
"i  c #032D4D",
"p  c #0B3C4F",
"a  c #063458",
"s  c #3D3942",
"d  c #793A41",
"f  c #104771",
"g  c #3F777F",
"h  c #224F54",
"j  c #405D51",
"k  c #5A5B58",
"l  c #56544F",
"z  c #78414E",
"x  c #76544E",
"c  c #705341",
"v  c #715B56",
"b  c #6F4A53",
"n  c #6A7844",
"m  c #7C6053",
"M  c #666B56",
"N  c #47596E",
"B  c #6E5263",
"V  c #755C61",
"C  c #466267",
"Z  c #5B6378",
"A  c #757A64",
"S  c #7A7D70",
"D  c #6A6972",
"F  c #881C1D",
"G  c #911F1F",
"H  c #83231F",
"J  c #9E291C",
"K  c #8B2222",
"L  c #8C2D24",
"P  c #972525",
"I  c #8D373A",
"U  c #A72828",
"Y  c #AB2A2A",
"T  c #A32626",
"R  c #B42E2E",
"E  c #B63030",
"W  c #BD3333",
"Q  c #C53636",
"!  c #C73838",
"~  c #C83838",
"^  c #805F36",
"/  c #9B5938",
"(  c #AE4F3A",
")  c #AB583D",
"_  c #8A6639",
"`  c #9F673F",
"'  c #8E5F4E",
"]  c #874C54",
"[  c #904C4B",
"{  c #AD5943",
"}  c #AF555A",
"|  c #916252",
" . c #8B7258",
".. c #937845",
"X. c #B36C50",
"o. c #AD7559",
"O. c #945C66",
"+. c #8F6B6C",
"@. c #936867",
"#. c #9D766E",
"$. c #857C7F",
"%. c #BE7F6E",
"&. c #C57050",
"*. c #C66748",
"=. c #DC7E60",
"-. c #788247",
";. c #7F904C",
":. c #7A8066",
">. c #838D56",
",. c #859651",
"<. c #9B8C4C",
"1. c #90A054",
"2. c #A9A35E",
"3. c #A7A458",
"4. c #A0B05D",
"5. c #B5B05F",
"6. c #B4A85C",
"7. c #818A60",
"8. c #8D9862",
"9. c #939F66",
"0. c #808472",
"q. c #91987D",
"w. c #AD8674",
"e. c #9FAE68",
"r. c #98A566",
"t. c #9DBB64",
"y. c #94B562",
"u. c #A0AE68",
"i. c #A5B660",
"p. c #A1BE65",
"a. c #A5B36D",
"s. c #AABB69",
"d. c #B3BB63",
"f. c #A1AD70",
"g. c #AF8D50",
"h. c #DB8D6B",
"j. c #F79C74",
"k. c #EE8A64",
"l. c #A5C166",
"z. c #A9C467",
"x. c #A6C268",
"c. c #ACC669",
"v. c #AFC869",
"b. c #B2C56A",
"n. c #B4CC6B",
"m. c #B9CE6D",
"M. c #B8C569",
"N. c #BCD16E",
"B. c #B3CB72",
"V. c #BFD370",
"C. c #C0D470",
"Z. c #0F548F",
"A. c #17568C",
"S. c #065899",
"D. c #074E87",
"F. c #3E7984",
"G. c #3F7780",
"H. c #286292",
"J. c #316590",
"K. c #055EA4",
"L. c #0562AB",
"P. c #1667A8",
"I. c #0366B5",
"U. c #0C76B0",
"Y. c #347CB7",
"T. c #4F779A",
"R. c #9D7E93",
"E. c #188DB3",
"W. c #5190B3",
"Q. c #738FA4",
"!. c #448AC3",
"~. c #67B1EB",
"^. c #828283",
"/. c #8E9280",
"(. c #969B89",
"). c #9B9E93",
"_. c #95889C",
"`. c #B18B96",
"'. c #9A94A5",
"]. c #A38CA1",
"[. c #B398A3",
"{. c #A9A7B3",
"}. c #B2ABB0",
"|. c #CC9785",
" X c #EEB089",
".X c #F2B898",
"XX c #CCB2BE",
"oX c #C8AAB5",
"OX c #F6CDB4",
"+X c #8CABC3",
"@X c #BBB9C5",
"#X c #C2BFCA",
"$X c #C4BFD3",
"%X c #CDC7C4",
/* pixels */
"C.V.N.m.z.z.n.n.n.m.m.m.m.m.m.m.m.m.m.n.B.m.n.v.v.z.l.z.n.m.V.V.",
"V.n.x.z.v.v.n.m.m.m.m.N.m.m.n.6.g.5.m.m.N.m.m.m.n.n.c.z.l.p.n.V.",
"m.l.z.n.n.n.n.m.m.m.V.m.p.y.3./ H ` u.u.s.C.N.m.m.n.n.n.v.l.t.m.",
"m.p.v.n.n.N.m.V.V.C.N.a./.R.O.0 , 0 @.R./.s.C.N.N.n.n.n.v.v.t.n.",
"l.t.v.n.m.V.V.V.N.m.a.(.#XoX`.[ 2 ' [.#XXX/.s.C.C.C.N.N.m.c.l.l.",
"t.l.v.n.N.V.C.C.m.e.).#X`.} K P P K P } }.#X(.a.N.C.C.C.N.n.l.p.",
"l.v.n.m.N.C.C.C.c.$.@X#X] P P R R T P G O.$X@XA N.C.N.N.N.n.n.l.",
"l.v.m.N.C.C.C.V.d.$.{.R.I P U W Q E U P I ].{.A m.C.V.N.V.m.v.l.",
"l.n.m.N.N.C.M.1...v _.0 F Y Q Q ! ! W U F x _.A m.C.C.C.C.m.c.s.",
"v.n.N.N.N.b.` L H 5 x 0 F R W Q ! ! W Y 2 z _.A m.C.C.C.C.N.n.z.",
"v.m.N.N.V.3.4 G G > < , 2 P Y R E R Y G 2 0 B l n.C.C.C.V.V.m.z.",
"v.m.N.N.V.5._ _ ^ r % $ $ 1 5 9 5 < < > # # % - 8.u.m.C.V.m.n.v.",
"v.v.m.V.V.V.N.n.N.u.& 6 m D x 7 X             X e 8.M.C.N.n.v.c.",
"v.n.m.N.V.V.V.V.C.4.7 ) w.%X.Xo.: 8 c 7 . o o   @ t -.z.N.n.v.x.",
"v.n.m.V.N.V.V.C.C.d.7 ( 8 }.OX Xv ' =.0 o + + - ; t n p.m.n.v.v.",
"n.m.N.N.V.V.V.V.C.4.q X.| |..X Xw.{ J $ X + 7 >.9.m.N.N.N.n.n.v.",
"n.N.N.C.C.C.C.C.C.M.n  .h.j.j.j.h.( >   O l 1.V.V.V.N.N.V.n.N.v.",
"n.n.m.C.C.C.C.C.C.C.C.>. .%.&.X.=.+.s * : r.V.V.C.V.C.C.N.n.n.z.",
"n.n.m.N.C.m.C.C.C.C.C.m.-.k l b $.T.A.i q C.C.C.N.m.C.C.N.n.n.z.",
"n.n.m.C.C.m.C.C.C.C.C.V.B.G.D.A.H.P.S.i q m.C.C.C.C.V.N.N.m.v.x.",
"n.m.N.N.C.C.C.C.C.C.C.C.B.F.K.L.Y.W.J.i q m.C.C.C.C.C.N.N.N.v.x.",
"n.n.N.C.C.C.C.C.C.C.C.C.B.F.I.K.Z #.Z i q m.C.C.C.C.C.C.C.N.v.x.",
"v.m.N.N.C.C.C.C.C.C.C.C.B.F.I.K.v *.z = q m.C.C.C.C.C.C.C.n.l.t.",
"z.v.n.N.C.C.C.C.C.C.C.C.B.F.S.S.@.k.| + q m.C.C.N.N.N.N.N.v.c.p.",
"l.v.n.N.N.N.N.C.V.V.C.C.b.j H.!.D x N i q N.C.V.C.C.N.C.N.v.v.p.",
"z.n.n.N.C.C.C.N.N.V.N.b.n - F.~.!.Z.S.a q N.C.V.C.C.C.C.N.v.z.t.",
"x.c.n.N.C.C.C.C.V.V.n.n C f H.!.L.L.S.i q m.V.V.N.C.N.C.N.n.p.y.",
"x.z.n.n.N.C.N.C.C.V.m.;.C Q.+XW.E.U.f * q m.V.N.N.N.N.C.n.v.p.4.",
"n.l.v.n.N.N.N.N.V.V.V.m.,.M M h p p * ; 1.N.V.V.V.V.N.N.n.l.y.v.",
"m.t.l.n.n.n.n.n.m.V.V.N.v.;.y u y y u 1.n.N.N.N.V.n.n.n.v.l.t.n.",
"N.n.t.l.l.l.c.c.v.n.m.n.v.n.m.N.n.n.v.n.n.n.n.v.v.n.z.l.l.t.v.V.",
"V.N.N.n.l.l.l.l.x.v.v.v.v.v.n.n.n.n.v.v.n.n.v.z.z.z.p.z.n.n.V.V."
};
