/* XPM */
static char *result[] = {
/* columns rows colors chars-per-pixel */
"32 32 202 2 ",
"   c #020000",
".  c #09090B",
"X  c #1B1B1D",
"o  c #141512",
"O  c #0C0D10",
"+  c #260707",
"@  c #350808",
"#  c #241914",
"$  c #371B13",
"%  c #212415",
"&  c #071928",
"*  c #011F37",
"=  c #251C32",
"-  c #122A34",
";  c #2B2A25",
":  c #2D3120",
">  c #3B2933",
",  c #4A0C0C",
"<  c #440C0C",
"1  c #5B1616",
"2  c #551713",
"3  c #6B1515",
"4  c #79191A",
"5  c #4D251A",
"6  c #732E1F",
"7  c #66271B",
"8  c #571F21",
"9  c #721F21",
"0  c #523B2E",
"q  c #4B332C",
"w  c #672024",
"e  c #73312A",
"r  c #39473A",
"t  c #2C4B3A",
"y  c #484C29",
"u  c #495633",
"i  c #504D31",
"p  c #7E412D",
"a  c #604536",
"s  c #5B6436",
"d  c #656B3B",
"f  c #103850",
"g  c #313342",
"h  c #043D68",
"j  c #713945",
"k  c #1A475B",
"l  c #234548",
"z  c #3F5246",
"x  c #325F50",
"c  c #165A69",
"v  c #06477C",
"b  c #134C77",
"n  c #1E5071",
"m  c #0F4569",
"M  c #24596F",
"N  c #4D5042",
"B  c #545652",
"V  c #785747",
"C  c #655E5C",
"Z  c #6C5250",
"A  c #4A6245",
"S  c #5C6545",
"D  c #706D4C",
"F  c #787E61",
"G  c #757A61",
"H  c #70736A",
"J  c #881C1C",
"K  c #8B2017",
"L  c #8B2323",
"P  c #882626",
"I  c #982425",
"U  c #863B24",
"Y  c #883439",
"T  c #A22626",
"R  c #A92A2A",
"E  c #B32E2E",
"W  c #B73030",
"Q  c #BC3333",
"!  c #C53737",
"~  c #C73838",
"^  c #C83838",
"/  c #825B34",
"(  c #844E38",
")  c #B3563C",
"_  c #8C6C3D",
"`  c #A5643F",
"'  c #8F414C",
"]  c #954F40",
"[  c #964B53",
"{  c #895F50",
"}  c #954B58",
"|  c #85634A",
" . c #907551",
".. c #B06D53",
"X. c #845869",
"o. c #8C6772",
"O. c #986875",
"+. c #97626E",
"@. c #AB796A",
"#. c #D46445",
"$. c #D07456",
"%. c #6C814D",
"&. c #74854D",
"*. c #4E827D",
"=. c #5F8E7B",
"-. c #7F8179",
";. c #7D8072",
":. c #749367",
">. c #808E4B",
",. c #81904C",
"<. c #8B9B57",
"1. c #998549",
"2. c #9BAC5B",
"3. c #9EB05E",
"4. c #8EA356",
"5. c #AAA359",
"6. c #858E67",
"7. c #8A9665",
"8. c #8B926D",
"9. c #9EAB6B",
"0. c #96A465",
"q. c #9DBB64",
"w. c #94B562",
"e. c #90B176",
"r. c #A1AF6C",
"t. c #A2BE65",
"y. c #AABD63",
"u. c #A4B56E",
"i. c #A6BA6E",
"p. c #B4BB64",
"a. c #CB8D6F",
"s. c #EF926D",
"d. c #EEA57E",
"f. c #A5C166",
"g. c #AAC367",
"h. c #A6C268",
"j. c #ACC669",
"k. c #AFC869",
"l. c #B3C669",
"z. c #B4CC6B",
"x. c #B9CE6D",
"c. c #B6C468",
"v. c #BCD16E",
"b. c #BFD370",
"n. c #C0D470",
"m. c #044C85",
"M. c #135989",
"N. c #07599B",
"B. c #06518C",
"V. c #234F81",
"C. c #225D8B",
"Z. c #2B6996",
"A. c #055FA5",
"S. c #0261AC",
"D. c #1664A5",
"F. c #0167B9",
"G. c #1370BA",
"H. c #2C72A9",
"J. c #026CC1",
"K. c #0072CD",
"L. c #0074D2",
"P. c #0078D7",
"I. c #1273C1",
"U. c #867683",
"Y. c #9F7382",
"T. c #C47980",
"R. c #348089",
"E. c #3E87BB",
"W. c #2689B7",
"Q. c #518788",
"!. c #5E89AF",
"~. c #5AADBF",
"^. c #7CA0A2",
"/. c #1685C2",
"(. c #3686C5",
"). c #3E8FD2",
"_. c #2F8ACD",
"`. c #519AD3",
"'. c #50A3E4",
"]. c #5CC1DA",
"[. c #9A9E8A",
"{. c #938899",
"}. c #999998",
"|. c #878096",
" X c #B79A9C",
".X c #AB8694",
"XX c #9BA08E",
"oX c #9EA297",
"OX c #9C9BA5",
"+X c #A597A9",
"@X c #8FA6A7",
"#X c #A6A5AD",
"$X c #B0A7B1",
"%X c #CA9780",
"&X c #E69C83",
"*X c #F0B18C",
"=X c #EFC0AA",
"-X c #BABCC8",
";X c #C4BFD5",
":X c #BCC5CC",
">X c #C6C1D6",
",X c #E2CEC1",
/* pixels */
"n.b.b.x.g.g.k.z.z.z.x.x.x.x.n.v.x.x.x.x.x.z.z.k.k.g.f.f.x.x.v.b.",
"b.z.h.g.k.k.z.x.x.x.x.v.z.5.` ] p.x.z.l.x.x.x.x.z.z.j.j.f.q.z.b.",
"x.f.g.z.z.z.x.x.x.x.n.r.6.| I 6 F 6.6.6.u.x.v.x.x.z.k.z.k.h.t.x.",
"x.t.k.z.z.x.x.b.n.c.r.[.#XO.6 w U.OXOX#X[.u.v.v.v.x.z.z.k.j.q.z.",
"f.q.j.z.x.b.b.b.v.9.}. XT.[ 3 P } O.+X;X;X[.r.b.n.n.v.v.z.k.f.f.",
"q.f.k.z.b.b.b.v.0.oX;X.XI L L R I L } +. X;X}.0.b.n.b.b.b.z.j.q.",
"f.j.z.v.b.b.b.b.G #X>XO.L I R Q W I I L Y.;X#XF v.n.b.v.b.z.z.f.",
"f.z.z.v.b.b.b.x.G +X+X' I R W ! ! W R I ' +XOXF v.n.b.v.b.v.k.q.",
"f.z.x.v.n.n.n.x.d {.X.J R W ! ~ ^ ! E T J X.{.F v.n.n.n.n.v.j.f.",
"j.z.v.v.n.c.1._ 4 j e 4 T Q ! ~ ^ ! E T 9 H |.F v.n.n.n.n.v.z.g.",
"j.x.v.v.p. .U L , , , 3 L I E W E E I J 3 j Z B v.v.v.n.v.v.z.j.",
"k.x.v.v.5.6 L I < , , @ < 1 w w 1 1 1 < @ @ + : 0.9.x.n.n.v.z.k.",
"k.z.x.b.p._ / / / 2 2 $ ; C { Z # 0 a $       o N 0.z.n.v.z.k.j.",
"j.z.x.v.v.v.x.x.c.y U ( C ,X*Xa.q ..$.5 . O .   % d >.l.v.z.k.g.",
"k.z.x.v.v.v.n.n.n.y ( )  .=X*X&X{ ) J + o X X X ; y s f.x.z.z.j.",
"z.x.v.b.v.v.n.n.v.d D a.s.s.*X*Xs.Y = * & O X N 7.z.v.v.v.z.z.k.",
"z.x.n.n.n.n.n.n.n.c.s a @.a.%X&XO.Z.J.K.v & o d v.v.v.v.b.x.z.k.",
"z.z.x.n.n.n.n.n.n.4.d q e V ^.:X!.G.L.P.K.h y z.b.n.n.n.v.x.z.j.",
"z.z.x.n.n.n.n.n.n.i D d.s.$... X-XH.F.K.P.v A b.v.v.b.n.x.z.z.j.",
"z.x.c.n.n.v.n.n.n.d | $.#.#.#.( U.C.N.F.K.S.*.b.n.n.v.v.b.x.j.f.",
"z.z.v.n.n.n.n.n.n.c._ ( U U 6 2 q h S.S.J.S.Q.b.n.n.v.v.b.v.k.f.",
"z.z.x.n.n.n.n.n.n.n.x.p.p.p.0.n l k m.S.J.S.H n.n.n.n.b.b.v.k.f.",
"k.x.x.n.n.n.n.n.n.n.n.n.n.z.:.n q > V.D.N.B.*.n.n.n.b.b.v.z.f.q.",
"g.k.z.v.n.n.n.n.n.n.n.n.n.<.l v m.D.`.'.H.M.Q.n.v.v.v.b.v.k.k.f.",
"g.k.z.v.n.v.v.n.n.n.n.v.l.:.b m.m.B.I.'.E.Q.XXh.y.v.n.n.x.k.k.t.",
"k.k.z.v.n.n.n.n.v.n.n.l.%.l h h m f M.E.`.(.R.M A 3.x.n.v.l.j.3.",
"f.g.z.v.n.n.n.n.v.n.v.>.x c f & - s t l C._._./.R.u f.n.v.k.f.3.",
"g.g.k.z.v.n.v.v.n.n.n.g.%.k v h f t &.4.z m W.].@Xy q.n.z.j.q.q.",
"z.t.k.z.v.v.x.v.b.b.b.b.y.&.- & - C -.-.r c ~.@XS 3.v.v.z.f.w.z.",
"z.q.g.k.z.z.z.z.v.x.b.v.x.g.<.H C H -.-.H z > A 2.z.z.k.k.f.q.z.",
"n.z.f.f.f.g.k.k.k.x.x.z.z.z.z.i.i.i.i.i.f.2.4.4.j.k.g.f.f.q.k.v.",
"n.b.z.z.f.t.f.g.h.j.k.k.k.k.z.z.z.k.k.k.k.k.j.j.f.g.f.f.z.z.b.n."
};
