/* XPM */
static char *result[] = {
/* columns rows colors chars-per-pixel */
"32 32 204 2 ",
"   c #020000",
".  c #09090B",
"X  c #1B1B1D",
"o  c #141512",
"O  c #0C0D10",
"+  c #260707",
"@  c #350808",
"#  c #241914",
"$  c #371B13",
"%  c #212415",
"&  c #071928",
"*  c #011F37",
"=  c #251C32",
"-  c #122934",
";  c #2B2A25",
":  c #2D3120",
">  c #3B2933",
",  c #4A0C0C",
"<  c #440C0C",
"1  c #5B1616",
"2  c #551713",
"3  c #6B1515",
"4  c #79191A",
"5  c #4D251A",
"6  c #732E1F",
"7  c #66271B",
"8  c #571F21",
"9  c #721F21",
"0  c #523B2E",
"q  c #4B332C",
"w  c #672024",
"e  c #73312A",
"r  c #36483A",
"t  c #2C4A3A",
"y  c #484C29",
"u  c #434937",
"i  c #495633",
"p  c #554C31",
"a  c #7E412D",
"s  c #604536",
"d  c #5B6435",
"f  c #656B3B",
"g  c #6A753F",
"h  c #103850",
"j  c #313442",
"k  c #043D68",
"l  c #713945",
"z  c #1A475B",
"x  c #234548",
"c  c #3F5246",
"v  c #325F50",
"b  c #165A69",
"n  c #06477C",
"m  c #134C77",
"M  c #1E5071",
"N  c #0F4569",
"B  c #24596F",
"V  c #51534C",
"C  c #785747",
"Z  c #655E5C",
"A  c #6C5250",
"S  c #4A6245",
"D  c #5C6445",
"F  c #736953",
"G  c #767B61",
"H  c #787E61",
"J  c #70736A",
"K  c #881C1C",
"L  c #8B2017",
"P  c #8B2323",
"I  c #882626",
"U  c #982425",
"Y  c #863B24",
"T  c #883439",
"R  c #A22626",
"E  c #A92A2A",
"W  c #B32E2E",
"Q  c #B73030",
"!  c #BC3333",
"~  c #C53737",
"^  c #C73838",
"/  c #C83838",
"(  c #845C35",
")  c #844E38",
"_  c #B4563C",
"`  c #8C6C3D",
"'  c #A5653F",
"]  c #8F414C",
"[  c #954F40",
"{  c #964B53",
"}  c #895F50",
"|  c #954B58",
" . c #85634A",
".. c #907550",
"X. c #B06D53",
"o. c #845869",
"O. c #8C6772",
"+. c #986875",
"@. c #97626E",
"#. c #AB796A",
"$. c #D46445",
"%. c #D07456",
"&. c #6C814D",
"*. c #74854D",
"=. c #4E827D",
"-. c #5F8E7B",
";. c #7F8179",
":. c #7D8072",
">. c #768D65",
",. c #808E4B",
"<. c #8A9B57",
"1. c #8E8B4B",
"2. c #96A95C",
"3. c #9AA95A",
"4. c #9EB05E",
"5. c #8EA356",
"6. c #ACA45A",
"7. c #858E67",
"8. c #8A9665",
"9. c #8A926D",
"0. c #9EAB6C",
"q. c #96A268",
"w. c #9DBB64",
"e. c #94B562",
"r. c #90B176",
"t. c #A2BE65",
"y. c #AABD64",
"u. c #A2B36D",
"i. c #A6BA6E",
"p. c #B4BB63",
"a. c #A4B46E",
"s. c #CB8D6F",
"d. c #EF926D",
"f. c #EEA57E",
"g. c #A5C166",
"h. c #AAC367",
"j. c #A6C268",
"k. c #ACC669",
"l. c #AFC869",
"z. c #B4C167",
"x. c #B3C669",
"c. c #B4CC6B",
"v. c #B9CE6D",
"b. c #BAC769",
"n. c #BCD16E",
"m. c #BFD470",
"M. c #C0D470",
"N. c #044C85",
"B. c #135989",
"V. c #07599B",
"C. c #06518C",
"Z. c #234F81",
"A. c #225D8B",
"S. c #2B6996",
"D. c #055FA5",
"F. c #0261AC",
"G. c #1664A5",
"H. c #0167B9",
"J. c #1370BA",
"K. c #2C72A9",
"L. c #026CC1",
"P. c #0072CD",
"I. c #0074D2",
"U. c #0078D7",
"Y. c #1273C1",
"T. c #867683",
"R. c #9F7382",
"E. c #C47980",
"W. c #348089",
"Q. c #3E87BB",
"!. c #2689B7",
"~. c #518788",
"^. c #5E89AF",
"/. c #5AADBF",
"(. c #7CA0A2",
"). c #1685C2",
"_. c #3686C5",
"`. c #3E8FD2",
"'. c #2F8ACD",
"]. c #519AD3",
"[. c #50A3E4",
"{. c #5CC1DA",
"}. c #9A9E8A",
"|. c #938899",
" X c #999998",
".X c #878096",
"XX c #B79A9C",
"oX c #AB8694",
"OX c #9BA08E",
"+X c #9EA297",
"@X c #9C9BA5",
"#X c #A597A9",
"$X c #8FA6A7",
"%X c #A6A5AD",
"&X c #B0A7B1",
"*X c #CA9780",
"=X c #E69C83",
"-X c #F0B18C",
";X c #EFC0AA",
":X c #BABCC8",
">X c #C4BFD5",
",X c #BCC5CC",
"<X c #C6C1D6",
"1X c #E2CEC1",
/* pixels */
"M.m.v.v.l.k.l.c.c.c.n.c.v.v.v.m.v.l.x.c.v.c.c.l.l.k.g.k.c.v.m.m.",
"m.c.g.k.l.l.c.v.c.v.n.v.c.c.c.i.X.' 6.c.v.v.v.c.v.l.k.k.t.w.c.m.",
"v.t.k.c.c.c.v.c.b.n.v.0.7.7.7...e U } 7.u.v.m.v.c.c.l.l.l.j.w.n.",
"v.t.l.c.c.v.n.m.M.M.u.}.%X@X XT.w 9 O.%X}.0.v.v.m.v.v.v.l.k.w.c.",
"g.w.k.c.v.m.m.m.m.0.}.:X<X#X+.| I 3 { #.XXXX0.m.m.m.n.m.c.l.g.g.",
"w.g.l.c.n.m.m.m.q.}.>X&X@.| P U E P U U oX<X+Xq.n.m.m.m.m.c.k.w.",
"g.k.c.n.m.M.m.n.G %X>XR.U U R W ~ E U P +.<X&XG v.m.m.n.m.c.c.g.",
"g.c.c.n.m.M.M.n.G @X#X| U E W ~ ~ W R U ] oX@XG m.m.m.m.m.v.k.t.",
"g.c.n.n.n.M.M.n.H @XO.9 R Q ~ ~ / / Q R 9 o.|.a v.m.M.M.M.v.h.h.",
"k.c.n.n.M.M.M.M.H T.A 4 R Q ~ ~ / / Q R 4 e A 7 ` 1.b.M.M.M.c.h.",
"k.v.n.n.M.M.m.v.A Z l 3 K U E W W W R K 3 1 , , P Y ..p.M.n.c.h.",
"k.v.n.n.v.v.0.<.; + @ @ < 1 1 3 w w 1 < @ , , < U P 6 6.M.n.v.k.",
"k.c.v.m.m.v.8.V O       # s 0 # A C Z ; $ 5 5 ( ( ( ` p.n.c.l.h.",
"l.l.v.n.c.*.g %   . O . 5 %.#.q s.-X1XZ e Y y M.M.v.v.n.n.c.l.h.",
"c.c.v.m.y.d y ; X X X o + K _ } -X-X;X@.' ) y v.M.M.M.M.v.c.l.k.",
"c.v.n.n.n.M.v.<.V X O & * = T d.-Xf.d.d.s.` f M.M.M.M.m.m.c.c.k.",
"c.v.n.M.M.M.M.n.f o & k P.L.S.+.f.s.s.s.0 f b.M.M.M.n.n.n.c.c.l.",
"c.v.v.m.M.M.M.M.n.u k I.U.I.J.^.<X(.C 0 0 f 3.n.M.M.M.M.M.c.n.k.",
"l.c.v.n.M.M.M.M.m.S n I.I.H.K.:XXXX.$.d.f.F p M.n.n.n.M.n.l.l.h.",
"c.v.v.n.M.n.M.M.M.=.D.P.H.V.A.T.[ _ $.$.%.` f v.M.M.M.n.n.n.k.g.",
"c.v.n.m.M.M.M.M.M.~.F.H.F.F.m q 8 6 Y Y Y 1.z.M.M.M.M.n.M.n.l.g.",
"l.v.v.m.M.M.M.M.M.=.F.H.F.N.h c B q.p.p.p.b.M.M.M.M.M.M.M.n.l.g.",
"l.c.v.m.M.M.M.M.M.=.C.V.G.M j > M >.b.M.M.M.M.M.M.M.M.M.M.l.h.w.",
"k.c.c.n.M.M.M.M.M.-.B.K.[.].G.n n x <.m.M.M.M.M.n.n.n.n.n.l.l.g.",
"j.l.c.n.m.n.v.y.i.r.~.Q.[.Y.N.N.N.b >.c.M.M.M.M.M.M.M.M.n.l.l.t.",
"j.c.c.n.m.n.w.i B S.Q.]._.B.h N n N x *.l.M.M.M.M.M.M.M.n.c.h.4.",
"g.l.l.n.M.h.i W.).'._.B.x r D - & * b v ,.M.M.M.n.M.n.M.n.l.g.4.",
"h.h.c.c.n.y.r $X{.!.N V <.*.r h k N.z &.l.M.M.M.n.n.n.n.c.k.w.w.",
"c.g.k.c.n.c.3.d $X/.M r 7.:.V - & - *.k.m.m.m.M.m.m.m.n.l.g.e.c.",
"v.w.g.c.c.c.l.3.D t c J J .XJ J F <.h.c.c.m.n.c.n.c.c.l.l.g.w.c.",
"m.c.w.g.g.g.k.k.5.<.q.i.i.i.i.i.i.l.l.c.c.c.c.l.l.c.k.g.g.w.l.m.",
"m.m.v.v.g.g.g.g.j.l.l.k.k.c.c.c.v.c.c.l.c.l.l.k.g.k.g.g.c.c.m.m."
};
