/* XPM */
static char *result[] = {
/* columns rows colors chars-per-pixel */
"32 32 199 2 ",
"   c #040304",
".  c #0C0B0C",
"X  c #090605",
"o  c #1E0303",
"O  c #160404",
"+  c #1C1C1D",
"@  c #161617",
"#  c #101612",
"$  c #2B0C0B",
"%  c #270908",
"&  c #340C0C",
"*  c #3B1516",
"=  c #392D1A",
"-  c #121A24",
";  c #192828",
":  c #1E3731",
">  c #03223A",
",  c #202020",
"<  c #2D3E33",
"1  c #373B2B",
"2  c #40140F",
"3  c #5E0F10",
"4  c #520D0C",
"5  c #7D170F",
"6  c #661516",
"7  c #791A18",
"8  c #522117",
"9  c #76291F",
"0  c #6B221B",
"q  c #5F1F24",
"w  c #4C2124",
"e  c #453C22",
"r  c #5A362B",
"t  c #59353F",
"y  c #703139",
"u  c #3D493A",
"i  c #3E4525",
"p  c #44462A",
"a  c #4A532E",
"s  c #444639",
"d  c #515A30",
"f  c #59463C",
"g  c #7E4F30",
"h  c #614435",
"j  c #5A6335",
"k  c #022D4E",
"l  c #042946",
"z  c #023257",
"x  c #033A66",
"c  c #763D4A",
"v  c #2F435B",
"b  c #2E4C6D",
"n  c #285379",
"m  c #3F7479",
"M  c #515B42",
"N  c #44434E",
"B  c #6A4740",
"V  c #7C4651",
"C  c #5C6646",
"Z  c #746A4D",
"A  c #6A6F52",
"S  c #72775C",
"D  c #777B41",
"F  c #454D60",
"G  c #5D5865",
"H  c #615C69",
"J  c #486973",
"K  c #777A67",
"L  c #616474",
"P  c #821A1A",
"I  c #891D1D",
"U  c #901F1F",
"Y  c #932222",
"T  c #9E2525",
"R  c #972A27",
"E  c #8E3F2C",
"W  c #932D32",
"Q  c #87363B",
"!  c #842620",
"~  c #A52929",
"^  c #AC2B2B",
"/  c #A32727",
"(  c #B52F2F",
")  c #BC3333",
"_  c #A03A3C",
"`  c #C33636",
"'  c #C83838",
"]  c #994D36",
"[  c #885136",
"{  c #AB5A3F",
"}  c #8A6138",
"|  c #A6603D",
" . c #873E42",
".. c #984247",
"X. c #895A4B",
"o. c #915251",
"O. c #A85C43",
"+. c #B75441",
"@. c #866659",
"#. c #9C7E53",
"$. c #AA725A",
"%. c #86666A",
"&. c #8F6473",
"*. c #A4666D",
"=. c #AE7D6E",
"-. c #C97656",
";. c #DA7450",
":. c #D4644B",
">. c #7D8A4C",
",. c #7C8071",
"<. c #9D914F",
"1. c #8D9D53",
"2. c #9E9650",
"3. c #9B8457",
"4. c #AE8C50",
"5. c #AF9855",
"6. c #98A85C",
"7. c #9CB05C",
"8. c #A0B25F",
"9. c #A8A458",
"0. c #8C9566",
"q. c #939C71",
"w. c #939E6A",
"e. c #9DAB6A",
"r. c #99A768",
"t. c #9DBB64",
"y. c #94B562",
"u. c #99A273",
"i. c #A4B560",
"p. c #A1BE65",
"a. c #ACBC6A",
"s. c #ADB862",
"d. c #B1B661",
"f. c #C78D6E",
"g. c #D99170",
"h. c #E19073",
"j. c #F39068",
"k. c #F2A47D",
"l. c #A5C166",
"z. c #A9C467",
"x. c #A6C268",
"c. c #ACC669",
"v. c #AFC869",
"b. c #B4CC6B",
"n. c #B9CE6D",
"m. c #B3C368",
"M. c #BCD16E",
"N. c #B3CB72",
"B. c #BFD470",
"V. c #C0D470",
"C. c #024F8B",
"Z. c #05508C",
"A. c #0A5897",
"S. c #135C97",
"D. c #31628A",
"F. c #3E7984",
"G. c #3F7780",
"H. c #396D98",
"J. c #065FA4",
"K. c #0A5EA2",
"L. c #0561AB",
"P. c #1568A6",
"I. c #0366B3",
"U. c #1472AE",
"Y. c #2974A9",
"T. c #466D90",
"R. c #4E6987",
"E. c #4A7AA6",
"W. c #2C7FC2",
"Q. c #95788A",
"!. c #887C8C",
"~. c #A07881",
"^. c #1C93B0",
"/. c #7D8EA4",
"(. c #5AA5B9",
"). c #5AA2DB",
"_. c #5CA7E2",
"`. c #869399",
"'. c #A78891",
"]. c #AC8987",
"[. c #9DA195",
"{. c #A1A39C",
"}. c #9F9AA2",
"|. c #958DA2",
" X c #A09DA6",
".X c #AEA6A3",
"XX c #A5A1AE",
"oX c #A7A8A6",
"OX c #B0B0BB",
"+X c #C68F99",
"@X c #F4B48D",
"#X c #F7AF8B",
"$X c #CB9BA5",
"%X c #C1BBB8",
"&X c #F4C7AE",
"*X c #BAB6C8",
"=X c #B0B1C3",
"-X c #C5C0CD",
";X c #C3C2D0",
/* pixels */
"V.B.M.n.c.c.c.b.b.b.n.b.M.N.b.n.n.n.n.b.n.b.b.b.c.z.l.z.b.M.M.M.",
"B.b.l.c.v.v.b.n.n.n.M.n.n.n.5.| 4.b.b.n.n.n.n.n.b.b.v.z.l.t.b.V.",
"n.p.c.b.b.b.n.n.b.n.n.e.0.3.[ 7 ] #.0.r.n.n.B.n.b.b.b.b.v.x.t.M.",
"n.p.v.b.b.n.M.M.B.B.e.[.}.'.o.3 y ~. X}.u.N.V.M.M.n.b.b.b.z.t.b.",
"l.t.c.b.b.B.V.B.n.u.{.-X$X*...P Q *.+X-XXXq.N.V.V.V.M.M.b.v.l.l.",
"t.l.v.b.M.V.B.M.w.oX-X'...Y I ~ / Y  .=.;X.Xq.N.V.V.V.V.M.b.z.t.",
"p.v.b.n.B.V.V.n.K OX*Xo.Y T ^ ) ( T U ..*X*X%.m.V.V.V.M.M.b.b.l.",
"l.b.b.B.B.V.V.n.K XXQ.W T ^ ) ' ` ^ / W &. X,.c.M.B.M.M.B.M.z.l.",
"z.b.b.M.M.V.V.n.K |.c I ^ ) ' ' ` ` ^ I y Q.h [ } d.V.V.V.M.v.l.",
"z.b.M.V.V.V.V.n.S !.c P / ) ` ` ` ) ^ I 0 y 6 U R } 9.V.V.V.b.z.",
"v.b.M.M.V.V.M.m.s t q 6 P T ~ ~ ~ / P 6 4 4 2 ! ! 9 9.V.B.M.b.z.",
"v.M.M.M.V.n.0.S + O o o % & & * w w * $ % = D 2.<.2.m.V.V.M.b.v.",
"v.b.M.M.M.n.1.1 X         X X . r =..X].] 1 8.V.B.M.B.V.M.b.v.z.",
"c.b.b.M.i.j p #   # @ . r =.B f f.&XOX@.{ e 8.V.B.V.B.V.M.b.v.z.",
"v.b.n.B.c.1.>.M s - - . 0 :.X.@.@X&X.Xr { e 8.V.V.V.B.B.n.b.b.z.",
"b.n.M.M.M.V.M.a.r.C , O o 5 { h.@X#Xh.-.$.p l.V.V.V.B.B.M.b.b.v.",
"b.n.M.V.V.V.V.V.B.a.A +   8 ..;.j.j.k.f.Z 6.n.V.V.V.V.n.V.b.b.v.",
"b.n.n.V.V.V.V.V.V.M.s.p > v !.].| O.X.Z y.M.V.V.V.V.V.V.V.b.b.c.",
"b.b.n.M.V.V.V.V.V.V.n.a k S.H.L F b J i.M.V.V.V.V.n.V.V.M.b.b.c.",
"b.n.n.n.V.n.V.V.V.V.n.a k A.P.P.L.A.J N.V.V.V.V.V.V.V.n.V.b.c.l.",
"c.n.M.B.V.V.V.V.V.V.n.a l T./.E.L.L.F.N.B.B.V.V.V.V.M.M.V.V.v.l.",
"b.n.n.B.V.V.V.V.V.V.n.a l G $.G L.I.F.N.B.B.V.V.V.V.V.V.V.n.v.l.",
"v.n.n.B.V.V.V.V.V.V.n.a - X.;.%.K.L.F.N.B.V.V.V.V.V.V.V.V.b.l.8.",
"z.v.b.M.V.V.V.V.V.V.n.a - @.g.&.S.A.m b.B.V.V.V.M.M.M.V.n.v.v.l.",
"x.v.b.M.M.M.M.V.B.B.M.a x n N R.).H.u p.B.V.B.B.V.V.B.V.M.v.v.p.",
"z.b.b.M.M.V.V.M.M.V.n.a z A.J.^._.H.; M 7.M.B.B.V.V.V.V.M.v.c.7.",
"l.v.b.M.V.V.V.V.M.V.b.a l C.L.P.Y.H.D.m C b.B.B.M.V.M.V.M.v.l.7.",
"x.x.b.b.M.V.M.B.V.M.M.j # x U.^.(.=X`.C 7.M.B.M.M.M.M.V.b.v.t.t.",
"b.l.z.b.M.M.M.M.B.B.M.l.d ; : : u u C 7.M.B.B.B.V.B.B.M.b.l.y.b.",
"b.t.z.b.b.b.b.b.M.M.M.M.7.1.1.1.>.1.7.b.b.M.M.M.M.b.b.v.v.l.t.b.",
"B.b.t.l.l.z.v.v.v.b.b.b.v.b.M.b.M.b.v.b.b.M.b.v.v.b.z.l.l.t.v.M.",
"B.B.M.b.l.t.l.l.c.v.v.v.v.v.v.b.b.b.v.v.b.v.v.z.z.z.l.z.b.b.B.M."
};
