/* XPM */
static char *result[] = {
/* columns rows colors chars-per-pixel */
"32 32 208 2 ",
"   c #020101",
".  c #0C0C0D",
"X  c #1C0303",
"o  c #16161A",
"O  c #0F1118",
"+  c #2B0707",
"@  c #210202",
"#  c #340A0A",
"$  c #20120F",
"%  c #251C19",
"&  c #1E2315",
"*  c #39231A",
"=  c #071A28",
"-  c #021D31",
";  c #142733",
":  c #323826",
">  c #31322F",
",  c #4C1C18",
"<  c #4C1414",
"1  c #591513",
"2  c #4E0C0D",
"3  c #671618",
"4  c #7B1B1A",
"5  c #761A17",
"6  c #572D1E",
"7  c #66291C",
"8  c #7E2E1E",
"9  c #5A2725",
"0  c #5E362C",
"q  c #513B2D",
"w  c #782624",
"e  c #693923",
"r  c #6A2E36",
"t  c #653F30",
"y  c #763B32",
"u  c #3C4632",
"i  c #35502E",
"p  c #5D403E",
"a  c #555A31",
"s  c #585E32",
"d  c #4E5034",
"f  c #7B402A",
"g  c #6C4B38",
"h  c #725B31",
"j  c #5C663A",
"k  c #636A39",
"l  c #072C4A",
"z  c #012D51",
"x  c #03355D",
"c  c #143550",
"v  c #0A3C67",
"b  c #233C6A",
"n  c #373053",
"m  c #593F48",
"M  c #124259",
"N  c #2B494C",
"B  c #3A514E",
"V  c #14705E",
"C  c #154E6D",
"Z  c #03457A",
"A  c #124F73",
"S  c #224170",
"D  c #355A63",
"F  c #0C6175",
"G  c #39697C",
"H  c #256A79",
"J  c #4F4E4B",
"K  c #6A4C5C",
"L  c #5B6248",
"P  c #637445",
"I  c #6D7A41",
"U  c #6A714B",
"Y  c #585168",
"T  c #506C6E",
"R  c #51796D",
"E  c #7B7B77",
"W  c #646663",
"Q  c #881D1D",
"!  c #821F21",
"~  c #8C2625",
"^  c #9C2424",
"/  c #932626",
"(  c #8E3221",
")  c #903D2C",
"_  c #A32727",
"`  c #AA2B2B",
"'  c #B42F2F",
"]  c #B73030",
"[  c #BC3232",
"{  c #C53737",
"}  c #C83838",
"|  c #C63838",
" . c #80422E",
".. c #8A5731",
"X. c #904D30",
"o. c #AF4A33",
"O. c #8A6238",
"+. c #8B3D46",
"@. c #9B4D55",
"#. c #8D4D4D",
"$. c #A45846",
"%. c #B25842",
"&. c #8A7446",
"*. c #947A43",
"=. c #857559",
"-. c #916B58",
";. c #A66743",
":. c #BD7256",
">. c #B06A4F",
",. c #84596A",
"<. c #925A65",
"1. c #8A6977",
"2. c #9E6E7F",
"3. c #807570",
"4. c #957566",
"5. c #C2785B",
"6. c #CA674B",
"7. c #E87955",
"8. c #C3767C",
"9. c #1C8452",
"0. c #208A4F",
"q. c #798749",
"w. c #768150",
"e. c #5F8366",
"r. c #798665",
"t. c #7BA075",
"y. c #9C874A",
"u. c #8F9F54",
"i. c #848F53",
"p. c #A4954F",
"a. c #95A659",
"s. c #ABA65B",
"d. c #A3B55F",
"f. c #818A65",
"g. c #858D69",
"h. c #888F65",
"j. c #889168",
"k. c #8D9574",
"l. c #99A669",
"z. c #9EAB6D",
"x. c #95A266",
"c. c #9DBB64",
"v. c #94B562",
"b. c #99B671",
"n. c #A2AF6E",
"m. c #A1BE65",
"M. c #A9BC63",
"N. c #A4B36D",
"B. c #A3B868",
"V. c #B2B863",
"C. c #A1BB73",
"Z. c #EF966F",
"A. c #F89C74",
"S. c #EB9D78",
"D. c #A5C166",
"F. c #A9C367",
"G. c #A6C268",
"H. c #ACC669",
"J. c #AFC869",
"K. c #B1C66B",
"L. c #B4CC6B",
"P. c #B9CD6D",
"I. c #B6C468",
"U. c #BDD16E",
"Y. c #BFD370",
"T. c #AECB7A",
"R. c #C0D470",
"E. c #024B84",
"W. c #034E8A",
"Q. c #185C96",
"!. c #0E548F",
"~. c #0F649E",
"^. c #2F7581",
"/. c #025CA4",
"(. c #035FA9",
"). c #0360AC",
"_. c #0164B3",
"`. c #257BAE",
"'. c #1A77C2",
"]. c #897685",
"[. c #A37A8C",
"{. c #75B09D",
"}. c #3692D0",
"|. c #4599D8",
" X c #54A2D2",
".X c #70BED6",
"XX c #449BE1",
"oX c #5CAAE9",
"OX c #64B1EE",
"+X c #9A9E89",
"@X c #899A9B",
"#X c #95929B",
"$X c #8D8898",
"%X c #A38C9C",
"&X c #B6919C",
"*X c #9DA193",
"=X c #91BD89",
"-X c #9B9AA2",
";X c #B69DA6",
":X c #A791A7",
">X c #A6A3AB",
",X c #A9A9B3",
"<X c #D9A280",
"1X c #F6BC98",
"2X c #ECAE8F",
"3X c #BDBCC7",
"4X c #C2BDD2",
"5X c #DCCCC1",
/* pixels */
"R.Y.U.P.H.H.J.L.T.P.P.P.L.P.Y.P.P.P.P.K.L.P.L.L.H.F.D.F.L.U.U.U.",
"Y.L.D.H.J.J.L.P.P.P.P.P.L.J.P.V.;.;.s.K.P.P.P.L.L.L.J.F.D.c.P.R.",
"P.c.H.L.L.L.L.P.P.U.P.n.g.g.g.U w ( 4.g.B.R.R.P.L.L.L.L.J.D.c.P.",
"P.D.J.L.L.P.U.Y.Y.P.n.+X,X-X-X].3 w [.>X+XN.P.P.U.P.L.L.J.H.c.L.",
"D.c.H.L.L.Y.R.Y.P.z.+X3X4X:X<.@.w 5 @.8.;X+Xn.R.R.R.U.U.L.J.D.D.",
"c.D.J.L.U.Y.R.U.l.*X4X;X<.@.Q _ ` ! / / &X3X*Xl.Y.R.R.Y.U.L.H.m.",
"D.H.L.U.Y.R.R.Y.g.>X4X2.Q ^ _ ] { _ ^ ~ [.4X-Xh.U.R.Y.U.R.L.J.D.",
"D.L.L.U.Y.Y.Y.P.f.#X%X+.^ _ ] } | ' _ ^ #.:X$Xh.U.R.Y.Y.R.L.H.D.",
"D.L.L.U.U.R.R.P.g.$X,.4 _ ] { { { { ] ^ 5 1.3.&.P.U.R.R.R.I.J.D.",
"H.L.U.R.R.R.R.P.E ].,.5 ^ ' { { { { ' ^ 5 r r e O.y.I.R.R.R.L.F.",
"J.U.U.U.R.R.U.K.L m r 3 Q ^ ` ` ` ` ^ 4 1 2 < 1 / X.*.V.R.U.L.J.",
"J.L.U.U.U.P.l.f.: X + @ # < < < 9 9 1 # + # # 1 Q 4 y s.R.P.L.J.",
"J.L.U.U.Y.P.u.d .       * -.g % -.3.E * 6 , q O.y.O.p.V.P.L.J.J.",
"J.J.L.U.M.I a &   . . . < 6.5.q S.1X5XJ X.y s P.U.U.U.R.U.L.J.F.",
"L.L.U.U.d.q.j u > o o O X 5 ] X.2X1X2X>.p.g k Y.Y.R.R.R.P.L.J.J.",
"L.L.U.U.U.U.P.l.f.B l ;   X 5 Z.A.A.A.S.>.6 e p.U.R.R.R.U.L.J.J.",
"L.P.P.R.R.R.R.R.y.m !.v - . $  .%.6.:.4.g 7 ( ..u.U.R.P.R.L.L.J.",
"L.P.P.R.R.R.R.p.$.%.K !.!.C z c J r 0 0 f X.o.e a I.R.R.R.L.L.J.",
"J.L.P.R.R.R.V.X.5.S.$.n (.(.).F C ; % 7 8 7 6 0 q.L.R.R.U.J.L.J.",
"L.P.P.P.R.I.R.*.>.%.y b (.(.F 0.C J a h ..h s i.P.R.R.U.R.L.J.D.",
"J.P.U.U.R.R.R.I.y.J b (./.Z V 0.H v.P.U.P.P.P.R.R.R.R.U.R.U.J.F.",
"L.P.U.R.R.R.R.R.I.R !./.W.C i i D b.R.R.R.R.R.R.R.R.R.R.R.P.J.D.",
"L.L.P.Y.R.R.R.R.P.R E./.(.Q.Y Y G C.R.R.R.R.R.R.R.R.R.R.R.J.F.c.",
"F.J.L.U.R.R.R.a.I : x _._.`.|.oX}.{.T.R.R.R.R.R.R.P.U.R.P.J.J.m.",
"F.J.L.P.Y.L.q.N = = x v v /.}.oXoX}.=XY.R.R.R.R.R.R.R.R.U.J.J.D.",
"F.L.L.U.Y.M.i W.Z z l - ; H Q.XXoX`.e.d.R.R.R.R.R.R.R.R.U.J.F.c.",
"D.F.L.U.U.I.P C _.E.- & I t.!.~.}.`.R w.D.U.R.R.U.R.U.R.U.J.D.v.",
"F.F.L.L.U.R.J.P C E.M L N.r.M C  X.X@XI a.U.R.R.P.R.U.U.L.F.c.c.",
"L.m.J.L.U.U.L.I.P > Y E r.W N ^.@X@XU a.P.R.R.R.R.R.U.U.L.D.v.J.",
"U.c.D.J.L.L.L.L.K.l.k.k.+Xj.r.d d j a.J.L.U.R.L.U.P.L.J.J.F.c.L.",
"Y.J.m.D.F.D.H.H.J.L.K.K.B.H.I.F.F.F.J.L.L.U.L.J.J.J.F.D.D.c.J.U.",
"Y.Y.U.L.D.m.D.D.G.H.K.L.H.K.L.L.L.T.J.J.J.L.J.F.F.F.D.F.L.P.U.R."
};
