/* XPM */
static char *result[] = {
/* columns rows colors chars-per-pixel */
"32 32 186 2 ",
"   c #373A2B",
".  c #3E3D2C",
"X  c #3F372B",
"o  c #4A282E",
"O  c #443A25",
"+  c #5D2B35",
"@  c #4E3E3E",
"#  c #673839",
"$  c #3D402E",
"%  c #3F4139",
"&  c #44452F",
"*  c #4D442B",
"=  c #494534",
"-  c #4E5235",
";  c #555637",
":  c #564833",
">  c #694D27",
",  c #6F512B",
"<  c #765420",
"1  c #7B572A",
"2  c #6A433B",
"3  c #5D653D",
"4  c #6F713F",
"5  c #74643B",
"6  c #433E41",
"7  c #525344",
"8  c #565A44",
"9  c #58574B",
"0  c #5C5D58",
"q  c #694B46",
"w  c #6B4756",
"e  c #5F6146",
"r  c #5F6251",
"t  c #676E42",
"y  c #776546",
"u  c #6B7445",
"i  c #6F7947",
"p  c #707141",
"a  c #636456",
"s  c #696E53",
"d  c #676B59",
"f  c #777D5C",
"g  c #6D6D6A",
"h  c #686162",
"j  c #70646A",
"k  c #6F7265",
"l  c #727368",
"z  c #7B7D74",
"x  c #797776",
"c  c #824A36",
"v  c #896D2E",
"b  c #85672A",
"n  c #8C6931",
"m  c #8B773C",
"M  c #917836",
"N  c #95673B",
"B  c #B27527",
"V  c #8E3945",
"C  c #9C3B49",
"Z  c #AA304E",
"A  c #B5394F",
"S  c #AC3B57",
"D  c #D43F55",
"F  c #964F4C",
"G  c #894D48",
"H  c #BB5C5B",
"J  c #BB4949",
"K  c #807E4D",
"L  c #886F6C",
"P  c #8C716C",
"I  c #91746C",
"U  c #A67E66",
"Y  c #AA6170",
"T  c #E65A55",
"R  c #D67947",
"E  c #D05070",
"W  c #CE5466",
"Q  c #E14B61",
"!  c #E15B79",
"~  c #F3687E",
"^  c #76814D",
"/  c #7E894F",
"(  c #78834B",
")  c #7B8554",
"_  c #7C8559",
"`  c #A88A3B",
"'  c #B8973F",
"]  c #848E4F",
"[  c #8A924F",
"{  c #828E51",
"}  c #869252",
"|  c #8B9653",
" . c #8D9A56",
".. c #8A965A",
"X. c #8B9A56",
"o. c #929F5A",
"O. c #938656",
"+. c #A38049",
"@. c #BA9148",
"#. c #94A35A",
"$. c #9BAB5D",
"%. c #ACAD57",
"&. c #B1AE5B",
"*. c #B4B358",
"=. c #BEB95D",
"-. c #808374",
";. c #AB836C",
":. c #9DBB64",
">. c #94B562",
",. c #A4B461",
"<. c #A2BE65",
"1. c #AABB65",
"2. c #CC9A5D",
"3. c #D58549",
"4. c #ECA657",
"5. c #F28060",
"6. c #E59779",
"7. c #C3A467",
"8. c #EEB567",
"9. c #A5C166",
"0. c #AAC367",
"q. c #A6C268",
"w. c #ACC669",
"e. c #AFC869",
"r. c #B2C569",
"t. c #B4CC6B",
"y. c #B9CE6D",
"u. c #BCD26E",
"i. c #BFD470",
"p. c #C0D470",
"a. c #9A7B95",
"s. c #F76986",
"d. c #FB7F88",
"f. c #898A85",
"g. c #8A8685",
"h. c #92918F",
"j. c #938493",
"k. c #999796",
"l. c #9A9B94",
"z. c #9E9C98",
"x. c #B9818E",
"c. c #A78FA7",
"v. c #AC9BA4",
"b. c #A696A1",
"n. c #B999A3",
"m. c #A8A6A7",
"M. c #ADAEB7",
"N. c #B1B1BA",
"B. c #BDBCBE",
"V. c #B6B3B4",
"C. c #DF869D",
"Z. c #CB889A",
"A. c #C095AA",
"S. c #E597AA",
"D. c #C2BCBE",
"F. c #F2A1A1",
"G. c #BBBCC2",
"H. c #C3B2C2",
"J. c #DDBAC3",
"K. c #BEC0C5",
"L. c #C3C3C3",
"P. c #CDCCCB",
"I. c #C7C7C9",
"U. c #DFC7CE",
"Y. c #CCCED2",
"T. c #DCDCDC",
"R. c #D7D5D6",
"E. c #D6CCD7",
"W. c #EDCAD2",
"Q. c #F9CBD5",
"!. c #E0DEDE",
"~. c #E9D8DC",
"^. c #FBD5DB",
"/. c #F5D8DF",
"(. c #DADCE0",
"). c #E3DBE3",
"_. c #FBDCE3",
"`. c #DFE0E4",
"'. c #E5E4E4",
"]. c #ECEBEB",
"[. c #E8E8E8",
"{. c #F0F0EF",
"}. c #F4F3F3",
"|. c #FDFDFD",
" X c #F9F6F7",
".X c #F6E1E6",
/* pixels */
"p.i.u.y.w.w.w.t.t.y.t.y.t.y.y.i.y.y.t.y.y.t.t.e.w.0.9.0.t.y.i.i.",
"i.t.9.w.e.e.t.y.y.y.u.u.y.y.y.u.i.y.y.y.u.u.y.y.t.t.w.0.9.:.t.i.",
"y.<.w.t.t.y.y.y.u.y.u.u.u.y.u.y.i.y.y.y.u.u.u.y.y.t.t.t.e.0.:.y.",
"y.<.e.t.t.y.y.u.u.p.p.u.u.u.i.i.i.i.i.i.u.0.X.$.y.y.t.t.e.w.:.t.",
"9.:.w.t.y.i.i.i.u.p.p.p.p.p.p.p.i.y.p.u.p.#.& i u.i.u.i.t.e.9.9.",
":.9.e.t.u.i.i.i.p.p.p.p.p.p.p.p.i.i.0. .| K 2 y o.e.i.i.i.t.0.:.",
"9.w.t.y.i.p.p.p.u.y.y.p.p.p.p.p.i.y.X.= X 2 H G - $.u.u.i.t.t.9.",
"9.t.y.u.p.p.p.u.r.{ ] r.p.p.p.p.e./ y F C A Q V $ $.i.i.i.y.w.9.",
"9.t.y.u.i.i.i.w.#.s s o.1.p.p.p.,.- # W ~ s.s.Y s ..1.u.p.y.w.1.",
"w.y.u.u.i.i.y.X.8 k.l.7 } u.p.p.1.- + E S.^._.~.V.r i y.p.u.t.w.",
"w.t.y.i.i.i./ f f.I.V.% ( y.p.p.1.- q Z.A.H.].R.j.6 t r.i.i.t.w.",
"e.y.u.u.y.i.$ g T.}.L.0 ) 1.u.p.1.- g ~.c.j.U.Z.w = t $.t.y.y.w.",
"e.t.y.i.i.i.  x ].}.'.L._ s <.u.1.- g [.).J.F.F.2.&.O.3 #.e.e.0.",
"e.e.y.u.i.i.  g ].}.}.{.M._ _ / ) d k.{.|.^.d.R 4.8.U . ..t.e.0.",
"t.t.y.u.u.i.& k R.}. X{.].K.h % 7 z.R. X|.Q.~ T R 3.N & } t.t.w.",
"t.y.u.u.i.i.X._ z I. X]. X`.m.l.M.T.}.|. XQ.! D J c 5 } 1.t.t.w.",
"t.y.u.p.p.p.#._ k I.{.{.}.].T.[.|.|.|.|.|._.C.E Z o 3 r.p.y.t.0.",
"t.y.u.p.p.p.; g D.!.{. X'.T.}.|.|.|.|.|.|. X_.S.S o 3 r.p.y.t.r.",
"e.t.y.u.p.u.{ f f.L.[.'.'.]. X|.|.|.|.}.'.(.}.W.a.@ 3 t.u.t.t.0.",
"t.y.y.u.p.y.y. .; l.I.R.].|.|.|.|.}.].T.I.I.[.T.m.a 4 y.u.t.e.9.",
"e.y.y.i.p.p.p.r.$.s z (. X|.|. X[.Y.G.G.H.P.P.h.r | 1.u.p.u.e.9.",
"t.y.u.i.p.p.p.p.y.} f k.G.(.(.R.Y.K.G.B.V.m.f.k ( 1.u.p.p.u.e.9.",
"w.y.y.i.p.p.p.p.p.r.#.8 x m.M.N.N.B.L.D.v.L 7 ^ r.u.p.p.p.t.0.:.",
"w.e.t.u.p.p.p.p.p.p.w. .s 0 j.v.b.v.v.v.j 9 _ 1.u.u.u.u.u.e.e.<.",
"9.e.t.u.u.u.u.u.p.p.p.y.} t h I ;.L I U : - ,.u.u.p.p.p.u.e.e.<.",
"w.t.t.u.p.p.p.p.u.p.p.u.1.} ; 1 B > , B > ; $.y.p.p.p.p.u.e.0.:.",
"9.e.t.u.p.p.p.p.u.p.u.y...p m b < v n 1 v m 4 o.u.p.u.p.u.e.<.>.",
"9.9.t.t.u.p.u.u.p.p.p.y.t * ' M O ` ` O M @.* i t.p.u.u.t.0.:.<.",
"t.9.e.t.u.u.y.u.u.u.p.u.#.[ =.%.| *.*.] *.=.| $.u.i.i.u.e.0.>.e.",
"t.:.0.e.y.t.t.t.u.y.u.u.y.y.u.u.p.y.y.y.t.u.u.y.u.y.t.e.e.0.:.t.",
"i.t.:.9.9.w.e.w.e.y.y.t.e.t.t.y.y.t.e.t.t.t.t.e.e.t.0.9.9.:.e.u.",
"i.i.y.y.9.:.9.9.q.e.e.e.e.e.t.t.t.t.e.t.t.t.e.0.9.0.9.9.t.y.i.p."
};
