/* XPM */
static char *result[] = {
/* columns rows colors chars-per-pixel */
"32 32 187 2 ",
"   c #3E2F2A",
".  c #3E392C",
"X  c #3B3D32",
"o  c #413A2D",
"O  c #42342C",
"+  c #5C2C32",
"@  c #403A33",
"#  c #47482F",
"$  c #414434",
"%  c #484C35",
"&  c #534A3B",
"*  c #5D4A3B",
"=  c #4D5033",
"-  c #545A3B",
";  c #565C39",
":  c #5A4828",
">  c #67552A",
",  c #735E2D",
"<  c #7A5E2F",
"1  c #674839",
"2  c #675C33",
"3  c #745939",
"4  c #5C633C",
"5  c #7C662F",
"6  c #6E6535",
"7  c #78713F",
"8  c #766B37",
"9  c #575C44",
"0  c #5D5B52",
"q  c #484942",
"w  c #63444A",
"e  c #5F6250",
"r  c #636B40",
"t  c #676B4C",
"y  c #6D7445",
"u  c #7A7149",
"i  c #737C4B",
"p  c #7B7946",
"a  c #676A59",
"s  c #6D7352",
"d  c #757D56",
"f  c #70755A",
"g  c #6B6663",
"h  c #706F6C",
"j  c #6F7066",
"k  c #797E67",
"l  c #7F7D78",
"z  c #746574",
"x  c #8E611F",
"c  c #845F23",
"v  c #896020",
"b  c #8F663A",
"n  c #85763A",
"m  c #A2713A",
"M  c #AF783A",
"N  c #8B2A42",
"B  c #863447",
"V  c #AD394D",
"C  c #CC3E58",
"Z  c #894647",
"A  c #855949",
"S  c #A34442",
"D  c #A84E52",
"F  c #977940",
"G  c #89626A",
"H  c #976D77",
"J  c #CE4153",
"K  c #C85F5F",
"L  c #DD644E",
"P  c #D57B46",
"I  c #CD4466",
"U  c #DC4562",
"Y  c #F24E69",
"T  c #D5637C",
"R  c #EA6371",
"E  c #F96F73",
"W  c #7B854E",
"Q  c #7F8B4E",
"!  c #76804D",
"~  c #7F8A52",
"^  c #7C806C",
"/  c #B6943D",
"(  c #808C4F",
")  c #838D55",
"_  c #899553",
"`  c #8C9A55",
"'  c #8D9B59",
"]  c #899556",
"[  c #919F57",
"{  c #909E5B",
"}  c #BB9544",
"|  c #A28847",
" . c #95A45A",
".. c #99A75D",
"X. c #9CAC5E",
"o. c #9EB15F",
"O. c #80846D",
"+. c #82837A",
"@. c #9DBB64",
"#. c #94B562",
"$. c #A3B561",
"%. c #A1BE65",
"&. c #ABBD65",
"*. c #CA8045",
"=. c #EE8F59",
"-. c #C5A949",
";. c #C5A251",
":. c #EEAC5C",
">. c #DD9969",
",. c #C8A565",
"<. c #E4B066",
"1. c #A5C166",
"2. c #ABC367",
"3. c #A6C268",
"4. c #ACC669",
"5. c #AFC869",
"6. c #B4C66A",
"7. c #B4CC6B",
"8. c #B8CF6D",
"9. c #BCD16E",
"0. c #BFD370",
"q. c #C0D470",
"w. c #8F7B85",
"e. c #977B85",
"r. c #947894",
"t. c #DA748E",
"y. c #D76C87",
"u. c #EA6F89",
"i. c #FC718F",
"p. c #F96E88",
"a. c #898A87",
"s. c #8B8B8A",
"d. c #9E8489",
"f. c #8E9086",
"g. c #909087",
"h. c #969593",
"j. c #999995",
"k. c #9B9A99",
"l. c #979896",
"z. c #A5898A",
"x. c #A4878A",
"c. c #A1989B",
"v. c #A2A09F",
"b. c #AB97A8",
"n. c #B493A9",
"m. c #A3A3A2",
"M. c #AAABA5",
"N. c #ACA7AC",
"B. c #B2AAAF",
"V. c #BDADBE",
"C. c #B6B5B2",
"Z. c #BBB6BA",
"A. c #F59892",
"S. c #D295A8",
"D. c #C2BFBE",
"F. c #EEAABA",
"G. c #FBAEBE",
"H. c #E6B4BB",
"J. c #BABBC3",
"K. c #CBBECB",
"L. c #EAB6C2",
"P. c #FDBBC2",
"I. c #BEC0C6",
"U. c #CEC4CA",
"Y. c #CAC9C8",
"T. c #C3C3C7",
"R. c #CFD0D4",
"E. c #DAD5D6",
"W. c #DCDCDC",
"Q. c #D7D4D6",
"!. c #EFC5CF",
"~. c #E8CDD0",
"^. c #E1DADE",
"/. c #F7D5DD",
"(. c #E2E0DF",
"). c #F9DBE1",
"_. c #E4E3E3",
"`. c #E9E7E6",
"'. c #ECEBEB",
"]. c #E6E7E8",
"[. c #F1F1EF",
"{. c #EDEEF0",
"}. c #F0EEF0",
"|. c #F4F3F3",
" X c #F9F1F3",
".X c #F8F8F7",
"XX c #FDFDFD",
/* pixels */
"q.0.8.8.5.4.5.7.7.8.8.7.8.8.8.8.8.8.8.7.8.7.7.6.5.4.1.3.7.8.0.0.",
"0.7.1.4.5.5.7.8.7.8.9.9.8.8.9.9.0.8.8.8.8.8.8.8.8.5.5.2.1.@.7.0.",
"8.%.4.7.7.8.7.8.8.9.9.9.9.9.9.9.0.8.0.8.8.q.9.8.8.7.7.7.5.3.@.8.",
"8.%.5.7.7.8.8.0.9.q.q.9.9.9.9.9.0.0.0.0.q.q.q.9.9.7.7.7.5.5.@.7.",
"1.@.5.7.8.0.0.q.q.q.q.q.q.q.q.q.0.8.q.q.9.q.6.&.8.q.9.9.7.5.1.1.",
"@.1.5.7.9.0.q.q.q.q.q.q.q.q.q.q.0.0.q.q.q.8.[ r X.q.q.9.0.7.2.@.",
"%.5.7.8.0.q.q.q.q.q.q.q.q.q.q.q.0.0.9.o._ _ u 1 F #.8.9.9.7.7.1.",
"1.7.7.9.q.q.q.9.8.9.6.8.q.q.q.q.0.0.2.i o O Z K + r 4.9.0.8.4.1.",
"2.7.8.9.9.q.q.q.q.$.i _ 9.q.q.q.9.$.y A D V C U + 9 &.q.q.8.5.3.",
"2.7.9.9.q.q.q.q.$.) a d ..6.q.q.q.` o B R p.i.u.G ! { &.q.q.8.3.",
"4.8.9.9.9.q.9.5.i a M.+.- X.q.q.q.` . B T L.).).Q.l.9 ] 0.0.7.4.",
"5.8.9.9.9.q.$.! ^ m.E.s.$ ..0.9.q.` @ G S.n.K.'.J.z X W 8.8.8.4.",
"5.7.9.9.0.9.` X k.'.[.m.e ] 2.9.q.[ $ h.E.r.n.~.H w = W $.4.6.2.",
"5.5.7.9.0.0._ X m.|.[.W.C.a i 7.9.` $ k.}.^.F.A.>.>.&.u r @.5.2.",
"5.8.8.0.9.9.` X m.[.|.|._.l.^ ~ ~ ! j Z.XXXXP.E =.:.<.3 # X.5.4.",
"7.8.9.9.9.0. .$ h.W..X|.{.'.M.q $ g C._.XX XP.Y L P P 3 - #.7.5.",
"8.8.9.q.q.q.&.' f a.(.|.'..XE.m.N.Y.]..XXXXXF.U C S 1 7 ..2.7.5.",
"7.7.8.q.q.q.6.' f a.W.|.[.[.].^.|.XXXXXXXXXX!.t.I N   Q q.7.7.5.",
"7.7.8.9.q.8. .- f.Y.(.|.|.(._.|.XXXXXXXXXX.X}./.y.B O ( 7.7.7.2.",
"7.7.8.q.q.8.&.) k j.Q.`._.`.|.XXXXXXXX.X'.W.].|.L.H @ W q.8.4.1.",
"7.8.8.0.q.q.9.6.! a M.Y.W.|.XXXXXX.X{.].Q.I.R.].Y.f.9 ` 9.9.5.1.",
"6.8.9.0.q.q.q.9.1._ t j.'..X.XXX|.W.T.J.J.I.Y.K.j s ..6.q.8.7.1.",
"5.8.8.0.q.q.q.q.q.&.i O.j.k.B.U.U.Z.N.b.N.B.c.l s _ 7.q.9.7.1.$.",
"3.5.7.9.q.q.0.q.q.q.7.W $ X 0 e.x.x.e.d.x.r.g = ..6.9.9.9.5.5.%.",
"3.5.7.9.9.9.9.q.0.0.9.2... .i & m m * b M * r  .6.9.q.q.8.5.5.%.",
"4.7.7.9.9.q.q.9.9.q.q.q.5. .W , v v , < x 6 7 Q 2.q.q.q.8.7.4.o.",
"1.4.7.9.q.q.q.q.9.q.q.9.$.; , / > > / 5 : } | #  .q.9.q.9.5.1.o.",
"1.2.7.7.9.q.9.0.q.q.q.q.&.; 8 -.6 , -.n 2 ;.| = ..q.8.q.7.4.@.@.",
"7.%.5.7.9.9.9.9.0.0.0.0.9.9.9.9.9.9.9.9.0.q.q.0.q.q.q.9.5.1.o.5.",
"8.%.1.5.7.7.7.7.8.9.9.9.7.8.9.9.9.8.8.8.7.9.0.8.9.8.7.5.5.1.@.7.",
"0.5.%.1.1.1.5.4.5.7.8.7.5.7.8.8.8.7.5.7.7.8.7.5.5.7.3.3.1.@.5.0.",
"0.0.8.8.3.%.1.1.3.5.5.5.5.5.7.7.7.7.5.5.7.5.5.4.3.1.%.1.7.8.0.0."
};
