/* XPM */
static char *result[] = {
/* columns rows colors chars-per-pixel */
"32 32 190 2 ",
"   c #3F2A2A",
".  c #3B382D",
"X  c #432E2B",
"o  c #46312C",
"O  c #493833",
"+  c #6C2A38",
"@  c #3F432F",
"#  c #3F4232",
"$  c #46412F",
"%  c #554528",
"&  c #464A34",
"*  c #474935",
"=  c #504333",
"-  c #4E503B",
";  c #565D3C",
":  c #5A5838",
">  c #785D2B",
",  c #634E3C",
"<  c #655832",
"1  c #5E663D",
"2  c #76612D",
"3  c #616D3F",
"4  c #726534",
"5  c #786F3F",
"6  c #7E7138",
"7  c #594941",
"8  c #595B48",
"9  c #5D585B",
"0  c #7A474F",
"q  c #725942",
"w  c #5D6047",
"e  c #656847",
"r  c #6B7545",
"t  c #6F774F",
"y  c #717B47",
"u  c #727B4B",
"i  c #797E4A",
"p  c #686F53",
"a  c #737958",
"s  c #6C6968",
"d  c #756361",
"f  c #6B6E72",
"g  c #767775",
"h  c #7C7C77",
"j  c #7C7C7A",
"k  c #767778",
"l  c #757669",
"z  c #8C601E",
"x  c #90611E",
"c  c #835F23",
"v  c #90433C",
"b  c #876736",
"n  c #8F7F3C",
"m  c #94693A",
"M  c #B27A3A",
"N  c #B3374E",
"B  c #A63E54",
"V  c #BE3859",
"C  c #D43A58",
"Z  c #96574E",
"A  c #AA4750",
"S  c #B94153",
"D  c #AB5655",
"F  c #B95159",
"G  c #9B7C41",
"H  c #B77841",
"J  c #835B68",
"K  c #B74561",
"L  c #87757D",
"P  c #C5434F",
"I  c #DD445E",
"U  c #EB4E5B",
"Y  c #D57F47",
"T  c #D86D49",
"R  c #CF5B78",
"E  c #CC6A7F",
"W  c #F46D70",
"Q  c #75814A",
"!  c #7D894E",
"~  c #79844D",
"^  c #7A815A",
"/  c #7D826A",
"(  c #7F8273",
")  c #B3933D",
"_  c #828D51",
"`  c #888E52",
"'  c #859152",
"]  c #899654",
"[  c #8D9A56",
"{  c #8E9B5A",
"}  c #909E57",
"|  c #919E59",
" . c #84894D",
".. c #AE8D47",
"X. c #96A45B",
"o. c #98A75C",
"O. c #9DAE5E",
"+. c #96A85C",
"@. c #BEA447",
"#. c #828379",
"$. c #B09C63",
"%. c #9DBB64",
"&. c #94B562",
"*. c #A3B361",
"=. c #A2BD65",
"-. c #ACBD66",
";. c #C09F4F",
":. c #CC9F5F",
">. c #ED9B56",
",. c #C0A547",
"<. c #D79B61",
"1. c #CDA765",
"2. c #F0B161",
"3. c #A5C166",
"4. c #AAC367",
"5. c #A6C268",
"6. c #ACC669",
"7. c #AFC869",
"8. c #B2C469",
"9. c #B4CC6B",
"0. c #B9CE6D",
"q. c #B0C267",
"w. c #BCD16E",
"e. c #BFD370",
"r. c #C0D470",
"t. c #88778A",
"y. c #B27C89",
"u. c #FA6F8B",
"i. c #FC718F",
"p. c #E47F96",
"a. c #8D8D8C",
"s. c #9C8389",
"d. c #8E9086",
"f. c #92928D",
"g. c #939391",
"h. c #9B9C94",
"j. c #9F9F9F",
"k. c #A29A9D",
"l. c #A6888A",
"z. c #9F97A3",
"x. c #A799A9",
"c. c #B49AAF",
"v. c #ABA8AB",
"b. c #B1AEAD",
"n. c #BAADB3",
"m. c #B7AAB1",
"M. c #B2B5BC",
"N. c #B8B9BA",
"B. c #EF9682",
"V. c #F9859C",
"C. c #CB96AA",
"Z. c #FC99A3",
"A. c #D9A0AD",
"S. c #C7AFB8",
"D. c #D5B6BB",
"F. c #EEA9AD",
"G. c #E3A3B3",
"H. c #BABCC3",
"J. c #B7BAC2",
"K. c #C7B6C5",
"L. c #C5C3C4",
"P. c #CBC6C7",
"I. c #CBC9C9",
"U. c #C7C8CB",
"Y. c #D0CDCD",
"T. c #D1D0CF",
"R. c #CBCDD3",
"E. c #DECCD4",
"W. c #D4D5D5",
"Q. c #D5D7DB",
"!. c #DCDBDB",
"~. c #DED5DE",
"^. c #F3C6D1",
"/. c #E1DFDE",
"(. c #F0D9DE",
"). c #E1E0DE",
"_. c #FBDAE1",
"`. c #E4DDE4",
"'. c #E3E2E2",
"]. c #EBE4E5",
"[. c #E8E8E7",
"{. c #ECECEC",
"}. c #E7E8EA",
"|. c #FBEBEF",
" X c #EEEFF1",
".X c #FCEEF0",
"XX c #F4F4F3",
"oX c #F8F8F7",
"OX c #FDFDFD",
"+X c #F8F7F7",
/* pixels */
"r.e.0.0.7.6.7.9.9.0.0.0.0.0.0.e.0.0.9.9.0.9.9.7.7.6.3.4.9.0.w.r.",
"e.9.3.6.7.7.9.0.9.w.w.0.0.0.0.w.e.0.0.0.w.w.0.9.9.9.6.6.3.%.9.e.",
"0.=.6.9.9.9.0.9.0.w.w.0.w.0.w.0.e.0.e.0.w.w.r.9.9.9.9.9.6.5.=.0.",
"0.=.7.9.9.0.e.e.w.r.r.w.e.w.e.e.e.e.e.e.w.r.r.w.w.0.9.9.7.6.%.9.",
"3.%.6.9.0.e.e.e.e.r.r.r.r.r.r.r.e.w.r.r.r.r.r.8.q.w.w.w.9.7.3.3.",
"%.4.7.9.w.e.e.e.r.r.r.r.r.r.r.r.e.e.r.r.r.r.8.Q r q.r.w.e.9.6.%.",
"3.6.9.0.w.r.e.r.8.X.O.r.r.r.r.r.e.e.e.8.X.] _ q 4 ` =.w.e.9.9.3.",
"3.9.9.r.r.r.e.0.o.1 y -.w.r.r.r.e.e.0.%.: o O D F O ! w.e.9.6.3.",
"4.9.9.w.w.r.0.] p d.#.r O.r.r.r.r.0.{ < Z B N I S o Q w.r.w.6.3.",
"4.9.w.e.e.8.o.a g P.g.. } r.r.r.r.0.u X F W u.i.y.d ^ +.9.w.9.6.",
"7.9.w.w.e.+.- d.T.[.j.- } 0.r.r.r.0.u   B p.^._.(.K.#.; *.w.9.6.",
"7.9.w.w.w.{ & a.XX XU.f.a ] 9.r.r.0.t O y.C.c.~._.x.9 O O.w.9.6.",
"7.9.w.e.e.} & a.XX XXX).( p o.*.*.O.t 9 I.K.t.D.K.J = : [ *.7.6.",
"7.9.9.w.w.X.& a.{.oXXX{.W.h.8 & * - l b.[.{.E.F.B.<.1.$.3 y 4.6.",
"7.9.0.e.w.*.u / b.[.XX{.oXU.g f g j v.).oXOX.XZ.W >.>.:.% 3 4.6.",
"9.0.w.e.w.9.*.t s W.XX XoX[.T.!. X X+XOXOXOX.XV.U T <.H % 3 8.6.",
"7.w.w.r.r.O.e ( N.).XXXX'.'.{.oXOXOXOXOXOXOX.Xp.C P v <  .O.7.6.",
"9.9.w.r.r.[ & a.[.{.{.{.'.}.OXOXOXOXOX+X}.{..XG.R V + @ O.9.9.8.",
"9.9.w.w.r.X.- f.[.[.).!.{.OXOXOXOX+XXX'.U.Q.XX].A.K + & O.9.9.6.",
"9.9.9.w.r.*.] l f.P./.{.oXOXOXoX}.Q.R.U.L.!.+X XS.0 q ' 8.9.6.3.",
"9.9.w.r.r.r.9._ w g.L.{. X X}.}.W.H.M.J.P.!.[.Y.h.8 ' 0.w.w.7.4.",
"9.9.w.r.r.r.r.-.{ 8 g M.J.J.H.J.J.L.L.P.P.I.L.L e o.8.r.r.w.7.3.",
"7.9.w.e.r.r.r.r.4.~ p f f t.z.x.v.n.n.n.n.k.#.a _ 8.r.r.r.9.6.%.",
"6.7.9.w.r.r.r.r.w.9._ # . 8 L l.l.t.l.l.t.d - { 0.w.w.w.w.7.6.%.",
"4.7.9.w.e.e.w.e.r.r.-.o.X.i - m M = b M , e } q.w.r.e.r.w.7.7.3.",
"4.9.9.w.e.e.e.e.0.r.r.0.X.i 4 c x > c x 2 6 ' 3.r.r.r.r.w.6.6.%.",
"3.6.9.w.e.e.e.e.w.r.r.-.; < ) 2 % ) b % ..n & ] w.r.w.r.w.7.=.&.",
"4.4.7.9.e.e.w.e.r.r.r.4.3 4 ,.b < ,.n < ;...: [ w.w.w.r.9.6.%.%.",
"9.3.7.9.w.w.0.w.e.e.e.e.w.w.e.w.r.w.r.w.w.e.e.e.e.e.e.w.7.4.&.7.",
"9.%.3.7.9.9.9.9.0.w.w.w.9.0.w.w.w.9.0.9.9.w.w.w.w.0.9.7.7.4.%.9.",
"e.9.%.4.3.4.7.7.7.0.0.9.7.9.0.9.9.9.9.9.9.0.9.7.7.9.4.3.4.%.7.w.",
"e.e.0.9.4.%.3.3.5.6.7.7.6.9.9.9.9.9.9.7.9.7.7.6.3.4.3.4.7.9.e.r."
};
