/* XPM */
static char *result[] = {
/* columns rows colors chars-per-pixel */
"32 32 179 2 ",
"   c #3F3D2E",
".  c #393629",
"X  c #3E3F34",
"o  c #42322C",
"O  c #4C372F",
"+  c #423A35",
"@  c #503E33",
"#  c #472B2C",
"$  c #732A3C",
"%  c #41462F",
"&  c #58472A",
"*  c #42433C",
"=  c #45473B",
"-  c #5B4A3C",
";  c #574933",
":  c #4C5134",
">  c #525736",
",  c #545A3B",
"<  c #595535",
"1  c #69542C",
"2  c #745D2B",
"3  c #6C4E39",
"4  c #5A613F",
"5  c #7B642E",
"6  c #61693F",
"7  c #68643A",
"8  c #786437",
"9  c #76743E",
"0  c #484941",
"q  c #5D4344",
"w  c #545943",
"e  c #605856",
"r  c #5F6742",
"t  c #62664E",
"y  c #676844",
"u  c #6B7446",
"i  c #6E774A",
"p  c #747D4F",
"a  c #767749",
"s  c #65685A",
"d  c #747C55",
"f  c #777F5A",
"g  c #776346",
"h  c #605560",
"j  c #7C5B62",
"k  c #6B6964",
"l  c #786163",
"z  c #77796B",
"x  c #7B7B73",
"c  c #8E611E",
"v  c #845F23",
"b  c #94433D",
"n  c #8A6021",
"m  c #90673A",
"M  c #85753D",
"N  c #897839",
"B  c #A2713A",
"V  c #B1793A",
"C  c #9B3A4E",
"Z  c #B1374E",
"A  c #C53B5E",
"S  c #D53859",
"D  c #96544E",
"F  c #AB4B53",
"G  c #BF5C5C",
"H  c #BD7A43",
"J  c #89616E",
"K  c #CC4556",
"L  c #D8425C",
"P  c #EF495E",
"I  c #D57E46",
"U  c #D96B4A",
"Y  c #CC5875",
"T  c #F46A70",
"R  c #77824A",
"E  c #7E8A4E",
"W  c #7E8149",
"Q  c #7C8555",
"!  c #7E8856",
"~  c #7B8162",
"^  c #B7953E",
"/  c #808B4F",
"(  c #868C51",
")  c #869353",
"_  c #899555",
"`  c #8E9B56",
"'  c #909E58",
"]  c #BF9549",
"[  c #94A35A",
"{  c #9CAC5D",
"}  c #98A65D",
"|  c #84867A",
" . c #9DBB64",
".. c #94B562",
"X. c #B5A065",
"o. c #A4B562",
"O. c #A2BD65",
"+. c #ABBD65",
"@. c #ED9756",
"#. c #C3A748",
"$. c #CBA752",
"%. c #D89A62",
"&. c #CEA664",
"*. c #D4A562",
"=. c #F0B060",
"-. c #A5C166",
";. c #AAC367",
":. c #A6C268",
">. c #ACC669",
",. c #AFC869",
"<. c #B3C569",
"1. c #B4CC6B",
"2. c #B9CE6D",
"3. c #BCD16E",
"4. c #BFD470",
"5. c #C0D470",
"6. c #8E7A82",
"7. c #93798C",
"8. c #A67480",
"9. c #D96A84",
"0. c #DE758C",
"q. c #FA6F8B",
"w. c #FC718F",
"e. c #97818A",
"r. c #92938E",
"t. c #9C9C9B",
"y. c #989193",
"u. c #898A87",
"i. c #A18689",
"p. c #A78A8B",
"a. c #A1A19B",
"s. c #A79DAA",
"d. c #B499AE",
"f. c #AF9DB0",
"g. c #A5A6A1",
"h. c #ABA1AD",
"j. c #AEAEAA",
"k. c #B3A7AD",
"l. c #BAAFB8",
"z. c #B4B3B2",
"x. c #B8B6B7",
"c. c #F39588",
"v. c #CF96AA",
"b. c #E98CA2",
"n. c #FA92A7",
"m. c #DBA6B2",
"M. c #C1BFBD",
"N. c #C3A6B5",
"B. c #FDA4AD",
"V. c #ECACB1",
"C. c #EAB0BF",
"Z. c #BABBC2",
"A. c #BEC0C7",
"S. c #C4C3C3",
"D. c #CDCBCB",
"F. c #CBC0C6",
"G. c #D1C4CE",
"H. c #D2CBCD",
"J. c #DBCED7",
"K. c #CFD0D3",
"L. c #D3D3D2",
"P. c #DCDBDC",
"I. c #D7D8DC",
"U. c #E8C3CB",
"Y. c #F2C2CE",
"T. c #F8DAE0",
"R. c #E5E4E3",
"E. c #E9E7E7",
"W. c #EDECEC",
"Q. c #E8E8E8",
"!. c #F0EFEF",
"~. c #F8EAED",
"^. c #F1F0EF",
"/. c #FBEEF1",
"(. c #F1EEF1",
"). c #F4F4F4",
"_. c #FEF3F5",
"`. c #FDFDFD",
"'. c #F8F8F7",
/* pixels */
"5.4.2.2.,.>.,.1.1.2.1.2.1.2.2.4.2.2.1.1.2.1.1.>.>.>.-.>.1.2.3.5.",
"4.1.-.>.,.,.1.2.2.2.3.3.2.2.2.3.2.4.2.2.3.2.2.2.2.1.,.,.-. .2.3.",
"2.O.>.1.1.2.1.2.2.3.3.3.3.2.3.2.4.2.3.2.3.5.3.2.1.1.1.,.,.-. .2.",
"2.O.,.1.,.2.2.4.3.5.5.3.4.3.4.3.4.4.4.4.3.5.5.3.3.2.,.1.,.>. .1.",
"-. .>.1.2.4.4.4.3.5.5.5.4.5.5.5.4.3.4.3.5.3.>.;.3.5.3.3.2.,.-.-.",
" .-.,.1.4.4.5.4.5.5.5.5.5.5.5.5.4.4.4.3.3.2.E 4 +.5.5.3.3.1.>. .",
"-.>.1.2.4.5.5.5.5.5.5.5.5.5.5.5.4.4.2.} _ ( g g ( o.3.3.3.,.,.-.",
"-.1.2.3.5.5.5.3.3.2.1.3.5.5.5.5.4.2.o.y   O D K @ R 3.3.5.3.>.-.",
"-.1.2.3.3.5.5.5.5.} u { 4.4.5.5.4.' y D F Z L K # i 2.5.5.2.>.-.",
">.2.3.3.5.4.5.2.{ Q s Q { 2.5.5.2.Q # F T w.w.9.l Q } <.5.4.1.>.",
">.2.2.3.3.4.3.O.r z j.k y +.5.4.4.p . C 0.Y.T.T.H.| , { 4.3.1.>.",
",.2.3.3.3.4.o.R | z.L.k : o.5.4.3.R + 8.v.d.J.Q.f.h   [ 4.3.1.>.",
",.1.2.4.4.4.) * x.^.Q.u.t [ >.4.3.R = l.G.7.N.U.J q < _ o.1.,.,.",
",.,.2.3.4.4._ * S.).W.I.a.t ) 4.2.R 0 x.!.J.V.c.%.&.X.y > 1.,.:.",
",.2.2.3.3.4._ * S.).).).L.u.~ E E f x D.`._.B.T @.=.&.; . 1.,.,.",
"1.2.3.3.3.4.` = j.R.'.^.^.R.r.% * x S.W.`./.n.P U I H & % 1.1.,.",
"1.2.3.5.5.5.+._ s t.!.^.(.).D.a.z.L.W.'.`._.b.S K b 1 W [ 2.1.>.",
"1.2.2.4.5.5.;._ d t.E.).!.W.R.R.'.`.`.`.`._.C.9.A $   [ 3.2.2.>.",
",.1.2.3.5.5.[ w a.K.E.'.!.P.E.'.`.`.`.`.`.'./.U.Y $ . [ 2.,.1.;.",
"1.2.2.4.5.2.o.! z g.P.R.R.E.).`.`.`.`.'.Q.I.W.~.m.j + [ 3.2.>.-.",
"1.2.3.4.5.5.4.+.y z z.D.R.'.`.`.`.).W.R.K.A.I.E.M.x 4 { 5.3.,.-.",
",.2.3.4.5.5.5.2.o.! s z.^.'.'.'.W.I.A.Z.Z.S.D.z.s p o.2.5.3.,.;.",
",.1.2.4.5.5.5.5.4.{ p | t.t.z.H.F.l.h.h.h.k.y.x i [ 3.5.5.,.-. .",
">.,.1.3.5.5.4.5.5.3.+.u + = e e.p.i.7.i.i.6.e , o.1.3.3.3.,.,.O.",
":.,.1.3.5.3.3.3.5.5.3.o.[ [ y - V m - B B - i { 2.5.5.5.2.<.,. .",
">.1.,.3.5.5.5.5.3.5.5.5.;._ 9 5 c 2 5 c n 5 a ` <.5.5.5.3.1.;. .",
"O.>.1.3.5.5.5.5.3.5.5.3.[ : N ^ & 5 ^ 1 1 ] 8 > o.5.5.5.3.,.-...",
"-.>.1.1.3.5.3.3.5.5.5.5.} < N #.< N #.7 8 $.M > o.5.2.5.1.>. . .",
"1.O.>.2.3.3.3.3.3.5.5.3.3.3.3.3.3.3.5.3.3.4.4.4.4.4.4.3.,.;...,.",
"2.O.-.,.2.,.,.1.3.3.3.3.1.2.3.3.3.1.2.1.1.3.4.2.3.2.1.,.,.-. .1.",
"4.,. .-.-.-.,.,.,.1.2.,.,.1.2.2.2.1.,.1.2.2.1.,.,.1.>.-.-. .,.5.",
"4.4.2.2.-.-.-.-.;.,.,.,.1.,.1.1.1.1.,.,.,.,.,.>.-.;.-.-.,.2.5.5."
};
