/* XPM */
static char *_24ff4a680654da3b1b749bbf79a0592BS9UViUfGtzTSvu6[] = {
/* columns rows colors chars-per-pixel */
"32 32 12 1 ",
"  c #E8CFA6",
". c #78A158",
"X c #A4C263",
"o c #C0D470",
"O c #90625D",
"+ c #F3E5C2",
"@ c #DCB98A",
"# c #E8B5AC",
"$ c #754C60",
"% c #D99A9A",
"& c #B3C373",
"* c #9AB367",
/* pixels */
"    ........................    ",
" ..XXXXXXXXXXXXXXXXXXXXXXXXX... ",
" .XXXXXXXXoXXXXXoXXXoooXXXXXXX. ",
" XXXXXoooooooXoXoXoooooXoXXXXX. ",
"..XXooooooooooooooooooooooooXXX.",
".XXXoooooooooooooooooooooooooXX.",
".XXXoooooooooooooooooooXoooooXX.",
".XXoooooXoooooooooOOooOOooooooX.",
".XXooooooooooooooO+OooO+OooooXX.",
".XooooooooooooOOoO+OOOO+OooOOoX.",
".XXooooooooooO++OO@@@@@++OO++OX.",
".XoooooooOOOOO++++@@@@@+++O++OX.",
".XXooooOO@@@+O##+@@@@@++++O##OX.",
".XXXooO@@@@@++OOO@@$$+++$$+OOXX.",
".XXoooO@@@@++++++++++++++++OXXX.",
".XoooOO@@++++++++++++######OoXX.",
".XooO@O++++++@@++O++##%##%#OoXX.",
".XXO@OO+++++@@@@++O+#######OoXX.",
".XXOOoO++++++@@++++OOOOOOOOoXXX.",
".XXXoXO@@@@+++++++@@@OoooooooXX.",
".XooooO@@@@@@@@@@@@@@OooooooooX.",
".XXoo&&O@@OOOO@@OOO@@O&&ooooooX.",
".Xoo&&&O@@O&&O@@O&O@@O&&&ooooXX.",
".XXX&&&&OO&&&&OO&&&OO&&&&XooXXX.",
".XXoo&*&&&&&&&&&&&&&&&&&oooooXX.",
".XXoooooXooooooooooooooooooooXX.",
".XXooooooooooooooooXoooooooooXX.",
".XXXooooooooooooooooooooXoXoXXX.",
" .XXooXoooooXooooXooooooooooXX. ",
" .XXXXXXooooXXXooXXXXooXoXXXXX. ",
" ..XXXXXXXXXXXXXXXXXXXXXXXXXX.. ",
"    ........................    "
};
