/* XPM */
static char *result[] = {
/* columns rows colors chars-per-pixel */
"32 32 174 2 ",
"   c #282825",
".  c #2B2B2B",
"X  c #252523",
"o  c #373B2C",
"O  c #3C3F2E",
"+  c #2E2E30",
"@  c #353637",
"#  c #3C3E34",
"$  c #3A3A3B",
"%  c #464C34",
"&  c #42443B",
"*  c #464A3B",
"=  c #4A5036",
"-  c #4D523D",
";  c #51563C",
":  c #555B3C",
">  c #585F3C",
",  c #5C643D",
"<  c #434441",
"1  c #4B4D45",
"2  c #4C4D4D",
"3  c #4D5143",
"4  c #525546",
"5  c #5A5F41",
"6  c #5A5D4C",
"7  c #4E4E50",
"8  c #4F5253",
"9  c #525253",
"0  c #5D5F50",
"q  c #50505B",
"w  c #56585C",
"e  c #5D5C5C",
"r  c #646C44",
"t  c #61664B",
"y  c #6C7545",
"u  c #6E7A47",
"i  c #6A714E",
"p  c #717B47",
"a  c #727C4A",
"s  c #686E54",
"d  c #6B6D5E",
"f  c #636458",
"g  c #6F7751",
"h  c #737A54",
"j  c #757B5C",
"k  c #575863",
"l  c #5C5D63",
"z  c #605F64",
"x  c #6A6B65",
"c  c #65666F",
"v  c #66686D",
"b  c #6B6C6D",
"n  c #656565",
"m  c #707363",
"M  c #767D61",
"N  c #777C6A",
"B  c #7A7A6F",
"V  c #74736B",
"C  c #656672",
"Z  c #676972",
"A  c #6E6F78",
"S  c #6B6D73",
"D  c #6F7278",
"F  c #737271",
"G  c #72747B",
"H  c #75797B",
"J  c #7B7B7C",
"K  c #76824A",
"L  c #7A874D",
"P  c #7E8C4F",
"I  c #7E8A52",
"U  c #7B8459",
"Y  c #7F9050",
"T  c #7F8070",
"R  c #808D53",
"E  c #839153",
"W  c #899654",
"Q  c #8C9A55",
"!  c #839058",
"~  c #8D9A59",
"^  c #95A45B",
"/  c #9BAC5E",
"(  c #95A85B",
")  c #808273",
"_  c #888A7E",
"`  c #9EAD61",
"'  c #94B562",
"]  c #9DBB64",
"[  c #A4B662",
"{  c #A2BD65",
"}  c #ABBD65",
"|  c #A5C166",
" . c #ABC367",
".. c #A6C268",
"X. c #ACC669",
"o. c #AEC869",
"O. c #B2C569",
"+. c #B4CC6B",
"@. c #B9CF6D",
"#. c #BCD16E",
"$. c #BFD470",
"%. c #C0D470",
"&. c #777786",
"*. c #777885",
"=. c #7B7D84",
"-. c #7D7E8A",
";. c #7F828A",
":. c #7B8182",
">. c #848383",
",. c #8C8F80",
"<. c #82858B",
"1. c #848B8C",
"2. c #8C8B8D",
"3. c #918F8D",
"4. c #969788",
"5. c #9E9E8F",
"6. c #868992",
"7. c #8B8A93",
"8. c #868897",
"9. c #8E929B",
"0. c #8E9294",
"q. c #959393",
"w. c #989694",
"e. c #92939C",
"r. c #9B9C9C",
"t. c #A9A999",
"y. c #A4A498",
"u. c #9497A1",
"i. c #9897A2",
"p. c #9598A2",
"a. c #9B9BA5",
"s. c #9D9DAE",
"d. c #9F9FB0",
"f. c #A19FA5",
"g. c #9EA2A2",
"h. c #A2A4A5",
"j. c #ACACAD",
"k. c #A4A5AD",
"l. c #B0B0AF",
"z. c #A0A1B2",
"x. c #A7A8B1",
"c. c #ACACB5",
"v. c #A8ABBC",
"b. c #A5AABD",
"n. c #AEB0BE",
"m. c #B3B2B3",
"M. c #B9B7B7",
"N. c #B8B8B7",
"B. c #B4B5BC",
"V. c #B6B8BD",
"C. c #BCBABC",
"Z. c #C0BDBE",
"A. c #ADB0C0",
"S. c #B3B5C5",
"D. c #B6B8C5",
"F. c #BCBCC2",
"G. c #BCBDCA",
"H. c #C1BFC1",
"J. c #BEC0CC",
"K. c #C5C3C4",
"L. c #C8C7C6",
"P. c #C4C3CB",
"I. c #CAC7C8",
"U. c #CBC9CA",
"Y. c #C0C1D3",
"T. c #C8C8D4",
"R. c #D5D4D4",
"E. c #D9D6D5",
"W. c #DCDBDB",
"Q. c #DBDDE5",
"!. c #DFE0E5",
"~. c #E4E3E4",
"^. c #ECECEC",
"/. c #F4F4F3",
/* pixels */
"%.$.@.@.o.X.o.+.O.@.@.@.@.@.@.@.@.@.@.+.@.+.+.o.o. .| | +.#.#.$.",
"$.+...X.o.o.+.@.@.@.@.@.@.@.@.#.%.#.@.@.#.@.@.@.+.+.X.X.| ] +.$.",
"@.{ X.+.+.+.+.@.@.@.@.@.@.@.#.@.$.@.$.@.#.#.%.@.@.+.+.+.o...] @.",
"@.{ o.+.+.@.@.$.%.%.%.%.%.%.%.#.$.#.$.$.#.%.%.#.#.@.+.+.+...] @.",
"| ] o.+.#.$.$.%.%.%.%.%.%.%.%.%.@.W > L O.%.%.#.W > L O.+.o.| | ",
"] | o.+.#.$.%.%.%.%.%.%.%.%.%.%.O.R ; a [ O.O.} L - a } @.+.X.] ",
"| X.+.@.#.%.%.%.%.%.%.%.%.%.%.} E j J N a a a a M J N R [ o.o.| ",
"| +.+.%.%.%.%.#.@.%.%.%.%.%.%./ ; c v.7.2 & & & =.n.=.; Q o.o.| ",
"| +.#.#.#.%.%.%.%.%.%.%.%.%.%./ % l v.G.m.l.l.c.F.A.G * W +.o.| ",
"X.+.#.#.%.%.%.%.%.%.%.%.%.%.%./ % l n.!.^./././.!.G.G % Q O.+.X.",
"o.+.#.#.%.%.%.%.%.%.%.%.%.%.@.^ - b J.W.^././.^.~.U.=.3 W O.+.X.",
"o.@.#.#.#.%.%.%.%.%.%.%.%.O./ R d 3.K.C.l.R.W.l.B.L.r.m U L / X.",
"o.+.#.#.%.%.#.O.O.O.O.O.O./ r 4 3.N.Z.3.F m.C.F >.C.N.w.0 % P | ",
"X.+.+.#.%.%.O.Q u y y y y , O $ J c.P.j.q.K.L.4.h.P.h.B h u ^ X.",
"+.+.@.%.#.O.` h 3 1 1 1 1 * < 2 G s.J.T.P.I.I.K.P.D.>.t W { | X.",
"+.+.#.#.O.Q h _ j.j.j.j.j.l.l.m.F.S.z.S.P.7.7.G.c.H j Q } +.+.o.",
"+.@.@.O.( U F M./.^.^.^.^.^.^.^.^.P.i.f.z.C z s.-.< p O.%.@.+.o.",
"+.+.} ^ i _ C.W.~.W.E.E.E.E.E.E.R.I.B.a.-.C C &.k # a O.%.O.+.X.",
"+.` L U ) r.C.R.E.U.K.U.U.U.U.L.K.K.H.c.e.7.7.7.z # a O.#.o.+.X.",
"+.L O x N.c.7.j.I.C.M.Z.L.L.K.K.V.C.I.H.F.C.F.M.J & p O.%.@.X.| ",
"+.K X v U.v.<.f.C.k.r.g.h.y.h.h.c.D.K.P.P.G.P.L.>.* p O.%.#.o.| ",
"+.K X n U.m.-.a.m.0.;.1.1.=.H =.e.c.F.D.A.A.n.G._ * p O.%.#.o.| ",
"o.K   x P.c.-.9.k.;.:.9.<.c 9 9 A e.x.a.-.-.8.z.H & p O.%.O.X.] ",
"X.E = m y.1.C 6.a.*.-.p.-.w 3 3 9 G u.-.k q Z s.G & p o.#.o.X.{ ",
"| { ( W 6 & < H u.&.&.9.S 1 a R - l 6.S $ + 7 1.A * u } @.O.+.{ ",
"X.+.o./ K r r d H <.<.H S m h a r g b b l $ @ l b x j E [ O.| ] ",
"{ X.o.+.O. .` t 9 q.2.9 F q.f ; Q I 3 F 3.9 . . n w.V : Q  .{ ' ",
"| X.+.+.@.#.} u 6 5.4.0 T y.d > / Q 5 T y.s O o m t.T 5 Q X.] ] ",
"+.{ o.+.#.#.#.#.$.$.$.$.#.$.#.$.$.#.#.#.#.$.$.$.%.$.$.#.o. .' o.",
"@.{ | o.O.+.+.+.#.@.$.#.+.+.@.$.#.@.+.@.+.#.#.@.#.@.+.o.o.| ] +.",
"$.+.{ | | X.o.o.o.@.@.+.o.+.@.@.@.+.o.+.+.@.+.o.o.+.| | | ] o.#.",
"$.$.@.+.| ] | | ..o.o.o.X.o.+.+.+.+.+.o.+.o.o. . . .| | +.#.#.%."
};
