/* XPM */
static char *result[] = {
/* columns rows colors chars-per-pixel */
"32 32 176 2 ",
"   c #242524",
".  c #292925",
"X  c gray17",
"o  c #33342A",
"O  c gray19",
"+  c #393B34",
"@  c #3C3B3D",
"#  c #3D4037",
"$  c #3F403B",
"%  c #464B33",
"&  c #494E36",
"*  c #414439",
"=  c #4A4E3B",
"-  c #474B3A",
";  c #4F5439",
":  c #4D5437",
">  c #50563C",
",  c #545B3A",
"<  c #3F3F41",
"1  c #444444",
"2  c #464846",
"3  c #4B4B46",
"4  c #47494B",
"5  c #4B4D4B",
"6  c #42424A",
"7  c #4E504B",
"8  c #52554C",
"9  c #565B48",
"0  c #5C5F4C",
"q  c #4B4B53",
"w  c #585756",
"e  c #57575D",
"r  c #575956",
"t  c #605F5C",
"y  c #5D6444",
"u  c #5D624C",
"i  c #5E6152",
"p  c #5F635A",
"a  c #626A42",
"s  c #61654E",
"d  c #717B47",
"f  c #717C49",
"g  c #666B55",
"h  c #64685A",
"j  c #646856",
"k  c #6C7058",
"l  c #747C5A",
"z  c #717953",
"x  c #5C5D65",
"c  c #5E5E6A",
"v  c #5F6168",
"b  c #636364",
"n  c #696967",
"m  c #64656B",
"M  c #66696D",
"N  c #6B6C6E",
"B  c #6C7069",
"V  c #767A60",
"C  c #787E6D",
"Z  c #747468",
"A  c #686974",
"S  c #6F7176",
"D  c #6F707B",
"F  c #747373",
"G  c #7E7E77",
"H  c #72757A",
"J  c #77787B",
"K  c #7E7E7C",
"L  c #777B75",
"P  c #75814C",
"I  c #79854C",
"U  c #7D8A4E",
"Y  c #798350",
"T  c #7A835A",
"R  c #7D8A53",
"E  c #7E8075",
"W  c #818D52",
"Q  c #849454",
"!  c #899754",
"~  c #8C9B55",
"^  c #899559",
"/  c #8E9B59",
"(  c #94A35A",
")  c #9CAC5E",
"_  c #9EB05F",
"`  c #81807F",
"'  c #9DAC62",
"]  c #94B562",
"[  c #9DBB64",
"{  c #A3B461",
"}  c #A2BE65",
"|  c #AABC65",
" . c #A4B36B",
".. c #A8B76F",
"X. c #A5C166",
"o. c #ABC367",
"O. c #AFC967",
"+. c #A6C268",
"@. c #ACC669",
"#. c #AFC869",
"$. c #B2C569",
"%. c #B4CC6B",
"&. c #B9CF6D",
"*. c #BDD26E",
"=. c #B5C37B",
"-. c #B8C57E",
";. c #BFD470",
":. c #C0D470",
">. c #747582",
",. c #767883",
"<. c #7B7C85",
"1. c #7B7D8A",
"2. c #7E8088",
"3. c #7D8286",
"4. c #828382",
"5. c #83848C",
"6. c #868C8F",
"7. c #8D8C8C",
"8. c #8C8A83",
"9. c #908F8D",
"0. c #8A8D93",
"q. c #8B8C9A",
"w. c #848692",
"e. c #8E919B",
"r. c #8D9394",
"t. c #929595",
"y. c #9A9A96",
"u. c #91939C",
"i. c #98979A",
"p. c #9C999A",
"a. c #95999B",
"s. c #A29F9D",
"d. c #999BA4",
"f. c #9C9DAC",
"g. c #9598A8",
"h. c #999EB2",
"j. c #A09EA3",
"k. c #A09FA8",
"l. c #9EA0AA",
"z. c #9EA1B3",
"x. c #A4A4AA",
"c. c #A4A8AF",
"v. c #AAAAAC",
"b. c #B0ADAD",
"n. c #A3A4B5",
"m. c #A7A9B5",
"M. c #ACADB2",
"N. c #AAACBC",
"B. c #AFB1B6",
"V. c #B4B3B5",
"C. c #B8B6B6",
"Z. c #B4B4BB",
"A. c #B8B6BB",
"S. c #B7B8BE",
"D. c #BCBBBB",
"F. c #C0BEBD",
"G. c #B3B6C7",
"H. c #BBBBC2",
"J. c #C1BFC1",
"K. c #C3C3C4",
"L. c #C9C6C6",
"P. c #C3C4CD",
"I. c #CDCCCB",
"U. c #D2CFCE",
"Y. c #C3C3D3",
"T. c #CECED2",
"R. c #D1D1D1",
"E. c #D2D4DD",
"W. c #DADADB",
"Q. c #E0DFDF",
"!. c #DEDFE0",
"~. c #E3E3E3",
"^. c #EAE9E8",
"/. c #E4E5E8",
"(. c #F1F2F1",
"). c #FAFAFA",
/* pixels */
":.;.*.&.@.@.@.%.%.&.%.&.&.&.&.&.&.&.&.%.%.%.%.$.#.@.X.@.%.&.;.;.",
";.%.X.@.#.#.%.&.&.*.*.&.&.&.&.*.;.*.&.&.&.&.&.&.&.#.@.+.X.[ %.;.",
"&.} @.%.%.%.&.&.&.&.:.&.*.*.*.*.;.&.;.&.*.;.*.&.&.%.%.%.#.+.[ &.",
"&.} #.%.%.&.&.*.&.:.:.:.*.*.*.*.;.*.;.;.;.:.:.*.;.%.%.%.#.@.[ %.",
"X.[ O.O.*.;.;.;.&.:.:.:.:.:.:.:.*.$.o.$.*.:.:.:.&.| @.;.&.O.X.X.",
"[ X.%.%.*.;.:.;.:.:.:.:.:.:.:.:.&.W & d $.*.*.%.U % f $.*.%.+.[ ",
"[ #.%.*.*.:.:.:.:.:.:.:.:.:.:.$.) T h l ~ ( ( / T h l ( $.O.%.X.",
"X.%.%.:.:.:.:.*.&.:.:.:.:.:.:._ y B d.4.9 ; ; ; L d.E y ( %.@.X.",
"@.%.%.*.*.:.:.:.:.:.:.:.:.:.:.) % v N.m.7.4.4.4.x.G.>.- ! %.@.X.",
"@.%.*.;.:.:.:.:.:.:.:.:.:.:.:.) % x N.E.W.~.~.~.E.G.D - ! &.%.@.",
"#.%.*.*.:.:.:.:.:.:.*.:.:.:.*.) & v S./.(.).).(./.P.J = ! %.%.@.",
"#.&.*.*.*.:.*.| ) _ _ ) _ _ ) ^ i E K.R.I./.^.I.I.I.7.i W ( | @.",
"#.%.&.;.;.&.| I , : ; ; ; ; > s 8.b.F.i.` D.K.K 7.D.V.7.g : Q @.",
"#.#.%.| ( ~ ^ l n n n n n n n L a.A.K.i.K C.F.G 7.K.b.8.g , Q +.",
"#.%.o.( y = 0 y.U.U.U.U.R.R.T.D.e.f.Y.P.D.I.R.C.H.P.0.j R ( } O.",
"%.) P T G K 7.L.(.^.^.^.^.^.^.R.k.d.N.Y.P.v.x.P.H.u.C I _ %.%.@.",
"%.U o n L.W.W.Q.~.R.U.R.U.U.U.I.J.x.q.m.G.A A m.q.w f | &.%.%.@.",
"%.P   n U.U.B.J.R.K.J.L.I.L.I.L.J.B.k.d.q.c c w.A + f $.:.%.&.$.",
"#.P   n I.V.5.x.K.B.M.C.C.D.D.D.Z.A.J.k.w.>.>.<.e + d $.*.%.%.+.",
"%.I . n L.m.<.d.D.p.t.t.t.t.r.a.n.H.J.Z.z.h.h.x.S # d $.*.&.@.X.",
"#.~ , V y.<.m t.M.6.3.6.5.H n N w.x.Z.m.h.g.n.V.` * d @.*.*.#.X.",
"#.+.' ^ u # < <.l.<.2.u.2.c 4 2 c 5.x.q.>.D 1.f.J * f $.:.*.%.X.",
"%.%.&.{ P % + D g.,.1.g.J w 9 a 7 N u.,.q 6 x u.H # f $.*.%.X.[ ",
"o.%.%.%.| f ; F e.<.1.6.n 9 l ! > e 5.M @ X 6 <.F 3 f | $.%.@.} ",
"X.#.%.*.*.{ R g M 7.5.m F G k a I z h N S 1 O 4 M K V z ) o.O.} ",
"o.%.O.*.*.*.| a 3 t.9.5 F p.t : ( W = F y.r     b s.Z = Q o.O._ ",
"X.#.%.*.:.:.&.{ ' =.=.' ......' $.| ' ..=.[ ( (  .-...) @.O.X._ ",
"X.o.%.%.*.:.*.*.;.;.;.;.:.:.:.:.:.:.:.:.:.:.;.;.&.:.&.:.%.+.[ [ ",
"%.X.#.%.*.*.*.*.;.;.;.;.&.;.*.*.:.*.;.*.;.;.;.;.;.;.;.;.O.+._ O.",
"&.[ +.#.%.O.%.%.;.&.;.&.%.&.&.;.*.&.&.&.%.;.;.&.;.&.O.O.O.X.[ %.",
"*.%.[ X.+.o.O.@.#.&.%.&.#.%.&.&.&.%.#.%.&.%.%.O.#.O.+.X.X.[ #.;.",
";.;.&.&.X.} X.X.X.#.#.#.#.#.%.%.%.%.#.#.%.#.#.#.+.+.X.+.%.%.;.;."
};
