/* XPM */
static char *_8c1bc5749f046f6e44e3a3de74bed53NhgF6HC7ULOm8euE[] = {
/* columns rows colors chars-per-pixel */
"32 32 151 2 ",
"   c #E8CFA6",
".  c #78A158",
"X  c #78A159",
"o  c #A4C263",
"O  c #C0D470",
"+  c #C1D573",
"@  c #D2DF99",
"#  c #D7E2A5",
"$  c #D1DF99",
"%  c #C0D471",
"&  c #CBDB8E",
"*  c #D9E3C5",
"=  c #DBE4CB",
"-  c #DAE1CC",
";  c #D4DDBC",
":  c #CADA88",
">  c #C3D676",
",  c #D4E09E",
"<  c #D8E1C4",
"1  c #82A863",
"2  c #7FA560",
"3  c #779861",
"4  c #8DA280",
"5  c #EEF0DF",
"6  c #CDDC8E",
"7  c #D9E4AB",
"8  c #C3D4A6",
"9  c #9CBA7B",
"0  c #97B861",
"q  c #97B860",
"w  c #8DAE5E",
"e  c #85A466",
"r  c #91A585",
"t  c #CED8B3",
"y  c #D2DF9A",
"u  c #C5D77B",
"i  c #D6E2A4",
"p  c #A5C084",
"a  c #8FB25E",
"s  c #99BA60",
"d  c #9ABA60",
"f  c #88A55F",
"g  c #6F895E",
"h  c #60765E",
"j  c #CCD2C3",
"k  c #DAE4AD",
"l  c #CED897",
"z  c #DDD1CC",
"x  c #93AA7B",
"c  c #88AB5D",
"v  c #9BBC61",
"b  c #8EB15D",
"n  c #85A65D",
"m  c #728260",
"M  c #666769",
"N  c #76827B",
"B  c #CAD1B9",
"V  c #D5E1A1",
"C  c #925779",
"Z  c #737563",
"A  c #79995C",
"S  c #8EB25D",
"D  c #8DB15D",
"F  c #677C5F",
"G  c #6F5A67",
"H  c #9F718A",
"J  c #EBEBDF",
"K  c #CDDC92",
"L  c #C1D572",
"P  c #D1BDAE",
"I  c #BC8691",
"U  c #C2838E",
"Y  c #BB8F8A",
"T  c #928875",
"R  c #667B5F",
"E  c #5A6B60",
"W  c #775E68",
"Q  c #9F5F78",
"!  c #A87A92",
"~  c #D4CDB8",
"^  c #D3E09B",
"/  c #BFD470",
"(  c #D1BDAD",
")  c #C6959C",
"_  c #C27F88",
"`  c #D89999",
"'  c #D99A9A",
"]  c #B28586",
"[  c #866C6E",
"{  c #94646F",
"}  c #A05970",
"|  c #965270",
" . c #AE899F",
".. c #C7BFAC",
"X. c #BFD370",
"o. c #CADA87",
"O. c #F0F2E1",
"+. c #BB8994",
"@. c #BB7883",
"#. c #D59496",
"$. c #C9848A",
"%. c #BD757E",
"&. c #B16977",
"*. c #A35B70",
"=. c #7E4270",
"-. c #B094AA",
";. c #E7ECCA",
":. c #C68087",
">. c #BD767E",
",. c #AE8094",
"<. c #B27183",
"1. c #BF7880",
"2. c #A97D94",
"3. c #A8667D",
"4. c #BE767F",
"5. c #B46C79",
"6. c #AA6274",
"7. c #C8D982",
"8. c #E5EBC7",
"9. c #B7979E",
"0. c #A96E84",
"q. c #B46D7B",
"w. c #BC747D",
"e. c #B76F7B",
"r. c #A96173",
"t. c #985370",
"y. c #915F84",
"u. c #BAA7AA",
"i. c #DEE7B6",
"p. c #C1D472",
"a. c #E3E8C3",
"s. c #C3A6B0",
"d. c #955373",
"f. c #BB737D",
"g. c #A45C71",
"h. c #733A70",
"j. c #CFC0C6",
"k. c #DAE3AD",
"l. c #C1D471",
"z. c #C9DA86",
"x. c #D2D3A9",
"c. c #C6ADB6",
"v. c #884E77",
"b. c #854974",
"n. c #844773",
"m. c #CED59E",
"M. c #C7D880",
"N. c #CCDB8C",
"B. c #D2D4AD",
"V. c #B297AA",
"C. c #C8D983",
/* pixels */
"        . . . . . . . . . . . . . . X . . . . . . . . .         ",
"  . . o o o o o o o o o o o o o o o o o o o o o o o o o . . .   ",
"  . o o o o o o o o O o o o o o O o o o O O O o o o o o o o .   ",
"  o o o o o O O O O O O O o O o O o O O O O O o O o o o o o .   ",
". . o o O O O O O O O O O O O O O O O O O O O O O O O O o o o . ",
". o o o O O O O O O O O O O O O O O O O O O O O O O O O O o o . ",
". o o o O O O O O O O O O O O O + @ # # $ % O o O O O O O o o . ",
". o o O O O O O o O O O O O O + & * = - ; : > O O O O O O O o . ",
". o o O O O O O O O O O O O O , < 1 2 3 4 5 6 O O O O O O o o . ",
". o O O O O O O O O O O O O 7 8 9 0 q w e r t y O O O O O O o . ",
". o o O O O O O O O O O u i 8 p a s d f g h j k O O O O O O o . ",
". o O O O O O O O O O u l z x c v b n m M N B V O O O O O O o . ",
". o o O O O O O O O O i z C Z A S D F G H J K L O O O O o o o . ",
". o o o O O O O O O 7 P I U Y T R R E W Q ! ~ ^ O O O O O o o . ",
". o o O O / O O u i ( ) _ ` ' ] [ [ [ { } |  ...y O O O o o o . ",
". o O O O X.O O o.O.+.@.' ' #.$.%.%.%.&.*.*.=.-.;.O O O O o o . ",
". o O O O / O O o.O.+.@.' ' :.>.%.%.%.&.*.*.=.-.;.O O o O o o . ",
". o o O O O O O o.O.,.<.#.:.1.%.%.%.%.&.*.*.=.-.;.O O O O o o . ",
". o o O O O O O o.O.2.3.$.4.%.%.%.%.5.6.*.*.=.-.;.O O O o o o . ",
". o o o O o O O 7.8.9.0.q.%.%.%.w.e.r.*.} t.y.u.i.O O O O o o . ",
". o O O O O O O O p.a.s.d.f.%.%.e.g.*.*.t.h.j.k.l.O O O O O o . ",
". o o O O O O O O O z.x.c.v.b.b.n.=.=.=.y.j.m.M.O O O O O O o . ",
". o O O O O O O O O O N.B.V.-.-.-.-.-.-.u.k.M.O O O O O O o o . ",
". o o o O O O O O O O O C.8.;.;.;.;.;.;.i.l.O O O o O O o o o . ",
". o o O O O o O O O O O O O O O O O O O O O O O O O O O O o o . ",
". o o O O O O O o O O O O O O O O O O O O O O O O O O O O o o . ",
". o o O O O O O O O O O O O O O O O O o O O O O O O O O O o o . ",
". o o o O O O O O O O O O O O O O O O O O O O O o O o O o o o . ",
"  . o o O O o O O O O O o O O O O o O O O O O O O O O O o o .   ",
"  . o o o o o o O O O O o o o O O o o o o O O o O o o o o o .   ",
"  . . o o o o o o o o o o o o o o o o o o o o o o o o o o . .   ",
"        . . . . . . . . . . . . . . . . . . . . . . . .         "
};
