/* XPM */
static char *e016fb6b30924d06946911a6acfa6f4dE5hjvU4PjDWd5aIN[] = {
/* columns rows colors chars-per-pixel */
"80 80 87 1 ",
"  c #232628",
". c #26292B",
"X c #292C2E",
"o c #2B2E31",
"O c #2E3134",
"+ c #323537",
"@ c #313438",
"# c #363A3D",
"$ c #3B3E43",
"% c #3D4145",
"& c #3F424A",
"* c #43464D",
"= c #45484D",
"- c #494B4E",
"; c #474A53",
": c #4A4D55",
"> c #4F5255",
", c #515457",
"< c #51545F",
"1 c #585A5F",
"2 c #515560",
"3 c #5C5E63",
"4 c #575B68",
"5 c #5C5F6D",
"6 c #5D606E",
"7 c #63656D",
"8 c #65686C",
"9 c #636674",
"0 c #6A6D76",
"q c #75777C",
"w c #6E7182",
"e c #717485",
"r c #737789",
"t c #7E8295",
"y c #808287",
"u c #84878C",
"i c #888A8F",
"p c #84879C",
"a c #85889E",
"s c #93959B",
"d c #878BA1",
"f c #8A8DA3",
"g c #8D90A7",
"h c #8D90A8",
"j c #999BA3",
"k c #9296AF",
"l c #969AB4",
"z c #989CB5",
"x c #9A9EB8",
"c c #9EA2BD",
"v c #A0A4BF",
"b c #AFB0B6",
"n c #A1A5C0",
"m c #A5A9C2",
"M c #AAAEC5",
"N c #ADB0C7",
"B c #AEB1C8",
"V c #BBBCC3",
"C c #B1B4CA",
"Z c #B6B9CD",
"A c #B9BBCE",
"S c #BCBFD1",
"D c #BFC0CE",
"F c #BEC1D2",
"G c #C2C5D4",
"H c #C6C8D7",
"J c #C8CAD1",
"K c #CBCCD3",
"L c #C8CAD5",
"P c #CDCED6",
"I c #C8C9D8",
"U c #CACCD9",
"Y c #CCCEDB",
"T c #CDCFDC",
"R c #CFD0D8",
"E c #CED0DC",
"W c #D0D2DA",
"Q c #D3D4DB",
"! c #D1D2DE",
"~ c #D3D5DC",
"^ c #D5D6DE",
"/ c #D4D5E0",
"( c #D7D8E2",
") c #D9DAE3",
"_ c #D9DBE4",
"` c #DBDCE5",
"' c #DCDDE5",
/* pixels */
"................................................................................",
"................................................................................",
"................................................................................",
"................................................................................",
"................................................................................",
"................................................................................",
"................................................................................",
"................................................................................",
"................................................................................",
"................................................................................",
"................................................................................",
"................................................................................",
"................................................................................",
"................................................................................",
"................................................................................",
"................................................................................",
"................................................................................",
"................................................................................",
"................................................................................",
"................................................................................",
"................................................................................",
"................................................................................",
"................................................................................",
"................................................................................",
"................................................................................",
"........................................XXXXX...................................",
"...................................... =gghgd&..................................",
"...................................... :vvnnx*..................................",
"..................................%>>>:0BBmvx4*$................................",
"................................. s^~~~^_)Zvvcxto...............................",
"................................oXj'''''''Annvvpo...............................",
"...............................#yiV'''''''YGGMvpo...............................",
"...............................=P''''''''''')Cvpo...............................",
"...............................=K''''''''''')CvaOX..............................",
"...............................=P''''''''''')Cvztt< ............................",
"...............................=P''''''''''')Cvvnm9 ............................",
"....................o,31:::::::7DU/'''''''!UIMvmCZt;;O..........................",
"....................$bWGczzzzzzznmI'''''''AmmnnN/)Alk%..........................",
"....................%V'EmnvvvvvvvvH'''''''AvvvvB)'Fcx&..........................",
"..................>quJ'/FSSSAmvnnvZGG/'/GGNvnZSG`'YAZe52X.......................",
"..................u)`'''''''/MvnvvvnmT'UnvvvnY'''''`)Mvfo.......................",
"..................u'''''''''/BnnvvnnmY`IvvnnmT'''''`)NnfOX......................",
"..................u''''''''')IHFmvnnnCACvvZHH/'''''')Nnlew;.....................",
"..................u''''''''''''!mvnvvvvvvvH''''''''')Nvvvc6.....................",
"..................u'''''''''`!EHmvnnvnvmBBU'''''''/ETMvvvc6.....................",
"..................u`''''''''/CmmnnnnnnvC((_'''''''Gnmnvvvc6.....................",
"................  u'''''''''/McccccvvvcC''''''''''Fcnvvnnc6.....................",
"...............+88jHI)''''''(FZZZZMvnCZG''''`YHHHHCcnnvzrw;.....................",
"...............-RWAnM!''''''`)))))ZvmU))'''`)Cnnnnvvvvvf@o......................",
"...............-RQCxvL^~^^^^~~~~~^NzcG~~^^~~WMxxxxxxxxxao.......................",
"...............O>>;*=:>>>>>>>>>>>>;**:>>>>>>>=*********%........................",
"................................................................................",
"................................................................................",
"................................................................................",
"................................................................................",
"................................................................................",
"................................................................................",
"................................................................................",
"................................................................................",
"................................................................................",
"................................................................................",
"................................................................................",
"................................................................................",
"................................................................................",
"................................................................................",
"................................................................................",
"................................................................................",
"................................................................................",
"................................................................................",
"................................................................................",
"................................................................................",
"................................................................................",
"................................................................................",
"................................................................................",
"................................................................................",
"................................................................................",
"................................................................................",
"................................................................................",
"................................................................................",
"................................................................................"
};
