/* XPM */
static char *result[] = {
/* columns rows colors chars-per-pixel */
"32 32 107 2 ",
"   c #90635D",
".  c #946761",
"X  c #976F61",
"o  c #A07C61",
"O  c #A07A6B",
"+  c #A97E6D",
"@  c #A97171",
"#  c #9E8463",
"$  c #A38364",
"%  c #A48D65",
"&  c #A68C6D",
"*  c #A98D6D",
"=  c #B78E67",
"-  c #A59566",
";  c #A79966",
":  c #A39468",
">  c #A59A6A",
",  c #AB9D6B",
"<  c #B79966",
"1  c #A68A71",
"2  c #AC8D76",
"3  c #AB8A78",
"4  c #AC9572",
"5  c #AF9A72",
"6  c #AF9478",
"7  c #B19275",
"8  c #94B562",
"9  c #9DBB64",
"0  c #A7A26B",
"q  c #ABA46A",
"w  c #ADAB6C",
"e  c #BCA168",
"r  c #B0AD6B",
"t  c #A1BE66",
"y  c #B3B56B",
"u  c #B5BA6D",
"i  c #AFB770",
"p  c #AFBA71",
"a  c #B1BE71",
"s  c #C5AB67",
"d  c #C7A56A",
"f  c #C4AA69",
"g  c #CAA96B",
"h  c #CAB369",
"j  c #C9A877",
"k  c #A5C166",
"l  c #A9C467",
"z  c #A6C168",
"x  c #ACC669",
"c  c #AFC869",
"v  c #BAC56E",
"b  c #B4CC6B",
"n  c #B9CF6D",
"m  c #BCD16E",
"M  c #B4C473",
"N  c #BACC71",
"B  c #BFD370",
"V  c #D5C57C",
"C  c #D8C87A",
"Z  c #C0D470",
"A  c #B78E80",
"S  c #AF988B",
"D  c #B59882",
"F  c #BE9E83",
"G  c #B09A8D",
"H  c #B49F90",
"J  c #B9A681",
"K  c #BDA987",
"L  c #C3948A",
"P  c #CE9992",
"I  c #C3A385",
"U  c #C4AA8F",
"Y  c #CBAC8A",
"T  c #D4B788",
"R  c #D5BA8B",
"E  c #D9BF8E",
"W  c #C4AF92",
"Q  c #CDBD99",
"!  c #D4B996",
"~  c #DDC48E",
"^  c #D0C190",
"/  c #DDC095",
"(  c #E0CA8F",
")  c #E4DB97",
"_  c #D2C7A7",
"`  c #D7CAA4",
"'  c #D9CFA6",
"]  c #D4C9A8",
"[  c #DDCFA8",
"{  c #DCD4AF",
"}  c #E1D1A0",
"|  c #E4D4AB",
" . c #E9D7AA",
".. c #EBDBAF",
"X. c #E5D7B2",
"o. c #E5DAB2",
"O. c #EBDFB7",
"+. c #EBE4AC",
"@. c #EDE8AE",
"#. c #E7E2B6",
"$. c #EAE3B5",
"%. c #EEEAB2",
"&. c #EBE6B8",
"*. c #EEEABA",
"=. c #F1EDBC",
"-. c #F3F1BF",
";. c #F3F2C0",
/* pixels */
"Z B n n x l x b b b m n n n n m n n n b n b b c l l k l n n B B ",
"B b z l x b b n b m m n n n n m B n n n m m n n n b x l t 9 b Z ",
"n t c b b n n n n n m n m m m m B n B n m m m n b b b b c l 9 m ",
"b t b b b n n B Z Z Z Z m m m m B m B B B Z Z m m n b b c l 9 b ",
"k 9 c b n B B Z N Z Z Z Z Z Z Z m B Z B m Z Z Z Z Z m m b c k k ",
"9 k c b m B Z Z Z Z Z Z Z Z Z Z B B Z B Z Z Z m Z Z Z Z m b x 9 ",
"t c b n m Z Z Z Z Z Z Z Z Z Z Z B B B B Z Z Z m Z Z Z m m b b k ",
"k b b Z Z Z Z m n Z Z Z Z Z q .     # n Z Z Z Z Z Z Z m m n x k ",
"l b m m m Z Z Z m Z Z Z N r * @ @ @ + , v Z Z Z Z Z Z Z Z m c k ",
"l b m m Z Z Z Z Z Z Z n a 6 7 P P P L 2 r v Z Z Z Z Z Z Z m b c ",
"c b m m B Z Z Z Z Z Z u & ^ o.X.O.O.o.` 6 q n Z Z Z Z Z B m b x ",
"c b m m m Z Z Z Z Z r 5 Q #._ H $.;.{ S W K ; Z Z m m Z B n b x ",
"c b n Z Z Z m m Z Z - 3 $.;._ G O.@.^ 1 ' W   Z B B B B m b c x ",
"c b b m Z Z B B Z u , D &.;.*.&.=.) C V +.W   Z B Z B B m b c l ",
"b b n m m Z Z Z v - K | ;.;.;.;.-.%.+.@.=.W   Z B Z B B n b c c ",
"b b m Z m Z Z y 5 K [ -.;.;.;.;.;.-.-.-.-.W X Z Z Z B B m b b c ",
"b m m Z Z Z Z - O [ =.-.;.;.%.$.-.-.-.-.*.U   Z Z Z m m B n b c ",
"b b m B Z Z Z ; O ! ..*.*.*.} T $.-.=.=.| L X Z Z Z Z Z m n b c ",
"c b n m Z B Z u r 7 I R R R R /  ..... .I 5 w Z m m Z Z m c b c ",
"b n n m m m Z Z v - $ = d g j Y ~ ( E I 1 w Z Z Z Z Z m m n l k ",
"c n m B Z Z Z B N u > $ f h < $ f h e # w M B Z Z Z Z m m m c l ",
"b n n B Z Z Z N M M y 0 o o % 0 $ o $ w a M M Z Z Z Z Z Z m c k ",
"c n m m Z Z B N N M M i > : q a > : 0 a M M N Z Z Z Z Z m b l 9 ",
"l c b m Z B B B B M M M M M c b M M M M M N B Z m m m m n x c k ",
"l c b m m m m m B B Z Z Z Z Z Z Z Z Z B Z Z Z Z Z Z Z Z m c c k ",
"l b b m m Z Z Z m B Z Z Z Z Z Z Z Z Z B Z Z Z Z Z Z Z Z m c l 9 ",
"k c b m Z Z Z Z B B B m m Z Z B Z Z B m Z Z Z Z m Z m Z m c k 8 ",
"k l b b m Z m m Z Z B B B Z B B Z Z Z Z Z Z Z m m m m m b l 9 9 ",
"b t x b m m n m B B B B m m m m Z m m m m B B B Z m m m b l 8 c ",
"n t k c n b b n n m B m b n m m m n n n b m m n m n b c c k 9 b ",
"B b t k l k x x c b n b c b n n n b c b n n b c c b c k k 9 c m ",
"B B n n k t k k l c c c c c b b b b c c c b c l l l 9 l b n Z Z "
};
