/* XPM */
static char *c53366b1b9f14bd194b422b4d5326196HroVdQOkjMGcAcx6[] = {
/* columns rows colors chars-per-pixel */
"32 32 4 1 ",
"  c #E8CFA6",
". c #78A158",
"X c #A4C263",
"o c #C0D470",
/* pixels */
"    ........................    ",
" ..XXXXXXXXXXXXXXXXXXXXXXXXX... ",
" .XXXXXXXXoXXXXXoXXXoooXXXXXXX. ",
" XXXXXoooooooXoXoXoooooXoXXXXX. ",
"..XXooooooooooooooooooooooooXXX.",
".XXXoooooooooooooooooooooooooXX.",
".XXXoooooooooooooooooooXoooooXX.",
".XXoooooXoooooooooooooooooooooX.",
".XXooooooooooooooooooooooooooXX.",
".XooooooooooooooooooooooooooooX.",
".XXoooooooooooooooooooooooooooX.",
".XooooooooooooooooooooooooooooX.",
".XXoooooooooooooooooooooooooXXX.",
".XXXoooooooooooooooooooooooooXX.",
".XXoooooooooooooooooooooooooXXX.",
".XoooooooooooooooooooooooooooXX.",
".XoooooooooooooooooooooooooXoXX.",
".XXooooooooooooooooooooooooooXX.",
".XXoooooooooooooooooooooooooXXX.",
".XXXoXoooooooooooooooooooooooXX.",
".XooooooooooooooooooooooooooooX.",
".XXoooooooooooooooooooooooooooX.",
".XoooooooooooooooooooooooooooXX.",
".XXXoooooooooooooooooooooXooXXX.",
".XXoooXooooooooooooooooooooooXX.",
".XXoooooXooooooooooooooooooooXX.",
".XXooooooooooooooooXoooooooooXX.",
".XXXooooooooooooooooooooXoXoXXX.",
" .XXooXoooooXooooXooooooooooXX. ",
" .XXXXXXooooXXXooXXXXooXoXXXXX. ",
" ..XXXXXXXXXXXXXXXXXXXXXXXXXX.. ",
"    ........................    "
};
