/* XPM */
static char *b9dd947bd7f8417be47f79ea03b0f149XpBDK0h4uiOrzC4X[] = {
/* columns rows colors chars-per-pixel */
"32 32 106 2 ",
"   c #7DA55A",
".  c #81A85B",
"X  c #88AC5D",
"o  c #91B361",
"O  c #7EA65A",
"+  c #7EA55A",
"@  c #7DA45A",
"#  c #7CA459",
"$  c #7BA359",
"%  c #7AA259",
"&  c #79A258",
"*  c #79A158",
"=  c #78A158",
"-  c #AEC86A",
";  c #A2C066",
":  c #95B561",
">  c #85AA5D",
",  c #82A85B",
"<  c #83A95C",
"1  c #A9C565",
"2  c #A8C565",
"3  c #A7C465",
"4  c #A7C464",
"5  c #A6C364",
"6  c #A5C364",
"7  c #A5C263",
"8  c #A4C263",
"9  c #A5C363",
"0  c #7FA65A",
"q  c #8CAF5F",
"w  c #8FB260",
"e  c #8AAE5D",
"r  c #ABC766",
"t  c #AAC666",
"y  c #C0D470",
"u  c #84A95C",
"i  c #93B461",
"p  c #9DBB64",
"a  c #AFC867",
"s  c #B0C968",
"d  c #AFC968",
"f  c #AEC867",
"g  c #8BAE5E",
"h  c #9DBC65",
"j  c #99B863",
"k  c #B4CC6A",
"l  c #B5CD6A",
"z  c #94B461",
"x  c #A4BF66",
"c  c #B7CF6C",
"v  c #B9D06C",
"b  c #BACF6D",
"n  c #B3CC6A",
"m  c #9FBD65",
"M  c #ADC76A",
"N  c #BBD16E",
"B  c #BDD26E",
"V  c #BDD26F",
"C  c #B7CE6C",
"Z  c #B8CF6C",
"A  c #AAC568",
"S  c #B4CB6C",
"D  c #BFD36F",
"F  c #BCD26E",
"G  c #B4CC6C",
"H  c #B9CF6E",
"J  c #BED36F",
"K  c #BFD370",
"L  c #BCD16F",
"P  c #BBD06E",
"I  c #BCD26F",
"U  c #BED26F",
"Y  c #BFD470",
"T  c #BCD16E",
"R  c #B8CE6D",
"E  c #B0C96A",
"W  c #A5C167",
"Q  c #B7CE6B",
"!  c #B0CA69",
"~  c #B9CE6D",
"^  c #99B963",
"/  c #B2CC69",
"(  c #B3CB69",
")  c #BAD06D",
"_  c #B0C86A",
"`  c #8EB15F",
"'  c #B5CD6B",
"]  c #B6CD6B",
"[  c #A5C067",
"{  c #87AB5D",
"}  c #B1CA69",
"|  c #B1CB69",
" . c #98B863",
".. c #81A75B",
"X. c #A8C465",
"o. c #ACC766",
"O. c #ADC767",
"+. c #A4C068",
"@. c #87AC5D",
"#. c #A0BD65",
"$. c #80A75B",
"%. c #85AB5C",
"&. c #91B360",
"*. c #9EBB65",
"=. c #ABC468",
"-. c #89AD5E",
/* pixels */
"  . X o O + @ # $ % & * = = = = = = = = = = = * & & % $ - ; : X ",
"> , < 1 2 2 3 4 5 6 7 8 8 8 8 8 8 8 8 8 8 8 8 8 7 9 6 5 + + 0 q ",
"w e r r r t 1 2 4 5 y 7 8 8 8 8 y 8 8 8 y y y 7 6 5 4 3 2 2 u i ",
"p a s d d f y y y y y y y 8 y 8 y 8 y y y y y 6 y 4 2 1 t r g h ",
"j h k l y y y y y y y y y y y y y y y y y y y y y y y y f d d z ",
"x c v b y y y y y y y y y y y y y y y y y y y y y y y y y n k m ",
"M N B V y y y y y y y y y y y y y y y y y y y 4 y y y y y C Z A ",
"S V D y y y y y s y y y y y y y y y y y y y y y y y y y y y F G ",
"H J K y y y y y y y y y y y y y y y y y y y y y y y y y y J D N ",
"L K y y y y y y y y y y y y y y y y y y y y y y y y y y y y y V ",
"J y y y y y y y y y y y y y y y y y y y y y y y y y y y y y D F ",
"y y y y y y y y y y y y y y y y y y y y y y y y y y y y y y J P ",
"y y y y y y y y y y y y y y y y y y y y y y y y y y y y I U J L ",
"y y y y y y y y y y y y y y y y y y y y y y y y y y y y y J D V ",
"y y y y y y y y y y y y y y y y y y y y y y y y y y y y J K y K ",
"y y y y y y y y y y y y y y y y y y y y y y y y y y y y y y y y ",
"y y y y y y y y y y y y y y y y y y y y y y y y y y y J y y y y ",
"K y Y y y y y y y y y y y y y y y y y y y y y y y y y y y y y K ",
"D Y Y y y y y y y y y y y y y y y y y y y y y y y y y y Y y y J ",
"U y y D y P y y y y y y y y y y y y y y y y y y y y y y y K K U ",
"T D y y y y y y y y y y y y y y y y y y y y y y y y y y y y K V ",
"R J D y y y y y y y y y y y y y y y y y y y y y y y y y y y y U ",
"E N y y y y y y y y y y y y y y y y y y y y y y y y y y y K y V ",
"W c Z Q y y y y y y y y y y y y y y y y y y y y y ! y y N V J ~ ",
"^ / ( y y y r y y y y y y y y y y y y y y y y y y y y y y ) ) _ ",
"` f f y y y y y 5 y y y y y y y y y y y y y y y y y y y y ' ] [ ",
"{ t t y y y y y y y y y y y y y y y y 8 y y y y y y y y y } |  .",
"..X.X.X.y y y y y y y y y y y y y y y y y y y y 5 y 1 y o.O.O.` ",
"+.  5 5 y y 6 y y y y y 8 y y y y 8 y y y y y y y y y y 1 1 @.#.",
"j $ 9 9 9 7 7 8 y y y y 8 8 8 y y 8 8 8 8 y y 8 y 6 5 5 4 4 $.i ",
"` & & 8 8 8 8 8 8 8 8 8 8 8 8 8 8 8 8 8 8 8 8 8 8 7 9 6 6 # # @.",
"%.&.*.=.= = = = = = = = = = = = = = = = = = = = * & & % -...@ + "
};
