/* XPM */
static char *fcb37ccec8474ebc9688d2c5bf2c9a46BqYdiG1JMrvDaG0P[] = {
/* columns rows colors chars-per-pixel */
"80 80 87 1 ",
"  c #222526",
". c #242729",
"X c #26292B",
"o c #292C2F",
"O c #272B30",
"+ c #2A2D33",
"@ c #2B2D39",
"# c #2F3236",
"$ c #2B313B",
"% c #313439",
"& c #36393E",
"* c #2F2F42",
"= c #302F43",
"- c #2E3444",
"; c #2F3749",
": c #313344",
"> c #343943",
", c #3B3E45",
"< c #323349",
"1 c #31394C",
"2 c #343C51",
"3 c #393D55",
"4 c #3A3E58",
"5 c #3E424B",
"6 c #3B4256",
"7 c #3C435B",
"8 c #40434A",
"9 c #454850",
"0 c #494C56",
"q c #41475D",
"w c #44495D",
"e c #464B61",
"r c #474E6A",
"t c #4D526C",
"y c #535767",
"u c #555967",
"i c #575A6A",
"p c #5B5F6C",
"a c #4B5371",
"s c #565C7C",
"d c #5D616E",
"f c #5D6172",
"g c #5B607F",
"h c #606379",
"j c #595F80",
"k c #5C6386",
"l c #5D6389",
"z c #656982",
"x c #61678D",
"c c #62688E",
"v c #6D7182",
"b c #707485",
"n c #747789",
"m c #747889",
"M c #646A91",
"N c #656B93",
"B c #676D96",
"V c #696F96",
"C c #696F99",
"Z c #6D7392",
"A c #6B7199",
"S c #6C719A",
"D c #757A93",
"F c #787B93",
"G c #7E8296",
"H c #7D819E",
"J c #8085A0",
"K c #8489A2",
"L c #868BA4",
"P c #8187A9",
"I c #858AAA",
"U c #898DA9",
"Y c #898EAE",
"T c #8D92AE",
"R c #8E93B0",
"E c #9397B2",
"W c #9095B4",
"Q c #969AB3",
"! c #9398B6",
"~ c #989CB7",
"^ c #959AB8",
"/ c #9A9EB8",
"( c #9CA0BA",
") c #9FA3BE",
"_ c #A0A4BE",
"` c #A1A5C0",
"' c #A4A8C4",
/* pixels */
"XXXXXXXXXXXXXXXXXXXXXXXXXXXXXXXXXXXXXXXXXXXXXXXXXXXXXXXXXXXXXXXXXXXXXXXXXXXXXXXX",
"XXXXXXXXXXXXXXXXXXXXXXXXXXXXXXXXXXXXXXXXXXXXXXXXXXXXXXXXXXXXXXXXXXXXXXXXXXXXXXXX",
"XXXXXXXXXXXXXXXXXXXXXXXXXXXXXXXXXXXXXXXXXXXXXXXXXXXXXXXXXXXXXXXXXXXXXXXXXXXXXXXX",
"XXXXXXXXXXXXXXXXXXXXXXXXXXXXXXXXXXXXXXXXXXXXXXXXXXXXXXXXXXXXXXXXXXXXXXXXXXXXXXXX",
"XXXXXXXXXXXXXXXXXXXXXXXXXXXXXXXXXXXXXXXXXXXXXXXXXXXXXXXXXXXXXXXXXXXXXXXXXXXXXXXX",
"XXXXXXXXXXXXXXXXXXXXXXXXXXXXXXXXXXXXXXXXXXXXXXXXXXXXXXXXXXXXXXXXXXXXXXXXXXXXXXXX",
"XXXXXXXXXXXXXXXXXXXXXXXXXXXXXXXXXXXXXXXXXXXXXXXXXXXXXXXXXXXXXXXXXXXXXXXXXXXXXXXX",
"XXXXXXXXXXXXXXXXXXXXXXXXXXXXXXXXXXXXXXXXXXXXXXXXXXXXXXXXXXXXXXXXXXXXXXXXXXXXXXXX",
"XXXXXXXXXXXXXXXXXXXXXXXXXXXXXXXXXXXXXXXXXXXXXXXXXXXXXXXXXXXXXXXXXXXXXXXXXXXXXXXX",
"XXXXXXXXXXXXXXXXXXXXXXXXXXXXXXXXXXXXXXXXXXXXXXXXXXXXXXXXXXXXXXXXXXXXXXXXXXXXXXXX",
"XXXXXXXXXXXXXXXXXXXXXXXXXXXXXXXXXXXXXXXXXXXXXXXXXXXXXXXXXXXXXXXXXXXXXXXXXXXXXXXX",
"XXXXXXXXXXXXXXXXXXXXXXXXXXXXXXXXXXXXXXXXXXXXXXXXXXXXXXXXXXXXXXXXXXXXXXXXXXXXXXXX",
"XXXXXXXXXXXXXXXXXXXXXXXXXXXXXXXXXXXXXXXXXXXXXXXXXXXXXXXXXXXXXXXXXXXXXXXXXXXXXXXX",
"XXXXXXXXXXXXXXXXXXXXXXXXXXXXXXXXXXXXXXXXXXXXXXXXXXXXXXXXXXXXXXXXXXXXXXXXXXXXXXXX",
"XXXXXXXXXXXXXXXXXXXXXXXXXXXXXXXXXXXXXXXXXXXXXXXXXXXXXXXXXXXXXXXXXXXXXXXXXXXXXXXX",
"XXXXXXXXXXXXXXXXXXXXXXXXXXXXXXXXXXXXXXXXXXXXXXXXXXXXXXXXXXXXXXXXXXXXXXXXXXXXXXXX",
"XXXXXXXXXXXXXXXXXXXXXXXXXXXXXXXXXXXXXXXXXXXXXXXXXXXXXXXXXXXXXXXXXXXXXXXXXXXXXXXX",
"XXXXXXXXXXXXXXXXXXXXXXXXXXXXXXXXXXXXXXXXXXXXXXXXXXXXXXXXXXXXXXXXXXXXXXXXXXXXXXXX",
"XXXXXXXXXXXXXXXXXXXXXXXXXXXXXXXXXXXXXXXXXXXXXXXXXXXXXXXXXXXXXXXXXXXXXXXXXXXXXXXX",
"XXXXXXXXXXXXXXXXXXXXXXXXXXXXXXXXXXXXXXXXXXXXXXXXXXXXXXXXXXXXXXXXXXXXXXXXXXXXXXXX",
"XXXXXXXXXXXXXXXXXXXXXXXXXXXXXXXXXXXXXXXXXXXXXXXXXXXXXXXXXXXXXXXXXXXXXXXXXXXXXXXX",
"XXXXXXXXXXXXXXXXXXXXXXXXXXXXXXXXXXXXXXXXXXXXXXXXXXXXXXXXXXXXXXXXXXXXXXXXXXXXXXXX",
"XXXXXXXXXXXXXXXXXXXXXXXXXXXXXXXXXXXXXXXXXXXXXXXXXXXXXXXXXXXXXXXXXXXXXXXXXXXXXXXX",
"XXXXXXXXXXXXXXXXX.%8855>:oX%55888888888888888885558,XXXOOOXXXXXXXXXXXXXXXXXXXXXX",
"XXXXXXXXXXXXXXXXX i///EVx>XpQ~/////////////////////G#X*:::+..XXXXXXXXXXXXXXXXXXX",
"XXXXXXXXXXXXXXXXOOf_~LJVN>XiREWWWWWWWWWWWWWWWWWTKUWF#X:1<<-+OXXOXXXXXXXXXXXXXXXX",
"XXXXXXXXXXXXXXXX:3z_KwqxN>XwVASSSSSSSSSSSSSSSSSs6tAg+X34<<33:.+:XXXXXXXXXXXXXXXX",
"XXXXXXXXXXXXXXXX:4z_K77xN>XwNBBBBBBBBBBBBBBBBBBs2rBs+X34<<37:.@:XXXXXXXXXXXXXXXX",
"XXXXXXXXXXXXXXX.@<h_TkkNN>XwNBBBBBBBBBBBBBBBBBBxjlBs+X<1<<11@.+@XXXXXXXXXXXXXXXX",
"XXXXXXXXXXXXXXX.@*h_WSBBN>XwBCCCCCCCCCCCCCCCCCCCCCAs+X:<<<<<@.O@XXXXXXXXXXXXXXXX",
"XXXXXXXXXXXXXXXXOOf_WABBN>X>weeeeeeeeeeeeeeeeeeeeee6XX@@@@@@OXXOXXXXXXXXXXXXXXXX",
"XXXXXXXXXXXXXXXXX i`WSBBN>X.                        ....XXXXXXXXXXXXXXXXXXXXXXXX",
"XXXXXXXXXXXXXXXXX p`WSBBN>XO@$$$$$$$$$$$$$@XX0dddyw5oX@@@@OXXXXXXXXXXXXXXXXXXXXX",
"XXXXXXXXXXXXXXXXX p`WSBBN>X@11111111111111-O+n))_YVs+X*:::@.XXXXXXXXXXXXXXXXXXXX",
"XXXXXXXXXXXXXXXXX p`WSBBN>X+---------------X+m)/!PVs+X*:<:@.XXXXXXXXXXXXXXXXXXXX",
"XXXXXXXXXXXXXXXXX p`WSBBN>XXXXXXXXXXXXXXXXXX+m_YSABs+X=<<<@XXXXXXXXXXXXXXXXXXXXX",
"XXXXXXXXXXXXXXXXX p`WSBBN>XXXXXXXXXXXXXXXXXX+m_YBBBs+X=<<<@XXXXXXXXXXXXXXXXXXXXX",
"XXXXXXXXXXXXXXXXX p`WSBBN>X@;1111111111111-X+m_YBVVs+X=<<<@XXXXXXXXXXXXXXXXXXXXX",
"XXXXXXXXXXXXXXXXX p`WSBBN>X@;1111111111111-X+m_YBVVs+X=<<<@XXXXXXXXXXXXXXXXXXXXX",
"XXXXXXXXXXXXXXXXX p`WSBBN>XX++++++++++++++OX+m_YBVVs+X=<<<@XXXXXXXXXXXXXXXXXXXXX",
"XXXXXXXXXXXXXXXXX p`WSBBN>XXXXXXXXXXXXXXXXXX+m_YBVVs+X=<<<@XXXXXXXXXXXXXXXXXXXXX",
"XXXXXXXXXXXXXXXXX p`WSBBN>XO+@@@@@@@@@@@@@+X+m_YBVVs+X=<<<@XXXXXXXXXXXXXXXXXXXXX",
"XXXXXXXXXXXXXXXXX p`WSBBN>X@11111111111111-X+m_YBVVs+X=<<<@XXXXXXXXXXXXXXXXXXXXX",
"XXXXXXXXXXXXXXXXX p`WSBBN>X+--------------$X+m_YBVVs+X=<<<@XXXXXXXXXXXXXXXXXXXXX",
"XXXXXXXXXXXXXXXXX p`WSBBN>XXXXXXXXXXXXXXXXXX+m_YBVVs+X=<<<@XXXXXXXXXXXXXXXXXXXXX",
"XXXXXXXXXXXXXXXXX p`WABBN>XXXOOOOOOOOOOOOXXX+m_YBVVs+X=<<<@XXXXXXXXXXXXXXXXXXXXX",
"XXXXXXXXXXXXXXXXX p`WABBN>X@;1111111111111-X+m`YBVVs+X=<<<@XXXXXXXXXXXXXXXXXXXXX",
"XXXXXXXXXXXXXXXXX i(TVNNc>X@11111111111111-Xob/INNNs+X*:::@XXXXXXXXXXXXXXXXXXXXX",
"XXXXXXXXXXXXXXXXX.%85>:::OXX++++++++++++++OXX&5,:::%XXXOOOXXXXXXXXXXXXXXXXXXXXXX",
"XXXXXXXXXXXXXXXXXX.                                 XXXXXXXXXXXXXXXXXXXXXXXXXXXX",
"XXXXXXXXXXXXXXXXX 9vvvvvvvvvvvvvvvvvvvvvvvvvvvvvvhtqoX@@@@OXXXXXXXXXXXXXXXXXXXXX",
"XXXXXXXXXXXXXXXXX d'`''''```````''``````'````''''RAs+X=<<<@XXXXXXXXXXXXXXXXXXXXX",
"XXXXXXXXXXXXXXXXX i`EDDIYYYYYYYYYYYYYYYYYYYYYYYJDZBs+X=:<:@XXXXXXXXXXXXXXXXXXXXX",
"XXXXXXXXXXXXXXXXX p`J66xBVVVVVVVVVVVVVVVVVVVBBBs1rBs+X=<<<@XXXXXXXXXXXXXXXXXXXXX",
"XXXXXXXXXXXXXXXXX u^HeecBVVVVVVVVVVVVVVVVVVVBBVs7aBs+X=:<:@XXXXXXXXXXXXXXXXXXXXX",
"XXXXXXXXXXXXXXXXX wAVNNBBBBBBBBBBBBBBBBBBBBBBBBNcNBs+X=:<:@XXXXXXXXXXXXXXXXXXXXX",
"XXXXXXXXXXXXXXXXX 5jsssssskkssssssssjssssssssskkssjt+X@***@XXXXXXXXXXXXXXXXXXXXX",
"XXXXXXXXXXXXXXXXXXo++++++++#++++++++++++++++++##++++XXXXXXXXXXXXXXXXXXXXXXXXXXXX",
"XXXXXXXXXXXXXXXXXXXXXXXXXXXXXXXXXXXXXXXXXXXXXXXXXXXXXXXXXXXXXXXXXXXXXXXXXXXXXXXX",
"XXXXXXXXXXXXXXXXXXXXXXXXXXXXXXXXXXXXXXXXXXXXXXXXXXXXXXXXXXXXXXXXXXXXXXXXXXXXXXXX",
"XXXXXXXXXXXXXXXXXXXXXXXXXXXXXXXXXXXXXXXXXXXXXXXXXXXXXXXXXXXXXXXXXXXXXXXXXXXXXXXX",
"XXXXXXXXXXXXXXXXXXXXXXXXXXXXXXXXXXXXXXXXXXXXXXXXXXXXXXXXXXXXXXXXXXXXXXXXXXXXXXXX",
"XXXXXXXXXXXXXXXXXXXXXXXXXXXXXXXXXXXXXXXXXXXXXXXXXXXXXXXXXXXXXXXXXXXXXXXXXXXXXXXX",
"XXXXXXXXXXXXXXXXXXXXXXXXXXXXXXXXXXXXXXXXXXXXXXXXXXXXXXXXXXXXXXXXXXXXXXXXXXXXXXXX",
"XXXXXXXXXXXXXXXXXXXXXXXXXXXXXXXXXXXXXXXXXXXXXXXXXXXXXXXXXXXXXXXXXXXXXXXXXXXXXXXX",
"XXXXXXXXXXXXXXXXXXXXXXXXXXXXXXXXXXXXXXXXXXXXXXXXXXXXXXXXXXXXXXXXXXXXXXXXXXXXXXXX",
"XXXXXXXXXXXXXXXXXXXXXXXXXXXXXXXXXXXXXXXXXXXXXXXXXXXXXXXXXXXXXXXXXXXXXXXXXXXXXXXX",
"XXXXXXXXXXXXXXXXXXXXXXXXXXXXXXXXXXXXXXXXXXXXXXXXXXXXXXXXXXXXXXXXXXXXXXXXXXXXXXXX",
"XXXXXXXXXXXXXXXXXXXXXXXXXXXXXXXXXXXXXXXXXXXXXXXXXXXXXXXXXXXXXXXXXXXXXXXXXXXXXXXX",
"XXXXXXXXXXXXXXXXXXXXXXXXXXXXXXXXXXXXXXXXXXXXXXXXXXXXXXXXXXXXXXXXXXXXXXXXXXXXXXXX",
"XXXXXXXXXXXXXXXXXXXXXXXXXXXXXXXXXXXXXXXXXXXXXXXXXXXXXXXXXXXXXXXXXXXXXXXXXXXXXXXX",
"XXXXXXXXXXXXXXXXXXXXXXXXXXXXXXXXXXXXXXXXXXXXXXXXXXXXXXXXXXXXXXXXXXXXXXXXXXXXXXXX",
"XXXXXXXXXXXXXXXXXXXXXXXXXXXXXXXXXXXXXXXXXXXXXXXXXXXXXXXXXXXXXXXXXXXXXXXXXXXXXXXX",
"XXXXXXXXXXXXXXXXXXXXXXXXXXXXXXXXXXXXXXXXXXXXXXXXXXXXXXXXXXXXXXXXXXXXXXXXXXXXXXXX",
"XXXXXXXXXXXXXXXXXXXXXXXXXXXXXXXXXXXXXXXXXXXXXXXXXXXXXXXXXXXXXXXXXXXXXXXXXXXXXXXX",
"XXXXXXXXXXXXXXXXXXXXXXXXXXXXXXXXXXXXXXXXXXXXXXXXXXXXXXXXXXXXXXXXXXXXXXXXXXXXXXXX",
"XXXXXXXXXXXXXXXXXXXXXXXXXXXXXXXXXXXXXXXXXXXXXXXXXXXXXXXXXXXXXXXXXXXXXXXXXXXXXXXX",
"XXXXXXXXXXXXXXXXXXXXXXXXXXXXXXXXXXXXXXXXXXXXXXXXXXXXXXXXXXXXXXXXXXXXXXXXXXXXXXXX",
"XXXXXXXXXXXXXXXXXXXXXXXXXXXXXXXXXXXXXXXXXXXXXXXXXXXXXXXXXXXXXXXXXXXXXXXXXXXXXXXX",
"XXXXXXXXXXXXXXXXXXXXXXXXXXXXXXXXXXXXXXXXXXXXXXXXXXXXXXXXXXXXXXXXXXXXXXXXXXXXXXXX"
};
