/* XPM */
static char *f6e51bd4dceb4599f6a999f6cc9ab8a62haRru85mfduvk3K[] = {
/* columns rows colors chars-per-pixel */
"32 32 193 2 ",
"   c #E8CFA6",
".  c #78A158",
"X  c #A4C263",
"o  c #A0B062",
"O  c #9FAA61",
"+  c #A28466",
"@  c #A37868",
"#  c #AEA969",
"$  c #957A5F",
"%  c #BC9977",
"&  c #C9A37F",
"*  c #D7B487",
"=  c #DCB98A",
"-  c #9C7F62",
";  c #A59465",
":  c #C0D470",
">  c #BAC66E",
",  c #A89B66",
"<  c #AF946D",
"1  c #B68E74",
"2  c #B7B077",
"3  c #AAAD71",
"4  c #9CB566",
"5  c #8EB25E",
"6  c #99B862",
"7  c #D3AE84",
"8  c #A8906A",
"9  c #B6B66D",
"0  c #B59872",
"q  c #C6AB7E",
"w  c #C3B37E",
"e  c #A3B46B",
"r  c #9CB863",
"t  c #80A75A",
"y  c #A2BF65",
"u  c #9EBE62",
"i  c #B2CB6A",
"p  c #97B562",
"a  c #9EAA6B",
"s  c #BC9C76",
"d  c #B3AE6C",
"f  c #D0B684",
"g  c #9CAF67",
"h  c #8BAF5D",
"j  c #7DA559",
"k  c #ABC766",
"l  c #83A95B",
"z  c #9DBC63",
"x  c #99BA60",
"c  c #ACC767",
"v  c #A5C265",
"b  c #7BA359",
"n  c #AC9867",
"m  c #959361",
"M  c #86AB5B",
"N  c #A6C364",
"B  c #A0BF62",
"V  c #8FB25F",
"C  c #88AD5C",
"Z  c #85965D",
"A  c #A38263",
"S  c #BDCD6F",
"D  c #8D9D64",
"F  c #8AAE5D",
"G  c #7A9060",
"H  c #93AB66",
"J  c #A8C465",
"K  c #A2A360",
"L  c #A79E5E",
"P  c #B2A463",
"I  c #A2C063",
"U  c #7D9761",
"Y  c #89A45B",
"T  c #BBBD6A",
"R  c #B9A86E",
"E  c #B09B6D",
"W  c #D0B58E",
"Q  c #DBBF9A",
"!  c #B7A76D",
"~  c #879E59",
"^  c #8CB05E",
"/  c #A89E5F",
"(  c #B29D6D",
")  c #C9A480",
"_  c #E4CDA7",
"`  c #EEDAB4",
"'  c #E9D2AA",
"]  c #BEA076",
"[  c #A49B5D",
"{  c #BFCE6F",
"}  c #999F63",
"|  c #ABA763",
" . c #BA8F6C",
".. c #D2B28D",
"X. c #EBD5AD",
"o. c #ECD7B1",
"O. c #EDDAB4",
"+. c #E0C195",
"@. c #CEA982",
"#. c #EDD9B2",
"$. c #B09F66",
"%. c #89905F",
"&. c #BEAB70",
"*. c #D9BA93",
"=. c #DEC39D",
"-. c #F0E0BB",
";. c #E2C498",
":. c #DFBF91",
">. c #B18871",
",. c #956760",
"<. c #90625D",
"1. c #DDBC8E",
"2. c #B99A6C",
"3. c #B9A073",
"4. c #E5CA9F",
"5. c #9A6D63",
"6. c #B0866E",
"7. c #B09D6D",
"8. c #C29B79",
"9. c #AF856B",
"0. c #AD8165",
"q. c #AA7C5F",
"w. c #BB9274",
"e. c #A88869",
"r. c #916661",
"t. c #C2986B",
"y. c #C49A6C",
"u. c #9D7462",
"i. c #84595F",
"p. c #B1815E",
"a. c #93675F",
"s. c #896063",
"d. c #9D7366",
"f. c #865B61",
"g. c #B78A63",
"h. c #906562",
"j. c #83575F",
"k. c #A37965",
"l. c #966C64",
"z. c #B08463",
"x. c #966B61",
"c. c #875D62",
"v. c #BE9267",
"b. c #996E61",
"n. c #895D5E",
"m. c #B98D67",
"M. c #7C525F",
"N. c #AB8065",
"B. c #996F64",
"V. c #AA7E65",
"C. c #B08769",
"Z. c #825961",
"A. c #C39970",
"S. c #D6B183",
"D. c #A2745E",
"F. c #BA8D67",
"G. c #9B8967",
"H. c #B18361",
"J. c #936965",
"K. c #947D64",
"L. c #9FB864",
"P. c #A3A56E",
"I. c #8F6562",
"U. c #9C7263",
"Y. c #8C7867",
"T. c #9D8665",
"R. c #B78B67",
"E. c #BD9267",
"W. c #988F6A",
"Q. c #B2BD6F",
"!. c #BCCF71",
"~. c #B3C373",
"^. c #948769",
"/. c #A19268",
"(. c #B58A67",
"). c #B9CB71",
"_. c #B68B68",
"`. c #C1966A",
"'. c #C3996B",
"]. c #9AB367",
"[. c #BFD370",
"{. c #B5C672",
"}. c #939C65",
"|. c #BED270",
" X c #AAAE6D",
".X c #A29F6A",
"XX c #9FBA65",
"oX c #B8C972",
"OX c #958A62",
"+X c #A1BE64",
"@X c #9AA264",
"#X c #A58164",
"$X c #A3C064",
/* pixels */
"        . . . . . . . . . . . . . . . . . . . . . . . .         ",
"  . . X X X X X X X X X o O + @ @ @ O o X X X X X X X X . . .   ",
"  . X X X X X X X X # $ % & * = = = & % - ; : X X X X X X X .   ",
"  X X X X X > , < 1 & = 2 3 4 5 5 6 3 2 = 7 1 8 , O X X X X .   ",
". . X X 9 < 0 & q w 3 e r t y u u i t p e a w q & s < d X X X . ",
". X X X < = f 3 g h j : k l z x x c l v : b h g 3 w = @ : X X . ",
". X X X n m M j : v l k N l y u u i l B k j u : V C Z A : X X . ",
". X X : S D u j k B l : k l y u u i l v : j u k F x G S : : X . ",
". X X : : H u j : v l i J l K L L P l I i j u : V x U : : X X . ",
". X : : : H u j i I Y T R E W Q Q Q E ! T ~ u i ^ x U : : : X . ",
". X X : : H u j T / ( ) _ ` '       ` _ ) ] [ T V x U : : : X . ",
". X : : { } |  ...X.o.O.+.= @.& & & = +.O.#.X... .$.%.{ : : X . ",
". X X : &.*.=.-.' ;.:.= >.@ ,.<.<.<.@ >.= 1.;.' -._ *.2.X X X . ",
". X X X 3.  4.= & 1 @ <.<.<.<.<.<.<.<.<.<.5.1 & = ;.  6.: X X . ",
". X X : 7.& 8.9.0.q.q.q.q.q.q.q.q.q.q.q.q.q.q.0.9.w.& e.X X X . ",
". X : : > , r.t.y.y.y.y.y.y.y.y.y.y.y.y.y.y.y.y.t.u., > : X X . ",
". X : : : : i.p.p.p.p.p.p.p.p.p.p.p.p.p.p.p.p.p.p.a.: X : X X . ",
". X X : : : s.y.y.y.y.y.y.y.y.y.y.y.y.y.y.y.y.y.y.d.: : : X X . ",
". X X : : : f.g.h.j.h.g.g.g.k.d.d.d.g.g.g.l.j.h.z.x.: : X X X . ",
". X X X : X c.v.j.<.j.v.v.b.n.n.n.n.b.m.v.M.<.j.N.B.: : : X X . ",
". X : : : : s.y.h.V.h.y.y.j.<.<.<.<.j.C.y.Z.V.h.C.d.: : : : X . ",
". X X : : : i.p.A.S.A.p.p.j.<.<.<.<.j.D.p.F.S.A.p.a.: : : : X . ",
". X : : : : s.y.y.y.y.y.y.j.<.<.<.<.j.C.y.y.y.y.y.d.: : : X X . ",
". X X X : : G.d.d.d.d.d.d.n.H.g.g.g.n.J.d.d.d.d.d.K.: : X X X . ",
". X X : : : L.P.I.U.Y.P.P.T.R.E.E.t.T.P.P.W.U.I.W.Q.: : : X X . ",
". X X : : : !.~.d.C.^.~.~./.(.E.E.t./.~.~.P.C.d.P.).: : : X X . ",
". X X : : : !.~.d.C.^.~.~./._.`.`.'./.].~.P.C.d.P.).: : : X X . ",
". X X X : : [.{.d.C.^.~.~./._.`.`.'./.~.~.P.C.d.}.|.X : X X X . ",
"  . X X : : X :  X.X).).XX/.(.E.E.t./.oX).)..X X|.: : : X X .   ",
"  . X X X X X X : : : : X OX(.E.E.t.OX+XX : : X : X X X X X .   ",
"  . . X X X X X X X X X X @X#XV.V.V.@X$XX X X X X X X X X . .   ",
"        . . . . . . . . . . . . . . . . . . . . . . . .         "
};
