/* XPM */
static char *_4eaadd1450a4830b3d86d310ca39a3dlLkKCcAJDL838Tx3[] = {
/* columns rows colors chars-per-pixel */
"80 80 163 2 ",
"   c #212426",
".  c #242729",
"X  c #26292B",
"o  c #2A2C2D",
"O  c #312E2B",
"+  c #35322C",
"@  c #3A332C",
"#  c #2B2E31",
"$  c #2E3133",
"%  c #32353A",
"&  c #36393B",
"*  c #42352C",
"=  c #4D3B2C",
"-  c #513D2C",
";  c #53452F",
":  c #3C3F45",
">  c #3D4145",
",  c #3C4D5D",
"<  c #414544",
"1  c #4E4747",
"2  c #42454D",
"3  c #4E534F",
"4  c #4C4F59",
"5  c #4F525D",
"6  c #525553",
"7  c #51545E",
"8  c #575B59",
"9  c #5C615C",
"0  c #565A65",
"q  c #5B5E6A",
"w  c #5D616C",
"e  c #586171",
"r  c #626664",
"t  c #646A75",
"y  c #676979",
"u  c #6C6F7F",
"i  c #677177",
"p  c #727772",
"a  c #797C76",
"s  c #73767A",
"d  c #76787D",
"f  c #8A562F",
"g  c #965B2F",
"h  c #9D5E2F",
"j  c #9F5F30",
"k  c #A05F30",
"l  c #906B36",
"z  c #997136",
"x  c #A86431",
"c  c #B36933",
"v  c #BF6C32",
"b  c #A97134",
"n  c #B8703E",
"m  c #C26E32",
"M  c #C77134",
"N  c #CC7233",
"B  c #CA7539",
"V  c #D17734",
"C  c #B8784C",
"Z  c #856F69",
"A  c #C07F41",
"S  c #C37D4D",
"D  c #B08039",
"F  c #BB863A",
"G  c #D68639",
"H  c #E39F3F",
"J  c #E5A13F",
"K  c #C58745",
"L  c #CD974A",
"P  c #CD984A",
"I  c #CD8652",
"U  c #D08855",
"Y  c #E09E45",
"T  c #CCA05D",
"R  c #E3A042",
"E  c #E2A856",
"W  c #4D6782",
"Q  c #4F6983",
"!  c #4F6F89",
"~  c #6C6F80",
"^  c #6E7182",
"/  c #677880",
"(  c #717587",
")  c #7A7C81",
"_  c #737789",
"`  c #4D9DB2",
"'  c #519DB1",
"]  c #7E8BA6",
"[  c #7F8DA8",
"{  c #4DA0B4",
"}  c #51A1B6",
"|  c #5EA8BA",
" . c #68A6B7",
".. c #63AABC",
"X. c #68ACBD",
"o. c #73B0C1",
"O. c #838A80",
"+. c #8A8E95",
"@. c #82869B",
"#. c #8E9196",
"$. c #969C96",
"%. c #AC9697",
"&. c #AE9998",
"*. c #98A094",
"=. c #B3A39B",
"-. c #8891AA",
";. c #989BA1",
":. c #9296AE",
">. c #969AB2",
",. c #999CB6",
"<. c #9B9FB9",
"1. c #A49FB1",
"2. c #9EA1BC",
"3. c #A5A8AD",
"4. c #B8AAA4",
"5. c #A5A1B2",
"6. c #A0A4BF",
"7. c #AFB0B6",
"8. c #B2B4BA",
"9. c #C6BFBF",
"0. c #C4CABA",
"q. c #9FA4C1",
"w. c #A2A6C1",
"e. c #A6AAC3",
"r. c #A9ACC4",
"t. c #AEB4C6",
"y. c #B1B6C6",
"u. c #B4B9C9",
"i. c #BBBECB",
"p. c #B6BFD1",
"a. c #BBBED1",
"s. c #9BC1CF",
"d. c #A2C4D1",
"f. c #A8C7D4",
"g. c #BDC0D2",
"h. c #C4C6CD",
"j. c #C8C7CA",
"k. c #CED0C5",
"l. c #D7DBCC",
"z. c #C7CDD6",
"x. c #CBCDDB",
"c. c #CED0D7",
"v. c #C6D4DE",
"b. c #CED0DD",
"n. c #DBDAD5",
"m. c #D3D4DE",
"M. c #DAD5D8",
"N. c #DBD8DC",
"B. c #E0E3D6",
"V. c #E4EED7",
"C. c #E4ECDC",
"Z. c #E9F1DB",
"A. c #D5D6E0",
"S. c #D7D8E2",
"D. c #DCDDE5",
"F. c #E0DFE7",
"G. c #DFE0E8",
"H. c #E3E8E1",
"J. c #E0E1E9",
"K. c #EBF3E2",
"L. c #F0F6E3",
"P. c #F3FDE5",
"I. c #F6F9EA",
/* pixels */
"X X X X X X X X X X X X X X X X X X X X X X X X X X X X X X X X X X X X X X X X X X X X X X X X X X X X X X X X X X X X X X X X X X X X X X X X X X X X X X X X ",
"X X X X X X X X X X X X X X X X X X X X X X X X X X X X X X X X X X X X X X X X X X X X X X X X X X X X X X X X X X X X X X X X X X X X X X X X X X X X X X X X ",
"X X X X X X X X X X X X X X X X X X X X X X X X X X X X X X X X X X X X X X X X X X X X X X X X X X X X X X X X X X X X X X X X X X X X X X X X X X X X X X X X ",
"X X X X X X X X X X X X X X X X X X X X X X X X X X X X X X X X X X X X X X X X X X X X X X X X X X X X X X X X X X X X X X X X X X X X X X X X X X X X X X X X ",
"X X X X X X X X X X X X X X X X X X X X X X X X X X X X X X X X X X X X X X X X X X X X X X X X X X X X X X X X X X X X X X X X X X X X X X X X X X X X X X X X ",
"X X X X X X X X X X X X X X X X X X X X X X X X X X X X X X X X X X X X X X X X X X X X X X X X X X X X X X X X X X X X X X X X X X X X X X X X X X X X X X X X ",
"X X X X X X X X X X X X X X X X X X X X X X X X X X X X X X X X X X X X X X X X X X X X X X X X X X X X X X X X X X X X X X X X X X X X X X X X X X X X X X X X ",
"X X X X X X X X X X X X X X X X X X X X X X X X X X X X X X X X X X X X X X X X X X X X X X X X X X X X X X X X X X X X X X X X X X X X X X X X X X X X X X X X ",
"X X X X X X X X X X X X X X X X X X X X X X X X X X X X X X X X X X X X X X X X X X X X X X X X X X X X X X X X X X X X X X X X X X X X X X X X X X X X X X X X ",
"X X X X X X X X X X X X X X X X X X X X X X X X X X X X X X X X X X X X X X X X X X X X X X X X X X X X X X X X X X X X X X X X X X X X X X X X X X X X X X X X ",
"X X X X X X X X X X X X X X X X X X X X X X X X X X X X X X X X X X X X X X X X X X X X X X X X X X X X X X X X X X X X X X X X X X X X X X X X X X X X X X X X ",
"X X X X X X X X X X X X X X X X X X X X X X X X X X X X X X X X X X X X X X X X X X X X X X X X X X X X X X X X X X X X X X X X X X X X X X X X X X X X X X X X ",
"X X X X X X X X X X X X X X X X X X X X X X X X X X X X X X X X X X X X X X X X X X X X X X X X X X X X X X X X X X X X X X X X X X X X X X X X X X X X X X X X ",
"X X X X X X X X X X X X X X X X X X X X X X X X X X X X X X X X X X X X X X X X X X X X X X X X X X X X X X X X X X X X X X X X X X X X X X X X X X X X X X X X ",
"X X X X X X X X X X X X X X X X X X X X X X X X X X X X X X X X X X X X X X X X X X X X X X X X X X X X X X X X X X X X X X X X X X X X X X X X X X X X X X X X ",
"X X X X X X X X X X X X X X X X X X X X X X X X X X X X X X X X X X X X X X X X X X X X X X X X X X X X X X X X X X X X X X X X X X X X X X X X X X X X X X X X ",
"X X X X X X X X X X X X X X X X X X X X X X X X X X X X X X X X X X X X X X X X X X X X X X X X X X X X X X X X X X X X X X X X X X X X X X X X X X X X X X X X ",
"X X X X X X X X X X X X X X X X X X X X X X X X X X X X X X X X X X X X X X X X X X X X X X X X X X X X X X X X X X X X X X X X X X X X X X X X X X X X X X X X ",
"X X X X X X X X X X X X X X X X X X X X X X X X X X X X X X X X X X X X X X X X X X X X X X X X X X X X X X X X X X X X X X X X X X X X X X X X X X X X X X X X ",
"X X X X X X X X X X X X X X X X X X X X X X X X X X X X X X X X X X X X X X X X X X X X X X X X X X X X X X X X X X X X X X X X X X X X X X X X X X X X X X X X ",
"X X X X X X X X X X X X X X X X X X X X X X X X X X X X X X X X X X X X X X X X X X X X X X X X X X X X X X X X X X X X X X X X X X X X X X X X X X X X X X X X ",
"X X X X X X X X X X X X X X X X X X X X X X X X X X X X X X X X X X X . . . . . X . . . . . X X X X X X X X X X X X X X X X X X X X X X X X X X X X X X X X X X ",
"X X X X X X X X X X X X X X X X X X X X X X X X X X X X X X X X X X $ & & & & % % % % % % % % # X X X X X X X X X X X X X X X X X X X X X X X X X X X X X X X X ",
"X X X X X X X X X X X X X X X X X X X X X X X X X X X X X X X X X X 8 +.;.$.+._ ( ( ( ( ( ( ^ 2 X X X X X X X X X X X X X X X X X X X X X X X X X X X X X X X X ",
"X X X X X X X X X X X X X X X X X X X X X X X X X X X X X X X X X X s h.S.N.z.2.2.2.2.2.2.<.,.5 X X X X X X X X X X X X X X X X X X X X X X X X X X X X X X X X ",
"X X X X X X X X X X X X X X X X X X X X X X X X X X X X X X X X X o d h.G.D.x.w.w.6.6.6.6.2.2.7 X X X X X X X X X X X X X X X X X X X X X X X X X X X X X X X X ",
"X X X X X X X X X X X X X X X X X X X X X X X X X X X X X X # $ $ $ ) h.D.D.x.e.w.w.w.w.6.2.2.0 # # # o X X X X X X X X X X X X X X X X X X X X X X X X X X X X ",
"X X X X X X X X X X X X X X X X X X X X X X X X X X X X X o r s s d 3.m.D.D.m.a.a.a.a.e.w.6.2._ q q q 2 X X X X X X X X X X X X X X X X X X X X X X X X X X X X ",
"X X X X X X X X X X X X X X X X X X X X X X X X X X X X X $ 3.c.c.c.m.D.D.D.D.S.S.S.m.r.w.w.6.<.,.>.,.y X X X X X X X X X X X X X X X X X X X X X X X X X X X X ",
"X X X X X X X X X X X X X X X X X X X X X X X X X X X X X $ 8.D.D.D.D.D.D.D.D.D.D.D.S.r.6.6.6.6.6.2.w.u X X X X X X X X X X X X X X X X X X X X X X X X X X X X ",
"X X X X X X X X X X X X X X X X X                       . o 8.D.D.D.D.D.D.D.D.D.D.F.S.r.w.w.w.w.w.w.e.^ X X X X X X X X X X X X X X X X X X X X X X X X X X X X ",
"X X X X X X X X X X X X X X X X X 6 p a a a a a a p q 0 0 w i.D.D.D.v.f.d.d.d.d.d.d.s.-.] ] ] ] ] ] [ e X X X X X X X X X X X X X X X X X X X X X X X X X X X X ",
"X X X X X X X X X X X X X X X X # *.Z.I.I.I.I.I.I.H.r.w.e.r.b.D.D.D.s.| ` { { { { { ` ! W W W W W W W , X X X X X X X X X X X X X X X X X X X X X X X X X X X X ",
"X X X X X X X X X X X X X X X X o $.V.P.P.P.P.P.P.C.e.6.6.w.b.D.D.D.s...} } } } } } ' ! Q Q Q Q Q W Q , X X X X X X X X X X X X X X X X X X X X X X X X X X X X ",
"X X X X X X X X X X X X X X X X o $.V.P.P.P.P.P.P.C.e.w.w.w.b.D.D.D.s.| { } } } } } ' ! W W W W Q W Q , X X X X X X X X X X X X X X X X X X X X X X X X X X X X ",
"X X X X X X X X X X X X X X X X o O.0.k.k.k.k.k.k.j.y.t.t.y.x.m.m.m.d.o.X.X.X.X.X.X. ./ i i i t t t t 6 * * * @ X X X X X X X X X X X X X X X X X X X X X X X X ",
"X X X X X X X X X X X X X X X X X & > < < < < < < r n.C.K.C.i.r.r.r.p.v.v.v.v.v.v.v.z.T P L L A n n n c c c x f o X X X X X X X X X X X X X X X X X X X X X X X ",
"X X X X X X X X X X X X X X X X X X X X X X X X X 6 B.P.P.L.u.6.w.w.a.A.D.D.D.D.D.D.M.E R H H G N N N N N N M h O X X X X X X X X X X X X X X X X X X X X X X X ",
"X X X X X X X X X X X X X X X X X X X X X X X X X 6 B.P.P.L.u.6.6.w.a.A.D.D.D.D.D.D.M.E R J H G N N N N N N N h O X X X X X X X X X X X X X X X X X X X X X X X ",
"X X X X X X X X X X X X X X X X X X X X X X X X X 3 l.Z.Z.V.y.w.w.e.g.A.D.D.D.D.D.D.M.E R R Y G B B B M m m v g O X X X X X X X X X X X X X X X X X X X X X X X ",
"X X X X X X X X X X X X X X X X X X X X X X X X X $ 8 8 9 r 8.x.x.x.A.D.D.D.D.D.D.D.N.4.=.=.=.&.%.%.%.Z - - = * X X X X X X X X X X X X X X X X X X X X X X X X ",
"X X X X X X X X X X X X X X X X X X X X X X X X X .     . # 8.D.D.D.D.D.D.D.D.D.D.D.S.r.q.q.q.q.w.q.w.~ . . . . X X X X X X X X X X X X X X X X X X X X X X X X ",
"X X X X X X X X X X X X X X X X X X X X X X X X X X X X X $ 8.D.D.D.D.D.D.D.D.D.D.D.S.r.6.6.6.6.6.6.w.~ X X X X X X X X X X X X X X X X X X X X X X X X X X X X ",
"X X X X X X X X X X X X X X X X X X X X X X X X X X X X X $ 8.D.D.D.D.D.D.D.D.D.D.D.S.r.w.w.w.w.w.6.w.~ X X X X X X X X X X X X X X X X X X X X X X X X X X X X ",
"X X X X X X X X X X X X X X X X X X X X X X X X X X X X X $ 8.D.D.D.D.D.D.D.D.D.D.D.S.r.w.w.w.w.w.6.w.~ X X X X X X X X X X X X X X X X X X X X X X X X X X X X ",
"X X X X X X X X X X X X X X X X X X X X X X X X X X X X X $ 8.D.D.D.D.D.D.D.D.D.D.D.S.r.w.w.w.w.w.6.w.~ X X X X X X X X X X X X X X X X X X X X X X X X X X X X ",
"X X X X X X X X X X X X X X X X X X X X X X X X X X X X X $ 8.D.D.D.D.D.D.D.D.D.D.D.S.r.w.6.w.6.6.6.w.u X X X X X X X X X X X X X X X X X X X X X X X X X X X X ",
"X X X X X X X X X X X X X X X X X X X X X X X X X X X X X $ 8.J.G.J.D.D.D.D.D.D.D.D.S.r.w.6.6.w.w.w.r.^ X X X X X X X X X X X X X X X X X X X X X X X X X X X X ",
"X X X X X X X X X X X X X X X X X X X X X X X X X X X X X # #.7.7.7.h.m.D.D.S.b.x.x.x.e.w.6.2.-.@.@.@.q X X X X X X X X X X X X X X X X X X X X X X X X X X X X ",
"X X X X X X X X X X X X X X X X X X X X X X X X X X X X X X X X X o d h.D.D.x.w.w.w.w.6.w.2.2.7 . X X X X X X X X X X X X X X X X X X X X X X X X X X X X X X X ",
"X X X X X X X X X X X X X X X X X X X X X X X X X X X X X X X X X o d h.D.D.x.w.6.w.w.6.w.2.2.7 X X X X X X X X X X X X X X X X X X X X X X X X X X X X X X X X ",
"X X X X X X X X X X X X X X X X X X X X X X X X X X X X X X X X X o d h.G.D.x.w.6.6.6.6.6.6.2.7 X X X X X X X X X X X X X X X X X X X X X X X X X X X X X X X X ",
"X X X X X X X X X X X X X X X X X X X X X X X X X X X X X X + + + @ a 9.M.M.j.5.5.1.1.>.>.:.:.4 X X X X X X X X X X X X X X X X X X X X X X X X X X X X X X X X ",
"X X X X X X X X X X X X X X X X X X X X X X X X X X X X X o z F F F K I U U I S S S C 1 > > : $ X X X X X X X X X X X X X X X X X X X X X X X X X X X X X X X X ",
"X X X X X X X X X X X X X X X X X X X X X X X X X X X X X o F J R H G N N N N N N N v @ X X X X X X X X X X X X X X X X X X X X X X X X X X X X X X X X X X X X ",
"X X X X X X X X X X X X X X X X X X X X X X X X X X X X X o F J J J G V N N N N N V m @ X X X X X X X X X X X X X X X X X X X X X X X X X X X X X X X X X X X X ",
"X X X X X X X X X X X X X X X X X X X X X X X X X X X X X o l D D D b x j j j j j k g O X X X X X X X X X X X X X X X X X X X X X X X X X X X X X X X X X X X X ",
"X X X X X X X X X X X X X X X X X X X X X X X X X X X X X X = ; ; ; ; = = = = = = = = X X X X X X X X X X X X X X X X X X X X X X X X X X X X X X X X X X X X X ",
"X X X X X X X X X X X X X X X X X X X X X X X X X X X X X X X X X X X X X X X X X X X X X X X X X X X X X X X X X X X X X X X X X X X X X X X X X X X X X X X X ",
"X X X X X X X X X X X X X X X X X X X X X X X X X X X X X X X X X X X X X X X X X X X X X X X X X X X X X X X X X X X X X X X X X X X X X X X X X X X X X X X X ",
"X X X X X X X X X X X X X X X X X X X X X X X X X X X X X X X X X X X X X X X X X X X X X X X X X X X X X X X X X X X X X X X X X X X X X X X X X X X X X X X X ",
"X X X X X X X X X X X X X X X X X X X X X X X X X X X X X X X X X X X X X X X X X X X X X X X X X X X X X X X X X X X X X X X X X X X X X X X X X X X X X X X X ",
"X X X X X X X X X X X X X X X X X X X X X X X X X X X X X X X X X X X X X X X X X X X X X X X X X X X X X X X X X X X X X X X X X X X X X X X X X X X X X X X X ",
"X X X X X X X X X X X X X X X X X X X X X X X X X X X X X X X X X X X X X X X X X X X X X X X X X X X X X X X X X X X X X X X X X X X X X X X X X X X X X X X X ",
"X X X X X X X X X X X X X X X X X X X X X X X X X X X X X X X X X X X X X X X X X X X X X X X X X X X X X X X X X X X X X X X X X X X X X X X X X X X X X X X X ",
"X X X X X X X X X X X X X X X X X X X X X X X X X X X X X X X X X X X X X X X X X X X X X X X X X X X X X X X X X X X X X X X X X X X X X X X X X X X X X X X X ",
"X X X X X X X X X X X X X X X X X X X X X X X X X X X X X X X X X X X X X X X X X X X X X X X X X X X X X X X X X X X X X X X X X X X X X X X X X X X X X X X X ",
"X X X X X X X X X X X X X X X X X X X X X X X X X X X X X X X X X X X X X X X X X X X X X X X X X X X X X X X X X X X X X X X X X X X X X X X X X X X X X X X X ",
"X X X X X X X X X X X X X X X X X X X X X X X X X X X X X X X X X X X X X X X X X X X X X X X X X X X X X X X X X X X X X X X X X X X X X X X X X X X X X X X X ",
"X X X X X X X X X X X X X X X X X X X X X X X X X X X X X X X X X X X X X X X X X X X X X X X X X X X X X X X X X X X X X X X X X X X X X X X X X X X X X X X X ",
"X X X X X X X X X X X X X X X X X X X X X X X X X X X X X X X X X X X X X X X X X X X X X X X X X X X X X X X X X X X X X X X X X X X X X X X X X X X X X X X X ",
"X X X X X X X X X X X X X X X X X X X X X X X X X X X X X X X X X X X X X X X X X X X X X X X X X X X X X X X X X X X X X X X X X X X X X X X X X X X X X X X X ",
"X X X X X X X X X X X X X X X X X X X X X X X X X X X X X X X X X X X X X X X X X X X X X X X X X X X X X X X X X X X X X X X X X X X X X X X X X X X X X X X X ",
"X X X X X X X X X X X X X X X X X X X X X X X X X X X X X X X X X X X X X X X X X X X X X X X X X X X X X X X X X X X X X X X X X X X X X X X X X X X X X X X X ",
"X X X X X X X X X X X X X X X X X X X X X X X X X X X X X X X X X X X X X X X X X X X X X X X X X X X X X X X X X X X X X X X X X X X X X X X X X X X X X X X X ",
"X X X X X X X X X X X X X X X X X X X X X X X X X X X X X X X X X X X X X X X X X X X X X X X X X X X X X X X X X X X X X X X X X X X X X X X X X X X X X X X X ",
"X X X X X X X X X X X X X X X X X X X X X X X X X X X X X X X X X X X X X X X X X X X X X X X X X X X X X X X X X X X X X X X X X X X X X X X X X X X X X X X X ",
"X X X X X X X X X X X X X X X X X X X X X X X X X X X X X X X X X X X X X X X X X X X X X X X X X X X X X X X X X X X X X X X X X X X X X X X X X X X X X X X X ",
"X X X X X X X X X X X X X X X X X X X X X X X X X X X X X X X X X X X X X X X X X X X X X X X X X X X X X X X X X X X X X X X X X X X X X X X X X X X X X X X X ",
"X X X X X X X X X X X X X X X X X X X X X X X X X X X X X X X X X X X X X X X X X X X X X X X X X X X X X X X X X X X X X X X X X X X X X X X X X X X X X X X X "
};
