/* XPM */
static char *result[] = {
/* columns rows colors chars-per-pixel */
"32 32 133 2 ",
"   c #2D1616",
".  c #331A19",
"X  c #381E1C",
"o  c #37231C",
"O  c #3D231F",
"+  c #3B281E",
"@  c #452B23",
"#  c #4C2D26",
"$  c #443223",
"%  c #4F3027",
"&  c #4E3728",
"*  c #4F3929",
"=  c #54332A",
"-  c #58352C",
";  c #5A382D",
":  c #633E2E",
">  c #633C31",
",  c #68550F",
"<  c #675015",
"1  c #6B5325",
"2  c #6D4437",
"3  c #6F4833",
"4  c #6B483F",
"5  c #714639",
"6  c #734A3A",
"7  c #794C3D",
"8  c #725036",
"9  c #76503E",
"0  c #6C673C",
"q  c #6F6D3F",
"w  c #674841",
"e  c #6F4E46",
"r  c #765141",
"t  c #756E41",
"y  c #757442",
"u  c #7B7344",
"i  c #8B6F1F",
"p  c #8C7714",
"a  c #835241",
"s  c #945F4B",
"d  c #95614B",
"f  c #917B52",
"g  c #A76652",
"h  c #A56B53",
"j  c #A86D54",
"k  c #A57054",
"l  c #AD7157",
"z  c #AF7258",
"x  c #B4735A",
"c  c #B7795C",
"v  c #B87A5D",
"b  c #C27A61",
"n  c #76AB4B",
"m  c #95830B",
"M  c #A7950C",
"N  c #AF9A11",
"B  c #BDB51C",
"V  c #A3BD23",
"C  c #B8B020",
"Z  c #DBB927",
"A  c #DEBB29",
"S  c #ABD81F",
"D  c #B2D81E",
"F  c #8BC82F",
"G  c #8DC236",
"H  c #90C530",
"J  c #D2C70D",
"K  c #DED202",
"L  c #DEC915",
"P  c #DBC413",
"I  c #E5D900",
"U  c #E8DC00",
"Y  c #E5D908",
"T  c #E1CB13",
"R  c #CAE214",
"E  c #EFEC05",
"W  c #E6E808",
"Q  c #FDF101",
"!  c #E2C225",
"~  c #EBC927",
"^  c #E5C82B",
"/  c #E7C938",
"(  c #8C814D",
")  c #848A4B",
"_  c #9E9949",
"`  c #8B8F50",
"'  c #8D9251",
"]  c #929653",
"[  c #939A54",
"{  c #999C58",
"}  c #A8975C",
"|  c #89A245",
" . c #91A84D",
".. c #98A057",
"X. c #9FAA5C",
"o. c #A2AD5E",
"O. c #A3B25F",
"+. c #88876D",
"@. c #86877E",
"#. c #BD8562",
"$. c #B58E62",
"%. c #94B562",
"&. c #9DBB64",
"*. c #A7B360",
"=. c #A9B662",
"-. c #A1BE66",
";. c #ACBB64",
":. c #CD8D5F",
">. c #C48263",
",. c #CB8666",
"<. c #CA8F66",
"1. c #C68E68",
"2. c #CE8969",
"3. c #D18B6A",
"4. c #D39161",
"5. c #A5C166",
"6. c #A9C467",
"7. c #A6C168",
"8. c #ACC669",
"9. c #AFC869",
"0. c #B4C469",
"q. c #B4CC6B",
"w. c #B8CE6C",
"e. c #BCD26E",
"r. c #BFD470",
"t. c #E8CD43",
"y. c #C0D470",
"u. c #CF9880",
"i. c #D9AB96",
"p. c #E0A182",
"a. c #E5AA8E",
"s. c #E6AC91",
"d. c #F1BFA7",
/* pixels */
"y.r.w.w.8.6.8.q.q.w.w.w.w.w.w.w.w.w.q.q.q.q.q.9.8.6.5.6.w.w.r.r.",
"r.q.7.6.8.q.q.w.w.w.e.w.w.w.w.e.r.r.w.w.e.e.w.w.w.q.8.6.-.&.q.y.",
"w.-.9.q.q.w.w.w.w.e.e.w.r.w.e.w.r.w.w.r.e.e.e.w.w.q.q.q.9.6.&.e.",
"q.-.q.q.q.w.w.r.e.y.y.r.e.e.r.r.r.r.r.r.r.y.y.e.e.q.q.q.9.6.&.q.",
"5.&.8.q.w.r.r.r.r.y.y.e.y.y.y.y.r.w.r.r.r.y.r.r.y.y.e.e.w.9.5.5.",
"&.5.9.q.r.r.y.r.y.y.y.y.y.y.y.y.r.r.r.r.y.y.r.r.y.y.y.y.e.q.6.&.",
"-.8.q.w.r.y.y.y.y.y.y.y.y.y.y.y.r.r.r.r.y.y.y.e.y.y.e.e.r.q.q.5.",
"5.q.q.y.y.y.y.q.' ' ' ' ' ;.y.y.w.[ ' ' ' ' *.y.y.y.r.e.r.w.6.5.",
"6.q.w.e.e.y.y.;.o . X . . ) w.w.;.@ . . .   q w.r.y.y.y.y.w.9.5.",
"6.q.e.y.y.y.y.;.o w i.u.v 8 $ $ * g x v a . o @ X.y.y.y.y.e.q.6.",
"8.q.w.y.y.y.e.;.o 4 s.p.3.d 2 2 7 b ,.3.z 2 2 2 u ' 0.y.r.e.q.6.",
"9.w.e.e.e.y.y.;.o > 2.2.2.2.3.2.3.3.3.3.2.2.,.,.; + X.r.r.e.w.9.",
"q.q.e.e.y.y.e.;.o > ,.>.c c v ,.3.3.3.3.3.2.2.,.- + X.y.e.q.9.6.",
"9.9.q.e.y.y.y.;.o > ,.c d d d >.3.3.3.3.>.l j h # + O.r.e.q.9.6.",
"0.q.q.y.e.r.y.;.o > ,.h 4 6 6 v 3.3.3.3.x a 7 2 O + X.r.w.q.9.9.",
"q.w.e.y.e.r.y.;.o > ,.,.>.>.>.,.3.3.3.3.x a 6 2 O + X.r.e.w.w.6.",
"q.e.e.r.y.y.y.;.o : 2.3.3.3.3.2.3.3.3.3.z 6 6 2 O o X.w.y.q.q.9.",
"q.q.e.r.y.y.y.;.o : <.4.4.4.<.1.3.3.3.>.h 8 3 2 @ $ O.y.y.q.q.9.",
"9.q.w.e.y.y.y.;.o < P T T L | n } $.#.f ) V p X ) *.w.y.w.q.q.9.",
"q.w.w.e.y.e.y.;.o , K I I C @.{ H G  .F D Q m   ..y.r.e.e.w.9.-.",
"9.w.e.r.y.y.y.;.o , K I I B +._ I E R Q Q Q m   { y.y.e.y.e.q.5.",
"q.w.w.r.y.y.y.;.o , K I I I J K U W S Q Q Q m   ..y.y.y.y.e.9.5.",
"9.w.e.r.y.y.y.;.o 1 t./ Z A Z N M ! ^ ~ ~ ~ i   ..y.y.y.e.q.5.&.",
"6.9.q.w.y.y.e.;.o e d.a.2.,.>.; @ c ,.>.>.,.7   ..e.e.y.w.9.9.-.",
"6.9.q.e.e.e.e.;.o @ r 8 6 = @ ] o.* # 3 7 8 &   ..e.y.y.e.9.9.5.",
"6.q.q.e.y.y.y.9.t y f ( ( y t =.w.y q ( ( ( q 0 =.y.y.y.e.9.6.&.",
"5.8.q.e.y.y.y.y.e.y.r.e.r.r.r.r.y.y.y.e.y.y.y.y.e.y.e.y.e.q.-.%.",
"7.6.q.q.e.y.e.y.y.y.r.r.r.r.r.e.y.y.y.y.y.y.y.r.e.e.e.e.q.8.&.&.",
"q.-.9.q.e.y.w.e.r.r.r.r.e.e.e.e.y.e.e.e.e.r.r.r.r.r.e.e.q.5.%.q.",
"w.&.6.9.q.9.q.q.w.e.r.e.q.w.e.e.e.w.w.q.q.e.e.w.e.w.q.9.8.5.%.q.",
"y.q.-.5.5.6.9.8.9.w.w.q.q.q.q.w.w.q.9.q.q.w.q.9.9.q.6.6.5.&.q.e.",
"y.y.w.q.5.-.5.6.6.6.9.9.9.9.q.q.q.0.q.q.q.9.9.6.6.6.-.6.q.w.y.y."
};
