/* XPM */
static char *_fe92e6758014fadec4a888cbbdae770IcgHvVkW1PcL69I4[] = {
/* columns rows colors chars-per-pixel */
"32 32 190 2 ",
"   c #2D1616",
".  c #351D1B",
"X  c #381E1D",
"o  c #36221C",
"O  c #3C221E",
"+  c #3C2220",
"@  c #40241F",
"#  c #52381C",
"$  c #412622",
"%  c #492A24",
"&  c #452927",
"*  c #4D322C",
"=  c #53322A",
"-  c #5D392F",
";  c #58352C",
":  c #593B34",
">  c #623C31",
",  c #68550F",
"<  c #695513",
"1  c #664725",
"2  c #7C5D25",
"3  c #654233",
"4  c #6C4336",
"5  c #614A3C",
"6  c #74463A",
"7  c #754B3C",
"8  c #7F4F3F",
"9  c #7D523D",
"0  c #75533E",
"q  c #7F7E31",
"w  c #704C46",
"e  c #725141",
"r  c #7F5141",
"t  c #7B5A4B",
"y  c #947F0F",
"u  c #835342",
"i  c #885948",
"p  c #885C56",
"a  c #87614F",
"s  c #9A654E",
"d  c #8C625B",
"f  c #91635D",
"g  c #976D58",
"h  c #807955",
"j  c #99745A",
"k  c #AA6F56",
"l  c #AC7157",
"z  c #A57A59",
"x  c #B5755B",
"c  c #BB7B5E",
"v  c #BA715C",
"b  c #986C62",
"n  c #967E66",
"m  c #9B7565",
"M  c #A67965",
"N  c #7A8957",
"B  c #7EA750",
"V  c #71AC46",
"C  c #95830B",
"Z  c #A19B30",
"A  c #90B738",
"S  c #A8A22C",
"D  c #C8BF15",
"F  c #D7AA3E",
"G  c #9FCD2A",
"H  c #DACE05",
"J  c #DED202",
"K  c #C1DF17",
"L  c #D3D916",
"P  c #E4D307",
"I  c #E5D900",
"U  c #E3D40C",
"Y  c #E8DB01",
"T  c #D4E311",
"R  c #E7E80A",
"E  c #F8EC07",
"W  c #FEF200",
"Q  c #858356",
"!  c #969E57",
"~  c #989D5B",
"^  c #979A5E",
"/  c #8B9752",
"(  c #AC835E",
")  c #A8995E",
"_  c #A99857",
"`  c #86AB5C",
"'  c #8AAD5D",
"]  c #88A65B",
"[  c #9DA05E",
"{  c #97AA5E",
"}  c #92B35F",
"|  c #87866F",
" . c #9B8F64",
".. c #8B9962",
"X. c #989963",
"o. c #AC8A69",
"O. c #B08861",
"+. c #AC9567",
"@. c #A29A65",
"#. c #AA9C64",
"$. c #AD926D",
"%. c #AB9D69",
"&. c #A39B69",
"*. c #AE8370",
"=. c #B18B71",
"-. c #BA9475",
";. c #BC9B75",
":. c #B39670",
">. c #8EAD60",
",. c #8AA463",
"<. c #9FA966",
"1. c #98AA67",
"2. c #95B561",
"3. c #9BB565",
"4. c #9DBC63",
"5. c #9CB268",
"6. c #A5A166",
"7. c #ABA469",
"8. c #ADAA69",
"9. c #A6AA69",
"0. c #B1A96B",
"q. c #BAA96B",
"w. c #B1A066",
"e. c #A5B361",
"r. c #A1BE65",
"t. c #AEB269",
"y. c #A9B566",
"u. c #B3B96A",
"i. c #B6B46A",
"p. c #A8AD70",
"a. c #BCA274",
"s. c #B0AF74",
"d. c #BCB179",
"f. c #CD905B",
"g. c #D3945C",
"h. c #C48A55",
"j. c #C38163",
"k. c #CB8667",
"l. c #CE8969",
"z. c #C68C67",
"x. c #D18B6A",
"c. c #C39C7B",
"v. c #C5A27C",
"b. c #C8A37E",
"n. c #C6AB7F",
"m. c #C4B27E",
"M. c #A5C266",
"N. c #A9C467",
"B. c #AEC867",
"V. c #ACC669",
"C. c #AFC869",
"Z. c #A6C168",
"A. c #B5CA6C",
"S. c #B6CD6C",
"D. c #B3CB6B",
"F. c #B8CE6D",
"G. c #B9CD6D",
"H. c #B9CE6D",
"J. c #B6C36C",
"K. c #BED26F",
"L. c #BCD16E",
"P. c #B8C971",
"I. c #BFD370",
"U. c #BFD370",
"Y. c #C0D470",
"T. c #C0D470",
"R. c #8F8F92",
"E. c #CDAC82",
"W. c #CAA580",
"Q. c #D2AE86",
"!. c #C7B480",
"~. c #C8B280",
"^. c #D3B585",
"/. c #D1B18A",
"(. c #D9B78B",
"). c #DCBA8D",
"_. c #D6BA92",
"`. c #DBBE98",
"'. c #DDBE92",
"]. c #E9AC90",
"[. c #EAB482",
"{. c #DEC49D",
"}. c #E2C69B",
"|. c #F5C699",
" X c #DFC9A3",
".X c #E5CBA2",
"XX c #E5CBA4",
"oX c #F4C0A8",
"OX c #E9D3AC",
"+X c #ECD8B2",
/* pixels */
"Y.I.F.F.V.V.V.D.D.D.D.F.F.F.t.6.6.7.A.D.D.D.D.D.V.N.M.V.D.F.Y.Y.",
"I.A.M.V.C.D.D.F.F.L.F.F.t.7.$.=.=.=.%.8.A.F.F.D.D.D.V.V.r.r.D.Y.",
"F.r.V.D.D.D.D.D.D.u.0.$.;.b.n.!.m.~.b.v.$.%.u.J.D.D.D.D.C.Z.4.D.",
"D.M.D.D.D.A.J.%.%.-.v.^.d.p.y.} } 3.p.s.^.E.-.:.#.t.D.D.D.N.3.D.",
"M.4.V.D.u.$.=.Q.E.m.p.2.3.` 4.4.4.M.` 3.3.1.d.m.Q.;.o.0.D.C.M.M.",
"4.M.D.D.o.E.m.1.5.2.` V.B.' 4.4.4.M.` r.F.' } 3.1.d.^.o.K.D.N.4.",
"r.V.D.F.7. .>.` D.N.' M.N.' 4.4.3.M.` r.C.' 4.L.' ' ..+.U.D.D.M.",
"M.D.D.K.I.1.>.` N.M.' V.B.' r.4.4.N.` M.F.' 3.B.` 2...A.Y.F.V.r.",
"V.D.D.K.K.5.>.` F.N.' M.N.' [ ) ) #.] r.D.' 4.K.' 2.,.Y.Y.D.V.M.",
"V.D.K.Y.Y.5.>.` N.M.' t.q.;._.XXXX{.a.a.i.{ 4.C.` 2.,.Y.Y.K.D.V.",
"V.D.F.K.I.5.>.] u.w.a./..X+XXX.X.XXXOXOX/.n.#.i.' 2.,.Y.Y.K.D.V.",
"C.D.K.K.H.6.@.;.E.OXOXOX}.).W.c.c.c.(.'.OXOXOX`.;.7.X.G.Y.L.D.V.",
"V.D.F.U.q._.{.+X X_./.b.*.m b f d d b M v.E.'..X+XXX`.a.L.D.D.V.",
"V.D.D.L.+.{.}.b.* $ + + + w f f p & + + + + t c.(.}.XX-.K.D.V.V.",
"D.D.F.I.%.c.c.j . * d i 7 7 7 7 7 6 6 7 -   = e j -.b.$.D.D.D.V.",
"D.F.K.Y.H.8.m ( X w oX].x.6 X X % v k.x.s o X X g g @.J.K.D.D.V.",
"D.F.K.Y.Y.Y.n z . > l.x.x.j.j.j.j.l.x.x.k.c c c - $ [ L.U.D.D.V.",
"D.D.F.U.Y.Y.n O.X > k.k.j.j.j.l.x.x.x.x.x.l.k.k.; X ~ Y.K.D.D.V.",
"D.D.F.K.Y.K.n z . > k.j.l l l j.x.x.x.x.l.k.j.j.; X ~ Y.L.D.D.V.",
"D.F.D.L.Y.L.n ( . > k.k 6 6 7 c x.x.x.x.x i 9 7 $ X ~ K.I.D.V.M.",
"D.F.L.Y.Y.Y.n O.. > k.c s s s j.x.x.x.x.x u 7 4 O X ~ K.Y.K.D.M.",
"D.D.L.Y.Y.Y.n z X > k.x.x.x.x.x.x.x.x.x.x 8 7 4 O X ~ Y.Y.L.C.M.",
"C.D.L.Y.Y.Y.n O.X > k.x.x.x.x.x.x.x.x.k.k 6 4 4 O X ~ Y.I.D.Z.4.",
"V.D.D.L.Y.Y.&.g . 1 F F F F _ ^ z.l.k.c j q 2 = : 5 e.Y.F.D.V.r.",
"Z.C.D.K.Y.K.A.X.. , J I I H N A V B ) V A R C   h J.U.Y.L.D.C.r.",
"V.D.D.L.Y.Y.I.<.. , J I I Z R.| L T G R E W C   Q P.U.U.L.D.N.3.",
"M.V.D.K.K.Y.I.<.. , J I I J S D Y R K W W W C   Q P.K.U.K.D.M.2.",
"M.N.D.D.K.Y.K.e.. < U U P P P H H R L E E E y   Q I.L.I.D.V.4.4.",
"D.r.C.D.K.K.F.y.o e |.[.g.g.f.1 # h.g.g.g.g.9   ! Y.U.L.D.M.2.D.",
"D.4.Z.D.D.D.D.e.o : *.M s i r 0 0 r u s s s >   ! F.D.D.C.M.3.D.",
"Y.D.r.M.M.Z.C.{ o @ 3 3 3 $ . a g O o 3 3 3 %   / D.N.M.M.4.D.U.",
"Y.Y.D.D.M.r.M.M.N.V.C.C.V.D.D.D.D.D.D.D.D.D.C.V.M.N.r.Z.A.D.U.Y."
};
