/* XPM */
static char *result[] = {
/* columns rows colors chars-per-pixel */
"32 32 101 2 ",
"   c #9DBB65",
".  c #A2BE66",
"X  c #A8BF69",
"o  c #A4C166",
"O  c #AAC567",
"+  c #ACC669",
"@  c #AEC869",
"#  c #B6C56E",
"$  c #B4CC6B",
"%  c #B8CF6D",
"&  c #BCD16E",
"*  c #AEC373",
"=  c #ADCA71",
"-  c #ADCD7D",
";  c #B6C374",
":  c #B6C971",
">  c #BAC976",
",  c #B4C47C",
"<  c #BCC37A",
"1  c #B0CE7B",
"2  c #BFCA7A",
"3  c #BFD370",
"4  c #C2C17E",
"5  c #C0C97D",
"6  c #C1D371",
"7  c #626A8E",
"8  c #666E93",
"9  c #5F8EAE",
"0  c #5499AE",
"q  c #5A9CAD",
"w  c #5B9CB1",
"e  c #6A8EAA",
"r  c #7787A5",
"t  c #788DA8",
"y  c #7B95A7",
"u  c #7696B1",
"i  c #5DA1B1",
"p  c #63A5B3",
"a  c #67A9B4",
"s  c #6BACB5",
"d  c #73B2B6",
"f  c #75B5B8",
"g  c #78B7B9",
"h  c #7DBBBA",
"j  c #7BB0C5",
"k  c #84A6AF",
"l  c #84BDB6",
"z  c #8DB5B8",
"x  c #82BFBC",
"c  c #C5BE86",
"v  c #CCBE85",
"b  c #D2BE8C",
"n  c #AAC987",
"m  c #A1CA8E",
"M  c #A9CA88",
"N  c #B4C683",
"B  c #BDC186",
"V  c #B1CF80",
"C  c #AFD189",
"Z  c #B7D483",
"A  c #B0D38F",
"S  c #A1CE9E",
"D  c #BFC498",
"F  c #B7D792",
"G  c #9FD0A7",
"H  c #84C1BC",
"J  c #8BC6BD",
"K  c #8DC9BF",
"L  c #98C7BC",
"P  c #9DD2BE",
"I  c #A1CEA8",
"U  c #BEC6A4",
"Y  c #A2D0A3",
"T  c #A1D2AB",
"R  c #A0D2BE",
"E  c #ACDEBF",
"W  c #C7C684",
"Q  c #C5CA81",
"!  c #C9C987",
"~  c #C2C188",
"^  c #CCCA8B",
"/  c #D3C78E",
"(  c #D3C98F",
")  c #CEC292",
"_  c #C5C39E",
"`  c #CAC39C",
"'  c #D2C391",
"]  c #D5CB93",
"[  c #D9CC96",
"{  c #DDCC9B",
"}  c #E3C69B",
"|  c #E3C99D",
" . c #E6CEA4",
".. c #E8CFA6",
"X. c #8CB4CA",
"o. c #94CEC1",
"O. c #96D0C2",
"+. c #9BD4C3",
"@. c #A1D7C1",
"#. c #A5D9C1",
"$. c #A9DCC0",
/* pixels */
"6 3 $ $ @ + @ $ $ $ % $ % % & % % % $ $ $ $ $ @ @ + o O $ % 3 3 ",
"3 $ o + $ @ $ $ % % & & % % & & 3 & & : & & % % % @ O O o   @ 3 ",
"$ . + $ $ % % $ % & & % & & & & & & & & & 3 3 $ $ $ $ $ O O   $ ",
"$ . @ $ $ $ 3 3 & 6 6 6 & & & & 3 3 & & & 6 3 3 & % $ $ @ O   $ ",
"X X O $ $ $ 6 % $ $ $ % 3 6 6 3 3 & 6 3 3 6 6 3 $ & 6 6 % O o o ",
"b X $ = < b b b 4 < v ' ) ' ) ) ) ' ' ' ' ' ) ) W , 1 1 Z V , ~ ",
"..~ $ $ W }  .} | [ | } | | | | | | } }  .} } } } / > @ @ 5 ] } ",
"..[ 2 Q  ...........................................] ! ! [ ....",
"....| | ........................................................",
"................................................................",
"................................................................",
"................................................................",
"................................................................",
"................................................................",
"....................................................[ ] ] | ....",
"..........] ^ [ ......................] ..........] : @ o ( ....",
"{ } } } ] > $ > ]  .} } } } } } | { ^ $ )  .}  .} ; % % : '  . .",
"U U D ~ N C F 1 B _ ` _ _ _ _ _ _ D n C M c _ ` ` X - + B b _ b ",
"+.+.+.G G @.+.Y S R @.@.@.+.+.+.+.L P +.P @.+.@.P m I m I @.+.@.",
"o.J +.+.+.+.+.+.+.+.+.+.+.+.+.+.+.y r z +.J L +.+.+.+.P +.+.+.O.",
"+.p p J O.+.O.+.+.+.+.+.O.+.+.o.o.k 7 8 r w q s s s l o.+.@.+.+.",
"+.J w 0 o.O.+.+.+.K H h d a p p j X.u e 9 w 0 0 q 0 0 q p l O.+.",
"+.+.d 0 i f d a i 0 0 0 0 0 0 0 0 0 0 0 0 0 w q q q q q 0 w d +.",
"+.+.J 0 0 0 0 0 0 0 0 0 0 0 0 0 0 0 0 0 0 0 0 0 q q w q 0 0 s +.",
"+.+.H 0 w d s i 0 0 0 0 0 0 q 0 0 0 0 0 0 0 0 0 0 0 0 0 w H +.+.",
"+.O.p 0 H +.+.+.o.o.i x J x f a 0 0 0 0 0 0 0 0 i s g o.O.+.+.+.",
"+.g p x +.+.+.+.+.+.+.+.#.E #.#.o.o.o.o.o.p 0 g +.+.+.+.+.+.+.+.",
"+.+.+.+.+.+.+.+.+.+.+.+.+.+.+.+.O.O.+.+.+.a h +.+.+.+.+.+.+.+.+.",
"#.$.$.$.@.+.+.+.+.+.+.+.+.+.+.+.+.+.+.+.+.+.+.+.+.+.+.@.#.$.$.$.",
"$.E $.E #.@.+.+.+.+.+.+.+.+.+.+.+.+.+.+.#.#.@.+.+.+.+.#.$.$.$.$.",
"@.#.#.@.@.+.+.+.+.+.+.+.+.+.+.+.+.+.+.$.$.$.$.#.+.+.+.+.#.#.$.#.",
"+.+.+.+.+.+.+.+.+.+.+.+.+.+.+.+.+.+.+.$.$.$.$.#.@.+.+.+.+.+.+.+."
};
