/* XPM */
static char *_97a49ef4b1349e7e7be0389b1b80893dN3wh4xu0hcc0Mpn[] = {
/* columns rows colors chars-per-pixel */
"80 80 105 2 ",
"   c #232627",
".  c #242628",
"X  c #26292B",
"o  c #282B2F",
"O  c #272B31",
"+  c #292C34",
"@  c #2D2F3D",
"#  c #2E3239",
"$  c #31343B",
"%  c #36393F",
"&  c #2F3345",
"*  c #2F374C",
"=  c #313246",
"-  c #343943",
";  c #3B3D41",
":  c #333349",
">  c #333A4E",
",  c #3A3E4F",
"<  c #353C51",
"1  c #3A3E56",
"2  c #3B3E58",
"3  c #3E4144",
"4  c #3F424A",
"5  c #3D4154",
"6  c #3E435D",
"7  c #41444D",
"8  c #474A55",
"9  c #41455D",
"0  c #404460",
"q  c #464B64",
"w  c #494F66",
"e  c #464B68",
"r  c #4A5167",
"t  c #4D526B",
"y  c #575D6E",
"u  c #4D5370",
"i  c #525774",
"p  c #535974",
"a  c #595D74",
"s  c #54597B",
"d  c #595E79",
"f  c #60667F",
"g  c #5D6386",
"h  c #646A8B",
"j  c #6E7183",
"k  c #6F748D",
"l  c #717485",
"z  c #75798D",
"x  c #787B8F",
"c  c #676D96",
"v  c #686E98",
"b  c #6E7492",
"n  c #6C729B",
"m  c #757A93",
"M  c #7B7E91",
"N  c #70759C",
"B  c #7278A0",
"V  c #7D8192",
"C  c #7B80A5",
"Z  c #7E83A9",
"A  c #868B9C",
"S  c #8D909D",
"D  c #878BA4",
"F  c #898DA5",
"G  c #878DA8",
"H  c #8C90A8",
"J  c #8E93AE",
"K  c #8F94AE",
"L  c #9295A3",
"P  c #9C9EA6",
"I  c #9195AB",
"U  c #9095AF",
"Y  c #999CAA",
"T  c #989CBA",
"R  c #989DBA",
"E  c #9EA1B4",
"W  c #9BA0BC",
"Q  c #9CA0BC",
"!  c #9FA3BE",
"~  c #A4A5AB",
"^  c #A0A4BF",
"/  c #A6A8B8",
"(  c #A6ABBD",
")  c #A1A5C0",
"_  c #A5A9C2",
"`  c #A9ADC7",
"'  c #B9BBC7",
"]  c #B3B6CB",
"[  c #B4B6CC",
"{  c #B5B8CC",
"}  c #BBBDCF",
"|  c #BBBED0",
" . c #BDBFD1",
".. c #BEC1D3",
"X. c #C1C3C9",
"o. c #C3C5CF",
"O. c #C1C4D6",
"+. c #D1D3DE",
"@. c #D2D4E0",
"#. c #D4D5E1",
"$. c #D7D8E4",
"%. c #DBDCE4",
"&. c #DCDDE6",
"*. c #DFE0E8",
"=. c #E2E3EB",
/* pixels */
"X X X X X X X X X X X X X X X X X X X X X X X X X X X X X X X X X X X X X X X X X X X X X X X X X X X X X X X X X X X X X X X X X X X X X X X X X X X X X X X X ",
"X X X X X X X X X X X X X X X X X X X X X X X X X X X X X X X X X X X X X X X X X X X X X X X X X X X X X X X X X X X X X X X X X X X X X X X X X X X X X X X X ",
"X X X X X X X X X X X X X X X X X X X X X X X X X X X X X X X X X X X X X X X X X X X X X X X X X X X X X X X X X X X X X X X X X X X X X X X X X X X X X X X X ",
"X X X X X X X X X X X X X X X X X X X X X X X X X X X X X X X X X X X X X X X X X X X X X X X X X X X X X X X X X X X X X X X X X X X X X X X X X X X X X X X X ",
"X X X X X X X X X X X X X X X X X X X X X X X X X X X X X X X X X X X X X X X X X X X X X X X X X X X X X X X X X X X X X X X X X X X X X X X X X X X X X X X X ",
"X X X X X X X X X X X X X X X X X X X X X X X X X X X X X X X X X X X X X X X X X X X X X X X X X X X X X X X X X X X X X X X X X X X X X X X X X X X X X X X X ",
"X X X X X X X X X X X X X X X X X X X X X X X X X X X X X X X X X X X X X X X X X X X X X X X X X X X X X X X X X X X X X X X X X X X X X X X X X X X X X X X X ",
"X X X X X X X X X X X X X X X X X X X X X X X X X X X X X X X X X X X X X X X X X X X X X X X X X X X X X X X X X X X X X X X X X X X X X X X X X X X X X X X X ",
"X X X X X X X X X X X X X X X X X X X X X X X X X X X X X X X X X X X X X X X X X X X X X X X X X X X X X X X X X X X X X X X X X X X X X X X X X X X X X X X X ",
"X X X X X X X X X X X X X X X X X X X X X X X X X X X X X X X X X X X X X X X X X X X X X X X X X X X X X X X X X X X X X X X X X X X X X X X X X X X X X X X X ",
"X X X X X X X X X X X X X X X X X X X X X X X X X X X X X X X X X X X X X X X X X X X X X X X X X X X X X X X X X X X X X X X X X X X X X X X X X X X X X X X X ",
"X X X X X X X X X X X X X X . . . . . . . . . . . . . . . . . . . . . . X X . . . . . . . . . . X X X X X X X X X X X X X X X X X X X X X X X X X X X X X X X X ",
"X X X o O O O O O + # # # # # $ % % % % % ; ; 3 3 3 3 3 3 3 3 3 3 3 ; % % % % % % % % % % % % # # # # # + O O O O O O O O O O O O O X X X X X X X X X X X X X X ",
"X X X : 1 1 1 1 1 u g g g g g b F H H H I E ' X.X.X.X.X.X.X.X.X.X.X./ H H H H H H H H H H H D h g g g g u 9 1 1 1 1 1 1 1 1 1 1 1 < : : : : : = = = = = = + X X ",
"X X X > 6 6 6 6 6 s c c c c c C Q ) ^ ) _ [ +.&.&.&.&.&.&.&.&.&.&.&. .) ) ) ) ) ) ) ) ) ^ ^ T N c c c c s e 6 6 6 6 6 6 6 6 6 6 6 6 < > > > > : : : : : = + X X ",
"X X X > 6 6 6 6 6 s c c c c c C W ^ Q ^ _ ] +.&.%.%.%.%.%.%.%.%.%.&.| ) Q Q Q Q Q Q Q Q ^ ^ T n c c c c s e 6 6 6 6 6 6 6 6 6 6 6 6 > > > > > : : : : : = + X X ",
"X X X > 6 6 6 6 6 s c c c c c C Q ^ ^ ^ _ [ +.&.&.&.&.&.&.&.&.&.&.&. .) ^ ) ) ) ) ) ) ^ ) Q T N c c c c s e 6 6 6 6 6 6 6 6 6 6 6 6 > > > > > : : : : : = + X X ",
"X X X > 6 6 6 6 6 s c c c c c C Q ^ ^ ^ _ [ +.&.&.&.&.&.&.&.&.&.&.&. .) ^ ) ) ) ) ) ) ^ ) Q T N c c c c s e 6 6 6 6 6 6 6 6 6 6 6 6 > > > > > : : : : : = + X X ",
"X X X > 6 6 6 6 6 s c c c c c C Q ^ ^ ^ _ [ +.&.&.&.&.&.&.&.&.&.&.&. .) ^ ) ) ) ) ) ) ^ ) Q T N c c c c s e 6 6 6 6 6 6 6 6 6 6 6 6 > > > > > : : : : : = + X X ",
"X X X > 6 6 6 9 6 s c c c c c C Q ^ ^ ^ _ [ +.&.&.&.&.&.&.&.&.&.&.&. .) ^ ) ) ) ) ) ) ^ ) Q T N c c c c s e 6 6 6 6 6 6 6 6 6 6 6 6 > > > > > : : : : : = + X X ",
"X X X > 6 6 6 6 6 s c c c c c C Q ^ ^ ^ _ [ +.&.&.&.&.&.&.&.&.&.&.&. .) ^ ) ) ) ) ) ) ^ ) Q T N c c c c s e 6 6 6 6 6 6 6 6 6 6 6 6 > > > > > : : : : : = + X X ",
"X X X > 6 6 6 6 6 s c c c c c C Q ^ ^ ^ _ ] +.&.&.&.&.&.&.&.&.&.&.&.| ) ^ ^ ^ ^ ^ ^ ^ ^ ^ Q T n c c c c s e 6 6 6 6 6 6 6 6 6 6 6 6 > > > > > : : : : : = + X X ",
"X X X > 6 6 6 6 6 s c c c c c C Q ) ) ) _ { @.&.&.&.&.&.&.&.&.&.&.&. .) ) ) ) ) ) ) ) ) ) ^ T N c c c c s e 6 6 6 6 6 6 6 6 6 6 6 6 > > > > > : : : : : = + X X ",
"X X X - 1 1 1 1 1 u g g g g g b F H H H I E ' o.o.o.o.o.o.o.o.o.o.o.( U J K K K K K K J K J G h g g g g t 9 1 1 1 1 1 1 1 1 1 1 1 < : : : : : & & & & = & + X X ",
"X X X O + + + + + # - - - - - - 4 4 4 4 7 8 y a y y y y y y y y y y t r r r r r r r r r r r q - - - - - # + + + + + + + + + + + + + O O O O O O O O O O O X X X ",
"X X X X X X X X X X X X X X X X X X X X X + & > > > > > > > > > > > > > > > > > > > > > > > : X X X X X X X X X X X X X X X X X X X X X X X X X X X X X X X X X ",
"X X X X X X X X X X X X X X X X X X X X X + : < > > > > > > > > > > > > > > > > > > > > > > : O X X X X X X X X X X X X X X X X X X X X X X X X X X X X X X X X ",
"X X X X X X X X X X X X X X X X X X X X X + : > > > > > > > > > > > > > > > > > > > > > > > : O X X X X X X X X X X X X X X X X X X X X X X X X X X X X X X X X ",
"X X X X X X X X X X X X X X X X X X X X o + > < < < < < < < < < < < < < < < < < < < < < < > > O X X X X X X X X X X X X X X X X X X X X X X X X X X X X X X X X ",
"X X X X X X X X X . . . . . . .         . O & * * * * * * * * * * * > > > > > > > > > > > > & X . . .   . . . . . . X X . . . . X X X X X X X X X X X X X X X X ",
"X X X X X X X X . , t t t t t a j l j l l V L Y Y Y Y Y Y Y Y Y Y Y A m m m m m m m m m m m k i t t t t 9 , > > > > > > > > > > : : @ @ @ @ @ O X X X X X X X X ",
"X X X X X X X X   r n n n n n Z ) _ _ _ ` | $.=.=.=.=.=.=.=.=.=.=.=.O._ _ _ _ _ _ _ _ _ _ ) Q B v n n v s e 6 6 0 9 0 0 0 0 0 0 6 2 : : : : = + X X X X X X X X ",
"X X X X X X X X . w c c c c c C T Q Q Q _ ] +.%.%.%.%.%.%.&.&.&.%.%.} ^ Q Q Q Q Q Q Q Q Q Q T N c c c c s e 6 6 6 6 6 6 6 6 6 6 6 1 : : : = = + X X X X X X X X ",
"X X X X X X X X . w c c c c c C Q ^ ^ ^ _ [ +.&.&.&.&.&.&.&.&.&.&.&. .) ^ ) ) ) ) ) ) ^ ) Q T N c c c c s e 6 6 6 6 6 6 6 6 6 6 6 1 : : : : = + X X X X X X X X ",
"X X X X X X X X . w c c c c c C Q ^ ^ ^ _ [ +.&.&.&.&.&.&.&.&.&.&.&. .) ^ ) ) ) ) ) ) ^ ) Q T N c c c c s e 6 6 6 6 6 6 6 6 6 6 6 1 : : : : = + X X X X X X X X ",
"X X X X X X X X . w c c c c c C Q ^ ^ ^ _ [ +.&.&.&.&.&.&.&.&.&.&.&. .) ^ ) ) ) ) ) ) ^ ) Q T N c c c c s e 6 6 6 6 6 6 6 6 6 6 6 1 : : : : = + X X X X X X X X ",
"X X X X X X X X . w c c c c c C Q ^ ^ ^ _ [ +.&.&.&.&.&.&.&.&.&.&.&. .) ^ ) ) ) ) ) ) ^ ) Q T N c c c c s e 6 6 6 6 6 6 6 6 6 6 6 1 : : : : = + X X X X X X X X ",
"X X X X X X X X . w c c c c c C Q ^ ^ ^ _ [ +.&.&.&.&.&.&.&.&.&.&.&. .) ^ ) ) ) ) ) ) ^ ) Q T N c c c c s e 6 6 6 6 6 6 6 6 6 6 6 1 : : : : = + X X X X X X X X ",
"X X X X X X X X . w c c c c c C Q ^ ^ ^ _ [ +.&.&.&.&.&.&.&.&.&.&.&. .) ^ ) ) ) ) ) ) ^ ) Q T N c c c c s e 6 6 6 6 6 6 6 6 6 6 6 1 : : : : = + X X X X X X X X ",
"X X X X X X X X . w c c c c c C Q ^ ^ ^ _ [ +.&.&.&.&.&.&.&.&.&.&.&. .) ^ ) ) ) ) ) ) ^ ) Q T N c c c c s e 6 6 6 6 6 6 6 6 6 6 6 1 : : : : = + X X X X X X X X ",
"X X X X X X X X . w c c c c c C Q ^ ^ ^ _ [ +.&.&.&.&.&.&.&.&.&.&.&. .) ^ ) ) ) ) ) ) ^ ) Q T N c c c c s e 6 6 6 6 6 6 6 6 6 6 6 1 : : : : = + X X X X X X X X ",
"X X X X X X X X . w c c c c c C Q ^ ^ ^ _ [ +.&.&.&.&.&.&.&.&.&.&.&. .) ^ ) ) ) ) ) ) ^ ) Q T N c c c c s e 6 6 6 6 6 6 6 6 6 6 6 1 : : : : = + X X X X X X X X ",
"X X X X X X X X . w c c c c c C Q ^ ^ ^ _ [ +.&.&.&.&.&.&.&.&.&.&.&. .) ^ ) ) ) ) ) ) ^ ) Q T N c c c c s e 6 6 6 6 6 6 6 6 6 6 6 1 : : : : = + X X X X X X X X ",
"X X X X X X X X . w c c c c c C Q ^ ^ ^ _ [ +.&.&.&.&.&.&.&.&.&.&.&. .) ^ ) ) ) ) ) ) ^ ) Q T N c c c c s e 6 6 6 6 6 6 6 6 6 6 6 1 : : : : = + X X X X X X X X ",
"X X X X X X X X . w c c c c c C Q ^ ^ ^ _ [ +.&.&.&.&.&.&.&.&.&.&.&. .) ^ ) ) ) ) ) ) ^ ) Q T N c c c c s e 6 6 6 6 6 6 6 6 6 6 6 1 : : : : = + X X X X X X X X ",
"X X X X X X X X . w c c c c c C Q ^ ^ ^ _ [ +.&.&.&.&.&.&.&.&.&.&.&. .) ^ ) ) ) ) ) ) ^ ) Q T N c c c c s e 6 6 6 6 6 6 6 6 6 6 6 1 : : : : = + X X X X X X X X ",
"X X X X X X X X . w c c c c c C Q ^ ^ ^ _ [ +.&.&.&.&.&.&.&.&.&.&.&. .) ^ ) ) ) ) ) ) ^ ) Q T N c c c c s e 6 6 6 6 6 6 6 6 6 6 6 1 : : : : = + X X X X X X X X ",
"X X X X X X X X . w c c c c c C Q ^ ^ ^ _ [ +.&.&.&.&.&.&.&.&.&.&.&. .) ^ ) ) ) ) ) ) ^ ) Q T N c c c c s e 6 6 6 6 6 6 6 6 6 6 6 1 : : : : = + X X X X X X X X ",
"X X X X X X X X . w c c c c c C Q ^ ^ ^ _ [ +.&.&.&.&.&.&.&.&.&.&.&. .) ^ ) ) ) ) ) ) ^ ) Q T N c c c c s e 6 6 6 6 6 6 6 6 6 6 6 1 : : : : = + X X X X X X X X ",
"X X X X X X X X . w c c c c c C Q ^ ^ ^ _ [ +.&.&.&.&.&.&.&.&.&.&.&. .) ^ ) ) ) ) ) ) ^ ) Q T N c c c c s e 6 6 6 6 6 6 6 6 6 6 6 1 : : : : = + X X X X X X X X ",
"X X X X X X X X . w c c c c c C Q ^ ^ ^ _ [ +.&.&.&.&.&.&.&.&.&.&.&. .) ^ ) ) ) ) ) ) ^ ) Q T N c c c c s e 6 6 6 6 6 6 6 6 6 6 6 1 : : : : = + X X X X X X X X ",
"X X X X X X X X . w c c c c c C Q ^ ^ ^ _ [ +.&.&.&.&.&.&.&.&.&.&.&. .) ^ ) ) ) ) ) ) ^ ) Q T N c c c c s e 6 6 6 6 6 6 6 6 6 6 6 1 : : : : = + X X X X X X X X ",
"X X X X X X X X . w c c c c c C Q ^ ^ ^ _ [ +.&.&.&.&.&.&.&.&.&.&.&. .) ^ ) ) ) ) ) ) ^ ) Q T N c c c c s e 6 6 6 6 6 6 6 6 6 6 6 1 : : : : = + X X X X X X X X ",
"X X X X X X X X . w c c c c c C Q ^ ^ ^ _ [ +.&.&.&.&.&.&.&.&.&.&.&. .) ^ ) ) ) ) ) ) ^ ) Q T N c c c c s e 6 6 6 6 6 6 6 6 6 6 6 1 : : : : = + X X X X X X X X ",
"X X X X X X X X . w c c c c c C Q ^ ^ ^ _ [ +.&.&.&.&.&.&.&.&.&.&.&. .) ^ ) ) ) ) ) ) ^ ) Q T N c c c c s e 6 6 6 6 6 6 6 6 6 6 6 1 : : : : = + X X X X X X X X ",
"X X X X X X X X . w c c c c c C Q ^ ^ ^ _ [ +.&.&.&.&.&.&.&.&.&.&.&. .) ^ ) ) ) ) ) ) ^ ) Q T N c c c c s e 6 6 6 6 6 6 6 6 6 6 6 1 : : : : = + X X X X X X X X ",
"X X X X X X X X . w c c c c c C Q ^ ^ ^ _ [ +.&.&.&.&.&.&.&.&.&.&.&. .) ^ ) ) ) ) ) ) ^ ) Q T N c c c c s e 6 6 6 6 6 6 6 6 6 6 6 1 : : : : = + X X X X X X X X ",
"X X X X X X X X . w c c c c c C Q ^ ^ ^ _ [ +.&.&.&.&.&.&.&.&.&.&.&. .) ^ ) ) ) ) ) ) ^ ) Q T N c c c c s e 6 6 6 6 6 6 6 6 6 6 6 1 : : : : = + X X X X X X X X ",
"X X X X X X X X . w c c c c c C Q ^ ^ ^ _ [ +.&.&.&.&.&.&.&.&.&.&.&. .) ^ ) ) ) ) ) ) ^ ) Q T N c c c c s e 6 6 6 6 6 6 6 6 6 6 6 1 : : : : = + X X X X X X X X ",
"X X X X X X X X . w c c c c c C Q ^ ^ ^ _ [ +.&.&.&.&.&.&.&.&.&.&.&. .) ^ ) ) ) ) ) ) ^ ) Q T N c c c c s e 6 6 6 6 6 6 6 6 6 6 6 1 : : : : = + X X X X X X X X ",
"X X X X X X X X . w c c c c c C Q ^ ^ ^ _ [ +.&.&.&.&.&.&.&.&.&.&.&. .) ^ ) ) ) ) ) ) ^ ) Q T N c c c c s e 6 6 6 6 6 6 6 6 6 6 6 1 : : : : = + X X X X X X X X ",
"X X X X X X X X . w c c c c c C Q ^ ^ ^ _ [ +.&.&.&.&.&.&.&.&.&.&.&. .) ^ ) ) ) ) ) ) ^ ) Q T N c c c c s e 6 6 6 6 6 6 6 6 6 6 6 1 : : : : = + X X X X X X X X ",
"X X X X X X X X . w c c c c c C Q ^ ^ ^ _ [ +.&.&.&.&.&.&.&.&.&.&.&. .) ^ ) ) ) ) ) ) ^ ) Q T N c c c c s e 6 6 6 6 6 6 6 6 6 6 6 1 : : : : = + X X X X X X X X ",
"X X X X X X X X . w c c c c c C Q ^ ^ ^ _ [ +.&.&.&.&.&.&.&.&.&.&.&. .) ^ ) ) ) ) ) ) ^ ) Q T N c c c c s e 6 6 6 6 6 6 6 6 6 6 6 1 : : : : = + X X X X X X X X ",
"X X X X X X X X . w c c c c c C Q ^ ^ ^ _ [ +.&.&.&.&.&.&.&.&.&.&.&. .) ^ ) ) ) ) ) ) ^ ) Q T N c c c c s e 6 6 6 6 6 6 6 6 6 6 6 1 : : : : = + X X X X X X X X ",
"X X X X X X X X . w c c c c c C Q ^ ^ ^ _ [ +.&.&.&.&.&.&.&.&.&.&.&. .) ^ ) ) ) ) ) ) ^ ) Q T N c c c c s e 6 6 6 6 6 6 6 6 6 6 6 1 : : : : = + X X X X X X X X ",
"X X X X X X X X . w c c c c c C Q ^ ^ ^ _ [ +.&.&.&.&.&.&.&.&.&.&.&. .) ^ ) ) ) ) ) ) ^ ) Q T N c v c c s e 6 6 6 6 6 6 6 6 6 6 6 1 : : : : = + X X X X X X X X ",
"X X X X X X X X . w c c c c c C Q ^ ^ ^ _ [ +.&.&.&.&.&.&.&.&.&.&.&. .) ^ ) ) ) ) ) ) ^ ) Q T N c c c c s e 6 6 6 6 6 6 6 6 6 6 6 1 : : : : = + X X X X X X X X ",
"X X X X X X X X . w c c c c c C Q ^ ^ ^ _ [ +.&.&.&.&.&.&.&.&.&.&.&. .) ^ ) ) ) ) ) ) ^ ) Q T N c c c c s e 6 6 6 6 6 6 6 6 6 6 6 1 : : : : = + X X X X X X X X ",
"X X X X X X X X . w c c c c c C Q ^ ^ ^ _ [ +.&.&.&.&.&.&.&.&.&.&.&. .) ^ ) ) ) ) ) ) ^ ) Q T N c c c c s e 6 6 6 6 6 6 6 6 6 6 6 1 : : : : = + X X X X X X X X ",
"X X X X X X X X . w c c c c c C Q ^ ^ ^ _ [ +.&.&.&.&.&.&.&.&.&.&.&. .) ^ ) ) ) ) ) ) ^ ) Q T N c c c c s e 6 6 6 6 6 6 6 6 6 6 6 1 : : : : = + X X X X X X X X ",
"X X X X X X X X . w c c c c c C Q ^ ^ ^ _ [ +.&.&.&.&.&.&.&.&.&.&.&. .) ^ ) ) ) ) ) ) ^ ) Q T N c c c c s e 6 6 6 6 6 6 6 6 6 6 6 1 : : : : = + X X X X X X X X ",
"X X X X X X X X . w c c c c c C Q ^ ^ ^ _ [ +.&.&.&.&.&.&.&.&.&.&.&. .) ^ ) ) ) ) ) ) ^ ) Q T N c c c c s e 6 6 6 6 6 6 6 6 6 6 6 1 : : : : = + X X X X X X X X ",
"X X X X X X X X . w c c c c c C Q ^ ^ ^ _ [ +.&.&.&.&.&.&.&.&.&.&.&. .) ^ ) ) ) ) ) ) ^ ) Q T N c c c c s e 6 6 6 6 6 6 6 6 6 6 6 1 : : : : = + X X X X X X X X ",
"X X X X X X X X . w c c c c c C Q ^ ^ ^ _ [ +.&.&.&.&.&.&.&.&.&.&.&. .) ^ ) ) ) ) ) ) ^ ) Q T N c c c c s e 6 6 6 6 6 6 6 6 6 6 6 1 : : : : = + X X X X X X X X ",
"X X X X X X X X . w c c c c c C Q ^ ^ ^ _ [ +.&.&.&.&.&.&.&.&.&.&.&. .) ^ ) ) ) ) ) ) ^ ) Q T N c c c c s e 6 6 6 6 6 6 6 6 6 6 6 1 : : : : = + X X X X X X X X ",
"X X X X X X X X . w c c c c c C Q ^ ^ ^ _ [ +.&.&.&.&.&.&.&.&.&.&.&. .) ^ ) ) ) ) ) ) ^ ) Q T N c c c c s e 6 6 6 6 6 6 6 6 6 6 6 1 : : : : = + X X X X X X X X ",
"X X X X X X X X . w c c c c c C Q ^ ^ ^ _ ] +.&.%.&.&.&.&.&.&.&.%.&.| ^ ^ ^ ^ ^ ^ ^ ^ ^ ^ Q T n c c c c s e 6 6 6 6 6 6 6 6 6 6 6 1 : : : : = + X X X X X X X X ",
"X X X X X X X X . w v c v v v C Q ) ) ) _ { #.*.&.*.*.*.*.*.*.*.*.*...) ) ) ) ) ) ) ) ) ) ) T N c v v c s e 6 6 6 6 6 6 6 6 6 6 6 2 : : : : = + X X X X X X X X ",
"X X X X X X X X . 5 p p p p p f x M M M V A P ~ ~ ~ ~ ~ ~ ~ ~ ~ ~ ~ S M M M M M M M M M M M z d p p p i q 5 > > > > > > , , , > > : @ @ @ @ @ O X X X X X X X X "
};
