/* XPM */
static char *_80988b68d1e4a10a1cc271d560a2f7bPyjwVNjcNrPVCCLb[] = {
/* columns rows colors chars-per-pixel */
"32 32 2 1 ",
"  c #9BD4C3",
". c #B1E0BE",
/* pixels */
"              ........          ",
"              ........          ",
"                                ",
"                                ",
"  ......                        ",
"  ......                        ",
"                                ",
"                                ",
"                                ",
"                                ",
"                  ..........    ",
"                  ..........    ",
"                                ",
"                                ",
"                                ",
"                                ",
"      ........                  ",
"      ........                  ",
"                                ",
"                                ",
"                            ....",
"                            ....",
"                                ",
"                                ",
"              ......            ",
"              ......            ",
"  ......                        ",
"  ......                        ",
"                                ",
"                                ",
"                                ",
"                                "
};
