/* XPM */
static char *result[] = {
/* columns rows colors chars-per-pixel */
"32 32 101 2 ",
"   c #6D775E",
".  c #6E785E",
"X  c #5F6564",
"o  c #606664",
"O  c #636966",
"+  c #6D7560",
"@  c #6C716E",
"#  c #757E6A",
"$  c #6F7571",
"%  c #707671",
"&  c #747D76",
"*  c #767F78",
"=  c #7F8B64",
"-  c #7A826B",
";  c #778270",
":  c #7B8672",
">  c #7F8B70",
",  c #77817A",
"<  c #7A847C",
"1  c #7F897B",
"2  c #828E64",
"3  c #839261",
"4  c #828C73",
"5  c #838D7F",
"6  c #869176",
"7  c #899572",
"8  c #8C9A70",
"9  c #879378",
"0  c #89957B",
"q  c #8D997F",
"w  c #929E72",
"e  c #919E7C",
"r  c #92A466",
"t  c #96AA65",
"y  c #9AAD66",
"u  c #93A26D",
"i  c #98A76F",
"p  c #96AB69",
"a  c #9BAB6B",
"s  c #94B562",
"d  c #9DB567",
"f  c #9DBB64",
"g  c #9CB26B",
"h  c #92A070",
"j  c #98A670",
"k  c #9CAB72",
"l  c #95A27B",
"z  c #98A57B",
"x  c #9DAA7A",
"c  c #A1BE66",
"v  c #A4B56B",
"b  c #A5BB6B",
"n  c #AABD6D",
"m  c #A1AF74",
"M  c #A5B572",
"N  c #A9B772",
"B  c #ADBD73",
"V  c #A4B278",
"C  c #B0BF74",
"Z  c #A5C266",
"A  c #A9C467",
"S  c #A6C168",
"D  c #ACC669",
"F  c #AEC869",
"G  c #B2C56F",
"H  c #B4CC6B",
"J  c #B8CF6D",
"K  c #BCD26E",
"L  c #AFC170",
"P  c #B3C471",
"I  c #B7C871",
"U  c #B9CB71",
"Y  c #BFD370",
"T  c #C0D470",
"R  c #7E8880",
"E  c #828C83",
"W  c #869086",
"Q  c #899486",
"!  c #8B958B",
"~  c #8F998F",
"^  c #909A8F",
"/  c #939D91",
"(  c #97A18D",
")  c #98A18D",
"_  c #97A195",
"`  c #99A395",
"'  c #9CA599",
"]  c #9DA89A",
"[  c #A2AB9E",
"{  c #A5AEA1",
"}  c #A8AFA3",
"|  c #A5B0A1",
" . c #AAB3A5",
".. c #ADB6A8",
"X. c #AFB8A9",
"o. c #B2BAAC",
"O. c #B6BEB0",
"+. c #B8BFB1",
"@. c #BBC3B4",
"#. c #C0C7B8",
"$. c #C1C8B9",
/* pixels */
"T Y H J F A F G H H J J J J J J J J H J H H H H D A Z D H H T T ",
"Y H S A F H H J J J K J J J K K Y J K U J J J J H H D A Z c H T ",
"J c D H H H H J J K K K J K K K K K K J K T T J H H H H F A c H ",
"H Z H H H K K K K T T T K K Y K Y K K K T T T J K J H H F D f H ",
"Z f D H K K T T T T T n 7 ; ; & ; 8 B T T T T T T T K K H F Z Z ",
"f Z F H K K T T T J U N 6 & & & & 6 N H U H T T T T T T T H A f ",
"Z A H K K T T T T G m l ( _ ' ' _ ` l u w m G J T T T K T H H Z ",
"Z H H T T T T K H N 9 W ..@.@.@.@. .W , * 9 N H H J K K T K A c ",
"A H K K K T T I i e ) } @.$.$.$.$.+.[ [ [ ` w 8 8 a G T T H G c ",
"A H K K T T T n 4 E [ +.@.$.$.$.$.#.@.@.+. .W , < 0 M I T T H A ",
"F H K K T T T B 4 * ! { O.@.$.@.$.@.o. . .[ ^ ^ ' ` e i H T H D ",
"F J K K K K G M 4 * R ~  .@.@.@.@.o.[ ' ' [ [  .+...! 9 a n H D ",
"F H J T T G u 9 Q ! E W / ' {  . .| [ ] [ [ X.+.#.@.../ 4 3 v A ",
"F F J H G m 4 E / _ ~ E W W _ ] ] [ [ [ [  .@.$.$.$.$.} % . t A ",
"H H H G w 6 Q / ' ' _ ^ W W _ ] ] | X.@.O.+.#.$.$.$.$.[ % . t D ",
"H H n a 4 E / ] ] ] ] _ ~ ~ ' { |  .@.#.$.$.#.#.#.#.O.` @ . y D ",
"H v = - Q _ ` ] ] ' ] ' _ [ o.@.@.@.@.$.$.$.$.$.$.O.' R O + y F ",
"F t   O E _ ' ] ] ' / / { ..+.$.#.#.$.$.$.$.$.@.o.{ ~ * X + y F ",
"n r   X < ! _ ] ] / R W { @.@.$.$.$.$.$.@.$.$.o.' ! E * X   p D ",
"B a = # 1 W ~ / ~ W < W ..$.$.$.$.$.$.@.o.....{ ! R E * X   r b ",
"b N v k 0 E W E , * < ~ o.$.$.$.#.#.@.o._ ~ ! W W E E , X   r g ",
"S L B B x Q ( 7 & & R ! '  .}  . . . .[ ~ E E E R R E 1 - 2 p g ",
"D P L P B B B k : & , E W ! W ~ Q ! ! W E R E E E E E 0 x a g p ",
"A F F P I I P B 8 9 E E E E E E E E E E E E E E Q l l x M b c d ",
"A F H K K J G P B m Q E E E E E 0 E E E E 5 W Q V L B L L n A c ",
"A G H K K K U I L B m z z x z z z z z z z z z x B I I I P D S f ",
"S F H K T T T U P P B B N B C B B B B N C B B L C I U Y K H c s ",
"Z F F H K T K T U U U U U U U I U U U U U U U J P U K Y H F f f ",
"H Z F H K K J K K Y T T K K K K T K K K K K T K T K K K F Z s H ",
"H f A F H H H H K K K K H J K K U J K H H K K K K J H H F Z s H ",
"T H c Z Z A D D F H J H F H J J J H H H H J J F F H A S Z f H K ",
"T T J H S c S A A F F F F F H H H G F F H F F F Z Z Z S H H T T "
};
