/* XPM */
static char *result[] = {
/* columns rows colors chars-per-pixel */
"32 32 202 2 ",
"   c #81A85B",
".  c #86AB5D",
"X  c #8DB05F",
"o  c #95B662",
"O  c #7EA65A",
"+  c #7EA55A",
"@  c #7DA45A",
"#  c #7CA459",
"$  c #7BA359",
"%  c #7AA259",
"&  c #79A258",
"*  c #79A158",
"=  c #78A158",
"-  c #AFC96A",
";  c #A3C166",
":  c #97B662",
">  c #8BAE5E",
",  c #8CAF5F",
"<  c #82A85B",
"1  c #83A95C",
"2  c #A9C565",
"3  c #A8C565",
"4  c #A7C465",
"5  c #A7C464",
"6  c #A6C364",
"7  c #A5C364",
"8  c #A5C263",
"9  c #A4C263",
"0  c #A5C363",
"q  c #7FA65A",
"w  c #90B260",
"e  c #99B963",
"r  c #8AAE5D",
"t  c #ABC766",
"y  c #AAC666",
"u  c #C0D470",
"i  c #84A95C",
"p  c #9AB963",
"a  c #A8C368",
"s  c #AFC867",
"d  c #B0C968",
"f  c #AFC968",
"g  c #AEC867",
"h  c #A6C268",
"j  c #99B863",
"k  c #9DBC65",
"l  c #B4CC6A",
"z  c #B5CD6A",
"x  c #94B461",
"c  c #A4BF66",
"v  c #B7CF6C",
"b  c #B9D06C",
"n  c #BACF6D",
"m  c #B3CC6A",
"M  c #9FBD65",
"N  c #ADC76A",
"B  c #BBD16E",
"V  c #BDD26E",
"C  c #BDD26F",
"Z  c #B7CE6C",
"A  c #B8CF6C",
"S  c #AAC568",
"D  c #B4CB6C",
"F  c #BFD36F",
"G  c #BCD26E",
"H  c #B4CC6C",
"J  c #B9CF6E",
"K  c #BED36F",
"L  c #BFD370",
"P  c #BCD16F",
"I  c #BFCD6F",
"U  c #BEC76E",
"Y  c #BFCE6F",
"T  c #C0D16F",
"R  c #C0D270",
"E  c #BFCB6E",
"W  c #BECE6E",
"Q  c #BBD06E",
"!  c #CAAE7E",
"~  c #D8B990",
"^  c #C8AD7A",
"/  c #BEC66D",
"(  c #C1AC71",
")  c #BFA56D",
"_  c #BDBA6B",
"`  c #CEB182",
"'  c #C4AA75",
"]  c #BECA6E",
"[  c #C8A27A",
"{  c #E0C399",
"}  c #E7CDA4",
"|  c #C69E76",
" . c #B9AA67",
".. c #C1BD6E",
"X. c #C1BE6E",
"o. c #BDB96B",
"O. c #BC946B",
"+. c #DDC095",
"@. c #E8CFA6",
"#. c #DEC095",
"$. c #B98C66",
"%. c #BEBA6C",
"&. c #C0BD6E",
"*. c #B79D64",
"=. c #CDA980",
"-. c #E7CEA4",
";. c #E1C59B",
":. c #C09770",
">. c #BDC96D",
",. c #B98B63",
"<. c #C9A173",
"1. c #CDA87C",
"2. c #B68962",
"3. c #AE835D",
"4. c #B38C61",
"5. c #B38C62",
"6. c #B1895F",
"7. c #B0825E",
"8. c #C69E70",
"9. c #CEAA7D",
"0. c #C79E70",
"q. c #AE7E5C",
"w. c #B18A5F",
"e. c #AD805C",
"r. c #BB8F66",
"t. c #CEA97C",
"y. c #C9A275",
"u. c #B3855F",
"i. c #C49A6C",
"p. c #B8AF67",
"a. c #C0C66F",
"s. c #C1C66F",
"d. c #BEC36D",
"f. c #B2865F",
"g. c #BFC36D",
"h. c #C0C56F",
"j. c #B49C62",
"k. c #AC7B5A",
"l. c #AC7C5B",
"z. c #B0815E",
"x. c #AD7D5B",
"c. c #AB7A5A",
"v. c #B2835E",
"b. c #BC9066",
"n. c #C09569",
"m. c #AE8A5D",
"M. c #B0905F",
"N. c #AD7F5B",
"B. c #BA8E64",
"V. c #C19669",
"C. c #AC7C5A",
"Z. c #AD845C",
"A. c #B38560",
"S. c #BD9166",
"D. c #AF7F5C",
"F. c #BECF6F",
"G. c #B69864",
"H. c #B78A62",
"J. c #B79B64",
"K. c #B7A666",
"L. c #B6A565",
"P. c #BBBE6A",
"I. c #B79563",
"U. c #B69E64",
"Y. c #BED26F",
"T. c #BCD16E",
"R. c #B8CE6D",
"E. c #B0C96A",
"W. c #A5C167",
"Q. c #B7CE6B",
"!. c #B0CA69",
"~. c #B9CE6D",
"^. c #B2CC69",
"/. c #B3CB69",
"(. c #BAD06D",
"). c #B0C86A",
"_. c #8EB15F",
"`. c #B5CD6B",
"'. c #B6CD6B",
"]. c #A5C067",
"[. c #87AB5D",
"{. c #B1CA69",
"}. c #B1CB69",
"|. c #98B863",
" X c #81A75B",
".X c #A8C465",
"XX c #ACC766",
"oX c #ADC767",
"OX c #A6C169",
"+X c #7DA55A",
"@X c #87AC5D",
"#X c #A6C167",
"$X c #80A75B",
"%X c #8FB25F",
"&X c #8AAE5E",
"*X c #85AB5C",
"=X c #91B360",
"-X c #9EBB65",
";X c #ABC468",
":X c #83A85C",
">X c #7FA55B",
",X c #80A65B",
/* pixels */
"  . X o O + @ # $ % & * = = = = = = = = = = = * & & % $ - ; : > ",
", < 1 2 3 3 4 5 6 7 8 9 9 9 9 9 9 9 9 9 9 9 9 9 8 0 7 6 + + q w ",
"e r t t t y 2 3 5 6 u 8 9 9 9 9 u 9 9 9 u u u 8 7 6 5 4 3 3 i p ",
"a s d f f g u u u u u u u 9 u 9 u 9 u u u u u 7 u 5 3 2 y t > h ",
"j k l z u u u u u u u u u u u u u u u u u u u u u u u u g f f x ",
"c v b n u u u u u u u u u u u u u u u u u u u u u u u u u m l M ",
"N B V C u u u u u u u u u u u u u u u u u u u 5 u u u u u Z A S ",
"D C F u u u u u d u u u u u u u u u u u u u u u u u u u u u G H ",
"J K L u u u u u u u u u u u u u u u u u u u u u u u u u u K F B ",
"P L u u u u u u u u u u u u u u u u u u u u u u u u u u u u u C ",
"K u u u u u u u u u u u u u u u u u u u u u u u u u u u u u F G ",
"u u I U U Y u u u u u u u u T U U U R u u u u u u u u E U U W Q ",
"u Y ! ~ ~ ^ / u u u u u u u ( ~ ~ ~ ) u u u u u u u _ ` ~ ~ ' P ",
"u ] [ { } |  ...X.X.X.X.X.o.O.+.@.#.$.%.X.X.X.X.X.&.*.=.-.;.:.C ",
"u >.,.<.1.2.3.4.5.5.5.5.5.6.7.8.9.0.q.w.5.5.5.5.5.4.e.r.t.y.u.L ",
"u >.,.i.i.2.p.a.s.s.s.s.s.d.f.i.i.i.q.g.s.s.s.s.s.h.j.r.i.i.u.u ",
"u >.,.i.i.2.k.q.q.q.q.q.q.l.z.i.i.i.q.x.q.q.q.q.q.q.c.r.i.i.u.u ",
"L >.v.b.n.7.m.M.M.M.M.M.M.M.N.B.V.B.C.M.M.M.M.M.M.M.Z.A.n.S.D.L ",
"F F.G.H.H.J.>.u u u u u u u K.H.H.H.L.u u u u u u u P.I.H.H.U.K ",
"Y.u u F u Q u u u u u u u u u u u u u u u u u u u u u u u L L Y.",
"T.F u u u u u u u u u u u u u u u u u u u u u u u u u u u u L C ",
"R.K F u u u u u u u u u u u u u u u u u u u u u u u u u u u u Y.",
"E.B u u u u u u u u u u u u u u u u u u u u u u u u u u u L u C ",
"W.v A Q.u u u u u u u u u u u u u u u u u u u u u !.u u B C K ~.",
"e ^./.u u u t u u u u u u u u u u u u u u u u u u u u u u (.(.).",
"_.g g u u u u u 6 u u u u u u u u u u u u u u u u u u u u `.'.].",
"[.y y u u u u u u u u u u u u u u u u 9 u u u u u u u u u {.}.|.",
" X.X.X.Xu u u u u u u u u u u u u u u u u u u u 6 u 2 u XXoXoX_.",
"OX+X6 6 u u 7 u u u u u 9 u u u u 9 u u u u u u u u u u 2 2 @X#X",
"p $ 0 0 0 8 8 9 u u u u 9 9 9 u u 9 9 9 9 u u 9 u 7 6 6 5 5 $X|.",
"%X& & 9 9 9 9 9 9 9 9 9 9 9 9 9 9 9 9 9 9 9 9 9 9 8 0 7 7 # # &X",
"*X=X-X;X= = = = = = = = = = = = = = = = = = = = * & & % > :X>X,X"
};
