/* XPM */
static char *result[] = {
/* columns rows colors chars-per-pixel */
"32 32 246 2 ",
"   c #C0D470",
".  c #BFD470",
"X  c #B9CF6E",
"o  c #B8CE6D",
"O  c #AEC769",
"+  c #ABC568",
"@  c #AFC76A",
"#  c #B2CA6B",
"$  c #B4CC6C",
"%  c #B6CD6D",
"&  c #B7CE6D",
"*  c #BACF6E",
"=  c #B7CD6D",
"-  c #B5CC6C",
";  c #B3CB6B",
":  c #B0C96B",
">  c #AAC567",
",  c #A4C166",
"<  c #AAC469",
"1  c #B6CD6C",
"2  c #B4CB6C",
"3  c #A5C167",
"4  c #ACC669",
"5  c #AEC869",
"6  c #B0C969",
"7  c #B4CB6B",
"8  c #B8CE6C",
"9  c #B8CF6C",
"0  c #B9D06D",
"q  c #BAD06D",
"w  c #BBD06D",
"e  c #B9CF6D",
"r  c #B8CF6D",
"t  c #BAD06E",
"y  c #BCD16E",
"u  c #BBD16D",
"i  c #B7CE6C",
"p  c #B6CD6B",
"a  c #B1CA6A",
"s  c #ACC668",
"d  c #AAC568",
"f  c #A2BF66",
"g  c #A0BD65",
"h  c #B3CB6C",
"j  c #A3BF66",
"k  c #B3CC6B",
"l  c #B4CD6A",
"z  c #B6CD6A",
"x  c #B7CD6B",
"c  c #BCD26E",
"v  c #BBD06E",
"b  c #BBD16E",
"n  c #BDD26F",
"m  c #BAD16D",
"M  c #BED36F",
"N  c #BED26F",
"B  c #B5CC6A",
"V  c #B3CC69",
"C  c #B2CC6A",
"Z  c #A8C367",
"A  c #9FBC65",
"S  c #A3C066",
"D  c #B3CB6A",
"F  c #BDD26E",
"G  c #BFD36F",
"H  c #B5CD6B",
"J  c #B1CA69",
"K  c #ABC667",
"L  c #9BBA64",
"P  c #A4C167",
"I  c #9DBB64",
"U  c #ADC768",
"Y  c #B2CB69",
"T  c #BFD370",
"R  c #B5CD6A",
"E  c #AFC968",
"W  c #A3C065",
"Q  c #9DBB65",
"!  c #A6C267",
"~  c #9FBD65",
"^  c #A1BE66",
"/  c #B4CC6A",
"(  c #B2CB6A",
")  c #A5C166",
"_  c #B3CC6A",
"`  c #A8C468",
"'  c #B7CF6C",
"]  c #ADC769",
"[  c #B5CC6B",
"{  c #ADC669",
"}  c #B9CF6C",
"|  c #ABC668",
" . c #AEC86A",
".. c #B6CE6B",
"X. c #C0D370",
"o. c #9EAC5B",
"O. c #9CAB5A",
"+. c #AABB63",
"@. c #93A054",
"#. c #AEC76A",
"$. c #9FAF5C",
"%. c #563815",
"&. c #483A1A",
"*. c #B2C568",
"=. c #BACD6C",
"-. c #58552A",
";. c #55300F",
":. c #8D9950",
">. c #B0C96A",
",. c #AAC569",
"<. c #B2CA6A",
"1. c #86924D",
"2. c #64300C",
"3. c #7E3F12",
"4. c #573F1B",
"5. c #BBCE6D",
"6. c #A2B25E",
"7. c #594921",
"8. c #753D13",
"9. c #75380D",
"0. c #6A6F3A",
"q. c #A9C468",
"w. c #B1C96B",
"e. c #AFC065",
"r. c #523B1A",
"t. c #B46A37",
"y. c #964F1F",
"u. c #674520",
"i. c #77592B",
"p. c #6C4B24",
"a. c #86471B",
"s. c #BB6C37",
"d. c #543215",
"f. c #A2B15D",
"g. c #8A944E",
"h. c #A97E5B",
"j. c #C8753D",
"k. c #D06E2C",
"l. c #E0742A",
"z. c #E2752B",
"x. c #CD6C2A",
"c. c #CD7538",
"v. c #BB8760",
"b. c #7F8347",
"n. c #BDD06E",
"m. c #959F53",
"M. c #A26839",
"N. c #DE915D",
"B. c #884518",
"V. c #CD6720",
"C. c #D86C22",
"Z. c #783C13",
"A. c #DE8B52",
"S. c #B77848",
"D. c #8B8D4A",
"F. c #BED16F",
"G. c #BBCF6D",
"H. c #635328",
"J. c #C46A2C",
"K. c #DF9B6C",
"L. c #CE8757",
"P. c #CA8352",
"I. c #C67F4F",
"U. c #C98252",
"Y. c #E19D6E",
"T. c #C66E31",
"R. c #63441E",
"E. c #B4C769",
"W. c #B1CA6B",
"Q. c #B4CC6B",
"!. c #B9CC6C",
"~. c #726D3A",
"^. c #6E4D37",
"/. c #B78969",
"(. c #D19D7A",
"). c #C79674",
"_. c #CD9A78",
"`. c #C49372",
"'. c #6F4F39",
"]. c #695D33",
"[. c #B3C568",
"{. c #ABC569",
"}. c #8B964E",
"|. c #783F16",
" X c #452712",
".X c #6B4C33",
"XX c #756744",
"oX c #5B5F35",
"OX c #6D6540",
"+X c #73533B",
"@X c #53321A",
"#X c #7A3F16",
"$X c #74773D",
"%X c #99A758",
"&X c #6E491F",
"*X c #656534",
"=X c #808648",
"-X c #AFC066",
";X c #B6C96A",
":X c #858D4C",
">X c #74763D",
",X c #6F4A1F",
"<X c #868E4A",
"1X c #93A255",
"2X c #93A356",
"3X c #AFC86A",
"4X c #B6CE6C",
"5X c #9EBB64",
"6X c #B4CD6B",
"7X c #B0C968",
"8X c #A1BD65",
"9X c #A8C267",
"0X c #AFC869",
"qX c #B1C968",
"wX c #A1BE64",
"eX c #AAC468",
"rX c #B4CB6A",
"tX c #A9C466",
"yX c #9ABA62",
"uX c #A4C065",
"iX c #B1CB68",
"pX c #95B562",
"aX c #A7C367",
"sX c #A9C467",
"dX c #BDD16E",
"fX c #ABC768",
"gX c #9DBC64",
"hX c #B5CD6C",
"jX c #A1BE65",
"kX c #ADC869",
"lX c #B1C969",
"zX c #A7C366",
"xX c #93B461",
"cX c #9EBD65",
"vX c #B0CA69",
"bX c #BDD36F",
"nX c #B1CB69",
"mX c #A4C165",
"MX c #98B862",
"NX c #A6C266",
"BX c #A9C567",
"VX c #9CBB64",
"CX c #A6C268",
"ZX c #A8C368",
"AX c #AFC96A",
"SX c #A7C368",
/* pixels */
"  . X o O + @ # $ % & o o o X * X X = % % - ; : @ > , < 1 o .   ",
". 2 3 4 5 6 7 8 9 0 q w e r t y y u r r q e 9 i p a s d f g h . ",
"& j s k l z x i 9 0 c q v q b v n q m q c M N 9 p B V C 5 Z A & ",
"- S 6 D k 0 y n F     M M F . n . n G M M     b c i l H J K L $ ",
"P I U Y 9 T     n     G G       M n   G G           F N R E W 3 ",
"Q ! J H N                       . T           n         N D > ~ ",
"^ U D 8 n                                     w .   G b . / ( ) ",
"! _ l G       G q                                   T n   e U j ",
"` / i y F       G                                         ' ] 3 ",
"d [ n                                                     n R d ",
"{ H } G T                                                 n [ | ",
" ...n F F           X.o.O.T           +.@.G       c M     q H 4 ",
"#.D e .     b y     $.%.&.*.T       =.-.;.:.      c M   q / >.,.",
"#.<...b     G T     1.2.3.4.@.5.5.6.7.8.9.0.            y l O q.",
"w.[ 8 T y T         e.r.t.y.u.i.i.p.a.s.d.f.            i _ a 4 ",
"; 9 y   n .         G g.h.j.k.l.z.x.c.v.b.n.          . F H H ] ",
"$ } c               G m.M.N.B.V.C.Z.A.S.D.F.        M q . H H ] ",
"; 1 9 .             G.H.J.K.L.P.I.U.Y.T.R.E.            G H H { ",
"W.Q.9 M   M         !.~.^./.(.).)._.`.'.].[.    y q     q _ D {.",
"; 8 i b   w         }.|. X.XXXoXoXOX+X@X#X$X        G y T i s 3 ",
"# 9 b               %X&X*X=X-X    ;X:X>X,X<X        G y   n 6 ! ",
"W.i q               F.1X                2X=.              q 6 P ",
"3X4Xq                                                   T D Z 5X",
"d >.6Xq     .                                     0 F   9 7XU 8X",
"9X0X/ y   n q                                     T .   w qXE wX",
"eXD rXb       T q                     .                 q qXtXyX",
"uXU / F G       n     y y           M q         N   M   F iXW pX",
"aXsXY / dX  n M             N M               G 0 . q T H fXgXA ",
"hXjXkXD y n 9 N         w M N M   y N c c           . b lXzXxX# ",
"& cXZ vX_ D D H q q n u H i q bXy 4Xi 4Xp y n 9 y 8 _ nXE mXMX- ",
". # g NXzXZ kX] 0XH p Q.>.; i 9 9 Q.a ; 4X4XH 0X5 Y BXNXmXVX: T ",
"  . & $ CXg ) ! ZX#.3XAX#.: ; 7 7 # >.: # >.3XeXSX` f CX2 % T   "
};
