/* XPM */
static char *result[] = {
/* columns rows colors chars-per-pixel */
"32 32 242 2 ",
"   c #C0D470",
".  c #BFD470",
"X  c #B9CF6E",
"o  c #B8CE6D",
"O  c #AEC769",
"+  c #ABC568",
"@  c #AFC76A",
"#  c #B2CA6B",
"$  c #B4CC6C",
"%  c #B6CD6D",
"&  c #B7CE6D",
"*  c #BACF6E",
"=  c #B7CD6D",
"-  c #B5CC6C",
";  c #B3CB6B",
":  c #B0C96B",
">  c #AAC567",
",  c #A4C166",
"<  c #AAC469",
"1  c #B6CD6C",
"2  c #B4CB6C",
"3  c #A5C167",
"4  c #ACC669",
"5  c #AEC869",
"6  c #B0C969",
"7  c #B4CB6B",
"8  c #B8CE6C",
"9  c #B8CF6C",
"0  c #B9D06D",
"q  c #BAD06D",
"w  c #BBD06D",
"e  c #B9CF6D",
"r  c #B8CF6D",
"t  c #BAD06E",
"y  c #BCD16E",
"u  c #BBD16D",
"i  c #B7CE6C",
"p  c #B6CD6B",
"a  c #B1CA6A",
"s  c #ACC668",
"d  c #AAC568",
"f  c #A2BF66",
"g  c #A0BD65",
"h  c #B3CB6C",
"j  c #A3BF66",
"k  c #B3CC6B",
"l  c #B4CD6A",
"z  c #B6CD6A",
"x  c #B7CD6B",
"c  c #BCD26E",
"v  c #BBD06E",
"b  c #BBD16E",
"n  c #BDD26F",
"m  c #BAD16D",
"M  c #BED36F",
"N  c #BED26F",
"B  c #B5CC6A",
"V  c #B3CC69",
"C  c #B2CC6A",
"Z  c #A8C367",
"A  c #9FBC65",
"S  c #A3C066",
"D  c #B3CB6A",
"F  c #BDD26E",
"G  c #BFD36F",
"H  c #B5CD6B",
"J  c #B1CA69",
"K  c #ABC667",
"L  c #9BBA64",
"P  c #A4C167",
"I  c #9DBB64",
"U  c #ADC768",
"Y  c #B2CB69",
"T  c #BFD370",
"R  c #B5CD6A",
"E  c #AFC968",
"W  c #A3C065",
"Q  c #9DBB65",
"!  c #A6C267",
"~  c #9FBD65",
"^  c #A1BE66",
"/  c #B4CC6A",
"(  c #B2CB6A",
")  c #A5C166",
"_  c #B3CC6A",
"`  c #A8C468",
"'  c #B7CF6C",
"]  c #ADC769",
"[  c #B5CC6B",
"{  c #ADC669",
"}  c #B9CF6C",
"|  c #ABC668",
" . c #AEC86A",
".. c #B6CE6B",
"X. c #BBCF6D",
"o. c #BDD16F",
"O. c #BCD06E",
"+. c #BCCF6E",
"@. c #AEC76A",
"#. c #B6C96A",
"$. c #625E2F",
"%. c #798042",
"&. c #B9CC6C",
"*. c #6E7139",
"=. c #6A6935",
"-. c #B0C96A",
";. c #AAC569",
":. c #B2CA6A",
">. c #767E42",
",. c #68320C",
"<. c #5A401A",
"1. c #5D572A",
"2. c #A2B25E",
"3. c #99A758",
"4. c #5B5227",
"5. c #5A3915",
"6. c #61300C",
"7. c #7B8546",
"8. c #A9C468",
"9. c #B1C96B",
"0. c #85904B",
"q. c #65330E",
"w. c #934A18",
"e. c #6F3812",
"r. c #5A6032",
"t. c #818F4B",
"y. c #51542B",
"u. c #7D3F15",
"i. c #944A18",
"p. c #5F330F",
"a. c #89964F",
"s. c #534424",
"d. c #CF8756",
"f. c #9A5424",
"g. c #B16129",
"h. c #B36128",
"j. c #AF6029",
"k. c #985425",
"l. c #C98556",
"z. c #574D28",
"x. c #BACD6C",
"c. c #A3B25E",
"v. c #93704D",
"b. c #E38647",
"n. c #8F4A1A",
"m. c #DF7126",
"M. c #DB6F25",
"N. c #974E1C",
"B. c #E0874A",
"V. c #876946",
"C. c #A8BA62",
"Z. c #86904C",
"A. c #BD7645",
"S. c #DD9665",
"D. c #9F5725",
"F. c #CB6B2A",
"G. c #CA6B2A",
"H. c #A45A28",
"J. c #DF9A6B",
"K. c #AD6A3B",
"L. c #8D9B52",
"P. c #B1CA6B",
"I. c #B4CC6B",
"U. c #B5C769",
"Y. c #6E6638",
"T. c #6E4F3A",
"R. c #C0906F",
"E. c #CC9671",
"W. c #C5906D",
"Q. c #C5906C",
"!. c #CE9772",
"~. c #BC8D6C",
"^. c #6D4E39",
"/. c #746F3C",
"(. c #B7CA6B",
"). c #ABC569",
"_. c #7C8143",
"`. c #7C4117",
"'. c #533018",
"]. c #724F38",
"[. c #6C633F",
"{. c #5B5F35",
"}. c #5A5F34",
"|. c #716342",
" X c #6D4B33",
".X c #4B2A14",
"XX c #783F17",
"oX c #7E8646",
"OX c #B0C166",
"+X c #5E5B2E",
"@X c #6C4A1F",
"#X c #674B23",
"$X c #97A456",
"%X c #8C964F",
"&X c #6D4B23",
"*X c #6E4A1F",
"=X c #646433",
"-X c #B2C468",
";X c #BDD16E",
":X c #95A457",
">X c #99A959",
",X c #93A256",
"<X c #AFC86A",
"1X c #B6CE6C",
"2X c #9EBB64",
"3X c #B4CD6B",
"4X c #B0C968",
"5X c #A1BD65",
"6X c #A8C267",
"7X c #AFC869",
"8X c #B1C968",
"9X c #A1BE64",
"0X c #AAC468",
"qX c #B4CB6A",
"wX c #A9C466",
"eX c #9ABA62",
"rX c #A4C065",
"tX c #B1CB68",
"yX c #95B562",
"uX c #A7C367",
"iX c #A9C467",
"pX c #ABC768",
"aX c #9DBC64",
"sX c #B5CD6C",
"dX c #A1BE65",
"fX c #ADC869",
"gX c #B1C969",
"hX c #A7C366",
"jX c #93B461",
"kX c #9EBD65",
"lX c #B0CA69",
"zX c #BDD36F",
"xX c #B1CB69",
"cX c #A4C165",
"vX c #98B862",
"bX c #A6C266",
"nX c #A9C567",
"mX c #9CBB64",
"MX c #A6C268",
"NX c #A8C368",
"BX c #AFC96A",
"VX c #A7C368",
/* pixels */
"  . X o O + @ # $ % & o o o X * X X = % % - ; : @ > , < 1 o .   ",
". 2 3 4 5 6 7 8 9 0 q w e r t y y u r r q e 9 i p a s d f g h . ",
"& j s k l z x i 9 0 c q v q b v n q m q c M N 9 p B V C 5 Z A & ",
"- S 6 D k 0 y n F     M M F . n . n G M M     b c i l H J K L $ ",
"P I U Y 9 T     n     G G       M n   G G           F N R E W 3 ",
"Q ! J H N                       . T           n         N D > ~ ",
"^ U D 8 n                                     w .   G b . / ( ) ",
"! _ l G       G q                                   T n   e U j ",
"` / i y F       G                                         ' ] 3 ",
"d [ n                                                     n R d ",
"{ H } G T                                                 n [ | ",
" ...n F F             X.o.            O.+.        c M     q H 4 ",
"@.D e .     b y     #.$.%.X.      T &.*.=.&.      c M   q / -.;.",
"@.:...b     G T     >.,.<.1.2.    3.4.5.6.7.            y l O 8.",
"9.[ 8 T y T         0.q.w.e.r.t.t.y.u.i.p.a.            i _ a 4 ",
"; 9 y   n .         #.s.d.f.g.h.h.j.k.l.z.x.          . F H H ] ",
"$ } c                 c.v.b.n.m.M.N.B.V.C.          M q . H H ] ",
"; 1 9 .               Z.A.S.D.F.G.H.J.K.L.              G H H { ",
"P.I.9 M   M         U.Y.T.R.E.W.Q.!.~.^./.(.    y q     q _ D ).",
"; 8 i b   w         _.`.'.].[.{.}.|. X.XXXoX        G y T i s 3 ",
"# 9 b               OX+X@X#X$X    %X&X*X=X-X        G y   n 6 ! ",
"P.i q                 ;X:X>X;X    X.,X,XT                 q 6 P ",
"<X1Xq                                                   T D Z 2X",
"d -.3Xq     .                                     0 F   9 4XU 5X",
"6X7X/ y   n q                                     T .   w 8XE 9X",
"0XD qXb       T q                     .                 q 8XwXeX",
"rXU / F G       n     y y           M q         N   M   F tXW yX",
"uXiXY / ;X  n M             N M               G 0 . q T H pXaXA ",
"sXdXfXD y n 9 N         w M N M   y N c c           . b gXhXjX# ",
"& kXZ lX_ D D H q q n u H i q zXy 1Xi 1Xp y n 9 y 8 _ xXE cXvX- ",
". # g bXhXZ fX] 7XH p I.-.; i 9 9 I.a ; 1X1XH 7X5 Y nXbXcXmX: T ",
"  . & $ MXg ) ! NX@.<XBX@.: ; 7 7 # -.: # -.<X0XVX` f MX2 % T   "
};
