/* XPM */
static char *result[] = {
/* columns rows colors chars-per-pixel */
"32 32 242 2 ",
"   c #C0D470",
".  c #BFD470",
"X  c #B9CF6E",
"o  c #B8CE6D",
"O  c #AEC769",
"+  c #ABC568",
"@  c #AFC76A",
"#  c #B2CA6B",
"$  c #B4CC6C",
"%  c #B6CD6D",
"&  c #B7CE6D",
"*  c #BACF6E",
"=  c #B7CD6D",
"-  c #B5CC6C",
";  c #B3CB6B",
":  c #B0C96B",
">  c #AAC567",
",  c #A4C166",
"<  c #AAC469",
"1  c #B6CD6C",
"2  c #B4CB6C",
"3  c #A5C167",
"4  c #ACC669",
"5  c #AEC869",
"6  c #B0C969",
"7  c #B4CB6B",
"8  c #B8CE6C",
"9  c #B8CF6C",
"0  c #B9D06D",
"q  c #BAD06D",
"w  c #BBD06D",
"e  c #B9CF6D",
"r  c #B8CF6D",
"t  c #BAD06E",
"y  c #BCD16E",
"u  c #BBD16D",
"i  c #B7CE6C",
"p  c #B6CD6B",
"a  c #B1CA6A",
"s  c #ACC668",
"d  c #AAC568",
"f  c #A2BF66",
"g  c #A0BD65",
"h  c #B3CB6C",
"j  c #A3BF66",
"k  c #B3CC6B",
"l  c #B4CD6A",
"z  c #B6CD6A",
"x  c #B7CD6B",
"c  c #BCD26E",
"v  c #BBD06E",
"b  c #BBD16E",
"n  c #BDD26F",
"m  c #BAD16D",
"M  c #BED36F",
"N  c #BED26F",
"B  c #B5CC6A",
"V  c #B3CC69",
"C  c #B2CC6A",
"Z  c #A8C367",
"A  c #9FBC65",
"S  c #A3C066",
"D  c #B3CB6A",
"F  c #BDD26E",
"G  c #BFD36F",
"H  c #B5CD6B",
"J  c #B1CA69",
"K  c #ABC667",
"L  c #9BBA64",
"P  c #A4C167",
"I  c #9DBB64",
"U  c #ADC768",
"Y  c #B2CB69",
"T  c #BFD370",
"R  c #B5CD6A",
"E  c #AFC968",
"W  c #A3C065",
"Q  c #9DBB65",
"!  c #A6C267",
"~  c #9FBD65",
"^  c #A1BE66",
"/  c #B4CC6A",
"(  c #B2CB6A",
")  c #A5C166",
"_  c #B3CC6A",
"`  c #A8C468",
"'  c #B7CF6C",
"]  c #ADC769",
"[  c #B5CC6B",
"{  c #ADC669",
"}  c #B9CF6C",
"|  c #ABC668",
" . c #AEC86A",
".. c #B6CE6B",
"X. c #BACD6C",
"o. c #BFD26F",
"O. c #BCCF6D",
"+. c #BDD06E",
"@. c #AEC76A",
"#. c #B3C568",
"$. c #5D5629",
"%. c #828C49",
"&. c #BCD06E",
"*. c #B7CA6B",
"=. c #646332",
"-. c #74763C",
";. c #B0C96A",
":. c #AAC569",
">. c #B2CA6A",
",. c #6A6E39",
"<. c #6B340C",
"1. c #58431D",
"2. c #5E592C",
"3. c #A8BA62",
"4. c #909C52",
"5. c #5B5328",
"6. c #583210",
"7. c #582D0C",
"8. c #909E53",
"9. c #A9C468",
"0. c #B1C96B",
"q. c #7A8143",
"w. c #6E370F",
"e. c #934A19",
"r. c #603110",
"t. c #5F6737",
"y. c #818F4B",
"u. c #484725",
"i. c #844216",
"p. c #944A18",
"a. c #593411",
"s. c #9BAA5A",
"d. c #B1C367",
"f. c #5C4525",
"g. c #D38956",
"h. c #995424",
"j. c #B36229",
"k. c #B36128",
"l. c #AE5F29",
"z. c #A05929",
"x. c #C28359",
"c. c #605B2F",
"v. c #BED16F",
"b. c #98A658",
"n. c #9D7351",
"m. c #E38240",
"M. c #914A1A",
"N. c #DF7126",
"B. c #CF6923",
"V. c #A0531F",
"C. c #DE8A50",
"Z. c #7C6440",
"A. c #AEC066",
"S. c #747940",
"D. c #CE824E",
"F. c #DC915E",
"G. c #A05623",
"H. c #CA6A29",
"J. c #C36729",
"K. c #AA5F2B",
"L. c #DF9B6C",
"P. c #A56434",
"I. c #99A859",
"U. c #B1CA6B",
"Y. c #B4CC6B",
"T. c #6A5E35",
"R. c #72533D",
"E. c #C89573",
"W. c #CA9470",
"Q. c #C5906D",
"!. c #C5906C",
"~. c #D09974",
"^. c #B18466",
"/. c #6D4E38",
"(. c #7C7B42",
"). c #BBCE6D",
"_. c #ABC569",
"`. c #706F39",
"'. c #6F3A15",
"]. c #5A341B",
"[. c #74543D",
"{. c #6C653F",
"}. c #5B5F35",
"|. c #786846",
" X c #684730",
".X c #482711",
"XX c #763E16",
"oX c #8F9C52",
"OX c #828746",
"+X c #6D4A1F",
"@X c #6C4A20",
"#X c #737A41",
"$X c #B8CB6B",
"%X c #ACBD64",
"&X c #5F5F32",
"*X c #734A1E",
"=X c #9DAC5B",
"-X c #94A356",
";X c #95A557",
":X c #BCCF6E",
">X c #8E9D53",
",X c #AFC86A",
"<X c #B6CE6C",
"1X c #9EBB64",
"2X c #B4CD6B",
"3X c #B0C968",
"4X c #A1BD65",
"5X c #A8C267",
"6X c #AFC869",
"7X c #B1C968",
"8X c #A1BE64",
"9X c #AAC468",
"0X c #B4CB6A",
"qX c #A9C466",
"wX c #9ABA62",
"eX c #A4C065",
"rX c #B1CB68",
"tX c #95B562",
"yX c #A7C367",
"uX c #A9C467",
"iX c #BDD16E",
"pX c #ABC768",
"aX c #9DBC64",
"sX c #B5CD6C",
"dX c #A1BE65",
"fX c #ADC869",
"gX c #B1C969",
"hX c #A7C366",
"jX c #93B461",
"kX c #9EBD65",
"lX c #B0CA69",
"zX c #BDD36F",
"xX c #B1CB69",
"cX c #A4C165",
"vX c #98B862",
"bX c #A6C266",
"nX c #A9C567",
"mX c #9CBB64",
"MX c #A6C268",
"NX c #A8C368",
"BX c #AFC96A",
"VX c #A7C368",
/* pixels */
"  . X o O + @ # $ % & o o o X * X X = % % - ; : @ > , < 1 o .   ",
". 2 3 4 5 6 7 8 9 0 q w e r t y y u r r q e 9 i p a s d f g h . ",
"& j s k l z x i 9 0 c q v q b v n q m q c M N 9 p B V C 5 Z A & ",
"- S 6 D k 0 y n F     M M F . n . n G M M     b c i l H J K L $ ",
"P I U Y 9 T     n     G G       M n   G G           F N R E W 3 ",
"Q ! J H N                       . T           n         N D > ~ ",
"^ U D 8 n                                     w .   G b . / ( ) ",
"! _ l G       G q                                   T n   e U j ",
"` / i y F       G                                         ' ] 3 ",
"d [ n                                                     n R d ",
"{ H } G T                                                 n [ | ",
" ...n F F             X.o.            O.+.        c M     q H 4 ",
"@.D e .     b y     #.$.%.&.      T *.=.-.&.      c M   q / ;.:.",
"@.>...b     G T     ,.<.1.2.3.    4.5.6.7.8.            y l O 9.",
"0.[ 8 T y T         q.w.e.r.t.y.y.u.i.p.a.s.            i _ a 4 ",
"; 9 y   n .         d.f.g.h.j.k.k.l.z.x.c.v.          . F H H ] ",
"$ } c                 b.n.m.M.N.B.V.C.Z.A.          M q . H H ] ",
"; 1 9 .               S.D.F.G.H.J.K.L.P.I.              G H H { ",
"U.Y.9 M   M         d.T.R.E.W.Q.!.~.^./.(.).    y q     q _ D _.",
"; 8 i b   w         `.'.].[.{.}.}.|. X.XXXoX        G y T i s 3 ",
"# 9 b               OX+X@X#X$X    %X&X*X+X=X        G y   n 6 ! ",
"U.i q               $X-X;X          :X>X-XG               q 6 P ",
",X<Xq                                                   T D Z 1X",
"d ;.2Xq     .                                     0 F   9 3XU 4X",
"5X6X/ y   n q                                     T .   w 7XE 8X",
"9XD 0Xb       T q                     .                 q 7XqXwX",
"eXU / F G       n     y y           M q         N   M   F rXW tX",
"yXuXY / iX  n M             N M               G 0 . q T H pXaXA ",
"sXdXfXD y n 9 N         w M N M   y N c c           . b gXhXjX# ",
"& kXZ lX_ D D H q q n u H i q zXy <Xi <Xp y n 9 y 8 _ xXE cXvX- ",
". # g bXhXZ fX] 6XH p Y.;.; i 9 9 Y.a ; <X<XH 6X5 Y nXbXcXmX: T ",
"  . & $ MXg ) ! NX@.,XBX@.: ; 7 7 # ;.: # ;.,X9XVX` f MX2 % T   "
};
