/* XPM */
static char *result[] = {
/* columns rows colors chars-per-pixel */
"32 32 253 2 ",
"   c #C0D470",
".  c #BFD470",
"X  c #B9CF6E",
"o  c #B8CE6D",
"O  c #AEC769",
"+  c #ABC568",
"@  c #AFC76A",
"#  c #B2CA6B",
"$  c #B4CC6C",
"%  c #B6CD6D",
"&  c #B7CE6D",
"*  c #BACF6E",
"=  c #B7CD6D",
"-  c #B5CC6C",
";  c #B3CB6B",
":  c #B0C96B",
">  c #AAC567",
",  c #A4C166",
"<  c #AAC469",
"1  c #B6CD6C",
"2  c #B4CB6C",
"3  c #A5C167",
"4  c #ACC669",
"5  c #AEC869",
"6  c #B0C969",
"7  c #B4CB6B",
"8  c #B8CE6C",
"9  c #B8CF6C",
"0  c #B9D06D",
"q  c #BAD06D",
"w  c #BBD06D",
"e  c #B9CF6D",
"r  c #B8CF6D",
"t  c #BAD06E",
"y  c #BCD16E",
"u  c #BBD16D",
"i  c #B7CE6C",
"p  c #B6CD6B",
"a  c #B1CA6A",
"s  c #ACC668",
"d  c #AAC568",
"f  c #A2BF66",
"g  c #A0BD65",
"h  c #B3CB6C",
"j  c #A3BF66",
"k  c #B3CC6B",
"l  c #B4CD6A",
"z  c #B6CD6A",
"x  c #B7CD6B",
"c  c #BCD26E",
"v  c #BBD06E",
"b  c #BBD16E",
"n  c #BDD26F",
"m  c #BAD16D",
"M  c #BED36F",
"N  c #BED26F",
"B  c #B5CC6A",
"V  c #B3CC69",
"C  c #B2CC6A",
"Z  c #A8C367",
"A  c #9FBC65",
"S  c #A3C066",
"D  c #B3CB6A",
"F  c #BDD26E",
"G  c #BFD36F",
"H  c #B5CD6B",
"J  c #B1CA69",
"K  c #ABC667",
"L  c #9BBA64",
"P  c #A4C167",
"I  c #9DBB64",
"U  c #ADC768",
"Y  c #B2CB69",
"T  c #BFD370",
"R  c #B5CD6A",
"E  c #AFC968",
"W  c #A3C065",
"Q  c #9DBB65",
"!  c #A6C267",
"~  c #9FBD65",
"^  c #A1BE66",
"/  c #B4CC6A",
"(  c #B2CB6A",
")  c #A5C166",
"_  c #B3CC6A",
"`  c #A8C468",
"'  c #B7CF6C",
"]  c #ADC769",
"[  c #B5CC6B",
"{  c #ADC669",
"}  c #B9CF6C",
"|  c #B8CB6B",
" . c #BBCE6D",
".. c #BACE6D",
"X. c #B8CC6C",
"o. c #ABC668",
"O. c #AEC86A",
"+. c #B6CE6B",
"@. c #B0C266",
"#. c #5C5529",
"$. c #6C6F38",
"%. c #B7CA6B",
"&. c #B6C96A",
"*. c #696B37",
"=. c #5E582B",
"-. c #B5C86A",
";. c #AEC76A",
":. c #454825",
">. c #6A330C",
",. c #5D3D17",
"<. c #554A22",
"1. c #99A858",
"2. c #97A557",
"3. c #554922",
"4. c #5D3B16",
"5. c #67320C",
"6. c #7C8545",
"7. c #B0C96A",
"8. c #AAC569",
"9. c #B2CA6A",
"0. c #414323",
"q. c #71360D",
"w. c #904716",
"e. c #5C3917",
"r. c #909D53",
"t. c #8E9A51",
"y. c #5D3816",
"u. c #914715",
"i. c #6E340C",
"p. c #798244",
"a. c #A9C468",
"s. c #B1C96B",
"d. c #9BAB5A",
"f. c #4D3014",
"g. c #B96D39",
"h. c #8B5123",
"j. c #77582B",
"k. c #77592B",
"l. c #77582A",
"z. c #8C5023",
"x. c #B86C39",
"c. c #4E3315",
"v. c #A9BA62",
"b. c #BED16F",
"n. c #848B4B",
"m. c #B3835E",
"M. c #CA753A",
"N. c #CE6D2B",
"B. c #E2752B",
"V. c #CE6E2B",
"C. c #C9743A",
"Z. c #B1825D",
"A. c #858D4B",
"S. c #90974F",
"D. c #AE7142",
"F. c #DE8E57",
"G. c #7F4015",
"H. c #D86C22",
"J. c #814116",
"K. c #DE8F59",
"L. c #AB6F40",
"P. c #919850",
"I. c #5B451F",
"U. c #C56C2E",
"Y. c #E19D6E",
"T. c #CB8454",
"R. c #CA8251",
"E. c #CB8352",
"W. c #CC8554",
"Q. c #C56B2E",
"!. c #5D4821",
"~. c #B1CA6B",
"^. c #B4CC6B",
"/. c #B1C367",
"(. c #6B6235",
"). c #6E4E37",
"_. c #BF8F6F",
"`. c #CF9C79",
"'. c #C79674",
"]. c #BE8E6E",
"[. c #6D6536",
"{. c #ABC569",
"}. c #4B4C27",
"|. c #834418",
" X c #502E16",
".X c #704E36",
"XX c #6E6340",
"oX c #5B5F35",
"OX c #5A5F34",
"+X c #6F6341",
"@X c #6F4C35",
"#X c #4E2C16",
"$X c #814318",
"%X c #818847",
"&X c #6B713B",
"*X c #744A1E",
"=X c #6D4A1F",
"-X c #694B23",
";X c #939E53",
":X c #909B52",
">X c #6A4B23",
",X c #724A1E",
"<X c #919C52",
"1X c #BBCF6D",
"2X c #8D9C52",
"3X c #94A456",
"4X c #97A658",
"5X c #BCD06E",
"6X c #BCCF6E",
"7X c #95A557",
"8X c #94A356",
"9X c #8F9D53",
"0X c #AFC86A",
"qX c #B6CE6C",
"wX c #9EBB64",
"eX c #B4CD6B",
"rX c #B0C968",
"tX c #A1BD65",
"yX c #A8C267",
"uX c #AFC869",
"iX c #B1C968",
"pX c #A1BE64",
"aX c #AAC468",
"sX c #B4CB6A",
"dX c #A9C466",
"fX c #9ABA62",
"gX c #A4C065",
"hX c #B1CB68",
"jX c #95B562",
"kX c #A7C367",
"lX c #A9C467",
"zX c #BDD16E",
"xX c #ABC768",
"cX c #9DBC64",
"vX c #B5CD6C",
"bX c #A1BE65",
"nX c #ADC869",
"mX c #B1C969",
"MX c #A7C366",
"NX c #93B461",
"BX c #9EBD65",
"VX c #B0CA69",
"CX c #BDD36F",
"ZX c #B1CB69",
"AX c #A4C165",
"SX c #98B862",
"DX c #A6C266",
"FX c #A9C567",
"GX c #9CBB64",
"HX c #A6C268",
"JX c #A8C368",
"KX c #AFC96A",
"LX c #A7C368",
/* pixels */
"  . X o O + @ # $ % & o o o X * X X = % % - ; : @ > , < 1 o .   ",
". 2 3 4 5 6 7 8 9 0 q w e r t y y u r r q e 9 i p a s d f g h . ",
"& j s k l z x i 9 0 c q v q b v n q m q c M N 9 p B V C 5 Z A & ",
"- S 6 D k 0 y n F     M M F . n . n G M M     b c i l H J K L $ ",
"P I U Y 9 T     n     G G       M n   G G           F N R E W 3 ",
"Q ! J H N                       . T           n         N D > ~ ",
"^ U D 8 n                                     w .   G b . / ( ) ",
"! _ l G       G q                                   T n   e U j ",
"` / i y F       G                                         ' ] 3 ",
"d [ n                                                     n R d ",
"{ H } G T             |  .            ..X.                n [ o.",
"O.+.n F F           @.#.$.%.T     T &.*.=.-.      c M     q H 4 ",
";.D e .     b y     :.>.,.<.1.    2.3.4.5.6.      c M   q / 7.8.",
";.9.+.b     G T     0.q.w.e.r. . .t.y.u.i.p.            y l O a.",
"s.[ 8 T y T         d.f.g.h.j.k.k.l.z.x.c.v.            i _ a 4 ",
"; 9 y   n .         b.n.m.M.N.B.B.V.C.Z.A.N           . F H H ] ",
"$ } c               N S.D.F.G.H.H.J.K.L.P.N         M q . H H ] ",
"; 1 9 .             %.I.U.Y.T.R.E.W.Y.Q.!.|             G H H { ",
"~.^.9 M   M         /.(.)._.`.'.'.`.].).[.&.    y q     q _ D {.",
"; 8 i b   w         }.|. X.XXXoXOX+X@X#X$X%X        G y T i s 3 ",
"# 9 b               &X*X=X-X;X    :X>X=X,X<X        G y   n 6 ! ",
"~.i q               1X2X3X4X5X    6X7X8X9X5X              q 6 P ",
"0XqXq                                                   T D Z wX",
"d 7.eXq     .                                     0 F   9 rXU tX",
"yXuX/ y   n q                                     T .   w iXE pX",
"aXD sXb       T q                     .                 q iXdXfX",
"gXU / F G       n     y y           M q         N   M   F hXW jX",
"kXlXY / zX  n M             N M               G 0 . q T H xXcXA ",
"vXbXnXD y n 9 N         w M N M   y N c c           . b mXMXNX# ",
"& BXZ VX_ D D H q q n u H i q CXy qXi qXp y n 9 y 8 _ ZXE AXSX- ",
". # g DXMXZ nX] uXH p ^.7.; i 9 9 ^.a ; qXqXH uX5 Y FXDXAXGX: T ",
"  . & $ HXg ) ! JX;.0XKX;.: ; 7 7 # 7.: # 7.0XaXLX` f HX2 % T   "
};
