/* XPM */
static char *result[] = {
/* columns rows colors chars-per-pixel */
"32 32 125 2 ",
"   c #2F371E",
".  c #333A1F",
"X  c #1E2624",
"o  c #202723",
"O  c #222B24",
"+  c #282F22",
"@  c #273127",
"#  c #2A3225",
"$  c #2B3629",
"%  c #2E392A",
"&  c #303721",
"*  c #363C20",
"=  c #383E21",
"-  c #323D2C",
";  c #37402D",
":  c #38412D",
">  c #3B4736",
",  c #3D4935",
"<  c #3E4D3D",
"1  c #46532C",
"2  c #4A572D",
"3  c #4F5A2F",
"4  c #505B2F",
"5  c #4F5932",
"6  c #555D32",
"7  c #3F514E",
"8  c #4D5D43",
"9  c #47584D",
"0  c #505F44",
"q  c #465E50",
"w  c #536144",
"e  c #476150",
"r  c #4A6451",
"t  c #516A55",
"y  c #5A7259",
"u  c #707E48",
"i  c #62795C",
"p  c #637E7B",
"a  c #9D725F",
"s  c #A1755F",
"d  c #AB7B5A",
"f  c #8E7063",
"g  c #907262",
"h  c #9B7960",
"j  c #A27761",
"k  c #A37861",
"l  c #748345",
"z  c #798747",
"x  c #7C8948",
"c  c #688177",
"v  c #668179",
"b  c #698679",
"n  c #6C8B79",
"m  c #748F77",
"M  c #718D78",
"N  c #6E957C",
"B  c #71947B",
"V  c #7D9778",
"C  c #729A7E",
"Z  c #7E9A7D",
"A  c #AF815E",
"S  c #B0815E",
"D  c #9D9F6C",
"F  c #819A76",
"G  c #819C7B",
"H  c #A48465",
"J  c #AA8366",
"K  c #B68962",
"L  c #BB8F66",
"P  c #A39668",
"I  c #A69F6A",
"U  c #BD9167",
"Y  c #BE9368",
"T  c #94B562",
"R  c #9DBB64",
"E  c #93AB75",
"W  c #9CB473",
"Q  c #A7A06A",
"!  c #A2AA6E",
"~  c #ABAA6C",
"^  c #BFA36D",
"/  c #A1BE65",
"(  c #ACB16F",
")  c #A6BB6E",
"_  c #ABBC6F",
"`  c #B4B36E",
"'  c #A4BB72",
"]  c #ACBF71",
"[  c #B5B670",
"{  c #B2BF71",
"}  c #C1976B",
"|  c #C39B6C",
" . c #C0A36D",
".. c #A5C166",
"X. c #A9C467",
"o. c #A6C268",
"O. c #ACC669",
"+. c #AFC869",
"@. c #B1C46F",
"#. c #B4CC6B",
"$. c #B8CE6D",
"%. c #BCD16E",
"&. c #AEC372",
"*. c #B3C572",
"=. c #B3C871",
"-. c #BBCE71",
";. c #BED370",
":. c #C0D470",
">. c #7DA483",
",. c #81A784",
"<. c #84AA86",
"1. c #8BAE89",
"2. c #8DB18A",
"3. c #90B28C",
"4. c #96B98E",
"5. c #98BB90",
"6. c #9FC393",
"7. c #A2C694",
"8. c #ACD097",
"9. c #AFD499",
"0. c #B4D799",
"q. c #B6D999",
"w. c #BBDC99",
"e. c #C0DF9A",
"r. c #C1E09A",
/* pixels */
":.;.$.#.#.X.O.#.#.#.#.$.$.#.;.-.-.-.#.#.#.#.#.#.+.X...X.#.%.;.;.",
":.#...X.O.#.#.$.%.%.#.' v p p p p p p v W $.%.#.#.#.+.O...R #.;.",
"#...O.#.#.#.#.$.#.' G G 2.5.5.5.5.5.3.1.G ' ;.#.#.#.#.#.+.X.R %.",
"#.o.#.#.#.$.%.*.V Z 2.6.8.0.w.w.q.q.q.8.4.Z V ' ;.#.#.#.#.X.R #.",
"..R +.#.%.%.=.Z 2.7.8.9.9.q.e.e.q.q.e.q.8.4.1.Z *.:.%.:.#.+.....",
"1 2 3 4 4 6 , < 8 w w w w w w w 8 w w 8 8 8 8 < > 5 6 6 6 3 2 1 ",
"  . . . . O @ % % ; : : ; ; ; ; - ; ; ; - - ; % @ O . . : . .   ",
". . . = = O % - ; - ; ; ; - - - - ; ; ; ; : ; % % O . . = . .   ",
"  . . . O @ - - - - - - - - - - - - - - - > - - - $ X * = . .   ",
". . . : o @ - - - - - - - - - ; - - - - - - - - % $ X * = = . . ",
". . . = O @ $ % - - - $ $ - - - - - % $ & - - % $ @ O * = = . . ",
". = . = O @ $ $ - - - $ $ - - - - - % % % % - $ $ O . = = = .   ",
". . . =   # $ $ $ $ $ % $ $ $ - - - % - - % @ $ $ + # * . . . . ",
". . . = . O $ $ $ - - - $ $ $ $ % $ $ @ $ % % $ $ @ o & = . .   ",
". . . =   o $ $ $ $ $ $ $ $ $ $ $ $ $ $ % $ $ % $ @ X * * . . . ",
". . = = o o @ @ $ @ @ $ $ @ @ $ $ % $ $ @ @ @ @ @ o X * . . . . ",
"l z z x q 7 q e y r t y y r r t i i i i t e e r r e 7 u x l l l ",
"#.#.$.:.n N N n >.C C >.>.<.<.2.5.1.,.,.<.<.>.C N n E %.;.#.#.X.",
"#.#.$.:.W n N >.<.<.<.C C Z ,.>.>.>.N N >.>.>.C N n =.%.%.#.#.X.",
"#.#.$.%.$.B N B Z >.C N C C N N N N N N N N N N N n *.%.;.#.+.o.",
"#.$.%.:.;.' B N C N N N N N N N N N N N N N N N M W %.%.:.%.#...",
"#.#.%.:.;.;.' M n N N N N N N N N N N N N n b n W %.:.:.:.%.+...",
"+.#.$.;.:.:.;.' W n n b b c p p p b b b b E &.&.;.:.:.:.:.#.X.R ",
"X.#.#.%.:.:.;.;.;.&.o.W f a s j a a f D &.$.%.;.;.%.%.%.%.+.O./ ",
"X.+.#.%.:.%.%.:.;.:.:.` h d d d d d j ~ :.:.:.:.:.;.;.:.%.+.+...",
"X.#.#.%.:.:.:.%.;.;.-.~ h K K S L K j I -.-.:.:.:.:.:.:.%.+.X.R ",
"..+.#.%.:.:.:.:.-.*.{ I j } } } } } k I { *.-.:.%.:.%.:.%.#...T ",
"..X.#.#.%.:.%.%.*.*.~ H } } } } | | | J ~ *.*.-.%.;.%.:.#.X.R R ",
"#...X.#.%.%.%.%.*.*.{ [  . . .| |  .^ ` &.*.*.;.:.:.%.%.#...T #.",
"#.R X.#.#.#.#.#.$.@.*.{ _ ] [ Y [ [ _ _ _ #.$.$.%.#.#.#.+...T #.",
":.#./ ....X.+.+.#.#.#.) ) ) _ ] _ ) ) ) #.#.#.+.#.#.X.....R #.%.",
":.;.$.#.../ ....X.O.@.O.O.#.#.#.#.#.#.#.#.#.+.X.X.....X.#.#.:.:."
};
