/* XPM */
static char *result[] = {
/* columns rows colors chars-per-pixel */
"32 32 148 2 ",
"   c #C0D470",
".  c #BFD370",
"X  c #B9CF6E",
"o  c #B8CE6D",
"O  c #AEC76A",
"+  c #ABC568",
"@  c #AFC76A",
"#  c #B2CA6B",
"$  c #B4CC6C",
"%  c #B6CD6D",
"&  c #B7CE6D",
"*  c #BACF6E",
"=  c #B7CD6D",
"-  c #B5CC6C",
";  c #B3CB6B",
":  c #B0C96B",
">  c #AAC567",
",  c #A4C166",
"<  c #AAC469",
"1  c #B4CB6C",
"2  c #A5C167",
"3  c #ACC669",
"4  c #AEC869",
"5  c #B0C969",
"6  c #B4CB6B",
"7  c #B8CE6C",
"8  c #B8CF6C",
"9  c #B9D06D",
"0  c #BAD06D",
"q  c #BBD06D",
"w  c #B9CF6D",
"e  c #B8CF6D",
"r  c #BAD06E",
"t  c #BCD16E",
"y  c #BBD16D",
"u  c #B7CE6C",
"i  c #B6CD6B",
"p  c #B1CA6A",
"a  c #ACC668",
"s  c #AAC568",
"d  c #A2BF66",
"f  c #A0BD66",
"g  c #A3BF67",
"h  c #B3CC6B",
"j  c #B4CD6A",
"k  c #B6CD6A",
"l  c #B7CD6B",
"z  c #BCD26E",
"x  c #BBD06E",
"c  c #BBD16E",
"v  c #BDD26F",
"b  c #BAD16D",
"n  c #BED36F",
"m  c #BED26F",
"M  c #B5CC6A",
"N  c #B3CC69",
"B  c #B2CC6A",
"V  c #A8C367",
"C  c #9FBC65",
"Z  c #A3C066",
"A  c #B3CB6A",
"S  c #BDD26E",
"D  c #BFD470",
"F  c #BFD36F",
"G  c #B5CD6B",
"H  c #B1CA69",
"J  c #ABC667",
"K  c #9BBA64",
"L  c #9DBB64",
"P  c #ADC768",
"I  c #B2CB69",
"U  c #B5CD6A",
"Y  c #AFC968",
"T  c #A3C065",
"R  c #A4C167",
"E  c #9DBB65",
"W  c #A6C267",
"Q  c #9FBD65",
"!  c #A1BE66",
"~  c #B4CC6A",
"^  c #B2CB6A",
"/  c #A5C166",
"(  c #B3CC6A",
")  c #A3BF66",
"_  c #A8C468",
"`  c #B7CF6C",
"'  c #ADC769",
"]  c #B5CC6B",
"[  c #ADC669",
"{  c #B9CF6C",
"}  c #ABC668",
"|  c #AEC86A",
" . c #B6CE6B",
".. c #B0C96A",
"X. c #AAC569",
"o. c #B2CA6A",
"O. c #AEC769",
"+. c #A9C468",
"@. c #B1C96B",
"#. c #B6CD6C",
"$. c #B1CA6B",
"%. c #B4CC6B",
"&. c #ABC569",
"*. c #AFC86A",
"=. c #B6CE6C",
"-. c #9EBB64",
";. c #B4CD6B",
":. c #B0C968",
">. c #A1BD65",
",. c #A8C267",
"<. c #AFC869",
"1. c #B1C968",
"2. c #A1BE64",
"3. c #AAC468",
"4. c #B4CB6A",
"5. c #A9C466",
"6. c #9ABA62",
"7. c #A4C065",
"8. c #B1CB68",
"9. c #95B562",
"0. c #A7C367",
"q. c #A9C467",
"w. c #BDD16E",
"e. c #ABC768",
"r. c #9DBC64",
"t. c #9EBC66",
"y. c #B5CD6C",
"u. c #A1BE65",
"i. c #ADC869",
"p. c #B1C969",
"a. c #A7C366",
"s. c #93B461",
"d. c #B2CA6C",
"f. c #9FBD66",
"g. c #B0CA69",
"h. c #BDD36F",
"j. c #B1CB69",
"k. c #A4C165",
"l. c #99B862",
"z. c #A0BD65",
"x. c #A6C266",
"c. c #A9C567",
"v. c #9CBB65",
"b. c #A0BE65",
"n. c #A7C267",
"m. c #A9C368",
"M. c #A8C467",
"N. c #A6C168",
/* pixels */
"  . X o O + @ # $ % & o o o X * X X = % % - ; : @ > , < % o     ",
". 1 2 3 4 5 6 7 8 9 0 q w e r t t y e e 0 w 8 u i p a s d f ;   ",
"o g a h j k l u 8 9 z 0 x 0 c x v 0 b 0 z n m 8 i M N B 4 V C & ",
"$ Z 5 A h 9 t v S     n n S D v D v F n n     c z u j G H J K - ",
", L P I 8 .     v     F F       n v   F F           S m U Y T R ",
"E W H G m                       D .           v         m A > Q ",
"! P A 7 v                                     q D   F c D ~ ^ / ",
"W ( j F       F 0                                   . v   w P ) ",
"_ ~ u t S       F                                         ` ' 2 ",
"s ] v                                                     v U s ",
"[ G { F .                                                 v ] } ",
"|  .v S S                                         z n     0 G 3 ",
"O A w D     c t                                   z n   0 ~ ..X.",
"O o. .c     F .                                         t j O.+.",
"@.] 7 . t .                                             u ( p 3 ",
"; 8 t   v D                                           D S G G ' ",
"$ { z                                               n 0 D G G ' ",
"; #.8 D                                                 F G G [ ",
"$.%.8 n   n                                     t 0     0 ( A &.",
"; 7 u c   q                                         F t . u a 2 ",
"# 8 c                                               F t   v 5 W ",
"$.u 0                                                     0 5 R ",
"*.=.0                                                   . A V -.",
"s ..;.0     D                                     9 S   8 :.P >.",
",.<.~ t   v 0                                     . D   q 1.Y 2.",
"3.A 4.c       . 0                     D                 0 1.5.6.",
"7.P ~ S F       v     t t           n 0         m   n   S 8.T 9.",
"0.q.I ~ w.  v n             m n               F 9 D 0 . G e.r.t.",
"y.u.i.A t v 8 m         q n m n   t m z z           D c p.a.s.d.",
"& f.V g.( A A G 0 0 v y G u 0 h.t =.u =.i t v 8 t 7 ( j.Y k.l.- ",
"  # z.x.a.V i.' <.G i %...; u 8 8 %.p ; =.=.G <.4 I c.x.k.v.: D ",
"    & - W b./ n.m.O *.*.O : ; 6 6 # ..: # ..*.3.0.M.d N.1 % D   "
};
