/* XPM */
static char *result[] = {
/* columns rows colors chars-per-pixel */
"32 32 143 2 ",
"   c #875B5F",
".  c #8A5D5E",
"X  c #8F625D",
"o  c #91635D",
"O  c #95685F",
"+  c #AC7D5F",
"@  c #865B60",
"#  c #8A5F61",
"$  c #8D6262",
"%  c #8D6963",
"&  c #916662",
"*  c #956A63",
"=  c #967364",
"-  c #9C7364",
";  c #957E66",
":  c #9E7867",
">  c #A07666",
",  c #A37A66",
"<  c #AA7E63",
"1  c #A27668",
"2  c #A67F68",
"3  c #A87E6A",
"4  c #A8995E",
"5  c #87A75B",
"6  c #89A55B",
"7  c #86AB5C",
"8  c #8AAD5D",
"9  c #92A45D",
"0  c #9FA05F",
"q  c #92B35F",
"w  c #9C8567",
"e  c #9B8F64",
"r  c #958369",
"t  c #998A6A",
"y  c #8F9662",
"u  c #879B61",
"i  c #979761",
"p  c #9A936B",
"a  c #A38665",
"s  c #AD8167",
"d  c #A28B66",
"f  c #AD8369",
"g  c #AC8B6C",
"h  c #B38764",
"j  c #B58963",
"k  c #B98C64",
"l  c #B18668",
"z  c #B38969",
"x  c #B98E6A",
"c  c #AC9567",
"v  c #A39B65",
"b  c #AA9C64",
"n  c #A29669",
"m  c #AD926D",
"M  c #A19D6B",
"N  c #AB9D69",
"B  c #BD9167",
"V  c #BD9269",
"C  c #B38B71",
"Z  c #B39670",
"A  c #BA9475",
"S  c #BC9B75",
"D  c #8AA463",
"F  c #8EAD60",
"G  c #95A565",
"H  c #90AD60",
"J  c #9CAB6A",
"K  c #95B561",
"L  c #9BB565",
"P  c #9DBC63",
"I  c #9CB268",
"U  c #A5A166",
"Y  c #A8A067",
"T  c #A5A26B",
"R  c #ABA469",
"E  c #A7AD6E",
"W  c #ADAA69",
"Q  c #B1A066",
"!  c #B1A96B",
"~  c #BAA96B",
"^  c #AFB166",
"/  c #A1BE65",
"(  c #A1B668",
")  c #ACB369",
"_  c #B0B56C",
"`  c #B9B56A",
"'  c #B3B96A",
"]  c #A8AD70",
"[  c #BCA274",
"{  c #B0AF74",
"}  c #AAB270",
"|  c #AEBF70",
" . c #B1BF72",
".. c #BCB179",
"X. c #C1966B",
"o. c #C3996C",
"O. c #C49A72",
"+. c #C39C7B",
"@. c #C5A17C",
"#. c #C8A37E",
"$. c #C3A87E",
"%. c #CCAB7D",
"&. c #D0AA7B",
"*. c #C4B27E",
"=. c #A5C266",
"-. c #A9C467",
";. c #AEC867",
":. c #A6C168",
">. c #ACC669",
",. c #AFC869",
"<. c #B5C26D",
"1. c #B9C56D",
"2. c #B4CC6B",
"3. c #B9CE6D",
"4. c #BCD16E",
"5. c #AFC071",
"6. c #B3C372",
"7. c #B5C970",
"8. c #B9CB71",
"9. c #BFD370",
"0. c #C0D470",
"q. c #CAA580",
"w. c #CDAC82",
"e. c #D1AD84",
"r. c #D1AF8A",
"t. c #C7B480",
"y. c #C8B280",
"u. c #D3B585",
"i. c #D4B28B",
"p. c #D9B78B",
"a. c #DBBA8E",
"s. c #D6BA93",
"d. c #DEBE91",
"f. c #DBBE98",
"g. c #DEC49D",
"h. c #E1C397",
"j. c #E2C499",
"k. c #E4C99F",
"l. c #E1C7A1",
"z. c #E5CBA2",
"x. c #E8CFA6",
"c. c #E9D3AC",
"v. c #EDD9B2",
/* pixels */
"0.9.8.4.>.>.>.2.2.2.3.3.3.3.) N U U 2.2.2.3.<.2.,.>.=.-.2.3.0.0.",
"9.2./ >.,.,.2.2.3.3.3.3.) R m C C C N W 3.3.3.2.2.,.;.-./ / 2.0.",
"3./ >.2.2.2.3.3.<.| W m S q.w.t.t.t.q.@.m R ' 1.2.2.2.2.2.:./ 2.",
"2.=.2.2.2.2.<.N N A @.i...] I q q I } ] u.&.A Z N ) 2.2.2.>.P 2.",
"=.P ;.2.' g m e.%.*.) K q 7 =.=.P -.8 q q ( *.*.e.A g ! 2.>.=.=.",
"P =.,.2.d u.*.J / q 7 >.2.8 P q q =.7 / 4.8 q q J ..e.g 4.2.>.P ",
"/ >.2.3.R e H 5 ;.-.8 =.-.8 P P / =.8 P ,.8 q 4.8 F y c 9.2.2./ ",
"=.2.2.0.4.G F 7 -.=.8 ;.;.8 / P / -.7 =.4.8 / ;.7 K u 3.0.4.>./ ",
">.2.2.4.4.I q 7 3.-.8 -.-.8 0 4 4 4 5 =.2.8 P 4.8 K D 0.0.3.>.:.",
">.2.9.0.4.I F 5 -.=.8 ^ ~ S s.z.z.g.[ [ ` 9 P 2.8 K D 0.0.0.2.>.",
",.3.4.4.4.I q 6 ' Q [ w.l.v.x.k.z.z.c.c.i.$.c ` 8 K D 0.0.4.2.>.",
",.2.4.4.3.U v S w.c.c.c.j.a.#.+.+.+.u.h.c.c.c.f.S Q i 3.0.4.2.>.",
",.2.4.9.~ s.g.v.c.j.a.e.C 1 * o X o > 3 w.i.h.z.v.z.g.[ 4.2.2.-.",
">.2.2.4.c g.k.p.e.C 3 O o o o o o o o o O - z +.p.h.k.A 4.2.>.-.",
"2.2.3.9.Y +.+.s s < + + + + + + + + < + + + + < f A +.Z 2.2.2.>.",
"2.2.4.0.4.! = X.o.o.X.o.o.X.o.X.o.X.o.o.o.o.o.o.X.- N 3.4.2.2.>.",
"2.4.4.0.0.0.; j j j j j j j j j j j j j j j j j j - <.4.9.3.2.,.",
"2.2.4.0.0.0.: o.X.z x o.o.o.o.o.o.o.o.o.o.V z x o.> <.9.4.2.2.,.",
"2.2.2.4.0.4.; j -   & h k k < > > , j k k - @ & j - <.9.4.2.2.>.",
"2.2.4.4.0.4.; X.  o   h X., . . . . O B V # o @ l : ' 4.4.2.>.=.",
"2.3.4.4.0.0.; o.& z - z V # o o o o   s V * l - z : ' 9.0.4.,.-.",
"2.2.4.0.0.0.; j x &.o.j j . o . o o   + j V %.O.j - 6.0.0.4.,.=.",
",.3.4.4.0.0.; o.o.o.o.o.X.# O o o o . l o.o.o.o.o.: <.0.9.2.-.P ",
">.,.2.4.0.0.M , 1 1 2 1 > . + j j h o * , , , , , w 2.9.3.,.>./ ",
"-.,.2.4.4.4.2.} % 2 ; } } n z k x V a } ) p - - p 7.0.0.4.,.,./ ",
"-.2.2.4.0.0.9.6.= x r 5.6.M l V V V d 6.6.M 2 3 E 8.0.0.4.,.;.q ",
"=.-.2.4.0.0.9. .= x r 6.5.M z V V x d | 6.M 2 3 E 8.4.0.4.,.=.q ",
"-.-.2.2.4.0.3.7.= l t 6.6.T z X.V V t 6.6.T , 2 E 0.4.0.2.;./ / ",
"2./ >.2.4.4.3.0.) M 6.7.7.R z B V B d 7.7.7.E T 9.9.9.4.,.-.q 2.",
"3.P =.2.2.2.2.2.9.3.9.3.2.v l k B x a 2.2.9.9.3.4.2.2.2.,.=.P 2.",
"0.2./ :.-.-.>.>.2.2.2.2.>.) a < , 2 T ,.2.2.2.,.,.2.>.:.=.P 2.4.",
"0.0.3.2.=./ / -.:.>.2.,.>.2.2.2.2.2.,.,.2.,.,.-.-.-./ :.2.2.9.0."
};
