/* XPM */
static char *result[] = {
/* columns rows colors chars-per-pixel */
"32 32 72 1 ",
"  c #9DBB65",
". c #A2BE66",
"X c #A4C166",
"o c #AAC567",
"O c #ACC569",
"+ c #AEC869",
"@ c #B6C56E",
"# c #B4CC6B",
"$ c #B8CF6D",
"% c #BCD16E",
"& c #AEC473",
"* c #ABC870",
"= c #ADCC7A",
"- c #B6C375",
"; c #B3CB71",
": c #BAC976",
"> c #B5C37F",
", c #BDC47C",
"< c #B0CE7B",
"1 c #BFCA7A",
"2 c #BFD370",
"3 c #C0C97D",
"4 c #C0D370",
"5 c #C9BE85",
"6 c #C5BF89",
"7 c #CEBE88",
"8 c #D0BF8E",
"9 c #D2BF94",
"0 c #9FCD9E",
"q c #AEC586",
"w c #ACCE86",
"e c #A1CB8E",
"r c #A9C988",
"t c #B2C481",
"y c #BDC186",
"u c #AFD189",
"i c #B4D48A",
"p c #BFC499",
"a c #AAD091",
"s c #B0D493",
"d c #9FCEA4",
"f c #9FD0A7",
"g c #9DD0AC",
"h c #9DD3BE",
"j c #A1CEA8",
"k c #BEC6A4",
"l c #A0D2BE",
"z c #ACDDBF",
"x c #C4C482",
"c c #C5CA81",
"v c #C9C987",
"b c #C0C089",
"n c #CCCA8B",
"m c #D3C78E",
"M c #D3C98F",
"N c #CEC197",
"B c #C5C39D",
"V c #CCC299",
"C c #D3C593",
"Z c #D5CB93",
"A c #D9CC96",
"S c #D0C598",
"D c #DDCC9B",
"F c #E3C69B",
"G c #E3C99D",
"H c #C3C4A0",
"J c #E6CEA4",
"K c #E8CFA6",
"L c #9BD4C3",
"P c #A0D7C2",
"I c #A4D9C1",
"U c #A9DBC0",
/* pixels */
"42;%OoO####$$$%$$$$#####+oXo#%22",
"2#Xo+##$%#%%%$%%%%$$%%$###+oX #4",
"$.O####$%%%%$%%%%%%%%4%$####+o $",
"#X###%%%%44%%%%%22%2%44%%$###o #",
"..o+##4:+##4444422444444#%%%#+XX",
"9-#=,7C85>7NNNVVVVSSSSSVx>uiiw>6",
"J3##xGGGFAGGGGGGGFGFFGFFFM:++1CF",
"KD3cJKKKKKKKKKKKKKKKKKKKKJZvvAKK",
"KKGJKKKKKKKKKKKKKKKKKKKKKKKKKKKK",
"KKJJKKKKKKKKKKKKKKKKKKKKKKKKKKKK",
"KKKKKKKKKKKKKKKKKKKKKKKKKKKKKKKK",
"KKKKKKKKKKKKKKKKKKKKKKKKKKKKKKKK",
"KKKKKKKKKKKKKKKKKKKKKKKKKKKKKKKK",
"KKKKKKKKKKKKKKKKKKKKKKKKKKKJKKKK",
"KKKKKJJKKKKKKKKKKKKKKKKKKKAZZDKK",
"KKKKKAnAKKKKKKKKKKJAJKKKKA:ooMKK",
"FFFFM:+,SFDGFGGGFDn#CDJJD.22@mJF",
"kkkytaa=>HH9BHBHBprur69HS.y.yV99",
"LLL0gLLddLLlPPLLlLLhhLLLPejejLLL",
"LLLLLLLLLLLIzzzzUILLLLLLPLLLLLLL",
"LLLLLLLLLLLzzzzzzULLLLLLLLLLLLLL",
"LLLLLLLLLLLLPLPPPLLLLLLLLLLLLLLL",
"LPhLLLLLLLLLLLLLLLLLLLLLLLLLLLLP",
"IzzzLLLLLLLLLLLLLLLLLLLLLLLLLPzz",
"IIIILLLLLLLLLLLLLLLLLLLLLLLLLLLI",
"LLLLLLLLLLLLLLLLPLPPLPLLLLLLLLLL",
"LLLLLLLLLLLLLLLLUUUzUUILLLLLLLLL",
"LLLLLLLLPPPPLLLLUUUzzUPLLLLLLLLL",
"LLLLLLLPzzzUPLLLLPPPLLLLLLLLLLLL",
"LLLLLLLIUUUUPLLLLLLLLLLLLLLLLLLL",
"LLLLLLLLLLLLLLLLLLLLLLLLLLLLLLLL",
"LLLLLLLLLLLLLLLLLLLLLLLLLLLLLLLL"
};
