/* XPM */
static char *result[] = {
/* columns rows colors chars-per-pixel */
"32 32 106 2 ",
"   c #9DBB65",
".  c #A2BE66",
"X  c #C5BB7B",
"o  c #CCBE7F",
"O  c #A5C166",
"+  c #AAC567",
"@  c #ACC569",
"#  c #AEC869",
"$  c #B6C56E",
"%  c #B8C56F",
"&  c #B4CC6B",
"*  c #B8CF6D",
"=  c #BCD16E",
"-  c #AEC373",
";  c #ABC870",
":  c #AECD7B",
">  c #B6C271",
",  c #BDC274",
"<  c #B6C971",
"1  c #BAC976",
"2  c #BFC67C",
"3  c #B0CE7B",
"4  c #BFCA7A",
"5  c #BFD370",
"6  c #C4C17A",
"7  c #C0C97D",
"8  c #C1D371",
"9  c #626A8E",
"0  c #646C90",
"q  c #717DA0",
"w  c #5498AE",
"e  c #5C9EAE",
"r  c #5B9FB0",
"t  c #648BA7",
"y  c #648FAD",
"u  c #7380A1",
"i  c #629AB4",
"p  c #699CB2",
"a  c #7D9DB8",
"s  c #5EA1B1",
"d  c #66A6AF",
"f  c #62A5B2",
"g  c #66A8B4",
"h  c #6BACB5",
"j  c #6FB0B6",
"k  c #72B1B6",
"l  c #7EB9B6",
"z  c #75B4B8",
"x  c #78B7B9",
"c  c #7AB9B9",
"v  c #84A4B1",
"b  c #88AFB2",
"n  c #81BBB5",
"m  c #80BDBB",
"M  c #D3BE85",
"N  c #AAC987",
"B  c #A1CA8E",
"V  c #A9CA88",
"C  c #B4C683",
"Z  c #BDC186",
"A  c #AFD189",
"S  c #B0D38F",
"D  c #A1CE9E",
"F  c #BFC498",
"G  c #B7D792",
"H  c #9FD0A7",
"J  c #85C2BD",
"K  c #8AC5BD",
"L  c #8FCABF",
"P  c #90C1BD",
"I  c #95CDBE",
"U  c #99CDBD",
"Y  c #9DD3BE",
"T  c #A1CEA8",
"R  c #BEC6A4",
"E  c #A2D0A3",
"W  c #A1D2AB",
"Q  c #A0D2BE",
"!  c #ACDEBF",
"~  c #C7C684",
"^  c #C5CA81",
"/  c #C9C987",
"(  c #C2C188",
")  c #CCCA8B",
"_  c #D5C184",
"`  c #D3C78E",
"'  c #D3C98F",
"]  c #C5C39E",
"[  c #CAC39C",
"{  c #D6C791",
"}  c #D5CB93",
"|  c #D9CC96",
" . c #DDCC9B",
".. c #E3C69B",
"X. c #E3C99D",
"o. c #E6CEA4",
"O. c #E8CFA6",
"+. c #82B2C8",
"@. c #87BAC9",
"#. c #93CDC1",
"$. c #99CFC2",
"%. c #97D0C2",
"&. c #9BD4C3",
"*. c #A1D7C1",
"=. c #A5D9C1",
"-. c #A9DCC0",
/* pixels */
"8 5 & 5 @ @ @ & & * & * * * * * * * * & & & & & # + O @ & = = 8 ",
"5 & O @ # # & & & = = = * * = = = = * * = = = & & # + + O   & 5 ",
"& O @ & & & * & * * = * = = = = = = = = = = = = & & & & # +   * ",
"& O & & & = = 5 = 8 8 8 = = = = 5 5 = 5 = 8 8 = = = & & # +   & ",
". . + & & & 8 * # * & 8 8 8 8 8 5 = 8 8 8 8 8 = & * = = * # O O ",
"M $ & & , M M M X , o _ M _ _ _ _ _ _ M _ _ _ _ o % = = = & $ X ",
"o.6 & & ~ X.o.X...| X.o.X.X.X.X.X.X.X.............' 1 # & 4 { ..",
"O. .7 ~ X.O.O.O.O.O.O.O.O.O.O.O.O.O.O.O.O.O.O.O.O.O.} / / | O.O.",
"O.O. .o.O.O.O.O.O.O.O.O.O.O.O.O.O.O.O.O.O.O.O.O.O.O.O.O.O.O.O.O.",
"O.O.O.O.O.O.O.O.O.O.O.O.O.O.O.O.O.O.O.O.O.O.O.O.O.O.O.O.O.O.O.O.",
"O.O.O.O.O.O.O.O.O.O.O.O.O.O.O.O.O.O.O.O.O.O.O.O.O.O.O.O.O.O.O.O.",
"O.O.O.O.O.O.O.O.O.O.O.O.O.O.O.O.O.O.O.O.O.O.O.O.O.O.O.O.O.O.O.O.",
"O.O.O.O.O.O.O.O.O.O.O.O.O.O.O.O.O.O.O.O.O.O.O.O.O.O.O.O.O.O.O.O.",
"O.O.O.O.O.O.O.O.O.O.O.O.O.O.O.O.O.O.O.O.O.O.O.O.O.O.O.O.O.O.O.O.",
"O.O.O.O.O.O.O.O.O.O.O.O.O.O.O.O.O.O.O.O.O.O.O.O.O.O.| } } X.O.O.",
"O.O.O.O.O.} / | O.O.O.O.O.O.O.O.O.o.o.| o.O.O.O.o.| 1 # O ) O.O.",
"........} 1 & 1 { o.........X...X. .) & ) X.X.X...< * * < ` X.o.",
"F R R ( C A G : Z [ [ [ ] ] ] [ ] F V A N ] [ [ [ - : @ Z [ ] M ",
"&.&.&.D H &.&.E E Q *.$.*.$.$.$.&.Y &.Y Y Y Q &.U B H B T $.*.$.",
"&.&.&.&.&.&.&.&.%.#.#.$.v q b &.&.&.&.&.&.&.&.&.Y Y &.Y &.$.#.&.",
"&.&.&.&.K z h h g w p u 0 9 m *.%.&.&.&.&.&.&.&.&.&.&.&.m e z &.",
"&.#.x s w w w w w w i y t a +.@.i g j k m J I ! -.Q ! l w h $.&.",
"%.s w w w w w w w w w w w w w w w w w w w w s d k n n e e K &.%.",
"%.s w w w w w w w w w w w w w w w w w w w w w w w e w e s &.&.&.",
"&.%.c w w w w w w w w w w w w w w w w w w w w r f k h w e #.&.&.",
"&.&.&.%.#.z g w w w w r r s e f f h z #.j j #.%.&.&.%.k w x &.&.",
"&.&.&.&.&.&.&.%.s w x #.#.%.%.*.&.%.&.&.&.&.&.&.&.%.&.%.z f K &.",
"&.&.&.&.&.&.&.&.%.j z &.&.&.*.&.&.&.&.&.&.&.&.&.&.&.&.&.&.&.&.&.",
"=.-.-.-.=.&.&.&.&.&.&.&.&.&.&.&.&.&.&.&.&.&.&.&.&.&.&.*.=.-.-.=.",
"-.! -.! -.&.&.&.&.&.&.&.&.&.&.&.&.&.&.&.*.*.&.*.&.&.&.*.-.-.! -.",
"=.=.&.=.=.&.&.&.&.&.&.&.&.&.&.&.&.&.&.-.-.-.-.-.&.&.&.*.*.=.=.=.",
"&.&.&.&.&.&.&.&.&.&.&.&.&.&.&.&.&.&.*.-.-.-.-.-.*.&.&.&.&.&.&.&."
};
