/* XPM */
static char *result[] = {
/* columns rows colors chars-per-pixel */
"32 32 96 2 ",
"   c #637E7A",
".  c #9D725F",
"X  c #A1745F",
"o  c #AB7B5A",
"O  c #8E7062",
"+  c #907262",
"@  c #9D7260",
"#  c #9B7960",
"$  c #A37760",
"%  c #A47861",
"&  c #688177",
"*  c #6F8B77",
"=  c #66817A",
"-  c #69867A",
";  c #6D8A79",
":  c #738E77",
">  c #728D79",
",  c #6E957C",
"<  c #7D9777",
"1  c #73937B",
"2  c #7A957A",
"3  c #729A7E",
"4  c #7E9A7C",
"5  c #AF815E",
"6  c #B0815E",
"7  c #9E9F6C",
"8  c #819A77",
"9  c #819D7B",
"0  c #A48465",
"q  c #AA8365",
"w  c #B68962",
"e  c #BB8F66",
"r  c #A39668",
"t  c #A69F6A",
"y  c #BD9167",
"u  c #BE9368",
"i  c #94B562",
"p  c #9DBB64",
"a  c #8AA276",
"s  c #94AC74",
"d  c #9CB373",
"f  c #A6A06A",
"g  c #ADA769",
"h  c #A2AA6E",
"j  c #ABAC6D",
"k  c #BFA36D",
"l  c #A1BE66",
"z  c #ADB16F",
"x  c #A6BA6D",
"c  c #ABBC6F",
"v  c #B4B36E",
"b  c #A0B771",
"n  c #A6BD72",
"m  c #ACBF71",
"M  c #B5B670",
"N  c #B2BF71",
"B  c #C1966B",
"V  c #C39B6C",
"C  c #C0A36D",
"Z  c #A5C166",
"A  c #A9C467",
"S  c #A6C168",
"D  c #ACC669",
"F  c #AFC869",
"G  c #B2C56F",
"H  c #B4CC6B",
"J  c #B8CF6D",
"K  c #BCD16E",
"L  c #ADC272",
"P  c #B3C572",
"I  c #B4C871",
"U  c #BACE71",
"Y  c #BED370",
"T  c #C0D470",
"R  c #7B9E80",
"E  c #7DA483",
"W  c #82A685",
"Q  c #85AA86",
"!  c #88A987",
"~  c #8CAE89",
"^  c #8DB18A",
"/  c #92B58C",
"(  c #97BB8E",
")  c #98BC8E",
"_  c #99BC90",
"`  c #9EC291",
"'  c #A2C693",
"]  c #A5CB95",
"[  c #A9CE96",
"{  c #ABD097",
"}  c #AED499",
"|  c #B1D599",
" . c #B6D999",
".. c #BDDD9A",
"X. c #C0DF9A",
"o. c #C1E09A",
/* pixels */
"T Y J J D A D H J J J J J J U U U J J J J H H F D A Z A J J Y T ",
"T H S A F H H J H J H d =               d J J J J H D A l p H T ",
"J l F H H H H J G m 8 W ~ ( _ _ _ _ ^ ! 9 n U J J H H H F A p K ",
"H l H H H J U P < 4 ~ ` {  ..... . . .} ( 4 2 n K H H H F A p H ",
"Z p F H K K I 9 ^ ' } } }  .o.o. . ... .[ ( ~ 9 L Y K Y J F Z Z ",
"p Z H H K L a ^ { ...... ...o...|  . . .} { [ / a L Y Y K H A p ",
"p F H H U 9 ~ _ } o.o.o.o.....} }  .X... .|  ._ ~ 4 I J K H H Z ",
"Z H H Y P 4 ` { } | | ....| | } }  ...X...X...' / R L K Y J D Z ",
"A H K K > ^ [ | } } } } } } } } } } | }  .o...} [ ^ ; P T U D S ",
"A H K K > ^ ] [ } } } [ { } } } } } { ] { } } [ ] / - I T Y J A ",
"F H K K * ~ ) ) } } [ _ ` } } } } } ' ` ( [ { ` ( ! 2 I Y K H A ",
"F K K K * ^ ) ) ] ] ' _ ` ] ] { } { ' ` ` ] ] ` / 1 L T Y J J D ",
"F H K K a ! / ) _ ` ` ` ) ) ) ` ] ` ` ] ] ` ( ( ( R s J K H H D ",
"A H H K U 2 ^ ) _ ] ] ` ) ) ( ) ` ( ( ( ( ( ( ( ( ^ - I K H F Z ",
"H H J Y s 1 ~ ) ( ) ) ( ( ) ) ) ( ( ( ( ( ( ( ( ( E = I J H F F ",
"H H K T * , W ! / Q ~ ( ^ Q Q ^ ( ( ) ( ~ Q Q Q E R = I K H H D ",
"H K Y Y = , , R ^ 3 3 ) ^ 3 , E ( ( ( ( E R , , , , = L Y H H F ",
"H H J Y - , , , E 3 3 E E Q Q ^ ( ~ E E E E E R , , s J Y F H D ",
"H H J K d ; , , Q Q E , 3 E W E E E , , R E E R , - D Y J H H D ",
"H J H K K : - R E 4 E 3 , , , , , , 3 , , , , , , , I J Y J D S ",
"F J K Y Y n 1 , 3 , , , , , , , , , , , , , , , , d K K Y Y H Z ",
"F J K Y Y Y n * - , , , , , , , , , , , , , - ; b K Y T Y K F Z ",
"F H K Y T T Y L d ; - - & & & & = - - - - s n L K T Y Y K H A p ",
"D H H K T Y Y T Y L S d O # # @ . . O 7 S J Y Y K K Y Y J F F l ",
"A F H K Y K K T T T T v @ % o o % o $ g T T T T T T Y T K H F Z ",
"A H H K Y T T Y J T T g $ w w w e w % t U T T T T T T T K F A i ",
"Z F H K K T T T U P N t % e B e V B % t M P U T K T K T K F Z i ",
"Z A F H K T Y K P P z 0 B V B V V V B q j P P U K Y K T H F p p ",
"H l F H K K J K P P N M C C C V V C C v m P P T T K K K F A i F ",
"H l A F J H H H J G P N c c v C v M c m D H U J K J H H F A p H ",
"Y H Z Z A Z F F F H H c x x c c c x x x F H H F H H Z Z Z l F K ",
"Y Y H H Z l Z A A F F F F G H H H H G H H F F F Z A Z Z H H T T "
};
