/* XPM */
static char *_167ebe13e2d4210913c71785b7c2a61b5J8D8BlWC8HZFyG[] = {
/* columns rows colors chars-per-pixel */
"32 32 124 2 ",
"   c #9DBB65",
".  c #A2BE66",
"X  c #A4C166",
"o  c #AAC567",
"O  c #ACC569",
"+  c #AEC869",
"@  c #B6C56E",
"#  c #B4CC6B",
"$  c #B8CF6D",
"%  c #BCD16E",
"&  c #AEC473",
"*  c #ABC870",
"=  c #AECD79",
"-  c #B6C375",
";  c #B3CB71",
":  c #BAC976",
">  c #B5C37F",
",  c #BDC47C",
"<  c #B0CE7B",
"1  c #BFCA7A",
"2  c #BFD370",
"3  c #C0C97D",
"4  c #C0D370",
"5  c #C9BE85",
"6  c #C5BF89",
"7  c #CEBE88",
"8  c #D0BF8E",
"9  c #D2BF94",
"0  c #ACCE86",
"q  c #A1CB8E",
"w  c #A9C988",
"e  c #B3C580",
"r  c #BDC186",
"t  c #B3C885",
"y  c #AFD189",
"u  c #B3D48B",
"i  c #A1CE9D",
"p  c #BFC499",
"a  c #B8D891",
"s  c #9FD0A7",
"d  c #9DD3BE",
"f  c #A1CEA8",
"g  c #BEC6A5",
"h  c #A3D0A3",
"j  c #A2D2AB",
"k  c #A0D2BE",
"l  c #ACDEBF",
"z  c #C4C482",
"x  c #C5CA81",
"c  c #C9C987",
"v  c #C2C189",
"b  c #CCCA8B",
"n  c #D3C78E",
"m  c #D3C98F",
"M  c #CEC197",
"N  c #C5C39D",
"B  c #CBC39A",
"V  c #D3C593",
"C  c #D5CB93",
"Z  c #DBCA97",
"A  c #D8CC96",
"S  c #D9CC97",
"D  c #D0C498",
"F  c #D0C598",
"G  c #DFCA9A",
"H  c #DACC98",
"J  c #DCCD9A",
"K  c #DFCD9E",
"L  c #E2C498",
"P  c #E2C598",
"I  c #E3C599",
"U  c #E3C69A",
"Y  c #E3C69B",
"T  c #E3C79B",
"R  c #E4C79B",
"E  c #E3C79C",
"W  c #E4C79C",
"Q  c #E0C899",
"!  c #E1C89B",
"~  c #E4C89D",
"^  c #E4C99D",
"/  c #E4C89E",
"(  c #E5C99E",
")  c #E5C99F",
"_  c #E0CE9F",
"`  c #E1CE9F",
"'  c #C0C5A3",
"]  c #E5CAA0",
"[  c #E4CEA3",
"{  c #E5CFA3",
"}  c #E7CFA5",
"|  c #E8CFA6",
" . c #9BD3C0",
".. c #9DD3C0",
"X. c #9DD3C1",
"o. c #9FD2C0",
"O. c #9ED3C0",
"+. c #9ED3C1",
"@. c #9BD4C1",
"#. c #9BD4C2",
"$. c #9BD4C3",
"%. c #9CD4C1",
"&. c #9ED4C1",
"*. c #9CD4C3",
"=. c #9CD5C3",
"-. c #9DD5C3",
";. c #9ED6C2",
":. c #9FD6C2",
">. c #9BD4C3",
",. c #A1D5C0",
"<. c #A1D7C1",
"1. c #A3D6C0",
"2. c #A2D6C1",
"3. c #A0D7C2",
"4. c #A1D7C2",
"5. c #A2D7C2",
"6. c #A0D7C2",
"7. c #A3D8C1",
"8. c #A4D9C1",
"9. c #A5D9C1",
"0. c #A5DAC1",
"q. c #A6DAC0",
"w. c #A4D9C1",
"e. c #A9DCC0",
/* pixels */
"4 2 $ $ O O O # # # # $ $ $ $ $ $ $ # # # # # # O o X O # $ 4 4 ",
"2 # X O + # # $ $ % % % $ $ % % % % $ $ % $ $ # # # O O . . # 4 ",
"$ . O # # # # # $ % % % % % % % % % % % % % % $ # # # # + o   # ",
"# X # # # % % % % 4 4 % % % 2 % 2 % % % % 4 4 % % # # # # o   # ",
"o . o # # # 4 $ # $ # 4 4 4 4 4 2 2 4 4 4 4 4 4 # % % % # + X X ",
"9 - ; = , 8 D 8 z > 7 M M M M M M M D D F B B B 5 e 0 u u 0 > 6 ",
"] , # # z ( ( ( G Z ( ( ( ( ( ( ( W W W W W R L L m : # # 1 V L ",
"| J 3 x K | | | | | | | | | | | | | | | | | | | | } C c c H | | ",
"| | K ` | | | | | | | | | | | | | | | | | | | | | | | | | | | | ",
"| | | | | | | | | | | | | | | | | | | | | | | | | | | | | | | | ",
"| | | | | | | | | | | | | | | | | | | | | | | | | | | | | | | | ",
"| | | | | | | | | | | | | | | | | | | | | | | | | | | | | | | | ",
"| | | | | | | | | | | | | | | | | | | | | | | | | | | | | | | | ",
"| | | | | | | | | | | | | | | | | | | | | | | | | | | | | | | | ",
"| | | | | | | | | | | | | | | | | | | | | | | | | } A C C ` | | ",
"| | | | | A c A | | | | | | | | | | { A { | | | } A : O o b | | ",
"L L L L n : # : V L L L L L ( E W Q b ; b Q ( ( Q - $ % @ n ( ( ",
"g g ' v t u a = e N N N N N ' ' N p w u w N B B B & < * r B M M ",
"$.$.%.i j <.<.h h <.<.<.%.%.%.%.+.+.d d d +.+.d d q s q f k k k ",
"$.$.$.$.$.$.$.$.$.$.$.$.%.%.%.%.$.$.$.%.$.$.$.$.$. .$.d $.$.$.$.",
"$.$.$.$.$.$.$.$.$.$.$.$.$.$.$.$.$.$.$.$.$.$.$.%.%.%.%.%.$.$.$.$.",
"%.$.$.$.$.$.$.$.$.$.$.$.$.$.$.$.$.$.$.$.$.%.<.9.9.9.9.9.9.%.$.$.",
"%.$.$.$.$.$.$.$.$.$.$.$.$.$.$.$.$.$.$.$.$.%.9.l l l l l l <.$.$.",
"%.$.$.$.$.$.$.$.$.$.$.$.$.$.$.$.$.$.$.$.$.%.<.9.9.9.9.9.7.%.$.$.",
"$.$.$.$.$.$.$.$.$.$.$.%.%.<.%.%.$.$.$.$.$.$.$.$.$.$.$.$.$.$.$.$.",
"$.$.$.$.$.$.$.$.$.$.$.%.e.l l 7.$.$.$.$.$.$.$.$.$.$.$.$.$.$.$.$.",
"$.$.$.$.$.$.$.$.$.$.$.%.9.e.e.7.$.$.$.$.$.$.$.$.$.$.$.$.$.$.$.$.",
"%.%.%.%.%.$.$.$.$.$.$.%.%.%.%.%.$.$.$.$.$.$.$.$.$.$.$.$.%.%.%.%.",
"9.9.9.9.9.%.$.$.$.$.$.$.$.$.$.$.$.$.$.$.$.$.$.$.$.$.$.<.9.9.9.9.",
"l l l l e.%.$.$.$.$.$.$.$.$.$.$.$.$.%.%.%.%.%.%.%.$.%.9.l l l l ",
"7.7.7.7.<.%.$.$.$.$.$.$.$.$.$.$.$.$.%.9.e.e.e.9.%.$.$.%.7.7.7.7.",
"$.$.$.$.$.$.$.$.$.$.$.$.$.$.$.$.$.$.<.e.l l l e.%.$.$.$.$.$.$.$."
};
