/* XPM */
static char *result[] = {
/* columns rows colors chars-per-pixel */
"32 32 141 2 ",
"   c #2D1616",
".  c #301817",
"X  c #341C1A",
"o  c #3D241F",
"O  c #3C291F",
"+  c #3F2A20",
"@  c #422520",
"#  c #442C23",
"$  c #492A24",
"%  c #433223",
"&  c #55342B",
"*  c #59392E",
"=  c #563E2D",
"-  c #653E32",
";  c #5B421A",
":  c #614C13",
">  c #4E412A",
",  c #55402D",
"<  c #5F4131",
"1  c #574D30",
"2  c #6D4436",
"3  c #6F4A38",
"4  c #734F33",
"5  c #724739",
"6  c #734A3A",
"7  c #7F4F3F",
"8  c #6C673D",
"9  c #6D693D",
"0  c #716B3F",
"q  c #7B5241",
"w  c #746E41",
"e  c #7D7545",
"r  c #787744",
"t  c #947E14",
"y  c #855443",
"u  c #8B5945",
"i  c #935E4A",
"p  c #8E6249",
"a  c #95604B",
"s  c #9A634D",
"d  c #827F49",
"f  c #8A7F4C",
"g  c #9F6850",
"h  c #9B6F5F",
"j  c #8E7C50",
"k  c #A06750",
"l  c #A66D54",
"z  c #B36C58",
"x  c #AE7157",
"c  c #AE7358",
"v  c #B4745A",
"b  c #B7795C",
"n  c #BC7B5F",
"m  c #936E62",
"M  c #A17A6C",
"N  c #BF7F61",
"B  c #7C9A40",
"V  c #719B50",
"C  c #96850A",
"Z  c #A6930C",
"A  c #B29D10",
"S  c #9C8331",
"D  c #8FB83F",
"F  c #ACA52E",
"G  c #A5A034",
"H  c #B0A933",
"J  c #DEBB29",
"K  c #D2B323",
"L  c #BAC118",
"P  c #BEDE18",
"I  c #8DCB2D",
"U  c #D0C50E",
"Y  c #D3C41B",
"T  c #E1D603",
"R  c #E5D900",
"E  c #ECDF00",
"W  c #E1CB13",
"Q  c #D6E50F",
"!  c #CDE113",
"~  c #D1E411",
"^  c #EFE302",
"/  c #E2E90B",
"(  c #F6EA02",
")  c #F8EB01",
"_  c #FFF200",
"`  c #E5C327",
"'  c #EBC927",
"]  c #E6C82A",
"[  c #E8C92A",
"{  c #E3C331",
"}  c #8C814D",
"|  c #878D4D",
" . c #898F4F",
".. c #8A904F",
"X. c #8D9250",
"o. c #929754",
"O. c #989F57",
"+. c #939954",
"@. c #B1815D",
"#. c #8FAF46",
"$. c #83AB4C",
"%. c #9BA846",
"&. c #97A057",
"*. c #98A058",
"=. c #A3AE5E",
"-. c #858475",
";. c #BA8D63",
":. c #AD9260",
">. c #94B562",
",. c #9DBB64",
"<. c #A1BE65",
"1. c #ADBC64",
"2. c #B0BF66",
"3. c #C48263",
"4. c #CB8566",
"5. c #C78E67",
"6. c #CF8668",
"7. c #C78E68",
"8. c #CE8969",
"9. c #D18B6A",
"0. c #D39161",
"q. c #C58B71",
"w. c #DA9778",
"e. c #DA9B7D",
"r. c #A5C166",
"t. c #A9C467",
"y. c #A6C268",
"u. c #ACC669",
"i. c #AFC869",
"p. c #B0C267",
"a. c #B4C568",
"s. c #B4CC6B",
"d. c #B8CE6C",
"f. c #BCD26E",
"g. c #BFD470",
"h. c #EFD343",
"j. c #C0D470",
"k. c #848788",
"l. c #DEAE98",
"z. c #ECB093",
"x. c #F7C3AA",
/* pixels */
"j.g.f.d.u.u.i.s.s.d.s.d.d.d.d.f.d.d.d.s.d.d.s.i.i.u.r.t.d.d.g.g.",
"g.s.r.u.i.i.s.d.s.f.f.f.f.d.f.f.g.d.d.d.d.f.d.s.d.i.u.u.<.<.s.g.",
"d.<.u.s.s.d.s.d.d.d.f.d.d.f.f.f.g.d.d.g.f.f.g.d.d.s.s.i.i.y.,.d.",
"d.<.i.s.s.d.d.g.j.j.j.f.f.f.f.f.g.g.g.g.f.j.j.f.f.d.s.s.i.t.,.s.",
"r.,.i.i.d.g.g.g.j.j.j.j.j.j.j.j.g.d.j.g.f.j.j.j.j.g.f.f.d.i.r.r.",
",.t.i.s.g.g.j.g.j.j.j.j.j.j.j.j.g.g.j.j.j.j.j.j.j.g.g.g.f.s.t.<.",
"<.i.s.f.f.j.j.j.j.j.j.j.j.j.j.j.g.g.g.j.j.j.j.d.g.j.g.f.g.s.i.r.",
"r.s.s.j.j.j.j.f.d.j.2.o.o. . .o.i.g.j.d.o.X.X.X.X.t.g.g.g.d.u.r.",
"t.s.d.f.f.j.j.j.j.d.&.. . X X X O.d.a.1.+ X X X . ..j.j.j.f.u.r.",
"t.s.f.f.j.j.j.j.2., O   - b v z - % % = v q.l.m . ..j.j.j.f.s.t.",
"u.d.f.f.f.j.f.+.} 4 2 2 i 9.4.6.y 2 5 q 4.w.z.h   ..j.j.j.f.s.u.",
"i.d.f.f.f.j.s.> o n 4.4.6.9.9.9.9.8.8.8.8.8.8.u   ..j.j.j.f.s.u.",
"i.s.d.g.g.g.p.> o n 4.9.9.9.9.9.9.8.N b b N 8.u   ..j.j.f.s.i.i.",
"i.i.s.f.j.g.i.= o a l x n 9.9.9.9.4.g i a l 8.u   ..j.j.f.i.i.t.",
"s.s.d.g.f.g.d.> X 2 2 7 k 8.9.9.9.3.y 6 6 i 4.u   ..j.j.s.s.i.i.",
"s.d.f.g.f.g.d.= X - 5 7 k 9.9.9.9.8.3.N 3.4.9.u . ..j.j.f.s.s.i.",
"s.f.f.j.j.j.d.> X - 5 6 s 8.9.9.9.9.9.9.9.9.9.u . X.j.f.g.s.d.i.",
"i.s.f.f.j.j.a.1 O - 2 4 p 3.8.9.9.7.7.0.0.0.0.u   X.j.j.f.s.s.i.",
"s.s.d.f.j.j.f.1.O.# : L B j @.;.:.$.V Y W W W t   ..j.j.d.s.s.u.",
"s.d.d.f.j.f.j.j.1.O : ( ~ I #.D I %.k.G T R R C   X.j.d.f.d.i.<.",
"s.f.f.f.j.j.j.j.1.O : ) _ _ ~ Q ^ H -.F T R R C . ..j.f.j.f.s.r.",
"i.s.f.j.j.j.j.j.1.O : ) _ _ ! ! ^ T U T R R E C   ..j.j.j.f.i.r.",
"i.s.f.f.j.j.j.j.1.O ; ` ' ' [ [ A Z K J J J { S   ..j.j.f.s.r.,.",
"u.i.s.f.j.j.j.f.1.O & 3.3.3.4.4.* # c 4.4.l.x.M   | f.j.d.i.i.<.",
"r.s.s.f.j.f.f.j.1.O o 6 6 6 & @ +.=., $ 3 4 7 *   ..g.j.f.i.i.<.",
"t.s.s.f.j.j.j.f.i.w w f } } e 9 1.s.r 0 } } } d 9 =.j.j.d.i.t.,.",
"<.u.s.f.j.j.j.j.g.g.g.f.f.j.j.j.j.j.g.f.g.g.j.j.j.j.f.j.f.s.r.>.",
"t.t.i.s.f.j.f.j.g.g.g.g.f.j.f.j.j.j.g.g.g.g.j.f.d.j.f.g.s.t.,.<.",
"s.r.i.s.f.j.f.f.g.g.g.g.d.g.f.g.j.f.f.f.f.g.j.f.j.j.f.f.i.t.>.s.",
"s.,.t.i.s.i.i.s.d.g.g.f.s.d.d.g.d.d.d.d.s.f.f.f.f.d.s.i.i.r.>.s.",
"j.s.<.r.t.t.i.i.i.s.d.s.i.s.d.d.d.s.s.s.f.d.s.i.i.i.t.r.r.,.i.j.",
"j.f.s.s.r.<.r.r.y.i.i.i.i.i.s.s.s.s.i.i.i.i.i.u.t.t.r.r.s.d.j.j."
};
